<?xml version="1.0" standalone="no"?>
<!DOCTYPE svg PUBLIC "-//W3C//DTD SVG 1.1//EN" "http://www.w3.org/Graphics/SVG/1.1/DTD/svg11.dtd" >
<svg xmlns="http://www.w3.org/2000/svg" xmlns:xlink="http://www.w3.org/1999/xlink" version="1.1">
<metadata>
Created by FontForge 20170731 at Sat Jun  6 18:17:14 2015
 By Aleksey,,,
Copyright (c) 2008 by Radim Pesko. All rights reserved.
</metadata>
<defs>
<font id="Fugue-Regular" horiz-adv-x="340" >
  <font-face 
    font-family="Fugue"
    font-weight="400"
    font-stretch="normal"
    units-per-em="1000"
    panose-1="2 0 5 3 0 0 0 2 0 3"
    ascent="760"
    descent="-240"
    x-height="470"
    cap-height="730"
    bbox="-39 -240 1400 1152"
    underline-thickness="50"
    underline-position="-200"
    unicode-range="U+0020-FB04"
  />
<missing-glyph horiz-adv-x="230" 
 />
    <glyph glyph-name="ff" unicode="ff" horiz-adv-x="520" 
d="M520 660l-55 10q-45 0 -45 -50v-150h70v-90h-70v-380h-100v380h-140v-380h-100v380h-70v90h70v140q0 69 38.5 109.5t111.5 40.5l70 -10v-90l-75 10q-45 0 -45 -50v-150h140v140q0 69 38.5 109.5t111.5 40.5l50 -10v-90z" />
    <glyph glyph-name="fi" unicode="fi" horiz-adv-x="480" 
d="M10 380v90h70v140q0 69 38.5 109.5t111.5 40.5l60 -10v-90l-65 10q-45 0 -45 -50v-150h240v-470h-99v380h-141v-380h-100v380h-70zM320 640v100h100v-100h-100z" />
    <glyph glyph-name="fl" unicode="fl" horiz-adv-x="480" 
d="M10 380v90h70v140q0 69 38.5 109.5t111.5 40.5l60 -10v-90l-65 10q-45 0 -45 -50v-150h50v-90h-50v-380h-100v380h-70zM420 750v-660l10 -90h-100l-10 90v660h100z" />
    <glyph glyph-name="ffi" unicode="ffi" horiz-adv-x="720" 
d="M530 660l-65 10q-45 0 -45 -50v-150h240v-470h-100v380h-140v-380h-100v380h-140v-380h-100v380h-70v90h70v140q0 69 38.5 109.5t111.5 40.5l70 -10v-90l-75 10q-45 0 -45 -50v-150h140v140q0 69 38.5 109.5t111.5 40.5l60 -10v-90zM560 640v100h100v-100h-100z" />
    <glyph glyph-name="ffl" unicode="ffl" horiz-adv-x="720" 
d="M530 660l-65 10q-45 0 -45 -50v-150h50v-90h-50v-380h-100v380h-140v-380h-100v380h-70v90h70v140q0 69 38.5 109.5t111.5 40.5l70 -10v-90l-75 10q-45 0 -45 -50v-150h140v140q0 69 38.5 109.5t111.5 40.5l60 -10v-90zM660 750v-660l10 -90h-100l-10 90v660h100z" />
    <glyph glyph-name=".notdef" horiz-adv-x="230" 
 />
    <glyph glyph-name=".null" horiz-adv-x="0" 
 />
    <glyph glyph-name="nonmarkingreturn" horiz-adv-x="333" 
 />
    <glyph glyph-name="space" unicode=" " horiz-adv-x="240" 
 />
    <glyph glyph-name="exclam" unicode="!" horiz-adv-x="240" 
d="M110 170l-40 300l-10 260h120l-10 -260l-40 -300h-20zM60 0v120h120v-120h-120z" />
    <glyph glyph-name="quotedbl" unicode="&#x22;" 
d="M140 730v-260h-70v260h70zM270 730v-260h-71v260h71z" />
    <glyph glyph-name="numbersign" unicode="#" horiz-adv-x="720" 
d="M142 190h-112v70h134l65 210h-119v70h141l59 190h70v-20l-53 -170h174l59 190h70v-20l-53 -170h113v-70h-135l-65 -210h120v-70h-141l-59 -190h-70v20l52 170h-173l-59 -190h-70v20zM305 470l-65 -210h174l65 210h-174z" />
    <glyph glyph-name="dollar" unicode="$" horiz-adv-x="530" 
d="M308 -40h-86v44q-78 14 -125 74.5t-47 131.5h99q-2 -35 18.5 -65t54.5 -43v108h86v-111q35 9 53.5 35t18.5 61q0 70 -85 103q-57 22 -110 50q-65 34 -100 76t-35 111t46.5 123.5t125.5 67.5v44h86v-44q78 -15 125 -75t47 -131h-99q1 35 -19 65t-54 43v-108h-86v111
q-72 -20 -72 -96q0 -58 70 -96q44 -24 111 -51q149 -60 149 -193q0 -69 -46.5 -124t-125.5 -68v-43z" />
    <glyph glyph-name="percent" unicode="%" horiz-adv-x="680" 
d="M660 730l-560 -730h-80l560 730h80zM30 585q0 66 42.5 110.5t112.5 44.5t112.5 -44.5t42.5 -110.5t-42.5 -110.5t-112.5 -44.5t-112.5 44.5t-42.5 110.5zM100 585q0 -40 25 -64.5t60 -24.5t60 24.5t25 64.5t-25 64.5t-60 24.5t-60 -24.5t-25 -64.5zM340 145
q0 66 42.5 110.5t112.5 44.5t112.5 -44.5t42.5 -110.5t-42.5 -110.5t-112.5 -44.5t-112.5 44.5t-42.5 110.5zM410 145q0 -40 25 -64.5t60 -24.5t60 24.5t25 64.5t-25 64.5t-60 24.5t-60 -24.5t-25 -64.5z" />
    <glyph glyph-name="ampersand" unicode="&#x26;" horiz-adv-x="740" 
d="M310 740q76 0 128 -48t52 -122q0 -52 -34.5 -99.5t-90.5 -77.5l-1 -1l109 -114l57 92q33 53 72 76.5t98 23.5h30v-90h-30q-33 0 -52.5 -16t-37.5 -44l-73 -120l113 -200h-110l-60 107q-80 -117 -211 -117q-97 0 -158 57.5t-61 147.5q0 129 160 216l3 2q-83 92 -83 157
q0 74 52 122t128 48zM270 80q37 0 67.5 18.5t47 40t36.5 55.5l-144 152q-127 -68 -127 -151q0 -50 36.5 -82.5t83.5 -32.5zM230 565q0 -11 4.5 -23.5t15 -25.5t16.5 -20.5t20 -21.5l14 -14q90 49 90 105q0 36 -22.5 56.5t-57.5 20.5t-57.5 -20.5t-22.5 -56.5z" />
    <glyph glyph-name="quotesingle" unicode="'" 
d="M70 730h200v-260h-200v260z" />
    <glyph glyph-name="parenleft" unicode="(" 
d="M45 370q0 86 22.5 162.5t60.5 132.5t81 96.5t91 68.5l40 -60q-92 -50 -156 -155t-64 -245q0 -141 64 -245.5t156 -154.5l-40 -60q-48 28 -91 68.5t-81 96.5t-60.5 132.5t-22.5 162.5z" />
    <glyph glyph-name="parenright" unicode=")" 
d="M295 370q0 -86 -22.5 -162.5t-60.5 -132.5t-81 -96.5t-91 -68.5l-40 60q92 50 156 154.5t64 245.5q0 140 -64 245t-156 155l40 60q48 -28 91 -68.5t81 -96.5t60.5 -132.5t22.5 -162.5z" />
    <glyph glyph-name="asterisk" unicode="*" horiz-adv-x="450" 
d="M260 620l78 78l50 -50l-78 -78h110v-70h-160v-160h-70v110l-78 -78l-50 50l78 78h-110v70h160v160h70v-110z" />
    <glyph glyph-name="plus" unicode="+" horiz-adv-x="540" 
d="M310 50h-80v200h-200v80h200v200h80v-200h200v-80h-200v-200z" />
    <glyph glyph-name="comma" unicode="," horiz-adv-x="244" 
d="M214 110l-95 -210h-105v20l105 235z" />
    <glyph glyph-name="hyphen" unicode="-" horiz-adv-x="320" 
d="M30 340h260v-110h-260v110z" />
    <glyph glyph-name="period" unicode="." horiz-adv-x="180" 
d="M30 0v130h120v-130h-120z" />
    <glyph glyph-name="slash" unicode="/" horiz-adv-x="510" 
d="M510 760l-440 -800h-70l440 800h70z" />
    <glyph glyph-name="zero" unicode="0" horiz-adv-x="550" 
d="M525 365q0 -166 -66.5 -270.5t-183.5 -104.5q-118 0 -184 104.5t-66 270.5t66 270.5t184 104.5q117 0 183.5 -104.5t66.5 -270.5zM125 365q0 -130 37 -204.5t113 -74.5t113 74.5t37 204.5t-37 204.5t-113 74.5t-113 -74.5t-37 -204.5z" />
    <glyph glyph-name="one" unicode="1" horiz-adv-x="460" 
d="M50 530l140 200h120v-730h-100v600l-59 -90h-101v20z" />
    <glyph glyph-name="two" unicode="2" horiz-adv-x="550" 
d="M50 490v30q0 95 68.5 157.5t161.5 62.5q95 0 162.5 -59.5t67.5 -160.5q0 -42 -18.5 -81.5t-35 -59t-46.5 -49.5q-47 -47 -113 -97t-99 -79.5t-33 -54.5h335v-99h-460v50q0 47 32 94.5t71.5 80t101 82t95.5 83.5q43 43 55 65q15 29 15 65q0 57 -39 90t-91 33t-91.5 -33
t-39.5 -90v-30h-99z" />
    <glyph glyph-name="three" unicode="3" horiz-adv-x="550" 
d="M440 730l60 -99l-214 -173q98 -5 161 -70.5t63 -162.5q0 -91 -68 -163t-172 -72q-103 0 -171.5 66.5t-68.5 158.5h100q0 -56 40 -93t100 -37q59 0 99.5 41.5t40.5 98.5q0 66 -42.5 105.5t-107.5 39.5h-101v90l206 171h-305v99h380z" />
    <glyph glyph-name="four" unicode="4" horiz-adv-x="550" 
d="M20 190v95l300 445h130v-445h80v-95h-80v-190h-100v190h-330zM132 285h218v319q-145 -214 -218 -319z" />
    <glyph glyph-name="five" unicode="5" horiz-adv-x="580" 
d="M280 500q117 -2 188.5 -71t71.5 -184q0 -107 -77 -181t-183 -74q-108 0 -184 74t-76 176h100q0 -64 46 -107.5t114 -43.5q69 0 114.5 43t45.5 113q0 74 -43.5 116t-116.5 44q-53 2 -175 -5l-45 95l85 235h335v-99h-272l-55 -139q71 9 127 8z" />
    <glyph glyph-name="six" unicode="6" horiz-adv-x="550" 
d="M295 86q60 0 97.5 39.5t37.5 99.5q0 61 -38.5 100.5t-100.5 39.5q-59 0 -96 -39.5t-37 -100.5q0 -57 39 -98t98 -41zM40 365q1 74 16 139t45 119t82 85.5t119 31.5q91 0 152.5 -59t60.5 -151h-100q0 54 -33 84.5t-84 30.5q-47 0 -81.5 -28t-51 -72.5t-24 -88t-6.5 -85.5
q67 89 165 89q105 0 167.5 -68.5t62.5 -166.5q0 -95 -64 -165t-168 -70q-64 0 -117 29.5t-85 80.5q-58 91 -56 265z" />
    <glyph glyph-name="seven" unicode="7" horiz-adv-x="490" 
d="M480 730v-99q-15 -29 -41 -82.5t-93.5 -219t-120.5 -329.5h-100v20q99 287 248 611h-373v99h480z" />
    <glyph glyph-name="eight" unicode="8" horiz-adv-x="550" 
d="M50 540q0 82 67 141t158 59t158 -59t67 -141q0 -101 -91 -159q106 -57 106 -181q0 -88 -68 -149t-172 -61t-172 61t-68 149q0 124 105 181q-90 58 -90 159zM135 205q0 -52 40 -86t100 -34t100 34t40 86q0 56 -39.5 90.5t-100.5 34.5q-58 0 -99 -35t-41 -90zM150 535
q0 -44 34 -78t91 -34t91 34t34 78q0 48 -36 79t-89 31t-89 -31t-36 -79z" />
    <glyph glyph-name="nine" unicode="9" horiz-adv-x="550" 
d="M255 644q-60 0 -97.5 -39.5t-37.5 -99.5t40 -99.5t100 -39.5q59 0 95.5 39t36.5 100q0 57 -39 98t-98 41zM510 365q-1 -74 -16 -139t-45 -119t-82 -85.5t-119 -31.5q-91 0 -152.5 59t-60.5 151h100q0 -54 33 -84.5t84 -30.5q47 0 81.5 28t51 72.5t24 88t6.5 85.5
q-60 -89 -165 -89t-167.5 68.5t-62.5 166.5q0 95 65 165t170 70q70 0 127 -38.5t87 -102.5q43 -92 41 -234z" />
    <glyph glyph-name="colon" unicode=":" horiz-adv-x="240" 
d="M60 350v120h120v-120h-120zM60 40v120h120v-120h-120z" />
    <glyph glyph-name="semicolon" unicode=";" horiz-adv-x="274" 
d="M119 -100l104 230l-94 45l-115 -255v-20h105zM94 350v120h120v-120h-120z" />
    <glyph glyph-name="less" unicode="&#x3c;" horiz-adv-x="540" 
d="M40 330l460 180v-79l-368 -141l368 -140v-80l-460 180v80z" />
    <glyph glyph-name="equal" unicode="=" horiz-adv-x="540" 
d="M30 420h480v-80h-480v80zM30 240h480v-80h-480v80z" />
    <glyph glyph-name="greater" unicode="&#x3e;" horiz-adv-x="540" 
d="M40 510l460 -180v-80l-460 -180v80l367 140l-367 141v79z" />
    <glyph glyph-name="question" unicode="?" horiz-adv-x="481" 
d="M171 0v120h120v-120h-120zM131 500l-100 20q0 83 64.5 146.5t151.5 63.5q82 0 143 -59t61 -141q0 -46 -17.5 -85t-42 -62t-51.5 -48t-46 -45t-24.5 -52t11.5 -68h-100q-15 50 -8 89.5t25.5 64t45 48.5t50 43t40.5 48t17 62q0 49 -30.5 78.5t-79.5 29.5q-48 0 -79 -32
t-31 -81v-20z" />
    <glyph glyph-name="at" unicode="@" horiz-adv-x="920" 
d="M330 205q10 -125 115 -125q48 0 78 33t33 87q2 30 0 60q-3 56 -32.5 88t-78.5 32t-80 -33t-35 -92q-2 -26 0 -50zM580 70l-5 5l-5 -5q-46 -70 -136 -70q-81 0 -134 53.5t-60 151.5q-2 24 0 50q7 95 62 150t132 55q80 0 127 -60l19 50h60v-320q0 -25 16 -40t39 -15
q100 0 100 170q0 153 -90 249t-245 96q-156 0 -253 -100.5t-97 -259.5t97 -259.5t253 -100.5q70 0 110 26.5t39 68.5l65 -40q-7 -61 -67.5 -95.5t-146.5 -34.5q-187 0 -308.5 123.5t-121.5 311.5q0 186 124.5 310.5t305.5 124.5q180 0 297.5 -118.5t117.5 -301.5
q0 -106 -45.5 -175.5t-134.5 -69.5q-38 0 -69 18.5t-46 51.5z" />
    <glyph glyph-name="A" unicode="A" horiz-adv-x="650" 
d="M20 0l250 730h110l250 -730h-105l-65 190h-271l-64 -190h-105zM325 590l-102 -300h203z" />
    <glyph glyph-name="B" unicode="B" horiz-adv-x="630" 
d="M80 0v730h260q99 0 164.5 -55.5t65.5 -144.5q0 -49 -24 -90t-65 -66q99 -51 99 -169q0 -92 -65.5 -148.5t-164.5 -56.5h-270zM185 100h170q48 0 84 30t36 80q0 56 -35 83t-85 27h-170v-220zM185 420h160q50 0 85 26t35 79t-35 79t-85 26h-160v-210z" />
    <glyph glyph-name="C" unicode="C" horiz-adv-x="740" 
d="M40 364q0 162 107.5 274t267.5 112q84 0 161 -36.5t129 -103.5l-70 -70q-79 111 -215 111q-125 0 -199.5 -81t-74.5 -205t75.5 -205t203.5 -81q136 0 215 111l70 -70q-52 -67 -129 -103.5t-161 -36.5q-164 0 -272 111t-108 273z" />
    <glyph glyph-name="D" unicode="D" horiz-adv-x="660" 
d="M80 0v730h165q162 0 268.5 -102.5t106.5 -262.5t-106.5 -262.5t-268.5 -102.5h-165zM250 630h-65v-530h65q124 0 194.5 70.5t70.5 194.5t-70.5 194.5t-194.5 70.5z" />
    <glyph glyph-name="E" unicode="E" horiz-adv-x="570" 
d="M80 0v730h440v-100h-335v-210h325v-100h-325v-220h335v-100h-440z" />
    <glyph glyph-name="F" unicode="F" horiz-adv-x="550" 
d="M80 0v730h440v-100h-335v-210h305v-100h-305v-320h-105z" />
    <glyph glyph-name="G" unicode="G" horiz-adv-x="805" 
d="M711 611l-72 -72q-77 111 -224 111q-122 0 -195.5 -80t-73.5 -206q0 -125 73.5 -204.5t195.5 -79.5q110 0 185 64.5t82 165.5h-372v100h380l95 -95q-8 -137 -115 -236t-255 -99q-160 0 -267.5 111.5t-107.5 273.5q0 163 108 274t272 111q177 0 291 -139z" />
    <glyph glyph-name="H" unicode="H" horiz-adv-x="650" 
d="M465 420v310h105v-730h-105v320h-280v-320h-105v730h105v-310h280z" />
    <glyph glyph-name="I" unicode="I" horiz-adv-x="290" 
d="M75 0v100h17v530h-17v100h140v-100h-17v-530h17v-100h-140z" />
    <glyph glyph-name="J" unicode="J" horiz-adv-x="280" 
d="M50 -100l-20 10v90h20q20 0 32.5 11t12.5 29v690h105v-680q0 -68 -41 -109t-109 -41z" />
    <glyph glyph-name="K" unicode="K" horiz-adv-x="590" 
d="M455 730h125l-315 -359l325 -371h-134l-271 310v-310h-105v730h105v-300z" />
    <glyph glyph-name="L" unicode="L" horiz-adv-x="530" 
d="M80 0v730h105v-630h305v-100h-410z" />
    <glyph glyph-name="M" unicode="M" horiz-adv-x="900" 
d="M450 264l220 466h150v-730h-104v589l-206 -429h-120l-206 429v-589h-104v730h150z" />
    <glyph glyph-name="N" unicode="N" horiz-adv-x="690" 
d="M506 190v540h104v-730h-115l-311 550v-550h-104v730h115z" />
    <glyph glyph-name="O" unicode="O" horiz-adv-x="850" 
d="M40 365q0 160 112.5 272.5t272.5 112.5t272.5 -112.5t112.5 -272.5t-112.5 -272.5t-272.5 -112.5t-272.5 112.5t-112.5 272.5zM145 364q0 -124 78.5 -204t201.5 -80t201 80t78 204q0 125 -78 205.5t-201 80.5t-201.5 -80.5t-78.5 -205.5z" />
    <glyph glyph-name="P" unicode="P" horiz-adv-x="590" 
d="M80 0v730h265q98 0 161.5 -58.5t63.5 -151.5t-63.5 -151.5t-161.5 -58.5h-160v-310h-105zM185 410h165q48 0 81.5 28.5t33.5 81.5t-33.5 81.5t-81.5 28.5h-165v-220z" />
    <glyph glyph-name="Q" unicode="Q" horiz-adv-x="860" 
d="M40 365q0 161 112 273t273 112t273 -112t112 -273q0 -130 -76 -231l116 -114v-20h-118l-66 63q-105 -83 -241 -83q-161 0 -273 112t-112 273zM594 132l-154 148l70 75l151 -150q44 71 44 160q0 125 -78.5 205t-201.5 80q-124 0 -202.5 -80t-78.5 -205q0 -124 79 -204.5
t202 -80.5q97 0 169 52z" />
    <glyph glyph-name="R" unicode="R" horiz-adv-x="610" 
d="M333 320l247 -300v-20h-119l-256 320h-20v-320h-105v730h260q94 0 159.5 -55.5t65.5 -149.5q0 -91 -69 -148t-163 -57zM185 420h160q47 0 81 29t34 76t-34 76t-81 29h-160v-210z" />
    <glyph glyph-name="S" unicode="S" horiz-adv-x="590" 
d="M520 540h-110q0 45 -36.5 77.5t-88.5 32.5q-55 0 -87.5 -29.5t-32.5 -75.5q0 -85 115 -115q19 -5 80 -19q82 -20 131 -71.5t49 -139.5t-67 -153t-178 -65q-101 0 -177 66.5t-78 151.5l105 40q-1 -71 44.5 -114t105.5 -43q64 0 102 32t38 85q0 87 -115 110q-41 9 -80 21
q-80 24 -130 78t-50 141q0 86 65 142t160 56q98 0 166.5 -59.5t68.5 -148.5z" />
    <glyph glyph-name="T" unicode="T" horiz-adv-x="530" 
d="M318 630v-630h-106v630h-202v100h510v-100h-202z" />
    <glyph glyph-name="U" unicode="U" horiz-adv-x="655" 
d="M470 215v515h105v-730h-80l-15 40l-5 5l-5 -5q-22 -25 -72 -42.5t-93 -17.5q-104 0 -167 67t-63 173v510h105v-515q0 -58 37.5 -96.5t102.5 -38.5q63 0 106.5 39t43.5 96z" />
    <glyph glyph-name="V" unicode="V" horiz-adv-x="630" 
d="M20 730h106l189 -584l189 584h106l-240 -730h-110z" />
    <glyph glyph-name="W" unicode="W" horiz-adv-x="870" 
d="M380 580h111l134 -398l119 548h106l-160 -730h-105l-150 423l-150 -423h-105l-160 730h106l119 -549z" />
    <glyph glyph-name="X" unicode="X" horiz-adv-x="580" 
d="M20 730h115l154 -260l155 260h116l-213 -357l223 -373h-116l-164 276l-164 -276h-116l222 373z" />
    <glyph glyph-name="Y" unicode="Y" horiz-adv-x="550" 
d="M10 730h115l150 -261l149 261h116l-212 -370v-360h-106v360z" />
    <glyph glyph-name="Z" unicode="Z" horiz-adv-x="560" 
d="M50 630v100h480v-100l-383 -530h373v-100h-490v100l383 530h-363z" />
    <glyph glyph-name="bracketleft" unicode="[" horiz-adv-x="330" 
d="M120 -110v950l10 10h200v-60h-140v-850h140v-60h-200z" />
    <glyph glyph-name="backslash" unicode="\" horiz-adv-x="510" 
d="M440 -40l-440 800h70l440 -800h-70z" />
    <glyph glyph-name="bracketright" unicode="]" horiz-adv-x="330" 
d="M210 840v-950l-10 -10h-200v60h140v850h-140v60h200z" />
    <glyph glyph-name="asciicircum" unicode="^" horiz-adv-x="540" 
d="M310 730l180 -480h-80l-140 385l-141 -385h-79l180 480h80z" />
    <glyph glyph-name="underscore" unicode="_" horiz-adv-x="430" 
d="M0 0h430v-70h-430v70z" />
    <glyph glyph-name="grave" unicode="`" horiz-adv-x="330" 
d="M35 663l72 52l125 -190h-98z" />
    <glyph glyph-name="a" unicode="a" horiz-adv-x="570" 
d="M510 470v-470h-90l-10 40l-5 5l-5 -5q-50 -50 -130 -50q-100 0 -170 69t-70 176t70 176t170 69q80 0 130 -50l5 -5l5 5l10 40h90zM420 235q0 65 -41 110t-104 45q-69 0 -107.5 -44t-38.5 -111t38.5 -111t107.5 -44q63 0 104 45t41 110z" />
    <glyph glyph-name="b" unicode="b" horiz-adv-x="570" 
d="M60 0v760h99v-330l6 -5l5 5q50 50 130 50q100 0 170 -69t70 -176t-70 -176t-170 -69q-80 0 -130 50l-5 5l-6 -5l-9 -40h-90zM150 235q0 -65 41 -110t104 -45q69 0 107 44t38 111t-38 111t-107 44q-63 0 -104 -45t-41 -110z" />
    <glyph glyph-name="c" unicode="c" horiz-adv-x="490" 
d="M128 235q0 -67 39 -111t108 -44q43 0 76 24t46 56l78 -50q-31 -55 -83.5 -87.5t-121.5 -32.5q-97 0 -168.5 69.5t-71.5 175.5t71.5 175.5t168.5 69.5q69 0 121 -32.5t83 -87.5l-78 -50q-13 33 -46 56.5t-75 23.5q-69 0 -108 -44t-39 -111z" />
    <glyph glyph-name="d" unicode="d" horiz-adv-x="570" 
d="M510 760v-760h-90l-10 40l-5 5l-5 -5q-50 -50 -130 -50q-100 0 -170 69t-70 176t70 176t170 69q80 0 130 -50l5 -5l5 5v330h100zM420 235q0 65 -41 110t-104 45q-69 0 -107.5 -44t-38.5 -111t38.5 -111t107.5 -44q63 0 104 45t41 110z" />
    <glyph glyph-name="e" unicode="e" horiz-adv-x="505" 
d="M470 210h-340q0 -55 36.5 -92.5t98.5 -37.5q43 0 73.5 19.5t42.5 50.5l84 -40q-69 -120 -205 -120q-96 0 -163 69t-67 176q0 108 65.5 176.5t164.5 68.5q92 0 156 -67t64 -173zM260 390q-98 0 -125 -92h240q-4 39 -37 65.5t-78 26.5z" />
    <glyph glyph-name="f" unicode="f" horiz-adv-x="310" 
d="M20 380v90h80v140q0 69 38.5 109.5t111.5 40.5l50 -10v-90l-55 10q-45 0 -45 -50v-150h100v-90h-100v-380h-100v380h-80z" />
    <glyph glyph-name="g" unicode="g" horiz-adv-x="485" 
d="M30 -31q0 98 90 146q-90 53 -90 160q0 86 59.5 145.5t145.5 59.5q34 0 67 -14t48 -36l5 -5l5 5l10 40h70v-195q0 -107 -90 -160q90 -47 90 -146q0 -81 -61 -129.5t-144 -48.5t-144 48.5t-61 129.5zM125 275q0 -49 31 -82t79 -33t79 33t31 82t-31 82t-79 33t-79 -33
t-31 -82zM125 -30q0 -41 30.5 -67t79.5 -26t79.5 26t30.5 67t-30.5 68t-79.5 27t-79.5 -27t-30.5 -68z" />
    <glyph glyph-name="h" unicode="h" horiz-adv-x="520" 
d="M60 0v760h100v-330l5 -5l5 5q15 22 47 36t63 14q88 0 139 -53t51 -137v-290h-100v290q-5 100 -100 100q-44 0 -76 -31t-34 -75v-284h-100z" />
    <glyph glyph-name="i" unicode="i" horiz-adv-x="220" 
d="M61 0v470h98v-470h-98zM60 560v110h100v-110h-100z" />
    <glyph glyph-name="j" unicode="j" horiz-adv-x="229" 
d="M25 -132l-55 10v-90l50 -10q73 0 111 40t38 110v542h-99v-552q0 -50 -45 -50zM70 560v110h99v-110h-99z" />
    <glyph glyph-name="k" unicode="k" horiz-adv-x="480" 
d="M160 280l190 190h130l-226 -226l236 -244h-130l-200 200v-200h-100v760h100v-480z" />
    <glyph glyph-name="l" unicode="l" horiz-adv-x="220" 
d="M160 760v-670l10 -90h-100l-10 90v670h100z" />
    <glyph glyph-name="m" unicode="m" horiz-adv-x="790" 
d="M430 400l25 30q18 22 51 36t64 14q81 0 125.5 -46.5t44.5 -123.5v-310h-100v300q0 90 -80 90q-44 0 -76 -31t-34 -75v-284h-100v300q0 90 -80 90q-44 0 -76 -31t-34 -75v-284h-100v470h90l10 -40l5 -5l5 5q15 22 47 36t63 14q108 0 150 -80z" />
    <glyph glyph-name="n" unicode="n" horiz-adv-x="520" 
d="M60 0v470h90l10 -40l5 -5l5 5q15 22 47 36t63 14q88 0 139 -53t51 -137v-290h-100v290q-5 100 -100 100q-44 0 -76 -31t-34 -75v-284h-100z" />
    <glyph glyph-name="o" unicode="o" horiz-adv-x="550" 
d="M30 235q0 106 72.5 175.5t172.5 69.5t172.5 -69.5t72.5 -175.5t-72.5 -175.5t-172.5 -69.5t-172.5 69.5t-72.5 175.5zM130 235q0 -67 38 -111t107 -44t107 44t38 111t-38 111t-107 44t-107 -44t-38 -111z" />
    <glyph glyph-name="p" unicode="p" horiz-adv-x="570" 
d="M60 -212v682h90l9 -40l6 -5l5 5q50 50 130 50q100 0 170 -69t70 -176t-70 -176t-170 -69q-80 0 -130 50l-5 5l-6 -5v-252h-99zM150 235q0 -65 41 -110t104 -45q69 0 107 44t38 111t-38 111t-107 44q-63 0 -104 -45t-41 -110z" />
    <glyph glyph-name="q" unicode="q" horiz-adv-x="570" 
d="M510 470v-682h-99v252l-6 5l-5 -5q-50 -50 -130 -50q-100 0 -170 69t-70 176t70 176t170 69q80 0 130 -50l5 -5l6 5l9 40h90zM420 235q0 65 -41 110t-104 45q-69 0 -107 -44t-38 -111t38 -111t107 -44q63 0 104 45t41 110z" />
    <glyph glyph-name="r" unicode="r" 
d="M60 0v470h90l10 -50l5 -5l5 5q45 60 110 60q30 0 50 -10v-90h-60q-44 0 -76 -31t-34 -75v-274h-100z" />
    <glyph glyph-name="s" unicode="s" horiz-adv-x="405" 
d="M205 -10q-71 0 -120.5 38t-64.5 102l90 35q4 -38 31 -62.5t64 -24.5q36 0 55.5 16.5t19.5 40.5q0 41 -60 51q-20 4 -50 11q-62 16 -98.5 52.5t-36.5 90.5q0 64 50 102t115 38t114 -39t56 -101h-100q0 22 -20 37t-50 15t-50 -15t-20 -37q0 -42 60 -54l50 -10
q62 -14 98.5 -49t36.5 -92q0 -60 -49.5 -102.5t-120.5 -42.5z" />
    <glyph glyph-name="t" unicode="t" 
d="M10 380v90h91v100l79 100h19v-200h101v-90h-101v-240q0 -22 14 -36t37 -14l60 10v-90l-55 -10q-75 0 -114.5 36t-39.5 104v240h-91z" />
    <glyph glyph-name="u" unicode="u" horiz-adv-x="520" 
d="M460 470v-470h-90l-10 40l-5 5l-5 -5q-15 -22 -47 -36t-63 -14q-88 0 -139 53t-51 137v290h100v-290q3 -100 100 -100q43 0 75.5 30.5t34.5 74.5v285h100z" />
    <glyph glyph-name="v" unicode="v" horiz-adv-x="450" 
d="M225 134l115 336h100l-170 -470h-90l-170 470h100z" />
    <glyph glyph-name="w" unicode="w" horiz-adv-x="660" 
d="M190 135l90 265h100l90 -265l81 335h99l-130 -470h-95l-95 271l-95 -271h-95l-130 470h99z" />
    <glyph glyph-name="x" unicode="x" horiz-adv-x="430" 
d="M215 326l95 144h110l-150 -228l160 -242h-110l-105 159l-105 -159h-110l160 242l-150 228h110z" />
    <glyph glyph-name="y" unicode="y" horiz-adv-x="430" 
d="M215 188l105 282h100l-250 -670h-100l98 262l-158 408h101z" />
    <glyph glyph-name="z" unicode="z" horiz-adv-x="460" 
d="M45 380v90h375v-90l-268 -290h263v-90h-375v90l265 290h-260z" />
    <glyph glyph-name="braceleft" unicode="{" 
d="M40 340v70q120 -15 120 110v180q0 60 35 95t95 35l50 -10v-60h-50q-60 0 -60 -60v-190q0 -110 -100 -135q100 -25 100 -135v-190q0 -60 60 -60h50v-60l-50 -10q-60 0 -95 35t-35 95v180q0 125 -120 110z" />
    <glyph glyph-name="bar" unicode="|" horiz-adv-x="230" 
d="M150 770v-870h-70v870h70z" />
    <glyph glyph-name="braceright" unicode="}" 
d="M300 410v-70q-120 15 -120 -110v-180q0 -60 -35 -95t-95 -35l-50 10v60h50q60 0 60 60v190q0 110 100 135q-100 25 -100 135v190q0 60 -60 60h-50v60l50 10q60 0 95 -35t35 -95v-180q0 -125 120 -110z" />
    <glyph glyph-name="asciitilde" unicode="~" horiz-adv-x="540" 
d="M360 270q-27 0 -83 -25t-102 -25q-62 0 -97 35t-28 100h90q-4 -21 8.5 -33t31.5 -12q28 0 87 25t98 25q62 0 97 -35t28 -100h-90q4 21 -8.5 33t-31.5 12z" />
    <glyph glyph-name="uni00A0" unicode="&#xa0;" horiz-adv-x="240" 
 />
    <glyph glyph-name="exclamdown" unicode="&#xa1;" horiz-adv-x="240" 
d="M70 260l40 300h20l40 -300l10 -260h-120zM60 610v120h120v-120h-120z" />
    <glyph glyph-name="cent" unicode="&#xa2;" horiz-adv-x="530" 
d="M242 605v165h87v-164q61 -11 106.5 -52t64.5 -104h-95q-24 48 -76 62v-304q51 12 76 62h95q-19 -63 -64.5 -104t-106.5 -52v-154h-87v153q-84 16 -135.5 84.5t-51.5 162.5q0 91 53.5 160t133.5 85zM155 360q0 -125 87 -151v302q-87 -26 -87 -151z" />
    <glyph glyph-name="sterling" unicode="&#xa3;" horiz-adv-x="530" 
d="M229 276l-113 -101l-56 65l111 99l-1 1q-54 49 -82 93t-28 102q0 76 58.5 135.5t151.5 59.5q96 0 153 -60t57 -140h-100q0 42 -31 72t-79 30q-50 0 -77.5 -28.5t-27.5 -68.5q0 -65 65 -120q8 -8 13 -11l107 96l56 -65l-101 -90q45 -52 45 -105q0 -85 -70 -141h230v-99
h-450v99h60q56 0 93 32.5t37 78.5q0 34 -21 66z" />
    <glyph glyph-name="currency" unicode="&#xa4;" horiz-adv-x="540" 
d="M120 290q0 -62 44 -106t106 -44t106 44t44 106t-44 106t-106 44t-106 -44t-44 -106zM50 290q0 69 39 125l-45 45l56 56l45 -45q57 39 125 39q66 0 125 -39l45 45l56 -56l-45 -45q39 -59 39 -125q0 -68 -39 -125l45 -45l-56 -56l-45 45q-56 -39 -125 -39q-70 0 -125 39
l-45 -45l-56 56l45 45q-39 55 -39 125z" />
    <glyph glyph-name="yen" unicode="&#xa5;" horiz-adv-x="610" 
d="M89 336l-39 84l114 49l-114 261h109l146 -359l145 359h110l-114 -261l114 -49l-39 -84l-112 47l-54 -123h165v-90h-165v-170h-100v170h-165v90h165l-54 123z" />
    <glyph glyph-name="brokenbar" unicode="&#xa6;" horiz-adv-x="230" 
d="M150 770v-300h-70v300h70zM150 200v-300h-70v300h70z" />
    <glyph glyph-name="section" unicode="&#xa7;" horiz-adv-x="540" 
d="M50 289q0 39 26.5 72t73.5 50q-75 54 -75 144q0 76 54.5 125.5t140.5 49.5t140.5 -53.5t54.5 -136.5h-100q0 45 -27.5 70.5t-72.5 25.5q-40 0 -65 -23t-25 -58q0 -57 60 -86q55 -26 135 -56q120 -46 120 -148q0 -39 -27 -72.5t-74 -49.5q76 -55 76 -144
q0 -75 -54.5 -124.5t-140.5 -49.5q-87 0 -141 53t-54 136h100q0 -45 27.5 -70.5t72.5 -25.5q40 0 65 23t25 58q0 57 -60 86q-55 26 -135 56q-120 46 -120 148zM395 250q0 52 -60 75q-49 18 -106 44q-42 0 -63 -18.5t-21 -46.5q0 -52 60 -75q20 -8 105 -44q43 0 64 18.5
t21 46.5z" />
    <glyph glyph-name="dieresis" unicode="&#xa8;" horiz-adv-x="330" 
d="M30 555v110h99v-110h-99zM200 555v110h100v-110h-100z" />
    <glyph glyph-name="copyright" unicode="&#xa9;" horiz-adv-x="850" 
d="M60 365q0 152 108.5 258.5t256.5 106.5t256.5 -106.5t108.5 -258.5t-109 -258.5t-256 -106.5q-148 0 -256.5 106.5t-108.5 258.5zM127 365q0 -128 86.5 -213.5t211.5 -85.5t211.5 85.5t86.5 213.5t-86 213.5t-212 85.5t-212 -85.5t-86 -213.5zM433 143q-92 0 -149 63
t-57 159t57 159t149 63q119 0 176 -105l-69 -41q-10 30 -38 50t-65 20q-64 0 -97 -40.5t-33 -105.5t33 -105.5t97 -40.5q37 0 65 20t38 50l69 -41q-57 -105 -176 -105z" />
    <glyph glyph-name="ordfeminine" unicode="&#xaa;" horiz-adv-x="440" 
d="M400 730v-365h-68l-8 31l-4 3l-3 -3q-39 -39 -103 -39q-76 0 -130 53.5t-54 136.5t54 137t130 54q64 0 103 -39l3 -4l4 4l8 31h68zM332 547q0 50 -33 86.5t-80 36.5q-52 0 -83 -36t-31 -87t31 -86.5t83 -35.5q47 0 80 36.5t33 85.5z" />
    <glyph glyph-name="guillemotleft" unicode="&#xab;" horiz-adv-x="410" 
d="M180 295l190 235v-115l-95 -120l95 -120v-115zM210 60l-190 235l190 235v-115l-95 -120l95 -120v-115z" />
    <glyph glyph-name="logicalnot" unicode="&#xac;" horiz-adv-x="540" 
d="M430 160v230h-400v80h480v-310h-80z" />
    <glyph glyph-name="uni00AD" unicode="&#xad;" horiz-adv-x="320" 
d="M30 340h260v-110h-260v110z" />
    <glyph glyph-name="registered" unicode="&#xae;" horiz-adv-x="850" 
d="M60 365q0 152 108.5 258.5t256.5 106.5t256.5 -106.5t108.5 -258.5t-109 -258.5t-256 -106.5q-148 0 -256.5 106.5t-108.5 258.5zM127 365q0 -128 86.5 -213.5t211.5 -85.5t211.5 85.5t86.5 213.5t-86 213.5t-212 85.5t-212 -85.5t-86 -213.5zM286 153v433h173
q62 0 104 -37t42 -96q0 -56 -42 -92t-102 -40l135 -149l-14 -19h-70l-146 168h-3v-168h-77zM363 392h93q31 0 51 15.5t20 45.5q0 31 -20 46t-51 15h-93v-122z" />
    <glyph glyph-name="macron" unicode="&#xaf;" horiz-adv-x="330" 
d="M30 545v75h270v-75h-270z" />
    <glyph glyph-name="degree" unicode="&#xb0;" horiz-adv-x="360" 
d="M30 580q0 64 43.5 107t106.5 43t106.5 -43t43.5 -107t-43.5 -107t-106.5 -43t-106.5 43t-43.5 107zM100 580q0 -34 23 -57t57 -23t57 23t23 57t-23 57t-57 23t-57 -23t-23 -57z" />
    <glyph glyph-name="plusminus" unicode="&#xb1;" horiz-adv-x="540" 
d="M310 190h-80v200h-200v80h200v200h80v-200h200v-80h-200v-200zM510 0h-480v80h480v-80z" />
    <glyph glyph-name="twosuperior" unicode="&#xb2;" 
d="M47 785v10q0 57 35.5 88.5t84.5 31.5q53 0 86.5 -31.5t33.5 -83.5q0 -51 -54 -100q-15 -15 -42.5 -34t-43 -32t-15.5 -24h160v-65h-245v40q1 32 21 56.5t57.5 52t51.5 41.5q40 40 40 65q0 22 -13.5 36t-36.5 14t-36.5 -14t-13.5 -36v-15h-70z" />
    <glyph glyph-name="threesuperior" unicode="&#xb3;" 
d="M295 910v-65l-100 -66q47 -5 76 -36t29 -78q0 -50 -37.5 -87.5t-93.5 -37.5q-57 0 -93 36.5t-36 83.5h70q0 -23 17 -39t42 -16q27 0 44 16t17 39q0 27 -18 43.5t-48 16.5h-64v55l92 70h-142v65h245z" />
    <glyph glyph-name="acute" unicode="&#xb4;" horiz-adv-x="330" 
d="M230 715l72 -52l-99 -138h-98z" />
    <glyph glyph-name="mu" unicode="&#xb5;" horiz-adv-x="520" 
d="M149 10v-222h-99v682h100v-280q0 -110 100 -110q45 0 77.5 32.5t32.5 77.5v280h100v-470h-90l-10 40l-5 5l-5 -5q-15 -22 -47 -36t-63 -14q-51 0 -91 20z" />
    <glyph glyph-name="paragraph" unicode="&#xb6;" horiz-adv-x="420" 
d="M270 730h70v-895h-70v895zM0 580q0 68 41 109t109 41h70v-895h-70v595q-68 0 -109 41t-41 109z" />
    <glyph glyph-name="periodcentered" unicode="&#xb7;" horiz-adv-x="180" 
d="M30 230v130h120v-130h-120z" />
    <glyph glyph-name="cedilla" unicode="&#xb8;" horiz-adv-x="330" 
d="M58 -181l41 69q24 -23 56 -23q35 0 35 25t-35 25h-23v100h74v-38q27 -4 49 -27.5t22 -59.5q0 -47 -34.5 -76t-89.5 -29q-53 0 -95 34z" />
    <glyph glyph-name="onesuperior" unicode="&#xb9;" 
d="M46 790l85 120h95v-365h-68v295l-41 -60h-71v10z" />
    <glyph glyph-name="ordmasculine" unicode="&#xba;" horiz-adv-x="440" 
d="M30 547q0 84 57.5 137.5t132.5 53.5t132.5 -53.5t57.5 -137.5t-57.5 -137t-132.5 -53t-132.5 53t-57.5 137zM105 547q0 -51 31 -86.5t84 -35.5t84 35.5t31 86.5t-31 87t-84 36t-84 -36t-31 -87z" />
    <glyph glyph-name="guillemotright" unicode="&#xbb;" horiz-adv-x="410" 
d="M39 530l190 -235l-190 -235v115l95 120l-95 120v115zM390 295l-190 -235v115l95 120l-95 120v115z" />
    <glyph glyph-name="onequarter" unicode="&#xbc;" horiz-adv-x="580" 
d="M310 240v10q0 57 35.5 88.5t84.5 31.5q53 0 86.5 -31.5t33.5 -83.5q0 -51 -54 -100q-15 -15 -42.5 -34t-43 -32t-15.5 -24h157v-65h-242v40q1 32 21 56.5t57.5 52t51.5 41.5q40 40 40 65q0 23 -14 36.5t-36 13.5t-36 -13.5t-14 -36.5v-15h-70zM20 610l85 120h95v-365h-68
v295l-41 -60h-71v10zM500 550l-341 -370h-69l340 370h70z" />
    <glyph glyph-name="onehalf" unicode="&#xbd;" horiz-adv-x="580" 
d="M230 95v65l190 205h80v-205h40v-65h-40v-95h-70v95h-200zM20 610l85 120h95v-365h-68v295l-41 -60h-71v10zM500 550l-341 -370h-69l340 370h70zM315 160h115v126z" />
    <glyph glyph-name="threequarters" unicode="&#xbe;" horiz-adv-x="580" 
d="M230 160l190 205h80v-205h40v-65h-40v-95h-70v95h-200v65zM275 730v-65l-100 -66q47 -5 76 -36t29 -78q0 -50 -37.5 -87.5t-93.5 -37.5q-57 0 -93 36.5t-36 83.5h70q0 -23 17 -39t42 -16q27 0 44 16t17 39q0 27 -18 43.5t-48 16.5h-64v55l92 70h-142v65h245zM500 550
l-341 -370h-69l340 370h70zM315 160h115v126z" />
    <glyph glyph-name="questiondown" unicode="&#xbf;" horiz-adv-x="480" 
d="M310 730v-120h-120v120h120zM450 210l-100 20v-20q0 -49 -31 -81t-79 -32q-49 0 -79.5 29.5t-30.5 78.5q0 33 17 62t40.5 48t50 43t45 48.5t25.5 64t-8 89.5h-100q17 -36 11.5 -68t-24.5 -52t-46 -45t-51.5 -48t-42 -62t-17.5 -85q0 -82 61 -141t143 -59q87 0 151.5 63.5
t64.5 146.5z" />
    <glyph glyph-name="Agrave" unicode="&#xc0;" horiz-adv-x="650" 
d="M20 0l250 730h110l250 -730h-105l-65 190h-271l-64 -190h-105zM325 590l-102 -300h203zM170 887l67 63l144 -165h-115z" />
    <glyph glyph-name="Aacute" unicode="&#xc1;" horiz-adv-x="650" 
d="M270 730l-250 -730h105l64 190h271l65 -190h105l-250 730h-110zM223 290l102 300l101 -300h-203zM421 950l67 -63l-96 -102h-115z" />
    <glyph glyph-name="Acircumflex" unicode="&#xc2;" horiz-adv-x="650" 
d="M20 0l250 730h110l250 -730h-105l-65 190h-271l-64 -190h-105zM325 590l-102 -300h203zM369 947l104 -98l-63 -64l-85 82l-85 -82l-63 64l104 98h88z" />
    <glyph glyph-name="Atilde" unicode="&#xc3;" horiz-adv-x="650" 
d="M270 730l-250 -730h105l64 190h271l65 -190h105l-250 730h-110zM223 290l102 300l101 -300h-203zM394 921q50 0 76.5 -33.5t20.5 -92.5h-82q6 39 -21 39q-9 0 -49 -19.5t-71 -19.5q-46 0 -71 27.5t-21 77.5l83 22q-5 -39 22 -39q13 0 49 19t64 19z" />
    <glyph glyph-name="Adieresis" unicode="&#xc4;" horiz-adv-x="650" 
d="M270 730l-250 -730h105l64 190h271l65 -190h105l-250 730h-110zM223 290l102 300l101 -300h-203zM185 797v110h109v-110h-109zM355 797v110h110v-110h-110z" />
    <glyph glyph-name="Aring" unicode="&#xc5;" horiz-adv-x="650" 
d="M20 0l250 730h110l250 -730h-105l-65 190h-271l-64 -190h-105zM325 590l-102 -300h203zM214 872q0 47 32.5 78t78.5 31t78.5 -31t32.5 -78t-32.5 -78t-78.5 -31t-78.5 31t-32.5 78zM282 872q0 -19 12 -31t31 -12t31 12t12 31t-12 31t-31 12t-31 -12t-12 -31z" />
    <glyph glyph-name="AE" unicode="&#xc6;" horiz-adv-x="800" 
d="M20 0l220 730h510v-100h-370l63 -210h297v-100h-267l67 -220h210v-100h-285l-59 200h-223l-58 -200h-105zM295 580l-82 -280h164z" />
    <glyph glyph-name="Ccedilla" unicode="&#xc7;" horiz-adv-x="740" 
d="M303 -196l41 69q24 -23 56 -23q35 0 35 25t-35 25h-23v83q-148 15 -242.5 122.5t-94.5 258.5q0 162 107.5 274t267.5 112q84 0 161 -36.5t129 -103.5l-70 -70q-79 111 -215 111q-125 0 -199.5 -81t-74.5 -205t75.5 -205t203.5 -81q136 0 215 111l70 -70
q-47 -61 -115 -96.5t-144 -41.5v-20q27 -4 49 -27.5t22 -59.5q0 -47 -34.5 -76t-89.5 -29q-53 0 -95 34z" />
    <glyph glyph-name="Egrave" unicode="&#xc8;" horiz-adv-x="570" 
d="M80 0v730h440v-100h-335v-210h325v-100h-325v-220h335v-100h-440zM148 887l67 63l144 -165h-115z" />
    <glyph glyph-name="Eacute" unicode="&#xc9;" horiz-adv-x="570" 
d="M80 730v-730h440v100h-335v220h325v100h-325v210h335v100h-440zM384 950l67 -63l-96 -102h-115z" />
    <glyph glyph-name="Ecircumflex" unicode="&#xca;" horiz-adv-x="570" 
d="M80 0v730h440v-100h-335v-210h325v-100h-325v-220h335v-100h-440zM350 947l104 -98l-63 -64l-85 82l-85 -82l-63 64l104 98h88z" />
    <glyph glyph-name="Edieresis" unicode="&#xcb;" horiz-adv-x="570" 
d="M80 730v-730h440v100h-335v220h325v100h-325v210h335v100h-440zM160 797v110h109v-110h-109zM330 797v110h110v-110h-110z" />
    <glyph glyph-name="Igrave" unicode="&#xcc;" horiz-adv-x="290" 
d="M75 0v100h17v530h-17v100h140v-100h-17v-530h17v-100h-140zM-8 887l67 63l144 -165h-115z" />
    <glyph glyph-name="Iacute" unicode="&#xcd;" horiz-adv-x="290" 
d="M75 100v-100h140v100h-17v530h17v100h-140v-100h17v-530h-17zM231 950l67 -63l-96 -102h-115z" />
    <glyph glyph-name="Icircumflex" unicode="&#xce;" horiz-adv-x="290" 
d="M75 0v100h17v530h-17v100h140v-100h-17v-530h17v-100h-140zM189 947l104 -98l-63 -64l-85 82l-85 -82l-63 64l104 98h88z" />
    <glyph glyph-name="Idieresis" unicode="&#xcf;" horiz-adv-x="290" 
d="M75 100v-100h140v100h-17v530h17v100h-140v-100h17v-530h-17zM5 797v110h109v-110h-109zM175 797v110h110v-110h-110z" />
    <glyph glyph-name="Eth" unicode="&#xd0;" horiz-adv-x="660" 
d="M10 320v90h90v320h145q162 0 268.5 -102.5t106.5 -262.5t-106.5 -262.5t-268.5 -102.5h-145v320h-90zM250 630h-45v-220h105v-90h-105v-220h45q124 0 194.5 70.5t70.5 194.5t-70.5 194.5t-194.5 70.5z" />
    <glyph glyph-name="Ntilde" unicode="&#xd1;" horiz-adv-x="690" 
d="M506 730v-540l-311 540h-115v-730h104v550l311 -550h115v730h-104zM414 921q50 0 76.5 -33.5t20.5 -92.5h-82q6 39 -21 39q-9 0 -49 -19.5t-71 -19.5q-46 0 -71 27.5t-21 77.5l83 22q-5 -39 22 -39q13 0 49 19t64 19z" />
    <glyph glyph-name="Ograve" unicode="&#xd2;" horiz-adv-x="850" 
d="M40 365q0 160 112.5 272.5t272.5 112.5t272.5 -112.5t112.5 -272.5t-112.5 -272.5t-272.5 -112.5t-272.5 112.5t-112.5 272.5zM145 364q0 -124 78.5 -204t201.5 -80t201 80t78 204q0 125 -78 205.5t-201 80.5t-201.5 -80.5t-78.5 -205.5zM278 887l67 63l144 -165h-115z
" />
    <glyph glyph-name="Oacute" unicode="&#xd3;" horiz-adv-x="850" 
d="M40 365q0 -160 112.5 -272.5t272.5 -112.5t272.5 112.5t112.5 272.5t-112.5 272.5t-272.5 112.5t-272.5 -112.5t-112.5 -272.5zM145 364q0 125 78.5 205.5t201.5 80.5t201 -80.5t78 -205.5q0 -124 -78 -204t-201 -80t-201.5 80t-78.5 204zM514 950l67 -63l-96 -102h-115z
" />
    <glyph glyph-name="Ocircumflex" unicode="&#xd4;" horiz-adv-x="850" 
d="M40 365q0 160 112.5 272.5t272.5 112.5t272.5 -112.5t112.5 -272.5t-112.5 -272.5t-272.5 -112.5t-272.5 112.5t-112.5 272.5zM145 364q0 -124 78.5 -204t201.5 -80t201 80t78 204q0 125 -78 205.5t-201 80.5t-201.5 -80.5t-78.5 -205.5zM469 947l104 -98l-63 -64l-85 82
l-85 -82l-63 64l104 98h88z" />
    <glyph glyph-name="Otilde" unicode="&#xd5;" horiz-adv-x="850" 
d="M40 365q0 -160 112.5 -272.5t272.5 -112.5t272.5 112.5t112.5 272.5t-112.5 272.5t-272.5 112.5t-272.5 -112.5t-112.5 -272.5zM145 364q0 125 78.5 205.5t201.5 80.5t201 -80.5t78 -205.5q0 -124 -78 -204t-201 -80t-201.5 80t-78.5 204zM494 921q50 0 76.5 -33.5
t20.5 -92.5h-82q6 39 -21 39q-9 0 -49 -19.5t-71 -19.5q-46 0 -71 27.5t-21 77.5l83 22q-5 -39 22 -39q13 0 49 19t64 19z" />
    <glyph glyph-name="Odieresis" unicode="&#xd6;" horiz-adv-x="850" 
d="M40 365q0 -160 112.5 -272.5t272.5 -112.5t272.5 112.5t112.5 272.5t-112.5 272.5t-272.5 112.5t-272.5 -112.5t-112.5 -272.5zM145 364q0 125 78.5 205.5t201.5 80.5t201 -80.5t78 -205.5q0 -124 -78 -204t-201 -80t-201.5 80t-78.5 204zM285 797v110h109v-110h-109z
M455 797v110h110v-110h-110z" />
    <glyph glyph-name="multiply" unicode="&#xd7;" horiz-adv-x="540" 
d="M496 120l-56 -56l-170 169l-170 -169l-56 56l169 170l-169 170l56 56l170 -169l170 169l56 -56l-169 -170z" />
    <glyph glyph-name="Oslash" unicode="&#xd8;" horiz-adv-x="850" 
d="M40 365q0 160 112.5 272.5t272.5 112.5q131 0 235 -80l60 60h130l-124 -125q84 -105 84 -240q0 -160 -112.5 -272.5t-272.5 -112.5q-132 0 -236 80l-59 -60h-130l123 125q-83 104 -83 240zM145 364q0 -95 49 -168l397 403q-70 51 -166 51q-123 0 -201.5 -80.5
t-78.5 -205.5zM425 80q123 0 201 80t78 204q0 95 -49 169l-397 -403q72 -50 167 -50z" />
    <glyph glyph-name="Ugrave" unicode="&#xd9;" horiz-adv-x="655" 
d="M470 215v515h105v-730h-80l-15 40l-5 5l-5 -5q-22 -25 -72 -42.5t-93 -17.5q-104 0 -167 67t-63 173v510h105v-515q0 -58 37.5 -96.5t102.5 -38.5q63 0 106.5 39t43.5 96zM198 887l67 63l144 -165h-115z" />
    <glyph glyph-name="Uacute" unicode="&#xda;" horiz-adv-x="655" 
d="M470 730v-515q0 -57 -43.5 -96t-106.5 -39q-65 0 -102.5 38.5t-37.5 96.5v515h-105v-510q0 -106 63 -173t167 -67q43 0 93 17.5t72 42.5l5 5l5 -5l15 -40h80v730h-105zM399 950l67 -63l-96 -102h-115z" />
    <glyph glyph-name="Ucircumflex" unicode="&#xdb;" horiz-adv-x="655" 
d="M470 215v515h105v-730h-80l-15 40l-5 5l-5 -5q-22 -25 -72 -42.5t-93 -17.5q-104 0 -167 67t-63 173v510h105v-515q0 -58 37.5 -96.5t102.5 -38.5q63 0 106.5 39t43.5 96zM374 947l104 -98l-63 -64l-85 82l-85 -82l-63 64l104 98h88z" />
    <glyph glyph-name="Udieresis" unicode="&#xdc;" horiz-adv-x="655" 
d="M470 730v-515q0 -57 -43.5 -96t-106.5 -39q-65 0 -102.5 38.5t-37.5 96.5v515h-105v-510q0 -106 63 -173t167 -67q43 0 93 17.5t72 42.5l5 5l5 -5l15 -40h80v730h-105zM195 797v110h109v-110h-109zM365 797v110h110v-110h-110z" />
    <glyph glyph-name="Yacute" unicode="&#xdd;" horiz-adv-x="550" 
d="M125 730h-115l212 -370v-360h106v360l212 370h-116l-149 -261zM356 950l67 -63l-96 -102h-115z" />
    <glyph glyph-name="Thorn" unicode="&#xde;" horiz-adv-x="590" 
d="M80 0v730h105v-150h160q98 0 161.5 -58.5t63.5 -151.5t-63.5 -151.5t-161.5 -58.5h-160v-160h-105zM185 260h165q48 0 81.5 28.5t33.5 81.5t-33.5 81.5t-81.5 28.5h-165v-220z" />
    <glyph glyph-name="germandbls" unicode="&#xdf;" horiz-adv-x="570" 
d="M230 80h50q66 0 108 39t42 96t-39 96t-101 39h-131v-350h-99v560q0 98 62.5 154t157.5 56q87 0 153.5 -57.5t66.5 -147.5q0 -56 -29 -97.5t-72 -62.5q57 -24 94 -73.5t37 -116.5q0 -98 -67.5 -161.5t-172.5 -63.5l-60 70v20zM159 440h106q57 0 96 34t39 86
q0 55 -33.5 87.5t-86.5 32.5q-54 0 -87.5 -32.5t-33.5 -87.5v-120z" />
    <glyph glyph-name="agrave" unicode="&#xe0;" horiz-adv-x="570" 
d="M510 0v470h-90l-10 -40l-5 -5l-5 5q-50 50 -130 50q-100 0 -170 -69t-70 -176t70 -176t170 -69q80 0 130 50l5 5l5 -5l10 -40h90zM420 235q0 -65 -41 -110t-104 -45q-69 0 -107.5 44t-38.5 111t38.5 111t107.5 44q63 0 104 -45t41 -110zM126 663l72 52l125 -190h-98z" />
    <glyph glyph-name="aacute" unicode="&#xe1;" horiz-adv-x="570" 
d="M510 0v470h-90l-10 -40l-5 -5l-5 5q-50 50 -130 50q-100 0 -170 -69t-70 -176t70 -176t170 -69q80 0 130 50l5 5l5 -5l10 -40h90zM420 235q0 -65 -41 -110t-104 -45q-69 0 -107.5 44t-38.5 111t38.5 111t107.5 44q63 0 104 -45t41 -110zM341 715l72 -52l-99 -138h-98z
" />
    <glyph glyph-name="acircumflex" unicode="&#xe2;" horiz-adv-x="570" 
d="M510 470v-470h-90l-10 40l-5 5l-5 -5q-50 -50 -130 -50q-100 0 -170 69t-70 176t70 176t170 69q80 0 130 -50l5 -5l5 5l10 40h90zM420 235q0 65 -41 110t-104 45q-69 0 -107.5 -44t-38.5 -111t38.5 -111t107.5 -44q63 0 104 45t41 110zM325 685l91 -106l-59 -54l-82 96
l-82 -96l-59 54l91 106h100z" />
    <glyph glyph-name="atilde" unicode="&#xe3;" horiz-adv-x="570" 
d="M510 0v470h-90l-10 -40l-5 -5l-5 5q-50 50 -130 50q-100 0 -170 -69t-70 -176t70 -176t170 -69q80 0 130 50l5 5l5 -5l10 -40h90zM420 235q0 -65 -41 -110t-104 -45q-69 0 -107.5 44t-38.5 111t38.5 111t107.5 44q63 0 104 -45t41 -110zM338 650q49 0 72.5 -31t17.5 -89
h-74q3 39 -20 39q-9 0 -43.5 -21.5t-65.5 -21.5q-44 0 -67 27t-20 72l74 24q-1 -22 3 -31.5t18 -9.5q13 0 45 21t60 21z" />
    <glyph glyph-name="adieresis" unicode="&#xe4;" horiz-adv-x="570" 
d="M510 0v470h-90l-10 -40l-5 -5l-5 5q-50 50 -130 50q-100 0 -170 -69t-70 -176t70 -176t170 -69q80 0 130 50l5 5l5 -5l10 -40h90zM420 235q0 -65 -41 -110t-104 -45q-69 0 -107.5 44t-38.5 111t38.5 111t107.5 44q63 0 104 -45t41 -110zM144 555v110h99v-110h-99z
M314 555v110h100v-110h-100z" />
    <glyph glyph-name="aring" unicode="&#xe5;" horiz-adv-x="570" 
d="M510 470v-470h-90l-10 40l-5 5l-5 -5q-50 -50 -130 -50q-100 0 -170 69t-70 176t70 176t170 69q80 0 130 -50l5 -5l5 5l10 40h90zM420 235q0 65 -41 110t-104 45q-69 0 -107.5 -44t-38.5 -111t38.5 -111t107.5 -44q63 0 104 45t41 110zM162 615q0 46 32 76.5t78 30.5
t78 -30.5t32 -76.5t-32 -76.5t-78 -30.5t-78 30.5t-32 76.5zM227 615q0 -19 12.5 -32t32.5 -13t32.5 13t12.5 32t-12.5 32t-32.5 13t-32.5 -13t-12.5 -32z" />
    <glyph glyph-name="ae" unicode="&#xe6;" horiz-adv-x="851" 
d="M490 45v-45h-90l-10 40l-5 5l-5 -5q-50 -50 -120 -50q-99 0 -164.5 68.5t-65.5 176.5t65.5 176.5t164.5 68.5q70 0 120 -50l5 -5l5 5l10 40h90v-45l10 10q39 45 120 45q87 0 150.5 -66t59.5 -174l-10 -30h-330v-5q2 -54 34 -89.5t91 -35.5q86 0 112 70l83 -40
q-69 -120 -195 -120q-71 0 -115 45zM400 235q0 66 -36.5 110.5t-98.5 44.5q-68 0 -102 -43.5t-34 -111.5t34 -111.5t102 -43.5q62 0 98.5 44.5t36.5 110.5zM615 390q-96 0 -125 -92h236q0 39 -33 65.5t-78 26.5z" />
    <glyph glyph-name="ccedilla" unicode="&#xe7;" horiz-adv-x="490" 
d="M148 -181l41 69q24 -23 56 -23q35 0 35 25t-35 25h-23v80q-82 16 -137 81.5t-55 158.5q0 106 71.5 175.5t168.5 69.5q69 0 121 -32.5t83 -87.5l-78 -50q-13 33 -46 56.5t-75 23.5q-69 0 -108 -44t-39 -111t39 -111t108 -44q43 0 76 24t46 56l78 -50q-60 -106 -179 -118
v-15q27 -4 49 -27.5t22 -59.5q0 -47 -34.5 -76t-89.5 -29q-53 0 -95 34z" />
    <glyph glyph-name="egrave" unicode="&#xe8;" horiz-adv-x="505" 
d="M470 210h-340q0 -55 36.5 -92.5t98.5 -37.5q43 0 73.5 19.5t42.5 50.5l84 -40q-69 -120 -205 -120q-96 0 -163 69t-67 176q0 108 65.5 176.5t164.5 68.5q92 0 156 -67t64 -173zM260 390q-98 0 -125 -92h240q-4 39 -37 65.5t-78 26.5zM124 663l72 52l125 -190h-98z" />
    <glyph glyph-name="eacute" unicode="&#xe9;" horiz-adv-x="505" 
d="M470 210h-340q0 -55 36.5 -92.5t98.5 -37.5q43 0 73.5 19.5t42.5 50.5l84 -40q-69 -120 -205 -120q-96 0 -163 69t-67 176q0 108 65.5 176.5t164.5 68.5q92 0 156 -67t64 -173zM260 390q-98 0 -125 -92h240q-4 39 -37 65.5t-78 26.5zM336 715l72 -52l-99 -138h-98z" />
    <glyph glyph-name="ecircumflex" unicode="&#xea;" horiz-adv-x="505" 
d="M470 210h-340q0 -55 36.5 -92.5t98.5 -37.5q43 0 73.5 19.5t42.5 50.5l84 -40q-69 -120 -205 -120q-96 0 -163 69t-67 176q0 108 65.5 176.5t164.5 68.5q92 0 156 -67t64 -173zM260 390q-98 0 -125 -92h240q-4 39 -37 65.5t-78 26.5zM305 685l91 -106l-59 -54l-82 96
l-82 -96l-59 54l91 106h100z" />
    <glyph glyph-name="edieresis" unicode="&#xeb;" horiz-adv-x="505" 
d="M470 210h-340q0 -55 36.5 -92.5t98.5 -37.5q43 0 73.5 19.5t42.5 50.5l84 -40q-69 -120 -205 -120q-96 0 -163 69t-67 176q0 108 65.5 176.5t164.5 68.5q92 0 156 -67t64 -173zM260 390q-98 0 -125 -92h240q-4 39 -37 65.5t-78 26.5zM126 555v110h99v-110h-99zM296 555
v110h100v-110h-100z" />
    <glyph glyph-name="igrave" unicode="&#xec;" horiz-adv-x="220" 
d="M61 0v470h98v-470h-98zM-39 663l72 52l125 -190h-98z" />
    <glyph glyph-name="iacute" unicode="&#xed;" horiz-adv-x="220" 
d="M61 0v470h98v-470h-98zM187 715l72 -52l-99 -138h-98z" />
    <glyph glyph-name="icircumflex" unicode="&#xee;" horiz-adv-x="220" 
d="M61 0v470h98v-470h-98zM160 685l91 -106l-59 -54l-82 96l-82 -96l-59 54l91 106h100z" />
    <glyph glyph-name="idieresis" unicode="&#xef;" horiz-adv-x="220" 
d="M61 0v470h98v-470h-98zM-25 555v110h99v-110h-99zM145 555v110h100v-110h-100z" />
    <glyph glyph-name="eth" unicode="&#xf0;" horiz-adv-x="560" 
d="M377 704l53 56l60 -55l-53 -56q67 -80 78 -199q9 -99 0 -220q-8 -105 -76 -172.5t-164 -67.5q-97 0 -171 70t-74 175q0 107 70 176t170 69q42 0 86 -20.5t64 -44.5l5 -5l5 5q0 108 -53 170l-62 -65l-60 55l60 63q-79 43 -185 32l50 90q108 6 197 -56zM420 235
q0 65 -41 110t-104 45q-66 0 -105.5 -44.5t-39.5 -110.5t39.5 -110.5t105.5 -44.5q62 0 103.5 42.5t41.5 112.5z" />
    <glyph glyph-name="ntilde" unicode="&#xf1;" horiz-adv-x="520" 
d="M60 470v-470h100v284q2 44 34 75t76 31q95 0 100 -100v-290h100v290q0 84 -51 137t-139 53q-31 0 -63 -14t-47 -36l-5 -5l-5 5l-10 40h-90zM322 650q49 0 72.5 -31t17.5 -89h-74q3 39 -20 39q-9 0 -43.5 -21.5t-65.5 -21.5q-44 0 -67 27t-20 72l74 24q-1 -22 3 -31.5
t18 -9.5q13 0 45 21t60 21z" />
    <glyph glyph-name="ograve" unicode="&#xf2;" horiz-adv-x="550" 
d="M30 235q0 106 72.5 175.5t172.5 69.5t172.5 -69.5t72.5 -175.5t-72.5 -175.5t-172.5 -69.5t-172.5 69.5t-72.5 175.5zM130 235q0 -67 38 -111t107 -44t107 44t38 111t-38 111t-107 44t-107 -44t-38 -111zM136 663l72 52l125 -190h-98z" />
    <glyph glyph-name="oacute" unicode="&#xf3;" horiz-adv-x="550" 
d="M30 235q0 106 72.5 175.5t172.5 69.5t172.5 -69.5t72.5 -175.5t-72.5 -175.5t-172.5 -69.5t-172.5 69.5t-72.5 175.5zM130 235q0 -67 38 -111t107 -44t107 44t38 111t-38 111t-107 44t-107 -44t-38 -111zM351 715l72 -52l-99 -138h-98z" />
    <glyph glyph-name="ocircumflex" unicode="&#xf4;" horiz-adv-x="550" 
d="M30 235q0 106 72.5 175.5t172.5 69.5t172.5 -69.5t72.5 -175.5t-72.5 -175.5t-172.5 -69.5t-172.5 69.5t-72.5 175.5zM130 235q0 -67 38 -111t107 -44t107 44t38 111t-38 111t-107 44t-107 -44t-38 -111zM323 685l91 -106l-59 -54l-82 96l-82 -96l-59 54l91 106h100z" />
    <glyph glyph-name="otilde" unicode="&#xf5;" horiz-adv-x="550" 
d="M30 235q0 106 72.5 175.5t172.5 69.5t172.5 -69.5t72.5 -175.5t-72.5 -175.5t-172.5 -69.5t-172.5 69.5t-72.5 175.5zM130 235q0 -67 38 -111t107 -44t107 44t38 111t-38 111t-107 44t-107 -44t-38 -111zM328 650q49 0 72.5 -31t17.5 -89h-74q3 39 -20 39
q-9 0 -43.5 -21.5t-65.5 -21.5q-44 0 -67 27t-20 72l74 24q-1 -22 3 -31.5t18 -9.5q13 0 45 21t60 21z" />
    <glyph glyph-name="odieresis" unicode="&#xf6;" horiz-adv-x="550" 
d="M30 235q0 106 72.5 175.5t172.5 69.5t172.5 -69.5t72.5 -175.5t-72.5 -175.5t-172.5 -69.5t-172.5 69.5t-72.5 175.5zM130 235q0 -67 38 -111t107 -44t107 44t38 111t-38 111t-107 44t-107 -44t-38 -111zM140 555v110h99v-110h-99zM310 555v110h100v-110h-100z" />
    <glyph glyph-name="divide" unicode="&#xf7;" horiz-adv-x="540" 
d="M510 250h-480v80h480v-80zM330 410h-120v120h120v-120zM330 50h-120v120h120v-120z" />
    <glyph glyph-name="oslash" unicode="&#xf8;" horiz-adv-x="550" 
d="M440 470h110l-80 -86q50 -65 50 -149q0 -105 -74 -175t-171 -70q-73 0 -136 41l-29 -31h-110l80 85q-50 65 -50 150q0 105 74 175t171 70q73 0 135 -42zM275 78q69 0 108 45t39 112q0 45 -18 79l-204 -218q34 -18 75 -18zM128 235q0 -43 17 -80l204 218q-32 19 -74 19
q-69 0 -108 -45t-39 -112z" />
    <glyph glyph-name="ugrave" unicode="&#xf9;" horiz-adv-x="520" 
d="M460 0v470h-100v-285q-2 -44 -34.5 -74.5t-75.5 -30.5q-97 0 -100 100v290h-100v-290q0 -84 51 -137t139 -53q31 0 63 14t47 36l5 5l5 -5l10 -40h90zM121 663l72 52l125 -190h-98z" />
    <glyph glyph-name="uacute" unicode="&#xfa;" horiz-adv-x="520" 
d="M460 0v470h-100v-285q-2 -44 -34.5 -74.5t-75.5 -30.5q-97 0 -100 100v290h-100v-290q0 -84 51 -137t139 -53q31 0 63 14t47 36l5 5l5 -5l10 -40h90zM326 715l72 -52l-99 -138h-98z" />
    <glyph glyph-name="ucircumflex" unicode="&#xfb;" horiz-adv-x="520" 
d="M460 470v-470h-90l-10 40l-5 5l-5 -5q-15 -22 -47 -36t-63 -14q-88 0 -139 53t-51 137v290h100v-290q3 -100 100 -100q43 0 75.5 30.5t34.5 74.5v285h100zM304 685l91 -106l-59 -54l-82 96l-82 -96l-59 54l91 106h100z" />
    <glyph glyph-name="udieresis" unicode="&#xfc;" horiz-adv-x="520" 
d="M460 0v470h-100v-285q-2 -44 -34.5 -74.5t-75.5 -30.5q-97 0 -100 100v290h-100v-290q0 -84 51 -137t139 -53q31 0 63 14t47 36l5 5l5 -5l10 -40h90zM121 555v110h99v-110h-99zM291 555v110h100v-110h-100z" />
    <glyph glyph-name="yacute" unicode="&#xfd;" horiz-adv-x="430" 
d="M320 470l-105 -282l-104 282h-101l158 -408l-98 -262h100l250 670h-100zM291 715l72 -52l-99 -138h-98z" />
    <glyph glyph-name="thorn" unicode="&#xfe;" horiz-adv-x="550" 
d="M60 -212v972h99v-330l6 -5l5 5q50 50 130 50q100 0 170 -69t70 -176t-70 -176t-170 -69q-80 0 -130 50l-5 5l-6 -5v-252h-99zM150 235q0 -65 41 -110t104 -45q69 0 107 44t38 111t-38 111t-107 44q-63 0 -104 -45t-41 -110z" />
    <glyph glyph-name="ydieresis" unicode="&#xff;" horiz-adv-x="430" 
d="M320 470l-105 -282l-104 282h-101l158 -408l-98 -262h100l250 670h-100zM80 555v110h99v-110h-99zM250 555v110h100v-110h-100z" />
    <glyph glyph-name="Amacron" unicode="&#x100;" horiz-adv-x="650" 
d="M270 730l-250 -730h105l64 190h271l65 -190h105l-250 730h-110zM223 290l102 300l101 -300h-203zM190 815v80h270v-80h-270z" />
    <glyph glyph-name="amacron" unicode="&#x101;" horiz-adv-x="570" 
d="M510 0v470h-90l-10 -40l-5 -5l-5 5q-50 50 -130 50q-100 0 -170 -69t-70 -176t70 -176t170 -69q80 0 130 50l5 5l5 -5l10 -40h90zM420 235q0 -65 -41 -110t-104 -45q-69 0 -107.5 44t-38.5 111t38.5 111t107.5 44q63 0 104 -45t41 -110zM141 545v75h270v-75h-270z" />
    <glyph glyph-name="Abreve" unicode="&#x102;" horiz-adv-x="650" 
d="M270 730l-250 -730h105l64 190h271l65 -190h105l-250 730h-110zM223 290l102 300l101 -300h-203zM325 785q-63 0 -99 38t-36 85v7h85v-1q0 -19 12.5 -34.5t37.5 -15.5t37.5 15.5t12.5 34.5v1h85v-7q0 -47 -36 -85t-99 -38z" />
    <glyph glyph-name="abreve" unicode="&#x103;" horiz-adv-x="570" 
d="M510 0v470h-90l-10 -40l-5 -5l-5 5q-50 50 -130 50q-100 0 -170 -69t-70 -176t70 -176t170 -69q80 0 130 50l5 5l5 -5l10 -40h90zM420 235q0 -65 -41 -110t-104 -45q-69 0 -107.5 44t-38.5 111t38.5 111t107.5 44q63 0 104 -45t41 -110zM279 523q-61 0 -98 36t-37 84v6
h81v-2q0 -20 14.5 -35.5t39.5 -15.5t39.5 15.5t14.5 35.5v2h81v-6q0 -48 -37 -84t-98 -36z" />
    <glyph glyph-name="Aogonek" unicode="&#x104;" horiz-adv-x="650" 
d="M380 730l250 -730l-28 -57q-5 -10 -5 -23q0 -17 14 -27.5t33 -10.5h22l-22 -82h-5q-62 0 -99.5 25.5t-37.5 67.5q0 41 48 107h-25l-65 190h-271l-64 -190h-105l250 730h110zM325 590l-102 -300h203z" />
    <glyph glyph-name="aogonek" unicode="&#x105;" horiz-adv-x="570" 
d="M510 470v-470l-28 -57q-5 -10 -5 -23q0 -17 14 -27.5t33 -10.5h22l-22 -82h-5q-62 0 -99.5 25.5t-37.5 67.5q0 41 48 107h-10l-10 40l-5 5l-5 -5q-50 -50 -130 -50q-100 0 -170 69t-70 176t70 176t170 69q80 0 130 -50l5 -5l5 5l10 40h90zM420 235q0 65 -41 110t-104 45
q-69 0 -107.5 -44t-38.5 -111t38.5 -111t107.5 -44q63 0 104 45t41 110z" />
    <glyph glyph-name="Cacute" unicode="&#x106;" horiz-adv-x="740" 
d="M40 364q0 162 107.5 274t267.5 112q84 0 161 -36.5t129 -103.5l-70 -70q-79 111 -215 111q-125 0 -199.5 -81t-74.5 -205t75.5 -205t203.5 -81q136 0 215 111l70 -70q-52 -67 -129 -103.5t-161 -36.5q-164 0 -272 111t-108 273zM509 950l67 -63l-96 -102h-115z" />
    <glyph glyph-name="cacute" unicode="&#x107;" horiz-adv-x="490" 
d="M128 235q0 -67 39 -111t108 -44q43 0 76 24t46 56l78 -50q-31 -55 -83.5 -87.5t-121.5 -32.5q-97 0 -168.5 69.5t-71.5 175.5t71.5 175.5t168.5 69.5q69 0 121 -32.5t83 -87.5l-78 -50q-13 33 -46 56.5t-75 23.5q-69 0 -108 -44t-39 -111zM350 715l72 -52l-99 -138h-98z
" />
    <glyph glyph-name="Ccircumflex" unicode="&#x108;" horiz-adv-x="740" 
d="M40 364q0 162 107.5 274t267.5 112q84 0 161 -36.5t129 -103.5l-70 -70q-79 111 -215 111q-125 0 -199.5 -81t-74.5 -205t75.5 -205t203.5 -81q136 0 215 111l70 -70q-52 -67 -129 -103.5t-161 -36.5q-164 0 -272 111t-108 273zM464 947l104 -98l-63 -64l-85 82l-85 -82
l-63 64l104 98h88z" />
    <glyph glyph-name="ccircumflex" unicode="&#x109;" horiz-adv-x="490" 
d="M128 235q0 -67 39 -111t108 -44q43 0 76 24t46 56l78 -50q-31 -55 -83.5 -87.5t-121.5 -32.5q-97 0 -168.5 69.5t-71.5 175.5t71.5 175.5t168.5 69.5q69 0 121 -32.5t83 -87.5l-78 -50q-13 33 -46 56.5t-75 23.5q-69 0 -108 -44t-39 -111zM321 685l91 -106l-59 -54
l-82 96l-82 -96l-59 54l91 106h100z" />
    <glyph glyph-name="Cdotaccent" unicode="&#x10a;" horiz-adv-x="740" 
d="M40 364q0 162 107.5 274t267.5 112q84 0 161 -36.5t129 -103.5l-70 -70q-79 111 -215 111q-125 0 -199.5 -81t-74.5 -205t75.5 -205t203.5 -81q136 0 215 111l70 -70q-52 -67 -129 -103.5t-161 -36.5q-164 0 -272 111t-108 273zM360 797v110h110v-110h-110z" />
    <glyph glyph-name="cdotaccent" unicode="&#x10b;" horiz-adv-x="490" 
d="M128 235q0 -67 39 -111t108 -44q43 0 76 24t46 56l78 -50q-31 -55 -83.5 -87.5t-121.5 -32.5q-97 0 -168.5 69.5t-71.5 175.5t71.5 175.5t168.5 69.5q69 0 121 -32.5t83 -87.5l-78 -50q-13 33 -46 56.5t-75 23.5q-69 0 -108 -44t-39 -111zM220 545v110h100v-110h-100z
" />
    <glyph glyph-name="Ccaron" unicode="&#x10c;" horiz-adv-x="740" 
d="M40 364q0 162 107.5 274t267.5 112q84 0 161 -36.5t129 -103.5l-70 -70q-79 111 -215 111q-125 0 -199.5 -81t-74.5 -205t75.5 -205t203.5 -81q136 0 215 111l70 -70q-52 -67 -129 -103.5t-161 -36.5q-164 0 -272 111t-108 273zM558 883l-104 -98h-88l-104 98l63 64
l85 -82l85 82z" />
    <glyph glyph-name="ccaron" unicode="&#x10d;" horiz-adv-x="490" 
d="M128 235q0 -67 39 -111t108 -44q43 0 76 24t46 56l78 -50q-31 -55 -83.5 -87.5t-121.5 -32.5q-97 0 -168.5 69.5t-71.5 175.5t71.5 175.5t168.5 69.5q69 0 121 -32.5t83 -87.5l-78 -50q-13 33 -46 56.5t-75 23.5q-69 0 -108 -44t-39 -111zM410 631l-91 -106h-100l-91 106
l59 54l82 -96l82 96z" />
    <glyph glyph-name="Dcaron" unicode="&#x10e;" horiz-adv-x="660" 
d="M80 0v730h165q162 0 268.5 -102.5t106.5 -262.5t-106.5 -262.5t-268.5 -102.5h-165zM250 630h-65v-530h65q124 0 194.5 70.5t70.5 194.5t-70.5 194.5t-194.5 70.5zM438 883l-104 -98h-88l-104 98l63 64l85 -82l85 82z" />
    <glyph glyph-name="dcaron" unicode="&#x10f;" horiz-adv-x="660" 
d="M510 760v-760h-90l-10 40l-5 5l-5 -5q-50 -50 -130 -50q-100 0 -170 69t-70 176t70 176t170 69q80 0 130 -50l5 -5l5 5v330h100zM420 235q0 65 -41 110t-104 45q-69 0 -107.5 -44t-38.5 -111t38.5 -111t107.5 -44q63 0 104 45t41 110zM691 760l-68 -211l-83 27l58 184h93
z" />
    <glyph glyph-name="Dcroat" unicode="&#x110;" horiz-adv-x="660" 
d="M10 320v90h90v320h145q162 0 268.5 -102.5t106.5 -262.5t-106.5 -262.5t-268.5 -102.5h-145v320h-90zM250 630h-45v-220h105v-90h-105v-220h45q124 0 194.5 70.5t70.5 194.5t-70.5 194.5t-194.5 70.5z" />
    <glyph glyph-name="dcroat" unicode="&#x111;" horiz-adv-x="570" 
d="M510 760v-130h60v-75h-60v-555h-90l-10 40l-5 5l-5 -5q-50 -50 -130 -50q-100 0 -170 69t-70 176t70 176t170 69q80 0 130 -50l5 -5l5 5v125h-150v75h150v130h100zM420 235q0 65 -41 110t-104 45q-69 0 -107.5 -44t-38.5 -111t38.5 -111t107.5 -44q63 0 104 45t41 110z
" />
    <glyph glyph-name="Emacron" unicode="&#x112;" horiz-adv-x="570" 
d="M80 730v-730h440v100h-335v220h325v100h-325v210h335v100h-440zM166 815v80h270v-80h-270z" />
    <glyph glyph-name="emacron" unicode="&#x113;" horiz-adv-x="505" 
d="M470 210h-340q0 -55 36.5 -92.5t98.5 -37.5q43 0 73.5 19.5t42.5 50.5l84 -40q-69 -120 -205 -120q-96 0 -163 69t-67 176q0 108 65.5 176.5t164.5 68.5q92 0 156 -67t64 -173zM260 390q-98 0 -125 -92h240q-4 39 -37 65.5t-78 26.5zM124 545v75h270v-75h-270z" />
    <glyph glyph-name="Ebreve" unicode="&#x114;" horiz-adv-x="570" 
d="M80 730v-730h440v100h-335v220h325v100h-325v210h335v100h-440zM302 785q-63 0 -99 38t-36 85v7h85v-1q0 -19 12.5 -34.5t37.5 -15.5t37.5 15.5t12.5 34.5v1h85v-7q0 -47 -36 -85t-99 -38z" />
    <glyph glyph-name="ebreve" unicode="&#x115;" horiz-adv-x="505" 
d="M470 210h-340q0 -55 36.5 -92.5t98.5 -37.5q43 0 73.5 19.5t42.5 50.5l84 -40q-69 -120 -205 -120q-96 0 -163 69t-67 176q0 108 65.5 176.5t164.5 68.5q92 0 156 -67t64 -173zM260 390q-98 0 -125 -92h240q-4 39 -37 65.5t-78 26.5zM261 523q-61 0 -98 36t-37 84v6h81
v-2q0 -20 14.5 -35.5t39.5 -15.5t39.5 15.5t14.5 35.5v2h81v-6q0 -48 -37 -84t-98 -36z" />
    <glyph glyph-name="Edotaccent" unicode="&#x116;" horiz-adv-x="570" 
d="M80 730v-730h440v100h-335v220h325v100h-325v210h335v100h-440zM247 797v110h110v-110h-110z" />
    <glyph glyph-name="edotaccent" unicode="&#x117;" horiz-adv-x="505" 
d="M470 210h-340q0 -55 36.5 -92.5t98.5 -37.5q43 0 73.5 19.5t42.5 50.5l84 -40q-69 -120 -205 -120q-96 0 -163 69t-67 176q0 108 65.5 176.5t164.5 68.5q92 0 156 -67t64 -173zM260 390q-98 0 -125 -92h240q-4 39 -37 65.5t-78 26.5zM202 545v110h100v-110h-100z" />
    <glyph glyph-name="Eogonek" unicode="&#x118;" horiz-adv-x="570" 
d="M520 0h-36l-28 -57q-5 -10 -5 -23q0 -17 14 -27.5t33 -10.5h22l-22 -82h-5q-62 0 -99.5 25.5t-37.5 67.5q0 41 48 107h-324v730h440v-100h-335v-210h325v-100h-325v-220h335v-100z" />
    <glyph glyph-name="eogonek" unicode="&#x119;" horiz-adv-x="505" 
d="M470 210h-340q0 -55 36.5 -92.5t98.5 -37.5q43 0 73.5 19.5t42.5 50.5l84 -40q-61 -125 -68 -154q-4 -17 -4 -32q0 -42 45 -42h22l-22 -82q-62 -3 -98.5 24.5t-36.5 70.5q0 49 40 109q-39 -14 -83 -14q-96 0 -163 69t-67 176q0 108 65.5 176.5t164.5 68.5q92 0 156 -67
t64 -173zM260 390q-98 0 -125 -92h240q-4 39 -37 65.5t-78 26.5z" />
    <glyph glyph-name="Ecaron" unicode="&#x11a;" horiz-adv-x="570" 
d="M80 0v730h440v-100h-335v-210h325v-100h-325v-220h335v-100h-440zM447 883l-104 -98h-88l-104 98l63 64l85 -82l85 82z" />
    <glyph glyph-name="ecaron" unicode="&#x11b;" horiz-adv-x="505" 
d="M470 210h-340q0 -55 36.5 -92.5t98.5 -37.5q43 0 73.5 19.5t42.5 50.5l84 -40q-69 -120 -205 -120q-96 0 -163 69t-67 176q0 108 65.5 176.5t164.5 68.5q92 0 156 -67t64 -173zM260 390q-98 0 -125 -92h240q-4 39 -37 65.5t-78 26.5zM398 631l-91 -106h-100l-91 106
l59 54l82 -96l82 96z" />
    <glyph glyph-name="Gcircumflex" unicode="&#x11c;" horiz-adv-x="805" 
d="M711 611l-72 -72q-77 111 -224 111q-122 0 -195.5 -80t-73.5 -206q0 -125 73.5 -204.5t195.5 -79.5q110 0 185 64.5t82 165.5h-372v100h380l95 -95q-8 -137 -115 -236t-255 -99q-160 0 -267.5 111.5t-107.5 273.5q0 163 108 274t272 111q177 0 291 -139zM457 947l104 -98
l-63 -64l-85 82l-85 -82l-63 64l104 98h88z" />
    <glyph glyph-name="gcircumflex" unicode="&#x11d;" horiz-adv-x="485" 
d="M30 -31q0 98 90 146q-90 53 -90 160q0 86 59.5 145.5t145.5 59.5q34 0 67 -14t48 -36l5 -5l5 5l10 40h70v-195q0 -107 -90 -160q90 -47 90 -146q0 -81 -61 -129.5t-144 -48.5t-144 48.5t-61 129.5zM125 275q0 -49 31 -82t79 -33t79 33t31 82t-31 82t-79 33t-79 -33
t-31 -82zM125 -30q0 -41 30.5 -67t79.5 -26t79.5 26t30.5 67t-30.5 68t-79.5 27t-79.5 -27t-30.5 -68zM289 685l91 -106l-59 -54l-82 96l-82 -96l-59 54l91 106h100z" />
    <glyph glyph-name="Gbreve" unicode="&#x11e;" horiz-adv-x="805" 
d="M639 539l72 72q-114 139 -291 139q-164 0 -272 -111t-108 -274q0 -162 107.5 -273.5t267.5 -111.5q148 0 255 99t115 236l-95 95h-380v-100h372q-7 -101 -82 -165.5t-185 -64.5q-122 0 -195.5 79.5t-73.5 204.5q0 126 73.5 206t195.5 80q147 0 224 -111zM419 785
q-63 0 -99 38t-36 85v7h85v-1q0 -19 12.5 -34.5t37.5 -15.5t37.5 15.5t12.5 34.5v1h85v-7q0 -47 -36 -85t-99 -38z" />
    <glyph glyph-name="gbreve" unicode="&#x11f;" horiz-adv-x="485" 
d="M30 -31q0 -81 61 -129.5t144 -48.5t144 48.5t61 129.5q0 99 -90 146q90 53 90 160v195h-70l-10 -40l-5 -5l-5 5q-15 22 -48 36t-67 14q-86 0 -145.5 -59.5t-59.5 -145.5q0 -107 90 -160q-90 -48 -90 -146zM125 275q0 49 31 82t79 33t79 -33t31 -82t-31 -82t-79 -33
t-79 33t-31 82zM125 -30q0 41 30.5 68t79.5 27t79.5 -27t30.5 -68t-30.5 -67t-79.5 -26t-79.5 26t-30.5 67zM238 523q-61 0 -98 36t-37 84v6h81v-2q0 -20 14.5 -35.5t39.5 -15.5t39.5 15.5t14.5 35.5v2h81v-6q0 -48 -37 -84t-98 -36z" />
    <glyph glyph-name="Gdotaccent" unicode="&#x120;" horiz-adv-x="805" 
d="M639 539l72 72q-114 139 -291 139q-164 0 -272 -111t-108 -274q0 -162 107.5 -273.5t267.5 -111.5q148 0 255 99t115 236l-95 95h-380v-100h372q-7 -101 -82 -165.5t-185 -64.5q-122 0 -195.5 79.5t-73.5 204.5q0 126 73.5 206t195.5 80q147 0 224 -111zM366 797v110h110
v-110h-110z" />
    <glyph glyph-name="gdotaccent" unicode="&#x121;" horiz-adv-x="485" 
d="M30 -31q0 -81 61 -129.5t144 -48.5t144 48.5t61 129.5q0 99 -90 146q90 53 90 160v195h-70l-10 -40l-5 -5l-5 5q-15 22 -48 36t-67 14q-86 0 -145.5 -59.5t-59.5 -145.5q0 -107 90 -160q-90 -48 -90 -146zM125 275q0 49 31 82t79 33t79 -33t31 -82t-31 -82t-79 -33
t-79 33t-31 82zM125 -30q0 41 30.5 68t79.5 27t79.5 -27t30.5 -68t-30.5 -67t-79.5 -26t-79.5 26t-30.5 67zM185 545v110h100v-110h-100z" />
    <glyph glyph-name="Gcommaaccent" unicode="&#x122;" horiz-adv-x="805" 
d="M711 611l-72 -72q-77 111 -224 111q-122 0 -195.5 -80t-73.5 -206q0 -125 73.5 -204.5t195.5 -79.5q110 0 185 64.5t82 165.5h-372v100h380l95 -95q-8 -137 -115 -236t-255 -99q-160 0 -267.5 111.5t-107.5 273.5q0 163 108 274t272 111q177 0 291 -139zM469 -51
l-63 -189l-86 28l53 161h96z" />
    <glyph glyph-name="gcommaaccent" unicode="&#x123;" horiz-adv-x="485" 
d="M30 -31q0 -81 61 -129.5t144 -48.5t144 48.5t61 129.5q0 99 -90 146q90 53 90 160v195h-70l-10 -40l-5 -5l-5 5q-15 22 -48 36t-67 14q-86 0 -145.5 -59.5t-59.5 -145.5q0 -107 90 -160q-90 -48 -90 -146zM125 275q0 49 31 82t79 33t79 -33t31 -82t-31 -82t-79 -33
t-79 33t-31 82zM125 -30q0 41 30.5 68t79.5 27t79.5 -27t30.5 -68t-30.5 -67t-79.5 -26t-79.5 26t-30.5 67zM185 525l63 189l86 -28l-53 -161h-96z" />
    <glyph glyph-name="Hcircumflex" unicode="&#x124;" horiz-adv-x="650" 
d="M465 420v310h105v-730h-105v320h-280v-320h-105v730h105v-310h280zM369 947l104 -98l-63 -64l-85 82l-85 -82l-63 64l104 98h88z" />
    <glyph glyph-name="hcircumflex" unicode="&#x125;" horiz-adv-x="520" 
d="M270 950l91 -96l-59 -54l-82 86l-82 -86l-59 54l91 96h100zM60 0v760h100v-330l5 -5l5 5q15 22 47 36t63 14q88 0 139 -53t51 -137v-290h-100v290q-5 100 -100 100q-44 0 -76 -31t-34 -75v-284h-100z" />
    <glyph glyph-name="Hbar" unicode="&#x126;" horiz-adv-x="650" 
d="M25 520v100h55v110h105v-110h280v110h105v-110h55v-100h-55v-520h-105v320h-280v-320h-105v520h-55zM185 420h280v100h-280v-100z" />
    <glyph glyph-name="hbar" unicode="&#x127;" horiz-adv-x="520" 
d="M0 555v75h60v130h100v-130h150v-75h-150v-125l5 -5l5 5q15 22 47 36t63 14q88 0 139 -53t51 -137v-290h-100v290q-5 100 -100 100q-44 0 -76 -31t-34 -75v-284h-100v555h-60z" />
    <glyph glyph-name="Itilde" unicode="&#x128;" horiz-adv-x="290" 
d="M75 100v-100h140v100h-17v530h17v100h-140v-100h17v-530h-17zM208 921q50 0 76.5 -33.5t20.5 -92.5h-82q6 39 -21 39q-9 0 -49 -19.5t-71 -19.5q-46 0 -71 27.5t-21 77.5l83 22q-5 -39 22 -39q13 0 49 19t64 19z" />
    <glyph glyph-name="itilde" unicode="&#x129;" horiz-adv-x="220" 
d="M61 0v470h98v-470h-98zM167 650q49 0 72.5 -31t17.5 -89h-74q3 39 -20 39q-9 0 -43.5 -21.5t-65.5 -21.5q-44 0 -67 27t-20 72l74 24q-1 -22 3 -31.5t18 -9.5q12 0 45 21t60 21z" />
    <glyph glyph-name="Imacron" unicode="&#x12a;" horiz-adv-x="290" 
d="M75 100v-100h140v100h-17v530h17v100h-140v-100h17v-530h-17zM10 815v80h270v-80h-270z" />
    <glyph glyph-name="imacron" unicode="&#x12b;" horiz-adv-x="220" 
d="M61 0v470h98v-470h-98zM-25 545v75h270v-75h-270z" />
    <glyph glyph-name="Ibreve" unicode="&#x12c;" horiz-adv-x="290" 
d="M75 100v-100h140v100h-17v530h17v100h-140v-100h17v-530h-17zM145 785q-63 0 -99 38t-36 85v7h85v-1q0 -19 12.5 -34.5t37.5 -15.5t37.5 15.5t12.5 34.5v1h85v-7q0 -47 -36 -85t-99 -38z" />
    <glyph glyph-name="ibreve" unicode="&#x12d;" horiz-adv-x="220" 
d="M61 0v470h98v-470h-98zM110 523q-61 0 -98 36t-37 84v6h81v-2q0 -20 14.5 -35.5t39.5 -15.5t39.5 15.5t14.5 35.5v2h81v-6q0 -48 -37 -84t-98 -36z" />
    <glyph glyph-name="Iogonek" unicode="&#x12e;" horiz-adv-x="290" 
d="M215 0h-31l-28 -57q-5 -10 -5 -23q0 -17 14 -27.5t33 -10.5h22l-22 -82h-5q-62 0 -99.5 25.5t-37.5 67.5q0 41 48 107h-29v100h17v530h-17v100h140v-100h-17v-530h17v-100z" />
    <glyph glyph-name="iogonek" unicode="&#x12f;" horiz-adv-x="220" 
d="M61 0v470h98v-470h-98zM60 560v110h100v-110h-100zM159 0h-80q-48 -66 -48 -107q0 -42 37.5 -67.5t99.5 -25.5h5l22 82h-22q-19 0 -33 10.5t-14 27.5q0 13 5 23z" />
    <glyph glyph-name="Idotaccent" unicode="&#x130;" horiz-adv-x="290" 
d="M75 100v-100h140v100h-17v530h17v100h-140v-100h17v-530h-17zM90 797v110h110v-110h-110z" />
    <glyph glyph-name="dotlessi" unicode="&#x131;" horiz-adv-x="220" 
d="M61 0v470h98v-470h-98z" />
    <glyph glyph-name="Jcircumflex" unicode="&#x134;" horiz-adv-x="280" 
d="M50 -100l-20 10v90h20q20 0 32.5 11t12.5 29v690h105v-680q0 -68 -41 -109t-109 -41zM190 947l104 -98l-63 -64l-85 82l-85 -82l-63 64l104 98h88z" />
    <glyph glyph-name="jcircumflex" unicode="&#x135;" horiz-adv-x="229" 
d="M-30 -122l55 -10q45 0 45 50v552h99v-542q0 -70 -38 -110t-111 -40l-50 10v90zM165 685l91 -106l-59 -54l-82 96l-82 -96l-59 54l91 106h100z" />
    <glyph glyph-name="Kcommaaccent" unicode="&#x136;" horiz-adv-x="590" 
d="M455 730h125l-315 -359l325 -371h-134l-271 310v-310h-105v730h105v-300zM361 -41l-63 -189l-86 28l53 161h96z" />
    <glyph glyph-name="kcommaaccent" unicode="&#x137;" horiz-adv-x="480" 
d="M160 280l190 190h130l-226 -226l236 -244h-130l-200 200v-200h-100v760h100v-480zM314 -41l-63 -189l-86 28l53 161h96z" />
    <glyph glyph-name="Lacute" unicode="&#x139;" horiz-adv-x="530" 
d="M80 730v-730h410v100h-305v630h-105zM224 950l67 -63l-96 -102h-115z" />
    <glyph glyph-name="lacute" unicode="&#x13a;" horiz-adv-x="220" 
d="M190 950l58 -53l-86 -96h-102zM160 90v670h-100v-670l10 -90h100z" />
    <glyph glyph-name="Lcommaaccent" unicode="&#x13b;" horiz-adv-x="530" 
d="M80 0v730h105v-630h305v-100h-410zM341 -41l-63 -189l-86 28l53 161h96z" />
    <glyph glyph-name="lcommaaccent" unicode="&#x13c;" horiz-adv-x="220" 
d="M160 760v-670l10 -90h-100l-10 90v670h100zM174 -41l-63 -189l-86 28l53 161h96z" />
    <glyph glyph-name="Lcaron" unicode="&#x13d;" horiz-adv-x="530" 
d="M80 730v-730h410v100h-305v630h-105zM388 780l-68 -211l-83 27l58 184h93z" />
    <glyph glyph-name="lcaron" unicode="&#x13e;" horiz-adv-x="310" 
d="M160 760v-670l10 -90h-100l-10 90v670h100zM341 760l-68 -211l-83 27l58 184h93z" />
    <glyph glyph-name="Ldot" unicode="&#x13f;" horiz-adv-x="530" 
d="M80 0v730h105v-630h305v-100h-410zM271 240v130h120v-130h-120z" />
    <glyph glyph-name="ldot" unicode="&#x140;" horiz-adv-x="400" 
d="M160 760v-670l10 -90h-100l-10 90v670h100zM250 230v130h120v-130h-120z" />
    <glyph glyph-name="Lslash" unicode="&#x141;" horiz-adv-x="530" 
d="M30 180v100l50 27v423h105v-365l155 85v-100l-155 -85v-165h305v-100h-410v207z" />
    <glyph glyph-name="lslash" unicode="&#x142;" horiz-adv-x="220" 
d="M160 375v-285l10 -90h-100l-10 90v194l-60 -54v100l60 54v376h100v-285l60 55v-100z" />
    <glyph glyph-name="Nacute" unicode="&#x143;" horiz-adv-x="690" 
d="M506 730v-540l-311 540h-115v-730h104v550l311 -550h115v730h-104zM434 950l67 -63l-96 -102h-115z" />
    <glyph glyph-name="nacute" unicode="&#x144;" horiz-adv-x="520" 
d="M60 470v-470h100v284q2 44 34 75t76 31q95 0 100 -100v-290h100v290q0 84 -51 137t-139 53q-31 0 -63 -14t-47 -36l-5 -5l-5 5l-10 40h-90zM339 715l72 -52l-99 -138h-98z" />
    <glyph glyph-name="Ncommaaccent" unicode="&#x145;" horiz-adv-x="690" 
d="M506 190v540h104v-730h-115l-311 550v-550h-104v730h115zM411 -41l-63 -189l-86 28l53 161h96z" />
    <glyph glyph-name="ncommaaccent" unicode="&#x146;" horiz-adv-x="520" 
d="M60 0v470h90l10 -40l5 -5l5 5q15 22 47 36t63 14q88 0 139 -53t51 -137v-290h-100v290q-5 100 -100 100q-44 0 -76 -31t-34 -75v-284h-100zM326 -41l-63 -189l-86 28l53 161h96z" />
    <glyph glyph-name="Ncaron" unicode="&#x147;" horiz-adv-x="690" 
d="M506 190v540h104v-730h-115l-311 550v-550h-104v730h115zM493 883l-104 -98h-88l-104 98l63 64l85 -82l85 82z" />
    <glyph glyph-name="ncaron" unicode="&#x148;" horiz-adv-x="520" 
d="M60 0v470h90l10 -40l5 -5l5 5q15 22 47 36t63 14q88 0 139 -53t51 -137v-290h-100v290q-5 100 -100 100q-44 0 -76 -31t-34 -75v-284h-100zM410 631l-91 -106h-100l-91 106l59 54l82 -96l82 96z" />
    <glyph glyph-name="Eng" unicode="&#x14a;" horiz-adv-x="690" 
d="M461 -212l-20 10v90h20q20 0 32.5 11t12.5 29v72l-322 550v-550h-104v730h115l311 -540v540h104v-792q0 -68 -41 -109t-108 -41z" />
    <glyph glyph-name="eng" unicode="&#x14b;" horiz-adv-x="520" 
d="M271 -122l55 -10q44 0 44 50v372q-5 100 -100 100q-44 0 -76 -31t-34 -75v-284h-100v470h90l10 -40l5 -5l5 5q15 22 47 36t63 14q88 0 139 -53t51 -137v-362q0 -70 -38 -110t-111 -40l-50 10v90z" />
    <glyph glyph-name="Omacron" unicode="&#x14c;" horiz-adv-x="850" 
d="M40 365q0 -160 112.5 -272.5t272.5 -112.5t272.5 112.5t112.5 272.5t-112.5 272.5t-272.5 112.5t-272.5 -112.5t-112.5 -272.5zM145 364q0 125 78.5 205.5t201.5 80.5t201 -80.5t78 -205.5q0 -124 -78 -204t-201 -80t-201.5 80t-78.5 204zM290 815v80h270v-80h-270z" />
    <glyph glyph-name="omacron" unicode="&#x14d;" horiz-adv-x="550" 
d="M30 235q0 106 72.5 175.5t172.5 69.5t172.5 -69.5t72.5 -175.5t-72.5 -175.5t-172.5 -69.5t-172.5 69.5t-72.5 175.5zM130 235q0 -67 38 -111t107 -44t107 44t38 111t-38 111t-107 44t-107 -44t-38 -111zM140 545v75h270v-75h-270z" />
    <glyph glyph-name="Obreve" unicode="&#x14e;" horiz-adv-x="850" 
d="M40 365q0 -160 112.5 -272.5t272.5 -112.5t272.5 112.5t112.5 272.5t-112.5 272.5t-272.5 112.5t-272.5 -112.5t-112.5 -272.5zM145 364q0 125 78.5 205.5t201.5 80.5t201 -80.5t78 -205.5q0 -124 -78 -204t-201 -80t-201.5 80t-78.5 204zM425 785q-63 0 -99 38t-36 85v7
h85v-1q0 -19 12.5 -34.5t37.5 -15.5t37.5 15.5t12.5 34.5v1h85v-7q0 -47 -36 -85t-99 -38z" />
    <glyph glyph-name="obreve" unicode="&#x14f;" horiz-adv-x="550" 
d="M30 235q0 106 72.5 175.5t172.5 69.5t172.5 -69.5t72.5 -175.5t-72.5 -175.5t-172.5 -69.5t-172.5 69.5t-72.5 175.5zM130 235q0 -67 38 -111t107 -44t107 44t38 111t-38 111t-107 44t-107 -44t-38 -111zM275 523q-61 0 -98 36t-37 84v6h81v-2q0 -20 14.5 -35.5
t39.5 -15.5t39.5 15.5t14.5 35.5v2h81v-6q0 -48 -37 -84t-98 -36z" />
    <glyph glyph-name="Ohungarumlaut" unicode="&#x150;" horiz-adv-x="850" 
d="M40 365q0 -160 112.5 -272.5t272.5 -112.5t272.5 112.5t112.5 272.5t-112.5 272.5t-272.5 112.5t-272.5 -112.5t-112.5 -272.5zM145 364q0 125 78.5 205.5t201.5 80.5t201 -80.5t78 -205.5q0 -124 -78 -204t-201 -80t-201.5 80t-78.5 204zM397 949l78 -47l-76 -118h-96z
M578 953l69 -57l-99 -112h-103z" />
    <glyph glyph-name="ohungarumlaut" unicode="&#x151;" horiz-adv-x="550" 
d="M30 235q0 106 72.5 175.5t172.5 69.5t172.5 -69.5t72.5 -175.5t-72.5 -175.5t-172.5 -69.5t-172.5 69.5t-72.5 175.5zM130 235q0 -67 38 -111t107 -44t107 44t38 111t-38 111t-107 44t-107 -44t-38 -111zM250 696l81 -39l-75 -142h-93zM416 694l70 -50l-89 -129h-97z" />
    <glyph glyph-name="OE" unicode="&#x152;" horiz-adv-x="960" 
d="M910 0h-360q-60 -20 -130 -20q-161 0 -270.5 111.5t-109.5 273.5t109.5 273.5t270.5 111.5q70 0 130 -20h360v-100h-255v-210h245v-100h-245v-220h255v-100zM550 106v519q-54 25 -125 25q-123 0 -201.5 -80.5t-78.5 -205.5q0 -124 78.5 -204t201.5 -80q68 0 125 26z" />
    <glyph glyph-name="oe" unicode="&#x153;" horiz-adv-x="866" 
d="M448 92l-43 -52q-61 -50 -140 -50q-93 0 -164 70t-71 175t71 175t164 70q79 0 140 -50l43 -53l42 53q61 50 140 50q84 0 149 -66.5t61 -173.5l-10 -30h-330q0 -55 34 -92.5t91 -37.5q43 0 74 19.5t44 50.5l83 -40q-69 -120 -201 -120q-74 0 -135 50zM129 235
q0 -66 37 -110.5t99 -44.5q65 0 100 44t35 111t-35 111t-100 44q-63 0 -99.5 -44.5t-36.5 -110.5zM625 391q-95 0 -125 -93h237q-1 42 -33 67.5t-79 25.5z" />
    <glyph glyph-name="Racute" unicode="&#x154;" horiz-adv-x="610" 
d="M333 320q94 0 163 57t69 148q0 94 -65.5 149.5t-159.5 55.5h-260v-730h105v320h20l256 -320h119v20zM345 420h-160v210h160q47 0 81 -29t34 -76t-34 -76t-81 -29zM374 950l67 -63l-96 -102h-115z" />
    <glyph glyph-name="racute" unicode="&#x155;" 
d="M60 470v-470h100v274q2 44 34 75t76 31h60v90q-20 10 -50 10q-65 0 -110 -60l-5 -5l-5 5l-10 50h-90zM269 715l72 -52l-99 -138h-98z" />
    <glyph glyph-name="Rcommaaccent" unicode="&#x156;" horiz-adv-x="610" 
d="M333 320l247 -300v-20h-119l-256 320h-20v-320h-105v730h260q94 0 159.5 -55.5t65.5 -149.5q0 -91 -69 -148t-163 -57zM185 420h160q47 0 81 29t34 76t-34 76t-81 29h-160v-210zM371 -41l-63 -189l-86 28l53 161h96z" />
    <glyph glyph-name="rcommaaccent" unicode="&#x157;" 
d="M60 0v470h90l10 -50l5 -5l5 5q45 60 110 60q30 0 50 -10v-90h-60q-44 0 -76 -31t-34 -75v-274h-100zM160 -41l-63 -189l-86 28l53 161h96z" />
    <glyph glyph-name="Rcaron" unicode="&#x158;" horiz-adv-x="610" 
d="M333 320l247 -300v-20h-119l-256 320h-20v-320h-105v730h260q94 0 159.5 -55.5t65.5 -149.5q0 -91 -69 -148t-163 -57zM185 420h160q47 0 81 29t34 76t-34 76t-81 29h-160v-210zM443 883l-104 -98h-88l-104 98l63 64l85 -82l85 82z" />
    <glyph glyph-name="rcaron" unicode="&#x159;" 
d="M60 0v470h90l10 -50l5 -5l5 5q45 60 110 60q30 0 50 -10v-90h-60q-44 0 -76 -31t-34 -75v-274h-100zM337 631l-91 -106h-100l-91 106l59 54l82 -96l82 96z" />
    <glyph glyph-name="Sacute" unicode="&#x15a;" horiz-adv-x="590" 
d="M520 540h-110q0 45 -36.5 77.5t-88.5 32.5q-55 0 -87.5 -29.5t-32.5 -75.5q0 -85 115 -115q19 -5 80 -19q82 -20 131 -71.5t49 -139.5t-67 -153t-178 -65q-101 0 -177 66.5t-78 151.5l105 40q-1 -71 44.5 -114t105.5 -43q64 0 102 32t38 85q0 87 -115 110q-41 9 -80 21
q-80 24 -130 78t-50 141q0 86 65 142t160 56q98 0 166.5 -59.5t68.5 -148.5zM374 950l67 -63l-96 -102h-115z" />
    <glyph glyph-name="sacute" unicode="&#x15b;" horiz-adv-x="405" 
d="M205 -10q-71 0 -120.5 38t-64.5 102l90 35q4 -38 31 -62.5t64 -24.5q36 0 55.5 16.5t19.5 40.5q0 41 -60 51q-20 4 -50 11q-62 16 -98.5 52.5t-36.5 90.5q0 64 50 102t115 38t114 -39t56 -101h-100q0 22 -20 37t-50 15t-50 -15t-20 -37q0 -42 60 -54l50 -10
q62 -14 98.5 -49t36.5 -92q0 -60 -49.5 -102.5t-120.5 -42.5zM271 715l72 -52l-99 -138h-98z" />
    <glyph glyph-name="Scircumflex" unicode="&#x15c;" horiz-adv-x="590" 
d="M520 540h-110q0 45 -36.5 77.5t-88.5 32.5q-55 0 -87.5 -29.5t-32.5 -75.5q0 -85 115 -115q19 -5 80 -19q82 -20 131 -71.5t49 -139.5t-67 -153t-178 -65q-101 0 -177 66.5t-78 151.5l105 40q-1 -71 44.5 -114t105.5 -43q64 0 102 32t38 85q0 87 -115 110q-41 9 -80 21
q-80 24 -130 78t-50 141q0 86 65 142t160 56q98 0 166.5 -59.5t68.5 -148.5zM337 947l104 -98l-63 -64l-85 82l-85 -82l-63 64l104 98h88z" />
    <glyph glyph-name="scircumflex" unicode="&#x15d;" horiz-adv-x="405" 
d="M205 -10q-71 0 -120.5 38t-64.5 102l90 35q4 -38 31 -62.5t64 -24.5q36 0 55.5 16.5t19.5 40.5q0 41 -60 51q-20 4 -50 11q-62 16 -98.5 52.5t-36.5 90.5q0 64 50 102t115 38t114 -39t56 -101h-100q0 22 -20 37t-50 15t-50 -15t-20 -37q0 -42 60 -54l50 -10
q62 -14 98.5 -49t36.5 -92q0 -60 -49.5 -102.5t-120.5 -42.5zM254 685l91 -106l-59 -54l-82 96l-82 -96l-59 54l91 106h100z" />
    <glyph glyph-name="Scedilla" unicode="&#x15e;" horiz-adv-x="590" 
d="M188 -196l41 69q24 -23 56 -23q35 0 35 25t-35 25h-23v84q-91 12 -155.5 75t-66.5 141l105 40q-1 -71 44.5 -114t105.5 -43q64 0 102 32t38 85q0 87 -115 110q-41 9 -80 21q-80 24 -130 78t-50 141q0 86 65 142t160 56q98 0 166.5 -59.5t68.5 -148.5h-110
q0 45 -36.5 77.5t-88.5 32.5q-55 0 -87.5 -29.5t-32.5 -75.5q0 -85 115 -115q19 -5 80 -19q82 -20 131 -71.5t49 -139.5q0 -79 -55 -141t-149 -74v-23q27 -4 49 -27.5t22 -59.5q0 -47 -34.5 -76t-89.5 -29q-53 0 -95 34z" />
    <glyph glyph-name="scedilla" unicode="&#x15f;" horiz-adv-x="405" 
d="M85 -181l41 69q24 -23 56 -23q35 0 35 25t-35 25h-23v80q-54 10 -90.5 46t-48.5 89l90 35q4 -38 31 -62.5t64 -24.5q36 0 55.5 16.5t19.5 40.5q0 41 -60 51q-20 4 -50 11q-62 16 -98.5 52.5t-36.5 90.5q0 64 50 102t115 38t114 -39t56 -101h-100q0 22 -20 37t-50 15
t-50 -15t-20 -37q0 -42 60 -54l50 -10q62 -14 98.5 -49t36.5 -92q0 -54 -40.5 -94.5t-101.5 -48.5v-15q27 -4 49 -27.5t22 -59.5q0 -47 -34.5 -76t-89.5 -29q-53 0 -95 34z" />
    <glyph glyph-name="Scaron" unicode="&#x160;" horiz-adv-x="590" 
d="M520 540h-110q0 45 -36.5 77.5t-88.5 32.5q-55 0 -87.5 -29.5t-32.5 -75.5q0 -85 115 -115q19 -5 80 -19q82 -20 131 -71.5t49 -139.5t-67 -153t-178 -65q-101 0 -177 66.5t-78 151.5l105 40q-1 -71 44.5 -114t105.5 -43q64 0 102 32t38 85q0 87 -115 110q-41 9 -80 21
q-80 24 -130 78t-50 141q0 86 65 142t160 56q98 0 166.5 -59.5t68.5 -148.5zM439 883l-104 -98h-88l-104 98l63 64l85 -82l85 82z" />
    <glyph glyph-name="scaron" unicode="&#x161;" horiz-adv-x="405" 
d="M205 -10q-71 0 -120.5 38t-64.5 102l90 35q4 -38 31 -62.5t64 -24.5q36 0 55.5 16.5t19.5 40.5q0 41 -60 51q-20 4 -50 11q-62 16 -98.5 52.5t-36.5 90.5q0 64 50 102t115 38t114 -39t56 -101h-100q0 22 -20 37t-50 15t-50 -15t-20 -37q0 -42 60 -54l50 -10
q62 -14 98.5 -49t36.5 -92q0 -60 -49.5 -102.5t-120.5 -42.5zM341 631l-91 -106h-100l-91 106l59 54l82 -96l82 96z" />
    <glyph glyph-name="Tcedilla" unicode="&#x162;" horiz-adv-x="530" 
d="M155 -181l41 69q24 -23 56 -23q35 0 35 25t-35 25h-23v85h-17v630h-202v100h510v-100h-202v-630h-15v-23q27 -4 49 -27.5t22 -59.5q0 -47 -34.5 -76t-89.5 -29q-53 0 -95 34z" />
    <glyph glyph-name="tcedilla" unicode="&#x163;" 
d="M107 -181l41 69q24 -23 56 -23q35 0 35 25t-35 25h-23v96q-80 30 -80 129v240h-91v90h91v100l79 100h19v-200h101v-90h-101v-240q0 -22 14 -36t37 -14l60 10v-90l-55 -10v-23q27 -4 49 -27.5t22 -59.5q0 -47 -34.5 -76t-89.5 -29q-53 0 -95 34z" />
    <glyph glyph-name="Tcaron" unicode="&#x164;" horiz-adv-x="530" 
d="M318 630v-630h-106v630h-202v100h510v-100h-202zM413 883l-104 -98h-88l-104 98l63 64l85 -82l85 82z" />
    <glyph glyph-name="tcaron" unicode="&#x165;" horiz-adv-x="374" 
d="M10 380v90h91v100l79 100h19v-200h101v-90h-101v-240q0 -22 14 -36t37 -14l60 10v-90l-55 -10q-75 0 -114.5 36t-39.5 104v240h-91zM390 760l-68 -211l-83 27l58 184h93z" />
    <glyph glyph-name="Tbar" unicode="&#x166;" horiz-adv-x="530" 
d="M318 630v-220h138v-100h-138v-310h-106v310h-136v100h136v220h-202v100h510v-100h-202z" />
    <glyph glyph-name="tbar" unicode="&#x167;" 
d="M10 380v90h91v100l79 100h19v-200h101v-90h-101v-70h101v-90h-101v-80q0 -22 14 -36t37 -14l60 10v-90l-55 -10q-75 0 -114.5 36t-39.5 104v80h-91v90h91v70h-91z" />
    <glyph glyph-name="Utilde" unicode="&#x168;" horiz-adv-x="655" 
d="M470 730v-515q0 -57 -43.5 -96t-106.5 -39q-65 0 -102.5 38.5t-37.5 96.5v515h-105v-510q0 -106 63 -173t167 -67q43 0 93 17.5t72 42.5l5 5l5 -5l15 -40h80v730h-105zM404 921q50 0 76.5 -33.5t20.5 -92.5h-82q6 39 -21 39q-9 0 -49 -19.5t-71 -19.5q-46 0 -71 27.5
t-21 77.5l83 22q-5 -39 22 -39q13 0 49 19t64 19z" />
    <glyph glyph-name="utilde" unicode="&#x169;" horiz-adv-x="520" 
d="M460 0v470h-100v-285q-2 -44 -34.5 -74.5t-75.5 -30.5q-97 0 -100 100v290h-100v-290q0 -84 51 -137t139 -53q31 0 63 14t47 36l5 5l5 -5l10 -40h90zM318 650q49 0 72.5 -31t17.5 -89h-74q3 39 -20 39q-9 0 -43.5 -21.5t-65.5 -21.5q-44 0 -67 27t-20 72l74 24
q-1 -22 3 -31.5t18 -9.5q13 0 45 21t60 21z" />
    <glyph glyph-name="Umacron" unicode="&#x16a;" horiz-adv-x="655" 
d="M470 730v-515q0 -57 -43.5 -96t-106.5 -39q-65 0 -102.5 38.5t-37.5 96.5v515h-105v-510q0 -106 63 -173t167 -67q43 0 93 17.5t72 42.5l5 5l5 -5l15 -40h80v730h-105zM192 815v80h270v-80h-270z" />
    <glyph glyph-name="umacron" unicode="&#x16b;" horiz-adv-x="520" 
d="M460 0v470h-100v-285q-2 -44 -34.5 -74.5t-75.5 -30.5q-97 0 -100 100v290h-100v-290q0 -84 51 -137t139 -53q31 0 63 14t47 36l5 5l5 -5l10 -40h90zM120 545v75h270v-75h-270z" />
    <glyph glyph-name="Ubreve" unicode="&#x16c;" horiz-adv-x="655" 
d="M470 730v-515q0 -57 -43.5 -96t-106.5 -39q-65 0 -102.5 38.5t-37.5 96.5v515h-105v-510q0 -106 63 -173t167 -67q43 0 93 17.5t72 42.5l5 5l5 -5l15 -40h80v730h-105zM329 785q-63 0 -99 38t-36 85v7h85v-1q0 -19 12.5 -34.5t37.5 -15.5t37.5 15.5t12.5 34.5v1h85v-7
q0 -47 -36 -85t-99 -38z" />
    <glyph glyph-name="ubreve" unicode="&#x16d;" horiz-adv-x="520" 
d="M460 0v470h-100v-285q-2 -44 -34.5 -74.5t-75.5 -30.5q-97 0 -100 100v290h-100v-290q0 -84 51 -137t139 -53q31 0 63 14t47 36l5 5l5 -5l10 -40h90zM258 523q-61 0 -98 36t-37 84v6h81v-2q0 -20 14.5 -35.5t39.5 -15.5t39.5 15.5t14.5 35.5v2h81v-6q0 -48 -37 -84
t-98 -36z" />
    <glyph glyph-name="Uring" unicode="&#x16e;" horiz-adv-x="655" 
d="M470 215v515h105v-730h-80l-15 40l-5 5l-5 -5q-22 -25 -72 -42.5t-93 -17.5q-104 0 -167 67t-63 173v510h105v-515q0 -58 37.5 -96.5t102.5 -38.5q63 0 106.5 39t43.5 96zM224 862q0 47 32.5 78t78.5 31t78.5 -31t32.5 -78t-32.5 -78t-78.5 -31t-78.5 31t-32.5 78z
M292 862q0 -19 12 -31t31 -12t31 12t12 31t-12 31t-31 12t-31 -12t-12 -31z" />
    <glyph glyph-name="uring" unicode="&#x16f;" horiz-adv-x="520" 
d="M460 470v-470h-90l-10 40l-5 5l-5 -5q-15 -22 -47 -36t-63 -14q-88 0 -139 53t-51 137v290h100v-290q3 -100 100 -100q43 0 75.5 30.5t34.5 74.5v285h100zM146 615q0 46 32 76.5t78 30.5t78 -30.5t32 -76.5t-32 -76.5t-78 -30.5t-78 30.5t-32 76.5zM211 615
q0 -19 12.5 -32t32.5 -13t32.5 13t12.5 32t-12.5 32t-32.5 13t-32.5 -13t-12.5 -32z" />
    <glyph glyph-name="Uhungarumlaut" unicode="&#x170;" horiz-adv-x="655" 
d="M470 730v-515q0 -57 -43.5 -96t-106.5 -39q-65 0 -102.5 38.5t-37.5 96.5v515h-105v-510q0 -106 63 -173t167 -67q43 0 93 17.5t72 42.5l5 5l5 -5l15 -40h80v730h-105zM294 949l78 -47l-76 -118h-96zM475 953l69 -57l-99 -112h-103z" />
    <glyph glyph-name="uhungarumlaut" unicode="&#x171;" horiz-adv-x="520" 
d="M460 0v470h-100v-285q-2 -44 -34.5 -74.5t-75.5 -30.5q-97 0 -100 100v290h-100v-290q0 -84 51 -137t139 -53q31 0 63 14t47 36l5 5l5 -5l10 -40h90zM215 696l81 -39l-75 -142h-93zM381 694l70 -50l-89 -129h-97z" />
    <glyph glyph-name="Uogonek" unicode="&#x172;" horiz-adv-x="655" 
d="M575 730v-730l-28 -57q-5 -10 -5 -23q0 -17 14 -27.5t33 -10.5h22l-22 -82h-5q-62 0 -99.5 25.5t-37.5 67.5q0 41 48 107l-15 40l-5 5l-5 -5q-22 -25 -72 -42.5t-93 -17.5q-104 0 -167 67t-63 173v510h105v-515q0 -58 37.5 -96.5t102.5 -38.5q63 0 106.5 39t43.5 96v515
h105z" />
    <glyph glyph-name="uogonek" unicode="&#x173;" horiz-adv-x="520" 
d="M460 470v-470l-28 -57q-5 -10 -5 -23q0 -17 14 -27.5t33 -10.5h22l-22 -82h-5q-62 0 -99.5 25.5t-37.5 67.5q0 41 48 107h-10l-10 40l-5 5l-5 -5q-15 -22 -47 -36t-63 -14q-88 0 -139 53t-51 137v290h100v-290q3 -100 100 -100q43 0 75.5 30.5t34.5 74.5v285h100z" />
    <glyph glyph-name="Wcircumflex" unicode="&#x174;" horiz-adv-x="871" 
d="M380 580h111l134 -398l119 548h106l-160 -730h-105l-150 423l-150 -423h-105l-160 730h106l119 -549zM479 947l104 -98l-63 -64l-85 82l-85 -82l-63 64l104 98h88z" />
    <glyph glyph-name="wcircumflex" unicode="&#x175;" horiz-adv-x="660" 
d="M190 135l90 265h100l90 -265l81 335h99l-130 -470h-95l-95 271l-95 -271h-95l-130 470h99zM380 685l91 -106l-59 -54l-82 96l-82 -96l-59 54l91 106h100z" />
    <glyph glyph-name="Ycircumflex" unicode="&#x176;" horiz-adv-x="550" 
d="M10 730h115l150 -261l149 261h116l-212 -370v-360h-106v360zM319 947l104 -98l-63 -64l-85 82l-85 -82l-63 64l104 98h88z" />
    <glyph glyph-name="ycircumflex" unicode="&#x177;" horiz-adv-x="430" 
d="M215 188l105 282h100l-250 -670h-100l98 262l-158 408h101zM265 685l91 -106l-59 -54l-82 96l-82 -96l-59 54l91 106h100z" />
    <glyph glyph-name="Ydieresis" unicode="&#x178;" horiz-adv-x="550" 
d="M125 730h-115l212 -370v-360h106v360l212 370h-116l-149 -261zM135 797v110h109v-110h-109zM305 797v110h110v-110h-110z" />
    <glyph glyph-name="Zacute" unicode="&#x179;" horiz-adv-x="560" 
d="M50 730v-100h363l-383 -530v-100h490v100h-373l383 530v100h-480zM359 950l67 -63l-96 -102h-115z" />
    <glyph glyph-name="zacute" unicode="&#x17a;" horiz-adv-x="460" 
d="M45 470v-90h260l-265 -290v-90h375v90h-263l268 290v90h-375zM306 715l72 -52l-99 -138h-98z" />
    <glyph glyph-name="Zdotaccent" unicode="&#x17b;" horiz-adv-x="560" 
d="M50 730v-100h363l-383 -530v-100h490v100h-373l383 530v100h-480zM237 797v110h110v-110h-110z" />
    <glyph glyph-name="zdotaccent" unicode="&#x17c;" horiz-adv-x="460" 
d="M45 470v-90h260l-265 -290v-90h375v90h-263l268 290v90h-375zM197 545v110h100v-110h-100z" />
    <glyph glyph-name="Zcaron" unicode="&#x17d;" horiz-adv-x="560" 
d="M50 630v100h480v-100l-383 -530h373v-100h-490v100l383 530h-363zM441 883l-104 -98h-88l-104 98l63 64l85 -82l85 82z" />
    <glyph glyph-name="zcaron" unicode="&#x17e;" horiz-adv-x="460" 
d="M45 380v90h375v-90l-268 -290h263v-90h-375v90l265 290h-260zM391 631l-91 -106h-100l-91 106l59 54l82 -96l82 96z" />
    <glyph glyph-name="florin" unicode="&#x192;" horiz-adv-x="360" 
d="M230 380v-370q0 -69 -38.5 -109.5t-111.5 -40.5l-70 10v90l75 -10q45 0 45 50v380h-120v90h120v140q0 69 38.5 109.5t111.5 40.5l70 -10v-90l-75 10q-45 0 -45 -50v-150h120v-90h-120z" />
    <glyph glyph-name="Aringacute" unicode="&#x1fa;" horiz-adv-x="650" 
d="M386 1152l72 -52l-75 -102h-98zM270 730l-250 -730h105l64 190h271l65 -190h105l-250 730h-110zM223 290l102 300l101 -300h-203zM215 865q0 -46 32 -76.5t78 -30.5t78 30.5t32 76.5t-32 76.5t-78 30.5t-78 -30.5t-32 -76.5zM280 865q0 19 13 32t32 13t32 -13t13 -32
t-13 -32t-32 -13t-32 13t-13 32z" />
    <glyph glyph-name="aringacute" unicode="&#x1fb;" horiz-adv-x="570" 
d="M510 0v470h-90l-10 -40l-5 -5l-5 5q-50 50 -130 50q-100 0 -170 -69t-70 -176t70 -176t170 -69q80 0 130 50l5 5l5 -5l10 -40h90zM420 235q0 -65 -41 -110t-104 -45q-69 0 -107.5 44t-38.5 111t38.5 111t107.5 44q63 0 104 -45t41 -110zM170 615q0 -46 32 -76.5t78 -30.5
t78 30.5t32 76.5t-32 76.5t-78 30.5t-78 -30.5t-32 -76.5zM235 615q0 19 12.5 32t32.5 13t32.5 -13t12.5 -32t-12.5 -32t-32.5 -13t-32.5 13t-12.5 32zM361 938l72 -52l-99 -138h-98z" />
    <glyph glyph-name="AEacute" unicode="&#x1fc;" horiz-adv-x="800" 
d="M240 730l-220 -730h105l58 200h223l59 -200h285v100h-210l-67 220h267v100h-297l-63 210h370v100h-510zM213 300l82 280l82 -280h-164zM559 950l67 -63l-96 -102h-115z" />
    <glyph glyph-name="aeacute" unicode="&#x1fd;" horiz-adv-x="851" 
d="M490 0v45l10 -10q44 -45 115 -45q126 0 195 120l-83 40q-26 -70 -112 -70q-59 0 -91 35.5t-34 89.5v5h330l10 30q4 108 -59.5 174t-150.5 66q-81 0 -120 -45l-10 -10v45h-90l-10 -40l-5 -5l-5 5q-50 50 -120 50q-99 0 -164.5 -68.5t-65.5 -176.5t65.5 -176.5t164.5 -68.5
q70 0 120 50l5 5l5 -5l10 -40h90zM400 235q0 -66 -36.5 -110.5t-98.5 -44.5q-68 0 -102 43.5t-34 111.5t34 111.5t102 43.5q62 0 98.5 -44.5t36.5 -110.5zM615 390q45 0 78 -26.5t33 -65.5h-236q29 92 125 92zM523 715l72 -52l-99 -138h-98z" />
    <glyph glyph-name="Oslashacute" unicode="&#x1fe;" horiz-adv-x="850" 
d="M40 365q0 -136 83 -240l-123 -125h130l59 60q104 -80 236 -80q160 0 272.5 112.5t112.5 272.5q0 135 -84 240l124 125h-130l-60 -60q-104 80 -235 80q-160 0 -272.5 -112.5t-112.5 -272.5zM145 364q0 125 78.5 205.5t201.5 80.5q96 0 166 -51l-397 -403q-49 73 -49 168z
M425 80q-95 0 -167 50l397 403q49 -74 49 -169q0 -124 -78 -204t-201 -80zM514 950l67 -63l-96 -102h-115z" />
    <glyph glyph-name="oslashacute" unicode="&#x1ff;" horiz-adv-x="550" 
d="M550 470h-110l-30 -32q-62 42 -135 42q-97 0 -171 -70t-74 -175q0 -85 50 -150l-80 -85h110l29 31q63 -41 136 -41q97 0 171 70t74 175q0 84 -50 149zM275 78q-41 0 -75 18l204 218q18 -34 18 -79q0 -67 -39 -112t-108 -45zM128 235q0 67 39 112t108 45q42 0 74 -19
l-204 -218q-17 37 -17 80zM350 715l72 -52l-99 -138h-98z" />
    <glyph glyph-name="Scommaaccent" unicode="&#x218;" horiz-adv-x="590" 
d="M520 540h-110q0 45 -36.5 77.5t-88.5 32.5q-55 0 -87.5 -29.5t-32.5 -75.5q0 -85 115 -115q19 -5 80 -19q82 -20 131 -71.5t49 -139.5t-67 -153t-178 -65q-101 0 -177 66.5t-78 151.5l105 40q-1 -71 44.5 -114t105.5 -43q64 0 102 32t38 85q0 87 -115 110q-41 9 -80 21
q-80 24 -130 78t-50 141q0 86 65 142t160 56q98 0 166.5 -59.5t68.5 -148.5zM355 -41l-63 -189l-86 28l53 161h96z" />
    <glyph glyph-name="scommaaccent" unicode="&#x219;" horiz-adv-x="405" 
d="M205 -10q-71 0 -120.5 38t-64.5 102l90 35q4 -38 31 -62.5t64 -24.5q36 0 55.5 16.5t19.5 40.5q0 41 -60 51q-20 4 -50 11q-62 16 -98.5 52.5t-36.5 90.5q0 64 50 102t115 38t114 -39t56 -101h-100q0 22 -20 37t-50 15t-50 -15t-20 -37q0 -42 60 -54l50 -10
q62 -14 98.5 -49t36.5 -92q0 -60 -49.5 -102.5t-120.5 -42.5zM264 -41l-63 -189l-86 28l53 161h96z" />
    <glyph glyph-name="Tcommaaccent" unicode="&#x21a;" horiz-adv-x="530" 
d="M318 630v-630h-106v630h-202v100h510v-100h-202zM316 -41l-63 -189l-86 28l53 161h96z" />
    <glyph glyph-name="tcommaaccent" unicode="&#x21b;" 
d="M10 380v90h91v100l79 100h19v-200h101v-90h-101v-240q0 -22 14 -36t37 -14l60 10v-90l-55 -10q-75 0 -114.5 36t-39.5 104v240h-91zM266 -41l-63 -189l-86 28l53 161h96z" />
    <glyph glyph-name="circumflex" unicode="&#x2c6;" horiz-adv-x="330" 
d="M215 685l91 -106l-59 -54l-82 96l-82 -96l-59 54l91 106h100z" />
    <glyph glyph-name="caron" unicode="&#x2c7;" horiz-adv-x="330" 
d="M306 631l-91 -106h-100l-91 106l59 54l82 -96l82 96z" />
    <glyph glyph-name="breve" unicode="&#x2d8;" horiz-adv-x="330" 
d="M165 523q-61 0 -98 36t-37 84v6h81v-2q0 -20 14.5 -35.5t39.5 -15.5t39.5 15.5t14.5 35.5v2h81v-6q0 -48 -37 -84t-98 -36z" />
    <glyph glyph-name="dotaccent" unicode="&#x2d9;" horiz-adv-x="330" 
d="M115 545v110h100v-110h-100z" />
    <glyph glyph-name="ring" unicode="&#x2da;" horiz-adv-x="330" 
d="M55 615q0 46 32 76.5t78 30.5t78 -30.5t32 -76.5t-32 -76.5t-78 -30.5t-78 30.5t-32 76.5zM120 615q0 -19 13 -32t32 -13t32 13t13 32t-13 32t-32 13t-32 -13t-13 -32z" />
    <glyph glyph-name="ogonek" unicode="&#x2db;" horiz-adv-x="330" 
d="M139 0h80l-28 -57q-5 -10 -5 -23q0 -17 14 -27.5t33 -10.5h22l-22 -82h-5q-62 0 -99.5 25.5t-37.5 67.5q0 41 48 107z" />
    <glyph glyph-name="tilde" unicode="&#x2dc;" 
d="M224 650q49 0 72.5 -31t17.5 -89h-74q3 39 -20 39q-9 0 -43.5 -21.5t-65.5 -21.5q-44 0 -67 27t-20 72l74 24q-1 -22 3 -31.5t18 -9.5q13 0 45 21t60 21z" />
    <glyph glyph-name="hungarumlaut" unicode="&#x2dd;" horiz-adv-x="330" 
d="M107 696l81 -39l-75 -142h-93zM273 694l70 -50l-89 -129h-97z" />
    <glyph glyph-name="pi" unicode="&#x3c0;" horiz-adv-x="450" 
d="M20 400l10 70h410v-70h-40l-40 -295q-2 -16 6.5 -25.5t23.5 -9.5h10v-70h-10q-49 0 -78 28.5t-22 81.5l40 290h-181v-400h-69v400h-60z" />
    <glyph glyph-name="afii10023" unicode="&#x401;" horiz-adv-x="570" 
d="M80 730v-730h440v100h-335v220h325v100h-325v210h335v100h-440zM164 797v110h109v-110h-109zM334 797v110h110v-110h-110z" />
    <glyph glyph-name="afii10051" unicode="&#x402;" horiz-adv-x="610" 
d="M390 105l55 -10q45 0 45 45v170q0 40 -19 60t-51 20q-42 0 -70.5 -29.5t-31.5 -72.5v-288h-106v630h-202v100h510v-100h-202v-200l5 -6l6 6q19 22 50 36t61 14q72 0 111 -42t39 -123v-175q0 -69 -38 -107t-112 -38l-50 10v100z" />
    <glyph glyph-name="afii10052" unicode="&#x403;" horiz-adv-x="550" 
d="M80 730v-730h105v630h355v100h-460zM397 950l67 -63l-96 -102h-115z" />
    <glyph glyph-name="afii10053" unicode="&#x404;" horiz-adv-x="740" 
d="M570 420v-100h-422q13 -108 84.5 -174t187.5 -66q141 0 220 110l70 -70q-52 -67 -129 -103.5t-161 -36.5q-164 0 -272 111t-108 273t107.5 274t267.5 112q84 0 161 -36.5t129 -103.5l-70 -70q-79 111 -215 111q-110 0 -182 -64t-88 -167h420z" />
    <glyph glyph-name="afii10054" unicode="&#x405;" horiz-adv-x="590" 
d="M520 540h-110q0 45 -36.5 77.5t-88.5 32.5q-55 0 -87.5 -29.5t-32.5 -75.5q0 -85 115 -115q19 -5 80 -19q82 -20 131 -71.5t49 -139.5t-67 -153t-178 -65q-101 0 -177 66.5t-78 151.5l105 40q-1 -71 44.5 -114t105.5 -43q64 0 102 32t38 85q0 87 -115 110q-41 9 -80 21
q-80 24 -130 78t-50 141q0 86 65 142t160 56q98 0 166.5 -59.5t68.5 -148.5z" />
    <glyph glyph-name="afii10055" unicode="&#x406;" horiz-adv-x="290" 
d="M75 0v100h17v530h-17v100h140v-100h-17v-530h17v-100h-140z" />
    <glyph glyph-name="afii10056" unicode="&#x407;" horiz-adv-x="290" 
d="M75 100v-100h140v100h-17v530h17v100h-140v-100h17v-530h-17zM5 797v110h109v-110h-109zM175 797v110h110v-110h-110z" />
    <glyph glyph-name="afii10057" unicode="&#x408;" horiz-adv-x="280" 
d="M50 -100l-20 10v90h20q20 0 32.5 11t12.5 29v690h105v-680q0 -68 -41 -109t-109 -41z" />
    <glyph glyph-name="afii10058" unicode="&#x409;" horiz-adv-x="820" 
d="M110 170v560h365v-310h100q95 0 160 -59t65 -151t-65 -151t-160 -59h-205v630h-155v-459q0 -75 -49.5 -128t-135.5 -53l-20 10v90h20q38 0 59 21t21 59zM475 100h105q48 0 81.5 28.5t33.5 81.5t-33.5 81.5t-81.5 28.5h-105v-220z" />
    <glyph glyph-name="afii10059" unicode="&#x40a;" horiz-adv-x="820" 
d="M63 0v100h17v530h-17v100h140v-100h-18v-210h185v310h105v-310h100q95 0 160 -59t65 -151t-65 -151t-160 -59h-205v320h-185v-220h18v-100h-140zM475 100h105q48 0 81.5 28.5t33.5 81.5t-33.5 81.5t-81.5 28.5h-105v-220z" />
    <glyph glyph-name="afii10060" unicode="&#x40b;" horiz-adv-x="640" 
d="M318 630v-200l5 -6l6 6q19 22 50 36t61 14q72 0 111 -42t39 -123v-315h-100v310q0 40 -19 60t-51 20q-42 0 -70.5 -29.5t-31.5 -72.5v-288h-106v630h-202v100h510v-100h-202z" />
    <glyph glyph-name="afii10061" unicode="&#x40c;" horiz-adv-x="590" 
d="M580 730h-125l-270 -300v300h-105v-730h105v310l271 -310h134l-325 371zM397 950l67 -63l-96 -102h-115z" />
    <glyph glyph-name="afii10062" unicode="&#x40e;" horiz-adv-x="560" 
d="M20 730h115l148 -340l152 340h115l-330 -730h-112l119 266zM291 785q-63 0 -99 38t-36 85v7h85v-1q0 -19 12.5 -34.5t37.5 -15.5t37.5 15.5t12.5 34.5v1h85v-7q0 -47 -36 -85t-99 -38z" />
    <glyph glyph-name="afii10145" unicode="&#x40f;" horiz-adv-x="670" 
d="M80 0v730h105v-630h300v630h105v-730h-203v-150h-105v150h-202z" />
    <glyph glyph-name="afii10017" unicode="&#x410;" horiz-adv-x="650" 
d="M20 0l250 730h110l250 -730h-105l-65 190h-271l-64 -190h-105zM325 590l-102 -300h203z" />
    <glyph glyph-name="afii10018" unicode="&#x411;" horiz-adv-x="620" 
d="M80 0v730h460v-100h-355v-210h170q98 0 161.5 -58.5t63.5 -151.5t-63.5 -151.5t-161.5 -58.5h-275zM185 100h175q48 0 81.5 28.5t33.5 81.5t-33.5 81.5t-81.5 28.5h-175v-220z" />
    <glyph glyph-name="afii10019" unicode="&#x412;" horiz-adv-x="630" 
d="M80 0v730h260q99 0 164.5 -55.5t65.5 -144.5q0 -49 -24 -90t-65 -66q99 -51 99 -169q0 -92 -65.5 -148.5t-164.5 -56.5h-270zM185 100h170q48 0 84 30t36 80q0 56 -35 83t-85 27h-170v-220zM185 420h160q50 0 85 26t35 79t-35 79t-85 26h-160v-210z" />
    <glyph glyph-name="afii10020" unicode="&#x413;" horiz-adv-x="550" 
d="M80 0v730h460v-100h-355v-630h-105z" />
    <glyph glyph-name="afii10021" unicode="&#x414;" horiz-adv-x="700" 
d="M140 190v540h460v-630h80v-250h-105v150h-460v-150h-105v250h48q38 2 60 25t22 65zM201 100h294v530h-255v-430q0 -58 -39 -100z" />
    <glyph glyph-name="afii10022" unicode="&#x415;" horiz-adv-x="570" 
d="M80 0v730h440v-100h-335v-210h325v-100h-325v-220h335v-100h-440z" />
    <glyph glyph-name="afii10024" unicode="&#x416;" horiz-adv-x="910" 
d="M20 730h125l258 -300v300h105v-300l257 300h125l-305 -360l315 -370h-134l-258 310v-310h-105v310l-259 -310h-134l315 370z" />
    <glyph glyph-name="afii10025" unicode="&#x417;" horiz-adv-x="600" 
d="M179 320v100h111q54 0 92 31.5t38 83.5q0 56 -40.5 85.5t-94.5 29.5t-94.5 -25.5t-40.5 -74.5h-105q0 83 69.5 141.5t170.5 58.5q97 0 168.5 -59.5t71.5 -150.5q0 -100 -91 -163q116 -53 116 -177q0 -97 -73.5 -158.5t-186.5 -61.5q-101 0 -173 55t-87 145l105 30
q4 -59 47 -94.5t108 -35.5t110 32.5t45 92.5q0 59 -41 87t-104 28h-121z" />
    <glyph glyph-name="afii10026" unicode="&#x418;" horiz-adv-x="690" 
d="M184 730v-540l311 540h115v-730h-104v550l-311 -550h-115v730h104z" />
    <glyph glyph-name="afii10027" unicode="&#x419;" horiz-adv-x="690" 
d="M184 730v-540l311 540h115v-730h-104v550l-311 -550h-115v730h104zM352 785q-63 0 -99 38t-36 85v7h85v-1q0 -19 12.5 -34.5t37.5 -15.5t37.5 15.5t12.5 34.5v1h85v-7q0 -47 -36 -85t-99 -38z" />
    <glyph glyph-name="afii10028" unicode="&#x41a;" horiz-adv-x="590" 
d="M455 730h125l-315 -359l325 -371h-134l-271 310v-310h-105v730h105v-300z" />
    <glyph glyph-name="afii10029" unicode="&#x41b;" horiz-adv-x="670" 
d="M110 170v560h470v-730h-105v630h-260v-459q0 -75 -49.5 -128t-135.5 -53l-20 10v90h20q38 0 59 21t21 59z" />
    <glyph glyph-name="afii10030" unicode="&#x41c;" horiz-adv-x="900" 
d="M450 264l220 466h150v-730h-104v589l-206 -429h-120l-206 429v-589h-104v730h150z" />
    <glyph glyph-name="afii10031" unicode="&#x41d;" horiz-adv-x="650" 
d="M465 420v310h105v-730h-105v320h-280v-320h-105v730h105v-310h280z" />
    <glyph glyph-name="afii10032" unicode="&#x41e;" horiz-adv-x="850" 
d="M40 365q0 160 112.5 272.5t272.5 112.5t272.5 -112.5t112.5 -272.5t-112.5 -272.5t-272.5 -112.5t-272.5 112.5t-112.5 272.5zM145 364q0 -124 78.5 -204t201.5 -80t201 80t78 204q0 125 -78 205.5t-201 80.5t-201.5 -80.5t-78.5 -205.5z" />
    <glyph glyph-name="afii10033" unicode="&#x41f;" horiz-adv-x="650" 
d="M80 0v730h490v-730h-105v630h-280v-630h-105z" />
    <glyph glyph-name="afii10034" unicode="&#x420;" horiz-adv-x="590" 
d="M80 0v730h265q98 0 161.5 -58.5t63.5 -151.5t-63.5 -151.5t-161.5 -58.5h-160v-310h-105zM185 410h165q48 0 81.5 28.5t33.5 81.5t-33.5 81.5t-81.5 28.5h-165v-220z" />
    <glyph glyph-name="afii10035" unicode="&#x421;" horiz-adv-x="740" 
d="M40 364q0 162 107.5 274t267.5 112q84 0 161 -36.5t129 -103.5l-70 -70q-79 111 -215 111q-125 0 -199.5 -81t-74.5 -205t75.5 -205t203.5 -81q136 0 215 111l70 -70q-52 -67 -129 -103.5t-161 -36.5q-164 0 -272 111t-108 273z" />
    <glyph glyph-name="afii10036" unicode="&#x422;" horiz-adv-x="530" 
d="M10 630v100h510v-100h-202v-630h-106v630h-202z" />
    <glyph glyph-name="afii10037" unicode="&#x423;" horiz-adv-x="550" 
d="M20 730h115l148 -340l152 340h115l-330 -730h-112l119 266z" />
    <glyph glyph-name="afii10038" unicode="&#x424;" horiz-adv-x="810" 
d="M353 620v110h104v-110h63q119 0 194.5 -69.5t75.5 -175.5t-75.5 -175.5t-194.5 -69.5h-63v-130h-104v130h-63q-119 0 -194.5 69.5t-75.5 175.5t75.5 175.5t194.5 69.5h63zM457 228h68q73 0 116.5 42.5t43.5 104.5t-43.5 104.5t-116.5 42.5h-68v-294zM125 375
q0 -62 43.5 -104.5t116.5 -42.5h68v294h-68q-73 0 -116.5 -42.5t-43.5 -104.5z" />
    <glyph glyph-name="afii10039" unicode="&#x425;" horiz-adv-x="580" 
d="M20 730h115l154 -260l155 260h116l-213 -357l223 -373h-116l-164 276l-164 -276h-116l222 373z" />
    <glyph glyph-name="afii10040" unicode="&#x426;" horiz-adv-x="690" 
d="M80 0v730h105v-630h300v630h105v-630h80v-250h-105v150h-485z" />
    <glyph glyph-name="afii10041" unicode="&#x427;" horiz-adv-x="630" 
d="M445 505v225h105v-730h-105v330l-5 5l-5 -5q-23 -27 -62 -43.5t-83 -16.5q-103 0 -161.5 66.5t-58.5 173.5v220h105v-225q0 -61 30.5 -98t94.5 -37q63 0 104 39t41 96z" />
    <glyph glyph-name="afii10042" unicode="&#x428;" horiz-adv-x="999" 
d="M447 100v630h105v-630h263v630h105v-730h-840v730h105v-630h262z" />
    <glyph glyph-name="afii10043" unicode="&#x429;" horiz-adv-x="1020" 
d="M185 730v-630h262v630h105v-630h263v630h105v-630h80v-250h-105v150h-815v730h105z" />
    <glyph glyph-name="afii10044" unicode="&#x42a;" horiz-adv-x="690" 
d="M10 630v100h245v-310h180q98 0 161.5 -58.5t63.5 -151.5t-63.5 -151.5t-161.5 -58.5h-285v630h-140zM255 100h185q48 0 81.5 28.5t33.5 81.5t-33.5 81.5t-81.5 28.5h-185v-220z" />
    <glyph glyph-name="afii10045" unicode="&#x42b;" horiz-adv-x="862" 
d="M80 0v730h105v-310h180q98 0 161.5 -58.5t63.5 -151.5t-63.5 -151.5t-161.5 -58.5h-285zM657 0v100h17v530h-17v100h140v-100h-17v-530h17v-100h-140zM185 100h185q48 0 81.5 28.5t33.5 81.5t-33.5 81.5t-81.5 28.5h-185v-220z" />
    <glyph glyph-name="afii10046" unicode="&#x42c;" horiz-adv-x="620" 
d="M80 0v730h105v-310h180q98 0 161.5 -58.5t63.5 -151.5t-63.5 -151.5t-161.5 -58.5h-285zM185 100h185q48 0 81.5 28.5t33.5 81.5t-33.5 81.5t-81.5 28.5h-185v-220z" />
    <glyph glyph-name="afii10047" unicode="&#x42d;" horiz-adv-x="740" 
d="M170 320v100h419q-16 103 -87.5 166.5t-181.5 63.5q-136 0 -215 -110l-70 70q52 67 129 103.5t161 36.5q160 0 267.5 -112t107.5 -274t-108 -273t-272 -111q-84 0 -161 36.5t-129 103.5l70 70q79 -110 220 -110q115 0 186.5 66t84.5 174h-421z" />
    <glyph glyph-name="afii10048" unicode="&#x42e;" horiz-adv-x="1035" 
d="M63 0v100h17v530h-17v100h140v-100h-18v-210h102q17 143 115 236.5t237 93.5q153 0 254.5 -111.5t101.5 -273.5t-101.5 -273.5t-254.5 -111.5q-141 0 -239.5 96.5t-113.5 243.5h-101v-220h18v-100h-140zM389 364q0 -120 68.5 -202t181.5 -82t181.5 82t68.5 202
q0 121 -68.5 203.5t-181.5 82.5t-181.5 -82.5t-68.5 -203.5z" />
    <glyph glyph-name="afii10049" unicode="&#x42f;" horiz-adv-x="610" 
d="M277 320q-94 0 -163 57t-69 148q0 94 65.5 149.5t159.5 55.5h260v-730h-105v320h-20l-256 -320h-119v20zM265 420h160v210h-160q-47 0 -81 -29t-34 -76t34 -76t81 -29z" />
    <glyph glyph-name="afii10065" unicode="&#x430;" horiz-adv-x="570" 
d="M510 470v-470h-90l-10 40l-5 5l-5 -5q-50 -50 -130 -50q-100 0 -170 69t-70 176t70 176t170 69q80 0 130 -50l5 -5l5 5l10 40h90zM420 235q0 65 -41 110t-104 45q-69 0 -107.5 -44t-38.5 -111t38.5 -111t107.5 -44q63 0 104 45t41 110z" />
    <glyph glyph-name="afii10066" unicode="&#x431;" horiz-adv-x="560" 
d="M390 700q50 20 50 51v9h80l10 -10q6 -52 -21 -81.5t-86 -54.5q-64 -27 -135 -48q-75 -22 -113 -63.5t-35 -87.5l5 -5l5 5q22 27 58.5 46t81.5 19q100 0 170 -69t70 -176q0 -105 -74 -175t-171 -70t-165 67.5t-76 172.5t4 180.5t44.5 122t71.5 73t96 46.5q56 19 130 48z
M140 235q0 -67 42 -111t103 -44q66 0 106 44.5t40 110.5t-40 110.5t-106 44.5t-105.5 -44.5t-39.5 -110.5z" />
    <glyph glyph-name="afii10067" unicode="&#x432;" horiz-adv-x="480" 
d="M60 0v470h200q81 0 125.5 -37t44.5 -98q0 -59 -56 -95q66 -36 66 -100t-46.5 -102t-128.5 -38h-205zM158 86h117q29 0 47 15.5t18 38.5q0 55 -65 55h-117v-109zM158 280h107q28 0 46.5 12.5t18.5 37.5q0 26 -17.5 40t-47.5 14h-107v-104z" />
    <glyph glyph-name="afii10068" unicode="&#x433;" horiz-adv-x="410" 
d="M60 0v470h340v-90h-240v-380h-100z" />
    <glyph glyph-name="afii10069" unicode="&#x434;" horiz-adv-x="550" 
d="M10 -120v210h31q27 2 43 20t16 50v310h370v-380h60v-210h-100v120h-320v-120h-100zM164 90h206v290h-170v-210q0 -51 -36 -80z" />
    <glyph glyph-name="afii10070" unicode="&#x435;" horiz-adv-x="505" 
d="M470 210h-340q0 -55 36.5 -92.5t98.5 -37.5q43 0 73.5 19.5t42.5 50.5l84 -40q-69 -120 -205 -120q-96 0 -163 69t-67 176q0 108 65.5 176.5t164.5 68.5q92 0 156 -67t64 -173zM260 390q-98 0 -125 -92h240q-4 39 -37 65.5t-78 26.5z" />
    <glyph glyph-name="afii10072" unicode="&#x436;" horiz-adv-x="740" 
d="M420 280l170 190h130l-215 -229l220 -241h-125l-180 200v-200h-100v200l-180 -200h-125l220 241l-215 229h130l170 -190v190h100v-190z" />
    <glyph glyph-name="afii10073" unicode="&#x437;" horiz-adv-x="421" 
d="M141 195v88h70q36 0 55.5 14.5t19.5 37.5q0 24 -20.5 40t-59.5 16t-62.5 -15.5t-23.5 -35.5h-94q0 54 53.5 97t126.5 43q75 0 125 -40t50 -100q0 -63 -58 -101q68 -36 68 -104q0 -60 -49.5 -102.5t-135.5 -42.5q-71 0 -120 37t-66 93l91 30q4 -29 28.5 -50t66.5 -21
q45 0 67.5 18t22.5 43q0 26 -24 40.5t-66 14.5h-65z" />
    <glyph glyph-name="afii10074" unicode="&#x438;" horiz-adv-x="520" 
d="M60 0v470h98v-320l187 320h115v-470h-98v320l-187 -320h-115z" />
    <glyph glyph-name="afii10075" unicode="&#x439;" horiz-adv-x="520" 
d="M60 470v-470h115l187 320v-320h98v470h-115l-187 -320v320h-98zM268 523q-61 0 -98 36t-37 84v6h81v-2q0 -20 14.5 -35.5t39.5 -15.5t39.5 15.5t14.5 35.5v2h81v-6q0 -48 -37 -84t-98 -36z" />
    <glyph glyph-name="afii10076" unicode="&#x43a;" horiz-adv-x="480" 
d="M160 280l190 190h130l-226 -226l236 -244h-130l-200 200v-200h-100v470h100v-190z" />
    <glyph glyph-name="afii10077" unicode="&#x43b;" horiz-adv-x="510" 
d="M80 130v340h370v-470h-100v380h-170v-245q0 -74 -41.5 -114.5t-113.5 -40.5l-15 10v90h20q22 0 36 14t14 36z" />
    <glyph glyph-name="afii10078" unicode="&#x43c;" horiz-adv-x="610" 
d="M305 164l130 306h115v-470h-90v310l-110 -260h-90l-110 260v-310h-90v470h115z" />
    <glyph glyph-name="afii10079" unicode="&#x43d;" horiz-adv-x="520" 
d="M60 0v470h100v-180h200v180h100v-470h-100v200h-200v-200h-100z" />
    <glyph glyph-name="afii10080" unicode="&#x43e;" horiz-adv-x="550" 
d="M30 235q0 106 72.5 175.5t172.5 69.5t172.5 -69.5t72.5 -175.5t-72.5 -175.5t-172.5 -69.5t-172.5 69.5t-72.5 175.5zM130 235q0 -67 38 -111t107 -44t107 44t38 111t-38 111t-107 44t-107 -44t-38 -111z" />
    <glyph glyph-name="afii10081" unicode="&#x43f;" horiz-adv-x="520" 
d="M60 0v470h400v-470h-100v380h-200v-380h-100z" />
    <glyph glyph-name="afii10082" unicode="&#x440;" horiz-adv-x="570" 
d="M60 -212v682h90l9 -40l6 -5l5 5q50 50 130 50q100 0 170 -69t70 -176t-70 -176t-170 -69q-80 0 -130 50l-5 5l-6 -5v-252h-99zM150 235q0 -65 41 -110t104 -45q69 0 107 44t38 111t-38 111t-107 44q-63 0 -104 -45t-41 -110z" />
    <glyph glyph-name="afii10083" unicode="&#x441;" horiz-adv-x="500" 
d="M128 235q0 -67 39 -111t108 -44q43 0 76 24t46 56l83 -50q-30 -54 -85.5 -87t-124.5 -33q-97 0 -168.5 69.5t-71.5 175.5t71.5 175.5t168.5 69.5q69 0 124 -33t85 -87l-83 -50q-13 33 -46 56.5t-75 23.5q-69 0 -108 -44t-39 -111z" />
    <glyph glyph-name="afii10084" unicode="&#x442;" horiz-adv-x="440" 
d="M20 380v90h400v-90h-150v-380h-100v380h-150z" />
    <glyph glyph-name="afii10085" unicode="&#x443;" horiz-adv-x="430" 
d="M215 188l105 282h100l-250 -670h-100l98 262l-158 408h101z" />
    <glyph glyph-name="afii10086" unicode="&#x444;" horiz-adv-x="700" 
d="M400 0v-212h-100v212q-117 0 -188.5 67.5t-71.5 167.5t71.5 167.5t188.5 67.5v290h100v-290q117 0 188.5 -67.5t71.5 -167.5t-71.5 -167.5t-188.5 -67.5zM140 235q0 -66 39.5 -105.5t115.5 -39.5h5v290h-5q-76 0 -115.5 -39.5t-39.5 -105.5zM400 90h5q76 0 115.5 39.5
t39.5 105.5t-39.5 105.5t-115.5 39.5h-5v-290z" />
    <glyph glyph-name="afii10087" unicode="&#x445;" horiz-adv-x="430" 
d="M215 326l95 144h110l-150 -228l160 -242h-110l-105 159l-105 -159h-110l160 242l-150 228h110z" />
    <glyph glyph-name="afii10088" unicode="&#x446;" horiz-adv-x="530" 
d="M60 0v470h100v-380h200v380h100v-380h60v-210h-100v120h-360z" />
    <glyph glyph-name="afii10089" unicode="&#x447;" horiz-adv-x="480" 
d="M430 470v-470h-100v180l-5 5l-5 -5q-42 -50 -110 -50q-84 0 -132 52.5t-48 137.5v150h100v-140q0 -52 25 -81t70 -29q44 0 74 28.5t31 71.5v150h100z" />
    <glyph glyph-name="afii10090" unicode="&#x448;" horiz-adv-x="740" 
d="M581 90v380h99v-470h-620v470h99v-380h162v380h98v-380h162z" />
    <glyph glyph-name="afii10091" unicode="&#x449;" horiz-adv-x="750" 
d="M580 90v380h100v-380h60v-210h-100v120h-580v470h100v-380h160v380h100v-380h160z" />
    <glyph glyph-name="afii10092" unicode="&#x44a;" horiz-adv-x="510" 
d="M20 380v90h210v-140h50q88 0 139 -46t51 -119t-51 -119t-139 -46h-150v380h-110zM230 89h55q41 0 63.5 21t22.5 55t-22.5 55t-63.5 21h-55v-152z" />
    <glyph glyph-name="afii10093" unicode="&#x44b;" horiz-adv-x="620" 
d="M60 0v470h100v-140h70q88 0 139 -46t51 -119t-51 -119t-139 -46h-170zM460 0v470h100v-470h-100zM160 90h75q41 0 63 20.5t22 54.5t-22 54.5t-63 20.5h-75v-150z" />
    <glyph glyph-name="afii10094" unicode="&#x44c;" horiz-adv-x="450" 
d="M70 0v470h100v-140h50q88 0 139 -46t51 -119t-51 -119t-139 -46h-150zM170 89h55q41 0 63.5 21t22.5 55t-22.5 55t-63.5 21h-55v-152z" />
    <glyph glyph-name="afii10095" unicode="&#x44d;" horiz-adv-x="500" 
d="M160 192v88h208q-12 51 -49 80.5t-94 29.5q-42 0 -75 -23.5t-46 -56.5l-83 50q30 54 85 87t124 33q97 0 168.5 -69.5t71.5 -175.5t-71.5 -175.5t-168.5 -69.5q-69 0 -124.5 33t-85.5 87l83 50q13 -32 46 -56t76 -24q58 0 95 30t48 82h-208z" />
    <glyph glyph-name="afii10096" unicode="&#x44e;" horiz-adv-x="710" 
d="M60 0v470h100v-190h63q15 89 79.5 144.5t152.5 55.5q99 0 167 -69t68 -176t-68 -176t-167 -69q-88 0 -152.5 55.5t-79.5 144.5h-63v-190h-100zM320 235q0 -69 36 -112t99 -43t99 43t36 112t-36 112t-99 43t-99 -43t-36 -112z" />
    <glyph glyph-name="afii10097" unicode="&#x44f;" horiz-adv-x="480" 
d="M145 0h-105v10l156 182q-69 6 -110 45.5t-41 88.5q0 66 43 105t127 39h195v-470h-92v192h-18zM140 330q0 -27 20 -43.5t52 -16.5h108v120h-113q-32 0 -49.5 -16.5t-17.5 -43.5z" />
    <glyph glyph-name="afii10071" unicode="&#x451;" horiz-adv-x="505" 
d="M470 210h-340q0 -55 36.5 -92.5t98.5 -37.5q43 0 73.5 19.5t42.5 50.5l84 -40q-69 -120 -205 -120q-96 0 -163 69t-67 176q0 108 65.5 176.5t164.5 68.5q92 0 156 -67t64 -173zM260 390q-98 0 -125 -92h240q-4 39 -37 65.5t-78 26.5zM117 555v110h99v-110h-99zM287 555
v110h100v-110h-100z" />
    <glyph glyph-name="afii10099" unicode="&#x452;" horiz-adv-x="520" 
d="M270 -112l55 -10q45 0 45 50v352q0 110 -100 110q-44 0 -76 -31t-34 -75v-284h-100v570h-50v90h50v100h100v-100h110v-90h-110v-140l5 -5l5 5q15 22 47 36t63 14q88 0 139 -53t51 -137v-352q0 -69 -38.5 -109.5t-111.5 -40.5l-50 10v90z" />
    <glyph glyph-name="afii10100" unicode="&#x453;" horiz-adv-x="410" 
d="M60 470v-470h100v380h240v90h-340zM291 715l72 -52l-99 -138h-98z" />
    <glyph glyph-name="afii10101" unicode="&#x454;" horiz-adv-x="500" 
d="M340 280v-88h-209q12 -52 49 -82t95 -30q43 0 76 24t46 56l83 -50q-30 -54 -85.5 -87t-124.5 -33q-97 0 -168.5 69.5t-71.5 175.5t71.5 175.5t168.5 69.5q69 0 124 -33t85 -87l-83 -50q-13 33 -46 56.5t-75 23.5q-57 0 -94 -29.5t-49 -80.5h208z" />
    <glyph glyph-name="afii10102" unicode="&#x455;" horiz-adv-x="405" 
d="M205 -10q-71 0 -120.5 38t-64.5 102l90 35q4 -38 31 -62.5t64 -24.5q36 0 55.5 16.5t19.5 40.5q0 41 -60 51q-20 4 -50 11q-62 16 -98.5 52.5t-36.5 90.5q0 64 50 102t115 38t114 -39t56 -101h-100q0 22 -20 37t-50 15t-50 -15t-20 -37q0 -42 60 -54l50 -10
q62 -14 98.5 -49t36.5 -92q0 -60 -49.5 -102.5t-120.5 -42.5z" />
    <glyph glyph-name="afii10103" unicode="&#x456;" horiz-adv-x="220" 
d="M61 0v470h98v-470h-98zM60 550v110h100v-110h-100z" />
    <glyph glyph-name="afii10104" unicode="&#x457;" horiz-adv-x="220" 
d="M-25 555v110h99v-110h-99zM145 555v110h100v-110h-100zM61 0v470h98v-470h-98z" />
    <glyph glyph-name="afii10105" unicode="&#x458;" horiz-adv-x="229" 
d="M25 -132l-55 10v-90l50 -10q73 0 111 40t38 110v542h-99v-552q0 -50 -45 -50zM70 560v110h99v-110h-99z" />
    <glyph glyph-name="afii10106" unicode="&#x459;" horiz-adv-x="620" 
d="M80 140v330h280v-140h40q88 0 139 -46t51 -119t-51 -119t-139 -46h-140v380h-80v-235q0 -74 -41.5 -114.5t-113.5 -40.5l-15 10v90h20q22 0 36 14t14 36zM360 90h45q41 0 63 20.5t22 54.5t-22 54.5t-63 20.5h-45v-150z" />
    <glyph glyph-name="afii10107" unicode="&#x45a;" horiz-adv-x="620" 
d="M60 0v470h100v-140h100v140h100v-140h40q88 0 139 -46t51 -119t-51 -119t-139 -46h-140v240h-100v-240h-100zM360 90h45q41 0 63 20.5t22 54.5t-22 54.5t-63 20.5h-45v-150z" />
    <glyph glyph-name="afii10108" unicode="&#x45b;" horiz-adv-x="520" 
d="M10 570v90h50v100h100v-100h110v-90h-110v-140l5 -5l5 5q15 22 47 36t63 14q88 0 139 -53t51 -137v-290h-100v280q0 110 -100 110q-44 0 -76 -31t-34 -75v-284h-100v570h-50z" />
    <glyph glyph-name="afii10109" unicode="&#x45c;" horiz-adv-x="480" 
d="M350 470l-190 -190v480h-100v-760h100v200l200 -200h130l-236 244l226 226h-130zM193 945l58 -53l-86 -96h-102z" />
    <glyph glyph-name="afii10110" unicode="&#x45e;" horiz-adv-x="430" 
d="M320 470l-105 -282l-104 282h-101l158 -408l-98 -262h100l250 670h-100zM215 523q-61 0 -98 36t-37 84v6h81v-2q0 -20 14.5 -35.5t39.5 -15.5t39.5 15.5t14.5 35.5v2h81v-6q0 -48 -37 -84t-98 -36z" />
    <glyph glyph-name="afii10193" unicode="&#x45f;" horiz-adv-x="520" 
d="M60 0v470h99v-380h202v380h99v-470h-150v-130h-100v130h-150z" />
    <glyph glyph-name="afii10050" unicode="&#x490;" horiz-adv-x="530" 
d="M415 730v110h105v-120l-90 -90h-245v-630h-105v730h335z" />
    <glyph glyph-name="afii10098" unicode="&#x491;" horiz-adv-x="410" 
d="M60 0v470h240v120h100v-130l-90 -80h-150v-380h-100z" />
    <glyph glyph-name="Wgrave" unicode="&#x1e80;" horiz-adv-x="871" 
d="M380 580h111l134 -398l119 548h106l-160 -730h-105l-150 423l-150 -423h-105l-160 730h106l119 -549zM309 887l67 63l144 -165h-115z" />
    <glyph glyph-name="wgrave" unicode="&#x1e81;" horiz-adv-x="660" 
d="M280 400l-90 -265l-81 335h-99l130 -470h95l95 271l95 -271h95l130 470h-99l-81 -335l-90 265h-100zM182 663l72 52l125 -190h-98z" />
    <glyph glyph-name="Wacute" unicode="&#x1e82;" horiz-adv-x="871" 
d="M380 580h111l134 -398l119 548h106l-160 -730h-105l-150 423l-150 -423h-105l-160 730h106l119 -549zM535 950l67 -63l-96 -102h-115z" />
    <glyph glyph-name="wacute" unicode="&#x1e83;" horiz-adv-x="660" 
d="M280 400l-90 -265l-81 335h-99l130 -470h95l95 271l95 -271h95l130 470h-99l-81 -335l-90 265h-100zM414 715l72 -52l-99 -138h-98z" />
    <glyph glyph-name="Wdieresis" unicode="&#x1e84;" horiz-adv-x="871" 
d="M380 580h111l134 -398l119 548h106l-160 -730h-105l-150 423l-150 -423h-105l-160 730h106l119 -549zM295 797v110h109v-110h-109zM465 797v110h110v-110h-110z" />
    <glyph glyph-name="wdieresis" unicode="&#x1e85;" horiz-adv-x="660" 
d="M280 400l-90 -265l-81 335h-99l130 -470h95l95 271l95 -271h95l130 470h-99l-81 -335l-90 265h-100zM195 555v110h99v-110h-99zM365 555v110h100v-110h-100z" />
    <glyph glyph-name="Ygrave" unicode="&#x1ef2;" horiz-adv-x="550" 
d="M10 730h115l150 -261l149 261h116l-212 -370v-360h-106v360zM141 887l67 63l144 -165h-115z" />
    <glyph glyph-name="ygrave" unicode="&#x1ef3;" horiz-adv-x="430" 
d="M320 470l-105 -282l-104 282h-101l158 -408l-98 -262h100l250 670h-100zM86 663l72 52l125 -190h-98z" />
    <glyph glyph-name="endash" unicode="&#x2013;" horiz-adv-x="610" 
d="M30 340h550v-90h-550v90z" />
    <glyph glyph-name="emdash" unicode="&#x2014;" horiz-adv-x="900" 
d="M30 340h840v-90h-840v90z" />
    <glyph glyph-name="quoteleft" unicode="&#x2018;" horiz-adv-x="236" 
d="M10 470l105 260l90 -40l-90 -220h-105z" />
    <glyph glyph-name="quoteright" unicode="&#x2019;" horiz-adv-x="235" 
d="M220 730l-106 -260l-89 40l90 220h105z" />
    <glyph glyph-name="quotesinglbase" unicode="&#x201a;" horiz-adv-x="236" 
d="M10 -100l105 260l90 -40l-90 -220h-105z" />
    <glyph glyph-name="quotedblleft" unicode="&#x201c;" horiz-adv-x="391" 
d="M165 470l105 260l90 -40l-90 -220h-105zM10 470l105 260l89 -40l-89 -220h-105z" />
    <glyph glyph-name="quotedblright" unicode="&#x201d;" horiz-adv-x="391" 
d="M219 730l-104 -260l-90 40l90 220h104zM375 730l-104 -260l-91 40l90 220h105z" />
    <glyph glyph-name="quotedblbase" unicode="&#x201e;" horiz-adv-x="391" 
d="M165 -100l105 260l90 -40l-90 -220h-105zM10 -100l105 260l89 -40l-89 -220h-105z" />
    <glyph glyph-name="dagger" unicode="&#x2020;" horiz-adv-x="450" 
d="M260 610h160v-70h-160v-540h-70v540h-160v70h160v120h70v-120z" />
    <glyph glyph-name="daggerdbl" unicode="&#x2021;" horiz-adv-x="450" 
d="M190 0v120h-160v70h160v350h-160v70h160v120h70v-120h160v-70h-160v-350h160v-70h-160v-120h-70z" />
    <glyph glyph-name="bullet" unicode="&#x2022;" horiz-adv-x="540" 
d="M50 340q0 91 64.5 155.5t155.5 64.5t155.5 -64.5t64.5 -155.5t-64.5 -155.5t-155.5 -64.5t-155.5 64.5t-64.5 155.5zM140 450q0 -8 6 -14t14 -6t13.5 6t5.5 14t-5.5 14t-13.5 6t-14 -6t-6 -14z" />
    <glyph glyph-name="ellipsis" unicode="&#x2026;" horiz-adv-x="730" 
d="M30 0v130h129v-130h-129zM320 0v130h120v-130h-120zM590 0v130h110v-130h-110z" />
    <glyph glyph-name="perthousand" unicode="&#x2030;" horiz-adv-x="835" 
d="M475 345q0 66 42.5 110.5t112.5 44.5t112.5 -44.5t42.5 -110.5q0 -65 -41.5 -109.5t-109.5 -45.5q6 -21 6 -45q0 -66 -42.5 -110.5t-112.5 -44.5t-112.5 44.5t-42.5 110.5q0 65 41.5 109.5t109.5 45.5q-6 21 -6 45zM50 585q0 66 42.5 110.5t112.5 44.5t112.5 -44.5
t42.5 -110.5t-42.5 -110.5t-112.5 -44.5t-112.5 44.5t-42.5 110.5zM650 730l-530 -730h-80l530 730h80zM400 145q0 -40 25 -64.5t60 -24.5t60 24.5t25 64.5t-25 64.5t-60 24.5t-60 -24.5t-25 -64.5zM545 345q0 -40 25 -64.5t60 -24.5t60 24.5t25 64.5t-25 64.5t-60 24.5
t-60 -24.5t-25 -64.5zM120 585q0 -40 25 -64.5t60 -24.5t60 24.5t25 64.5t-25 64.5t-60 24.5t-60 -24.5t-25 -64.5z" />
    <glyph glyph-name="guilsinglleft" unicode="&#x2039;" horiz-adv-x="320" 
d="M280 64l-261 231l261 231v-106l-140 -125l140 -125v-106z" />
    <glyph glyph-name="guilsinglright" unicode="&#x203a;" horiz-adv-x="320" 
d="M40 526l260 -231l-260 -231v106l140 125l-140 125v106z" />
    <glyph glyph-name="interrobang" unicode="&#x203d;" horiz-adv-x="480" 
d="M170 170l-90 300l-60 260h120l7 -38q17 17 46.5 27.5t56.5 10.5q85 0 142.5 -51.5t57.5 -138.5q0 -40 -14 -75t-35 -58t-46 -46.5t-46.5 -41t-36 -41.5t-16 -48t13.5 -60h-100zM350 530q0 48 -30.5 76.5t-79.5 28.5q-48 0 -76 -31l26 -134v-145q16 24 46.5 50.5t54 45.5
t41.5 48t18 61zM160 0v120h120v-120h-120z" />
    <glyph glyph-name="asterism" unicode="&#x2042;" horiz-adv-x="890" 
d="M410 450l-78 -78l-50 50l78 78h-110v70h110l-78 78l50 50l78 -78v110h70v-110l78 78l50 -50l-78 -78h110v-70h-110l78 -78l-50 -50l-78 78v-110h-70v110zM580 160h-110v70h160v160h70v-110l78 78l50 -50l-78 -78h110v-70h-160v-160h-70v110l-78 -78l-50 50zM190 160h-160
v70h110l-78 78l50 50l78 -78v110h70v-160h160v-70h-110l78 -78l-50 -50l-78 78v-110h-70v160z" />
    <glyph glyph-name="fraction" unicode="&#x2044;" horiz-adv-x="680" 
d="M680 730l-600 -730h-80l600 730h80z" />
    <glyph glyph-name="zerosuperior" unicode="&#x2070;" 
d="M170 540q-63 0 -99 52.5t-36 135.5q0 84 36 135.5t99 51.5t99 -51.5t36 -135.5q0 -83 -36 -135.5t-99 -52.5zM170 850q-65 0 -65 -122q0 -123 65 -123t65 123q0 122 -65 122z" />
    <glyph glyph-name="foursuperior" unicode="&#x2074;" 
d="M170 910h90v-205h50v-65h-50v-95h-70v95h-170v65zM98 705h92v126z" />
    <glyph glyph-name="fivesuperior" unicode="&#x2075;" 
d="M300 670q0 -54 -37 -92t-93 -38q-58 0 -94 36t-36 84h70q0 -23 17.5 -39t42.5 -16q27 0 43.5 17t16.5 44q0 31 -20.5 47.5t-52.5 16.5q-40 0 -80 -7l-27 52l47 135h188v-65h-145l-22 -59q19 9 49 9q60 0 96.5 -34.5t36.5 -90.5z" />
    <glyph glyph-name="sixsuperior" unicode="&#x2076;" 
d="M177 605q24 0 39 15.5t15 39.5q0 25 -15.5 41t-40.5 16q-23 0 -39 -16t-16 -41q0 -24 16 -39.5t41 -15.5zM40 725q1 79 37.5 134.5t104.5 55.5q47 0 78.5 -29.5t31.5 -80.5h-67q0 23 -13.5 35.5t-34.5 12.5q-62 0 -69 -101q27 27 74 27q55 0 87.5 -34.5t32.5 -84.5
t-35 -85t-90 -35q-68 0 -105 55q-32 47 -32 130z" />
    <glyph glyph-name="sevensuperior" unicode="&#x2077;" 
d="M230 845h-185v65h260v-60q-64 -120 -130 -305h-70v15q34 91 125 285z" />
    <glyph glyph-name="eightsuperior" unicode="&#x2078;" 
d="M50 810q0 47 35 76t85 29t85 -29t35 -76q0 -48 -40 -75q50 -25 50 -85q0 -46 -36 -78t-94 -32t-94 32t-36 78q0 60 50 85q-40 29 -40 75zM110 652q0 -21 17 -34t43 -13q27 0 43.5 13t16.5 34q0 24 -17 37.5t-43 13.5q-25 0 -42.5 -13.5t-17.5 -37.5zM120 806
q0 -17 13.5 -29t36.5 -12q24 0 37 12t13 29q0 19 -14 31.5t-36 12.5t-36 -12.5t-14 -31.5z" />
    <glyph glyph-name="ninesuperior" unicode="&#x2079;" 
d="M163 850q-24 0 -39 -15.5t-15 -39.5q0 -25 15.5 -41t40.5 -16q23 0 39 16t16 41q0 24 -16 39.5t-41 15.5zM300 730q-1 -79 -37.5 -134.5t-104.5 -55.5q-47 0 -78.5 29.5t-31.5 80.5h67q0 -23 13.5 -35.5t34.5 -12.5q62 0 69 101q-27 -27 -74 -27q-55 0 -87.5 34.5
t-32.5 84.5t35 85t90 35q68 0 105 -55q32 -47 32 -130z" />
    <glyph glyph-name="zeroinferior" unicode="&#x2080;" 
d="M170 -185q-63 0 -99 52.5t-36 135.5q0 84 36 135.5t99 51.5t99 -51.5t36 -135.5q0 -83 -36 -135.5t-99 -52.5zM170 125q-65 0 -65 -122q0 -123 65 -123t65 123q0 122 -65 122z" />
    <glyph glyph-name="oneinferior" unicode="&#x2081;" 
d="M46 65l85 120h95v-365h-68v295l-41 -60h-71v10z" />
    <glyph glyph-name="twoinferior" unicode="&#x2082;" 
d="M47 60v10q0 57 35.5 88.5t84.5 31.5q53 0 86.5 -31.5t33.5 -83.5q0 -51 -54 -100q-15 -15 -42.5 -34t-43 -32t-15.5 -24h160v-65h-245v40q1 32 21 56.5t57.5 52t51.5 41.5q40 40 40 65q0 23 -13.5 36.5t-36.5 13.5t-36.5 -13.5t-13.5 -36.5v-15h-70z" />
    <glyph glyph-name="threeinferior" unicode="&#x2083;" 
d="M295 185v-65l-100 -66q47 -5 76 -36t29 -78q0 -50 -37.5 -87.5t-93.5 -37.5q-57 0 -93 36.5t-36 83.5h70q0 -23 17 -39t42 -16q27 0 44 16t17 39q0 27 -18 43.5t-48 16.5h-64v55l92 70h-142v65h245z" />
    <glyph glyph-name="fourinferior" unicode="&#x2084;" 
d="M170 185h90v-205h50v-65h-50v-95h-70v95h-170v65zM98 -20h92v126z" />
    <glyph glyph-name="fiveinferior" unicode="&#x2085;" 
d="M300 -55q0 -54 -37 -92t-93 -38q-58 0 -94 36.5t-36 83.5h70q0 -23 17.5 -39t42.5 -16q27 0 43.5 17t16.5 44q0 31 -20.5 47.5t-52.5 16.5q-40 0 -80 -7l-27 52l47 135h188v-65h-145l-22 -59q20 9 49 9q60 0 96.5 -34.5t36.5 -90.5z" />
    <glyph glyph-name="sixinferior" unicode="&#x2086;" 
d="M177 -120q24 0 39 15.5t15 39.5q0 25 -15.5 41t-40.5 16q-23 0 -39 -16t-16 -41q0 -24 16 -39.5t41 -15.5zM40 0q1 79 37.5 134.5t104.5 55.5q47 0 78.5 -29.5t31.5 -80.5h-67q0 23 -13.5 35.5t-34.5 12.5q-62 0 -69 -101q27 27 74 27q55 0 87.5 -34.5t32.5 -84.5
t-35 -85t-90 -35q-68 0 -105 55q-32 47 -32 130z" />
    <glyph glyph-name="seveninferior" unicode="&#x2087;" 
d="M230 120h-185v65h260v-60q-64 -120 -130 -305h-70v15q34 91 125 285z" />
    <glyph glyph-name="eightinferior" unicode="&#x2088;" 
d="M50 85q0 47 35 76t85 29t85 -29t35 -76q0 -48 -40 -75q50 -25 50 -85q0 -46 -36 -78t-94 -32t-94 32t-36 78q0 60 50 85q-40 29 -40 75zM110 -73q0 -21 17 -34t43 -13q27 0 43.5 13t16.5 34q0 24 -17 37.5t-43 13.5q-25 0 -42.5 -13.5t-17.5 -37.5zM120 81
q0 -17 13.5 -29t36.5 -12q24 0 37 12t13 29q0 19 -14 31.5t-36 12.5t-36 -12.5t-14 -31.5z" />
    <glyph glyph-name="nineinferior" unicode="&#x2089;" 
d="M163 125q-24 0 -39 -15.5t-15 -39.5q0 -25 15.5 -41t40.5 -16q23 0 39 16t16 41q0 24 -16 39.5t-41 15.5zM300 5q-1 -79 -37.5 -134.5t-104.5 -55.5q-47 0 -78.5 29.5t-31.5 80.5h67q0 -23 13.5 -35.5t34.5 -12.5q62 0 69 101q-27 -27 -74 -27q-55 0 -87.5 34.5
t-32.5 84.5t35 85t90 35q68 0 105 -55q32 -47 32 -130z" />
    <glyph glyph-name="Euro" unicode="&#x20ac;" horiz-adv-x="650" 
d="M25 555l77 -15q37 93 109.5 146.5t163.5 53.5q101 0 171 -56.5t94 -143.5h-100q-15 45 -56 77.5t-109 32.5q-61 0 -106.5 -33.5t-71.5 -95.5l213 -41l-15 -85l-220 42q-5 -27 -5 -72q0 -44 6 -83l219 43l15 -85l-209 -41q55 -119 174 -119q68 0 109 32.5t57 77.5h99
q-24 -87 -94 -143.5t-171 -56.5q-88 0 -159.5 50.5t-109.5 139.5l-81 -15l-15 85l70 13q-10 46 -10 102q0 45 8 91l-68 14z" />
    <glyph glyph-name="afii61352" unicode="&#x2116;" horiz-adv-x="900" 
d="M370 730v-551l-160 551h-130v-730h90v561l160 -561h130v730h-90zM530 570q0 79 45.5 124.5t109.5 45.5t109.5 -45.5t45.5 -124.5t-45.5 -124.5t-109.5 -45.5t-109.5 45.5t-45.5 124.5zM540 360v-85h290v85h-290zM616 570q0 -39 18 -64.5t51 -25.5t51 25.5t18 64.5
t-18 64.5t-51 25.5t-51 -25.5t-18 -64.5z" />
    <glyph glyph-name="trademark" unicode="&#x2122;" horiz-adv-x="850" 
d="M790 730v-435h-77v335l-100 -210h-86l-100 210v-335h-77v435h110l110 -223l110 223h110zM10 650v80h300v-80h-105v-355h-80v355h-115z" />
    <glyph glyph-name="Omega" unicode="&#x2126;" horiz-adv-x="550" 
d="M275 730q103 0 171.5 -74t74.5 -196q1 -30 0 -60q-5 -98 -48 -169t-114 -97v-66h121v-68h-190v190q64 0 110 55t51 155q1 30 0 60q-4 96 -51.5 149t-124.5 53q-76 0 -123.5 -53t-51.5 -149q-2 -30 0 -60q5 -100 50.5 -155t109.5 -55v-190h-190v68h121v66q-70 26 -113 97
t-48 169q-2 30 0 60q6 122 74.5 196t170.5 74z" />
    <glyph glyph-name="uni2160" unicode="&#x2160;" horiz-adv-x="390" 
d="M70 0v99h75v533h-75v98h250v-98h-75v-533h75v-99h-250z" />
    <glyph glyph-name="uni2161" unicode="&#x2161;" horiz-adv-x="620" 
d="M60 0v99h55v533h-55v98h210v-98h-55v-533h55v-99h-210zM350 0v99h55v533h-55v98h210v-98h-55v-533h55v-99h-210z" />
    <glyph glyph-name="uni2162" unicode="&#x2162;" horiz-adv-x="910" 
d="M60 0v99h55v533h-55v98h210v-98h-55v-533h55v-99h-210zM350 0v99h55v533h-55v98h210v-98h-55v-533h55v-99h-210zM640 0v99h55v533h-55v98h210v-98h-55v-533h55v-99h-210z" />
    <glyph glyph-name="uni2163" unicode="&#x2163;" horiz-adv-x="910" 
d="M340 730h105l155 -583l155 583h105l-206 -730h-108zM60 0v99h55v533h-55v98h210v-98h-55v-533h55v-99h-210z" />
    <glyph glyph-name="uni2164" unicode="&#x2164;" horiz-adv-x="620" 
d="M50 730h105l160 -583l160 583h105l-211 -730h-108z" />
    <glyph glyph-name="uni2165" unicode="&#x2165;" horiz-adv-x="910" 
d="M465 730h105l-206 -730h-108l-206 730h105l155 -583zM850 99v-99h-210v99h55v533h-55v98h210v-98h-55v-533h55z" />
    <glyph glyph-name="uni2166" unicode="&#x2166;" horiz-adv-x="1210" 
d="M465 730h105l-206 -730h-108l-206 730h105l155 -583zM850 99v-99h-210v99h55v533h-55v98h210v-98h-55v-533h55zM930 99v-99h210v99h-55v533h55v98h-210v-98h55v-533h-55z" />
    <glyph glyph-name="uni2167" unicode="&#x2167;" horiz-adv-x="1460" 
d="M465 730h105l-206 -730h-108l-206 730h105l155 -583zM840 99v-99h-210v99h55v533h-55v98h210v-98h-55v-533h55zM910 99v-99h210v99h-55v533h55v98h-210v-98h55v-533h-55zM1190 99v-99h210v99h-55v533h55v98h-210v-98h55v-533h-55z" />
    <glyph glyph-name="uni2168" unicode="&#x2168;" horiz-adv-x="910" 
d="M667 365l208 -365h-114l-151 265l-151 -265h-114l208 365l-208 365h114l151 -265l151 265h114zM60 0v99h55v533h-55v98h210v-98h-55v-533h55v-99h-210z" />
    <glyph glyph-name="uni2169" unicode="&#x2169;" horiz-adv-x="620" 
d="M366 365l214 -365h-113l-157 268l-157 -268h-113l213 365l-213 365h113l157 -269l157 269h113z" />
    <glyph glyph-name="uni216A" unicode="&#x216a;" horiz-adv-x="910" 
d="M35 0l208 365l-208 365h114l151 -265l151 265h114l-208 -365l208 -365h-114l-151 265l-151 -265h-114zM850 99v-99h-210v99h55v533h-55v98h210v-98h-55v-533h55z" />
    <glyph glyph-name="uni216B" unicode="&#x216b;" horiz-adv-x="1210" 
d="M35 0l208 365l-208 365h114l151 -265l151 265h114l-208 -365l208 -365h-114l-151 265l-151 -265h-114zM850 99v-99h-210v99h55v533h-55v98h210v-98h-55v-533h55zM930 99v-99h210v99h-55v533h55v98h-210v-98h55v-533h-55z" />
    <glyph glyph-name="uni216C" unicode="&#x216c;" horiz-adv-x="610" 
d="M110 0v730h100v-631h340v-99h-440z" />
    <glyph glyph-name="uni216D" unicode="&#x216d;" horiz-adv-x="720" 
d="M180 365q0 -130 55.5 -204t149.5 -74q69 0 109.5 29.5t56.5 73.5h104q-24 -86 -96.5 -143t-173.5 -57q-130 0 -217.5 104.5t-87.5 270.5t87.5 270.5t217.5 104.5q101 0 173.5 -57t96.5 -143h-105q-15 43 -55.5 73t-109.5 30q-94 0 -149.5 -74t-55.5 -204z" />
    <glyph glyph-name="uni216E" unicode="&#x216e;" horiz-adv-x="730" 
d="M110 0v730h170q162 0 266 -102t104 -263t-104 -263t-266 -102h-170zM285 632h-75v-534h75q124 0 194.5 71.5t70.5 195.5t-70.5 195.5t-194.5 71.5z" />
    <glyph glyph-name="uni216F" unicode="&#x216f;" horiz-adv-x="890" 
d="M445 274l195 456h140v-730h-98v595l-175 -415h-124l-175 415v-595h-98v730h140z" />
    <glyph glyph-name="uni2180" unicode="&#x2180;" horiz-adv-x="1170" 
d="M550 685v45h170q162 0 266 -102t104 -263t-104 -263t-266 -102h-170v45q-68 -55 -165 -55q-130 0 -217.5 104.5t-87.5 270.5t87.5 270.5t217.5 104.5q97 0 165 -55zM180 365q0 -130 55.5 -204t149.5 -74q69 0 109 29.5t56 73.5v350q-15 43 -55.5 73t-109.5 30
q-94 0 -149.5 -74t-55.5 -204zM725 632h-75v-534h75q124 0 194.5 71.5t70.5 195.5t-70.5 195.5t-194.5 71.5z" />
    <glyph glyph-name="uni2181" unicode="&#x2181;" horiz-adv-x="730" 
d="M110 0v730h170q162 0 266 -102t104 -263t-104 -263t-266 -102h-170zM285 632h-75v-82h70q81 0 135.5 -52t54.5 -133t-54.5 -133t-135.5 -52h-70v-82h75q124 0 194.5 71.5t70.5 195.5t-70.5 195.5t-194.5 71.5zM285 460h-75v-190h75q42 0 68.5 25.5t26.5 69.5
q0 43 -26.5 69t-68.5 26z" />
    <glyph glyph-name="partialdiff" unicode="&#x2202;" horiz-adv-x="450" 
d="M421 280q-6 -117 -69.5 -203.5t-166.5 -86.5q-75 0 -120 49.5t-45 135.5q0 48 15.5 99t43 95t72.5 72.5t99 28.5q33 0 61 -15.5t41 -38.5q-8 127 -58 187t-114 60q-52 0 -74.5 -30t-14.5 -83h-65q-11 86 33.5 133t120.5 47q36 0 69.5 -12t68 -44.5t59 -81.5t37.5 -129.5
t7 -182.5zM249 401q-76 0 -117.5 -70.5t-41.5 -155.5q0 -53 25 -84t70 -31q77 0 121 68t44 152q0 55 -27.5 88t-73.5 33z" />
    <glyph glyph-name="Delta" unicode="&#x2206;" horiz-adv-x="450" 
d="M260 730l180 -660v-70h-430v70l180 660h70zM370 70l-145 553l-145 -553h290z" />
    <glyph glyph-name="product" unicode="&#x220f;" horiz-adv-x="450" 
d="M420 630v-70h-20v-772h-70v772h-210v-772h-70v772h-20v70h390z" />
    <glyph glyph-name="summation" unicode="&#x2211;" horiz-adv-x="450" 
d="M430 -142v-70h-420v70l340 392l-340 410v70h420v-70h-325l315 -370v-70l-315 -362h325z" />
    <glyph glyph-name="minus" unicode="&#x2212;" horiz-adv-x="540" 
d="M510 250h-480v80h480v-80z" />
    <glyph glyph-name="radical" unicode="&#x221a;" horiz-adv-x="450" 
d="M235 -40l145 770h70l-180 -942h-70l-130 612h-70v70h130z" />
    <glyph glyph-name="infinity" unicode="&#x221e;" horiz-adv-x="540" 
d="M10 290q0 60 34 95t91 35q74 0 134 -73q61 73 136 73q57 0 91 -35t34 -95t-34 -95t-91 -35q-75 0 -136 73q-60 -73 -134 -73q-57 0 -91 35t-34 95zM77 290q0 -25 15 -42.5t43 -17.5q52 0 94 60q-44 60 -94 60q-28 0 -43 -17.5t-15 -42.5zM405 350q-48 0 -94 -60
q46 -60 94 -60q28 0 43 17.5t15 42.5t-15 42.5t-43 17.5z" />
    <glyph glyph-name="integral" unicode="&#x222b;" horiz-adv-x="450" 
d="M275 330v-392q0 -69 -38.5 -109.5t-111.5 -40.5h-85v72h100q45 0 45 50l-10 420v280q0 69 38.5 109.5t111.5 40.5h85v-70h-100q-45 0 -45 -50z" />
    <glyph glyph-name="therefore" unicode="&#x2234;" horiz-adv-x="580" 
d="M30 0v130h120v-130h-120zM230 340v130h120v-130h-120zM430 0v130h120v-130h-120z" />
    <glyph glyph-name="because" unicode="&#x2235;" horiz-adv-x="580" 
d="M30 340v130h120v-130h-120zM230 0v130h120v-130h-120zM430 340v130h120v-130h-120z" />
    <glyph glyph-name="approxequal" unicode="&#x2248;" horiz-adv-x="540" 
d="M360 355q-27 0 -83 -25t-102 -25q-62 0 -97 35t-28 100h90q-4 -21 8.5 -33t31.5 -12q28 0 87 25t98 25q62 0 97 -35t28 -100h-90q4 21 -8.5 33t-31.5 12zM360 175q-27 0 -83 -25t-102 -25q-62 0 -97 35t-28 100h90q-4 -21 8.5 -33t31.5 -12q28 0 87 25t98 25q62 0 97 -35
t28 -100h-90q4 21 -8.5 33t-31.5 12z" />
    <glyph glyph-name="notequal" unicode="&#x2260;" horiz-adv-x="540" 
d="M270 240h240v-80h-300l-120 -160h-60v20l105 140h-105v80h165l75 100h-240v80h300l120 160h60v-20l-105 -140h105v-80h-165z" />
    <glyph glyph-name="lessequal" unicode="&#x2264;" horiz-adv-x="540" 
d="M500 0h-460v78h380l-380 172v80l460 220v-80l-377 -180l377 -170v-120z" />
    <glyph glyph-name="greaterequal" unicode="&#x2265;" horiz-adv-x="540" 
d="M500 0h-460v120l377 170l-377 180v80l460 -220v-80l-381 -172h381v-78z" />
    <glyph glyph-name="lozenge" unicode="&#x25ca;" horiz-adv-x="420" 
d="M30 365l140 365h80l140 -365l-140 -365h-80zM110 365l100 -275l100 275l-100 275z" />
    <glyph glyph-name="uni25FC" unicode="&#x25fc;" horiz-adv-x="470" 
d="M0 470h470v-470h-470v470z" />
    <glyph glyph-name="at.cap" horiz-adv-x="920" 
d="M330 310q10 -125 115 -125q48 0 78 33t33 87q2 30 0 60q-3 56 -32.5 88t-78.5 32t-80 -33t-35 -92q-2 -26 0 -50zM580 175l-5 5l-5 -5q-46 -70 -136 -70q-81 0 -134 53.5t-60 151.5q-2 24 0 50q7 95 62 150t132 55q80 0 127 -60l19 50h60v-320q0 -25 16 -40t39 -15
q100 0 100 170q0 153 -90 249t-245 96q-156 0 -253 -100.5t-97 -259.5t97 -259.5t253 -100.5q70 0 110 26.5t39 68.5l65 -40q-7 -61 -67.5 -95.5t-146.5 -34.5q-187 0 -308.5 123.5t-121.5 311.5q0 186 124.5 310.5t305.5 124.5q180 0 297.5 -118.5t117.5 -301.5
q0 -106 -45.5 -175.5t-134.5 -69.5q-38 0 -69 18.5t-46 51.5z" />
    <glyph glyph-name="zero.tnum" horiz-adv-x="550" 
d="M525 365q0 -166 -66.5 -270.5t-183.5 -104.5q-118 0 -184 104.5t-66 270.5t66 270.5t184 104.5q117 0 183.5 -104.5t66.5 -270.5zM125 365q0 -130 37 -204.5t113 -74.5t113 74.5t37 204.5t-37 204.5t-113 74.5t-113 -74.5t-37 -204.5z" />
    <glyph glyph-name="one.tnum" horiz-adv-x="550" 
d="M60 0v99h170v515l-55 -74h-105v20l140 170h120v-631h160v-99h-430z" />
    <glyph glyph-name="two.tnum" horiz-adv-x="550" 
d="M50 490v30q0 95 68.5 157.5t161.5 62.5q95 0 162.5 -59.5t67.5 -160.5q0 -42 -18.5 -81.5t-35 -59t-46.5 -49.5q-47 -47 -113 -97t-99 -79.5t-33 -54.5h335v-99h-460v50q0 47 32 94.5t71.5 80t101 82t95.5 83.5q43 43 55 65q15 29 15 65q0 57 -39 90t-91 33t-91.5 -33
t-39.5 -90v-30h-99z" />
    <glyph glyph-name="three.tnum" horiz-adv-x="550" 
d="M445 730l60 -99l-214 -173q98 -5 161 -70.5t63 -162.5q0 -91 -68 -163t-172 -72q-103 0 -171.5 66.5t-68.5 158.5h100q0 -56 40 -93t100 -37q59 0 99.5 41.5t40.5 98.5q0 66 -42.5 105.5t-107.5 39.5h-101v90l206 171h-305v99h380z" />
    <glyph glyph-name="four.tnum" horiz-adv-x="550" 
d="M20 190v95l300 445h130v-445h80v-95h-80v-190h-100v190h-330zM132 285h218v319q-145 -214 -218 -319z" />
    <glyph glyph-name="five.tnum" horiz-adv-x="550" 
d="M265 492q111 0 184 -69t73 -183q0 -108 -70.5 -179t-176.5 -71q-108 0 -176.5 70.5t-68.5 179.5h100q0 -66 39.5 -110.5t105.5 -44.5q68 0 106.5 44t38.5 111q0 73 -43.5 115t-116.5 45q-49 2 -145 -5l-45 95l85 240h320v-99h-256l-55 -145q34 6 101 6z" />
    <glyph glyph-name="six.tnum" horiz-adv-x="550" 
d="M285 86q60 0 97.5 39.5t37.5 99.5q0 61 -38.5 100.5t-100.5 39.5q-59 0 -96 -39.5t-37 -100.5q0 -57 39 -98t98 -41zM30 365q1 74 16 139t45 119t82 85.5t119 31.5q91 0 152.5 -59t60.5 -151h-100q0 54 -33 84.5t-84 30.5q-47 0 -81.5 -28t-51 -72.5t-24 -88t-6.5 -85.5
q67 89 165 89q105 0 167.5 -68.5t62.5 -166.5q0 -95 -64 -165t-168 -70q-64 0 -117 29.5t-85 80.5q-58 91 -56 265z" />
    <glyph glyph-name="seven.tnum" horiz-adv-x="550" 
d="M515 730v-99q-15 -29 -41 -82.5t-93.5 -219t-120.5 -329.5h-100v20q99 287 248 611h-373v99h480z" />
    <glyph glyph-name="eight.tnum" horiz-adv-x="550" 
d="M50 540q0 82 67 141t158 59t158 -59t67 -141q0 -101 -91 -159q106 -57 106 -181q0 -88 -68 -149t-172 -61t-172 61t-68 149q0 124 105 181q-90 58 -90 159zM135 205q0 -52 40 -86t100 -34t100 34t40 86q0 56 -39.5 90.5t-100.5 34.5q-58 0 -99 -35t-41 -90zM150 535
q0 -44 34 -78t91 -34t91 34t34 78q0 48 -36 79t-89 31t-89 -31t-36 -79z" />
    <glyph glyph-name="nine.tnum" horiz-adv-x="550" 
d="M264 644q-60 0 -97.5 -39.5t-37.5 -99.5t40 -99.5t100 -39.5q59 0 95.5 39t36.5 100q0 57 -39 98t-98 41zM519 365q-1 -74 -16 -139t-45 -119t-82 -85.5t-119 -31.5q-91 0 -152.5 59t-60.5 151h100q0 -54 33 -84.5t84 -30.5q47 0 81.5 28t51 72.5t24 88t6.5 85.5
q-60 -89 -165 -89t-167.5 68.5t-62.5 166.5q0 95 65 165t170 70q70 0 127 -38.5t87 -102.5q43 -92 41 -234z" />
    <glyph glyph-name="zero.dnom" 
d="M170 360q-63 0 -99 52.5t-36 135.5q0 84 36 135.5t99 51.5t99 -51.5t36 -135.5q0 -83 -36 -135.5t-99 -52.5zM170 670q-65 0 -65 -122q0 -123 65 -123t65 123q0 122 -65 122z" />
    <glyph glyph-name="one.dnom" 
d="M46 610l85 120h95v-365h-68v295l-41 -60h-71v10z" />
    <glyph glyph-name="two.dnom" 
d="M47 605v10q0 57 35.5 88.5t84.5 31.5q53 0 86.5 -31.5t33.5 -83.5q0 -51 -54 -100q-15 -15 -42.5 -34t-43 -32t-15.5 -24h160v-65h-245v40q1 32 21 56.5t57.5 52t51.5 41.5q40 40 40 65q0 22 -13.5 36t-36.5 14t-36.5 -14t-13.5 -36v-15h-70z" />
    <glyph glyph-name="three.dnom" 
d="M295 730v-65l-100 -66q47 -5 76 -36t29 -78q0 -50 -37.5 -87.5t-93.5 -37.5q-57 0 -93 36.5t-36 83.5h70q0 -23 17 -39t42 -16q27 0 44 16t17 39q0 27 -18 43.5t-48 16.5h-64v55l92 70h-142v65h245z" />
    <glyph glyph-name="four.dnom" 
d="M170 730h90v-205h50v-65h-50v-95h-70v95h-170v65zM98 525h92v126z" />
    <glyph glyph-name="five.dnom" 
d="M300 490q0 -54 -37 -92t-93 -38q-58 0 -94 36t-36 84h70q0 -23 17.5 -39t42.5 -16q27 0 43.5 17t16.5 44q0 31 -20.5 47.5t-52.5 16.5q-40 0 -80 -7l-27 52l47 135h188v-65h-145l-22 -59q19 9 49 9q60 0 96.5 -34.5t36.5 -90.5z" />
    <glyph glyph-name="six.dnom" 
d="M177 425q24 0 39 15.5t15 39.5q0 25 -15.5 41t-40.5 16q-23 0 -39 -16t-16 -41q0 -24 16 -39.5t41 -15.5zM40 545q1 79 37.5 134.5t104.5 55.5q47 0 78.5 -29.5t31.5 -80.5h-67q0 23 -13.5 35.5t-34.5 12.5q-62 0 -69 -101q27 27 74 27q55 0 87.5 -34.5t32.5 -84.5
t-35 -85t-90 -35q-68 0 -105 55q-32 47 -32 130z" />
    <glyph glyph-name="seven.dnom" 
d="M230 665h-185v65h260v-60q-64 -120 -130 -305h-70v15q34 91 125 285z" />
    <glyph glyph-name="eight.dnom" 
d="M50 630q0 47 35 76t85 29t85 -29t35 -76q0 -48 -40 -75q50 -25 50 -85q0 -46 -36 -78t-94 -32t-94 32t-36 78q0 60 50 85q-40 29 -40 75zM110 472q0 -21 17 -34t43 -13q27 0 43.5 13t16.5 34q0 24 -17 37.5t-43 13.5q-25 0 -42.5 -13.5t-17.5 -37.5zM120 626
q0 -17 13.5 -29t36.5 -12q24 0 37 12t13 29q0 19 -14 31.5t-36 12.5t-36 -12.5t-14 -31.5z" />
    <glyph glyph-name="nine.dnom" 
d="M163 670q-24 0 -39 -15.5t-15 -39.5q0 -25 15.5 -41t40.5 -16q23 0 39 16t16 41q0 24 -16 39.5t-41 15.5zM300 550q-1 -79 -37.5 -134.5t-104.5 -55.5q-47 0 -78.5 29.5t-31.5 80.5h67q0 -23 13.5 -35.5t34.5 -12.5q62 0 69 101q-27 -27 -74 -27q-55 0 -87.5 34.5
t-32.5 84.5t35 85t90 35q68 0 105 -55q32 -47 32 -130z" />
    <glyph glyph-name="zero.numr" 
d="M170 -5q-63 0 -99 52.5t-36 135.5q0 84 36 135.5t99 51.5t99 -51.5t36 -135.5q0 -83 -36 -135.5t-99 -52.5zM170 305q-65 0 -65 -122q0 -123 65 -123t65 123q0 122 -65 122z" />
    <glyph glyph-name="one.numr" 
d="M46 245l85 120h95v-365h-68v295l-41 -60h-71v10z" />
    <glyph glyph-name="two.numr" 
d="M47 240v10q0 57 35.5 88.5t84.5 31.5q53 0 86.5 -31.5t33.5 -83.5q0 -51 -54 -100q-15 -15 -42.5 -34t-43 -32t-15.5 -24h160v-65h-245v40q1 32 21 56.5t57.5 52t51.5 41.5q40 40 40 65q0 23 -13.5 36.5t-36.5 13.5t-36.5 -13.5t-13.5 -36.5v-15h-70z" />
    <glyph glyph-name="three.numr" 
d="M295 365v-65l-100 -66q47 -5 76 -36t29 -78q0 -50 -37.5 -87.5t-93.5 -37.5q-57 0 -93 36.5t-36 83.5h70q0 -23 17 -39t42 -16q27 0 44 16t17 39q0 27 -18 43.5t-48 16.5h-64v55l92 70h-142v65h245z" />
    <glyph glyph-name="four.numr" 
d="M170 365h90v-205h50v-65h-50v-95h-70v95h-170v65zM98 160h92v126z" />
    <glyph glyph-name="five.numr" 
d="M300 125q0 -54 -37 -92t-93 -38q-58 0 -94 36.5t-36 83.5h70q0 -23 17.5 -39t42.5 -16q27 0 43.5 17t16.5 44q0 31 -20.5 47.5t-52.5 16.5q-40 0 -80 -7l-27 52l47 135h188v-65h-145l-22 -59q19 9 49 9q60 0 96.5 -34.5t36.5 -90.5z" />
    <glyph glyph-name="six.numr" 
d="M177 60q24 0 39 15.5t15 39.5q0 25 -15.5 41t-40.5 16q-23 0 -39 -16t-16 -41q0 -24 16 -39.5t41 -15.5zM40 180q1 79 37.5 134.5t104.5 55.5q47 0 78.5 -29.5t31.5 -80.5h-67q0 23 -13.5 35.5t-34.5 12.5q-62 0 -69 -101q27 27 74 27q55 0 87.5 -34.5t32.5 -84.5
t-35 -85t-90 -35q-68 0 -105 55q-32 47 -32 130z" />
    <glyph glyph-name="seven.numr" 
d="M230 300h-185v65h260v-60q-64 -120 -130 -305h-70v15q34 91 125 285z" />
    <glyph glyph-name="eight.numr" 
d="M50 265q0 47 35 76t85 29t85 -29t35 -76q0 -48 -40 -75q50 -25 50 -85q0 -46 -36 -78t-94 -32t-94 32t-36 78q0 60 50 85q-40 29 -40 75zM110 107q0 -21 17 -34t43 -13q27 0 43.5 13t16.5 34q0 24 -17 37.5t-43 13.5q-25 0 -42.5 -13.5t-17.5 -37.5zM120 261
q0 -17 13.5 -29t36.5 -12q24 0 37 12t13 29q0 19 -14 31.5t-36 12.5t-36 -12.5t-14 -31.5z" />
    <glyph glyph-name="nine.numr" 
d="M163 305q-24 0 -39 -15.5t-15 -39.5q0 -25 15.5 -41t40.5 -16q23 0 39 16t16 41q0 24 -16 39.5t-41 15.5zM300 185q-1 -79 -37.5 -134.5t-104.5 -55.5q-47 0 -78.5 29.5t-31.5 80.5h67q0 -23 13.5 -35.5t34.5 -12.5q62 0 69 101q-27 -27 -74 -27q-55 0 -87.5 34.5
t-32.5 84.5t35 85t90 35q68 0 105 -55q32 -47 32 -130z" />
    <glyph glyph-name="commaaccent" horiz-adv-x="240" 
d="M182 -41l-63 -189l-86 28l53 161h96z" />
    <glyph glyph-name="commaaccent.alt" horiz-adv-x="240" 
d="M32 525l63 189l86 -28l-53 -161h-96z" />
    <glyph glyph-name="caron.alt" horiz-adv-x="240" 
d="M223 760l-68 -211l-83 27l58 184h93z" />
    <glyph glyph-name="caron.cap" 
d="M318 883l-104 -98h-88l-104 98l63 64l85 -82l85 82z" />
    <glyph glyph-name="circumflex.cap" horiz-adv-x="330" 
d="M213 947l104 -98l-63 -64l-85 82l-85 -82l-63 64l104 98h88z" />
    <glyph glyph-name="acute.cap" horiz-adv-x="330" 
d="M216 950l67 -63l-96 -102h-115z" />
    <glyph glyph-name="grave.cap" horiz-adv-x="330" 
d="M39 887l67 63l144 -165h-115z" />
    <glyph glyph-name="macron.cap" horiz-adv-x="330" 
d="M30 815v80h270v-80h-270z" />
    <glyph glyph-name="breve.cap" horiz-adv-x="330" 
d="M165 785q-63 0 -99 38t-36 85v7h85v-1q0 -19 12.5 -34.5t37.5 -15.5t37.5 15.5t12.5 34.5v1h85v-7q0 -47 -36 -85t-99 -38z" />
    <glyph glyph-name="ring.cap" horiz-adv-x="330" 
d="M54 862q0 47 32.5 78t78.5 31t78.5 -31t32.5 -78t-32.5 -78t-78.5 -31t-78.5 31t-32.5 78zM122 862q0 -19 12 -31t31 -12t31 12t12 31t-12 31t-31 12t-31 -12t-12 -31z" />
    <glyph glyph-name="tilde.cap" 
d="M230 921q50 0 76.5 -33.5t20.5 -92.5h-82q6 39 -21 39q-9 0 -49 -19.5t-71 -19.5q-46 0 -71 27.5t-21 77.5l83 22q-5 -39 22 -39q12 0 48.5 19t64.5 19z" />
    <glyph glyph-name="dotaccent.cap" horiz-adv-x="330" 
d="M115 797v110h110v-110h-110z" />
    <glyph glyph-name="hungarumlaut.cap" horiz-adv-x="330" 
d="M118 949l78 -47l-76 -118h-96zM299 953l69 -57l-99 -112h-103z" />
    <glyph glyph-name="dieresis.cap" horiz-adv-x="330" 
d="M25 797v110h109v-110h-109zM195 797v110h110v-110h-110z" />
    <glyph glyph-name="afii10072.BUL" horiz-adv-x="740" 
d="M419 280l171 190h130l-215 -229l220 -241h-125l-181 200v-200h-98v200l-181 -200h-125l220 241l-215 229h130l171 -190v480h98v-480z" />
    <glyph glyph-name="afii10096.BUL" horiz-adv-x="710" 
d="M60 0v760h98v-480h65q15 89 79.5 144.5t152.5 55.5q99 0 167 -69t68 -176t-68 -176t-167 -69q-88 0 -152.5 55.5t-79.5 144.5h-65v-190h-98zM320 235q0 -69 36 -112t99 -43t99 43t36 112t-36 112t-99 43t-99 -43t-36 -112z" />
    <glyph glyph-name="afii10068.BUL" horiz-adv-x="405" 
d="M200 -10q-71 0 -120.5 42.5t-49.5 102.5q0 57 36.5 92t98.5 49l50 10q60 12 60 54q0 22 -20 37t-50 15t-50 -15t-20 -37h-100q7 62 56 101t114 39t115 -38t50 -102q0 -54 -36.5 -90.5t-98.5 -52.5q-30 -7 -50 -11q-60 -10 -60 -51q0 -24 19.5 -40.5t55.5 -16.5
q37 0 64 24.5t31 62.5l90 -35q-15 -64 -64.5 -102t-120.5 -38z" />
    <glyph glyph-name="afii10075.BUL" horiz-adv-x="520" 
d="M460 0v470h-100v-285q-2 -44 -34.5 -74.5t-75.5 -30.5q-97 0 -100 100v290h-100v-290q0 -84 51 -137t139 -53q31 0 63 14t47 36l5 5l5 -5l10 -40h90zM120 545v75h270v-75h-270z" />
    <glyph glyph-name="afii10077.BUL" horiz-adv-x="500" 
d="M250 343l-131 -343h-104l186 470h99l185 -470h-104z" />
    <glyph glyph-name="afii10081.BUL" horiz-adv-x="520" 
d="M60 0v470h90l10 -40l5 -5l5 5q15 22 47 36t63 14q88 0 139 -53t51 -137v-290h-100v290q-5 100 -100 100q-44 0 -76 -31t-34 -75v-284h-100z" />
    <glyph glyph-name="afii10084.BUL" horiz-adv-x="790" 
d="M430 400l25 30q18 22 51 36t64 14q81 0 125.5 -46.5t44.5 -123.5v-310h-100v300q0 90 -80 90q-44 0 -76 -31t-34 -75v-284h-100v300q0 90 -80 90q-44 0 -76 -31t-34 -75v-284h-100v470h90l10 -40l5 -5l5 5q15 22 47 36t63 14q108 0 150 -80z" />
    <glyph glyph-name="afii10088.BUL" horiz-adv-x="530" 
d="M370 0l-10 40l-5 5l-5 -5q-15 -22 -47 -36t-63 -14q-88 0 -139 53t-51 137v290h100v-290q3 -100 100 -100q43 0 75.5 30.5t34.5 74.5v285h100v-380h60v-210h-100v120h-50z" />
    <glyph glyph-name="afii10090.BUL" horiz-adv-x="790" 
d="M360 70l-25 -30q-18 -22 -51 -36t-64 -14q-81 0 -125.5 46.5t-44.5 123.5v310h100v-300q0 -90 80 -90q44 0 76 31t34 75v284h100v-300q0 -90 80 -90q44 0 76 31t34 75v284h100v-470h-90l-10 40l-5 5l-5 -5q-15 -22 -47 -36t-63 -14q-108 0 -150 80z" />
    <glyph glyph-name="afii10091.BUL" horiz-adv-x="800" 
d="M360 70l-25 -30q-18 -22 -51 -36t-64 -14q-81 0 -125.5 46.5t-44.5 123.5v310h100v-300q0 -90 80 -90q44 0 76 31t34 75v284h100v-300q0 -90 80 -90q44 0 76 31t34 75v284h100v-380h60v-210h-100v120h-50l-10 40l-5 5l-5 -5q-15 -22 -47 -36t-63 -14q-108 0 -150 80z" />
    <glyph glyph-name="afii10092.BUL" horiz-adv-x="520" 
d="M10 380v90h169v-145l6 -5l5 5q43 43 110 43q71 0 125.5 -52.5t54.5 -135.5q0 -78 -56 -134t-144 -56t-144 55t-56 136v199h-70zM380 175q0 48 -27.5 76.5t-73.5 28.5q-42 0 -71.5 -28t-29.5 -72q0 -40 28 -70t74 -30q44 0 72 28t28 67z" />
    <glyph glyph-name="afii10094.BUL" horiz-adv-x="500" 
d="M60 181v289h99v-145l6 -5l5 5q43 43 110 43q71 0 125.5 -52.5t54.5 -135.5q0 -78 -56 -134t-144 -56t-144 55t-56 136zM360 175q0 48 -27.5 76.5t-73.5 28.5q-42 0 -71.5 -28t-29.5 -72q0 -40 28 -70t74 -30q44 0 72 28t28 67z" />
    <glyph glyph-name="afii10076.BUL" horiz-adv-x="480" 
d="M160 280l190 190h130l-226 -226l236 -244h-130l-200 200v-200h-100v760h100v-480z" />
    <glyph glyph-name="afii10029.BUL" horiz-adv-x="630" 
d="M132 0h-112l234 730h122l234 -730h-112l-184 585z" />
    <glyph glyph-name="afii10073.BUL" horiz-adv-x="480" 
d="M5 -31l95 31q0 -48 36 -79t89 -31t87.5 31t34.5 79q0 47 -36 77.5t-87 32.5h-84v90q55 -1 80 0q53 2 84 28.5t31 71.5q0 41 -30.5 67.5t-79.5 26.5q-50 0 -80 -25t-30 -69h-95q0 82 60.5 131t144.5 49q85 0 145 -47.5t60 -132.5q0 -48 -25 -84t-65 -56q45 -25 75 -66.5
t30 -93.5q0 -88 -64 -144t-156 -56q-84 0 -146.5 46.5t-73.5 122.5z" />
    <glyph glyph-name="afii10074.BUL" horiz-adv-x="520" 
d="M460 470v-470h-90l-10 40l-5 5l-5 -5q-15 -22 -47 -36t-63 -14q-88 0 -139 53t-51 137v290h100v-290q3 -100 100 -100q43 0 75.5 30.5t34.5 74.5v285h100z" />
    <glyph glyph-name="afii10067.BUL" horiz-adv-x="570" 
d="M295 -9q-104 0 -169.5 65t-65.5 164v315q0 96 64 150t156 54q85 0 149 -52.5t64 -141.5q0 -50 -30 -92t-73 -58q56 -16 98 -67t42 -119q0 -95 -65.5 -156.5t-169.5 -61.5zM158 540v-325q0 -57 38.5 -95t98.5 -38q62 0 98 35t36 92q0 59 -43 94.5t-111 34.5q-31 0 -45 -1
v95h30q61 1 98 29.5t37 78.5q0 52 -33.5 81t-81.5 29q-52 0 -87 -28t-35 -82z" />
    <glyph glyph-name="afii10069.BUL" horiz-adv-x="570" 
d="M420 240q0 64 -40 107t-100 43q-66 0 -105.5 -42.5t-39.5 -107.5t39.5 -107.5t105.5 -42.5q60 0 100 43t40 107zM510 470v-475q0 -92 -66 -149.5t-159 -57.5q-84 0 -149 47t-76 121l95 31q4 -49 40 -78t90 -29q57 0 92 29t35 81v60l-6 5l-5 -5q-22 -22 -57 -36t-69 -14
q-100 0 -170 67t-70 173t70 173t170 67q34 0 68.5 -14t56.5 -36l5 -5l6 5l9 40h90z" />
    <glyph glyph-name="afii10021.BUL" horiz-adv-x="700" 
d="M610 100h70v-250h-105v150h-460v-150h-105v250h70l204 630h123zM345 595l-154 -495h309z" />
    <glyph glyph-name="afii10038.BUL" horiz-adv-x="810" 
d="M353 -50v165h-63q-124 0 -197 72t-73 183q0 112 72.5 183.5t197.5 71.5h63v165h104v-165h63q125 0 197.5 -71.5t72.5 -183.5t-72.5 -183.5t-197.5 -71.5h-63v-165h-104zM457 213h68q78 0 119 44.5t41 112.5t-41 112.5t-119 44.5h-68v-314zM125 370q0 -68 41 -112.5
t119 -44.5h68v314h-68q-78 0 -119 -44.5t-41 -112.5z" />
    <glyph glyph-name="afii10017.BULgrave" horiz-adv-x="650" 
d="M20 0l250 730h110l250 -730h-105l-65 190h-271l-64 -190h-105zM325 590l-102 -300h203zM170 887l67 63l144 -165h-115z" />
    <glyph glyph-name="afii10022.BULgrave" horiz-adv-x="570" 
d="M80 0v730h440v-100h-335v-210h325v-100h-325v-220h335v-100h-440zM148 887l67 63l144 -165h-115z" />
    <glyph glyph-name="afii10026.BULgrave" horiz-adv-x="690" 
d="M184 730v-540l311 540h115v-730h-104v550l-311 -550h-115v730h104zM219 887l67 63l144 -165h-115z" />
    <glyph glyph-name="afii10032.BULgrave" horiz-adv-x="850" 
d="M40 365q0 160 112.5 272.5t272.5 112.5t272.5 -112.5t112.5 -272.5t-112.5 -272.5t-272.5 -112.5t-272.5 112.5t-112.5 272.5zM145 364q0 -124 78.5 -204t201.5 -80t201 80t78 204q0 125 -78 205.5t-201 80.5t-201.5 -80.5t-78.5 -205.5zM278 887l67 63l144 -165h-115z
" />
    <glyph glyph-name="afii10037.BULgrave" horiz-adv-x="550" 
d="M20 730h115l148 -340l152 340h115l-330 -730h-112l119 266zM150 887l67 63l144 -165h-115z" />
    <glyph glyph-name="afii10044.BULgrave" horiz-adv-x="690" 
d="M10 630v100h245v-310h180q98 0 161.5 -58.5t63.5 -151.5t-63.5 -151.5t-161.5 -58.5h-285v630h-140zM255 100h185q48 0 81.5 28.5t33.5 81.5t-33.5 81.5t-81.5 28.5h-185v-220zM40 887l67 63l144 -165h-115z" />
    <glyph glyph-name="afii10045.BULgrave" horiz-adv-x="862" 
d="M80 0v730h105v-310h180q98 0 161.5 -58.5t63.5 -151.5t-63.5 -151.5t-161.5 -58.5h-285zM657 0v100h17v530h-17v100h140v-100h-17v-530h17v-100h-140zM185 100h185q48 0 81.5 28.5t33.5 81.5t-33.5 81.5t-81.5 28.5h-185v-220zM299 887l67 63l144 -165h-115z" />
    <glyph glyph-name="afii10047.BULgrave" horiz-adv-x="740" 
d="M170 320v100h419q-16 103 -87.5 166.5t-181.5 63.5q-136 0 -215 -110l-70 70q52 67 129 103.5t161 36.5q160 0 267.5 -112t107.5 -274t-108 -273t-272 -111q-84 0 -161 36.5t-129 103.5l70 70q79 -110 220 -110q115 0 186.5 66t84.5 174h-421zM159 887l67 63l144 -165
h-115z" />
    <glyph glyph-name="afii10048.BULgrave" horiz-adv-x="1035" 
d="M63 0v100h17v530h-17v100h140v-100h-18v-210h102q17 143 115 236.5t237 93.5q153 0 254.5 -111.5t101.5 -273.5t-101.5 -273.5t-254.5 -111.5q-141 0 -239.5 96.5t-113.5 243.5h-101v-220h18v-100h-140zM389 364q0 -120 68.5 -202t181.5 -82t181.5 82t68.5 202
q0 121 -68.5 203.5t-181.5 82.5t-181.5 -82.5t-68.5 -203.5zM471 887l67 63l144 -165h-115z" />
    <glyph glyph-name="afii10049.BULgrave" horiz-adv-x="610" 
d="M277 320q-94 0 -163 57t-69 148q0 94 65.5 149.5t159.5 55.5h260v-730h-105v320h-20l-256 -320h-119v20zM265 420h160v210h-160q-47 0 -81 -29t-34 -76t34 -76t81 -29zM209 887l67 63l144 -165h-115z" />
    <glyph glyph-name="afii10065.BULgrave" horiz-adv-x="570" 
d="M510 0v470h-90l-10 -40l-5 -5l-5 5q-50 50 -130 50q-100 0 -170 -69t-70 -176t70 -176t170 -69q80 0 130 50l5 5l5 -5l10 -40h90zM420 235q0 -65 -41 -110t-104 -45q-69 0 -107.5 44t-38.5 111t38.5 111t107.5 44q63 0 104 -45t41 -110zM126 663l72 52l125 -190h-98z" />
    <glyph glyph-name="afii10070.BULgrave" horiz-adv-x="505" 
d="M470 210h-340q0 -55 36.5 -92.5t98.5 -37.5q43 0 73.5 19.5t42.5 50.5l84 -40q-69 -120 -205 -120q-96 0 -163 69t-67 176q0 108 65.5 176.5t164.5 68.5q92 0 156 -67t64 -173zM260 390q-98 0 -125 -92h240q-4 39 -37 65.5t-78 26.5zM124 663l72 52l125 -190h-98z" />
    <glyph glyph-name="afii10074.BULgrave" horiz-adv-x="520" 
d="M460 0v470h-100v-285q-2 -44 -34.5 -74.5t-75.5 -30.5q-97 0 -100 100v290h-100v-290q0 -84 51 -137t139 -53q31 0 63 14t47 36l5 5l5 -5l10 -40h90zM121 663l72 52l125 -190h-98z" />
    <glyph glyph-name="afii10080.BULgrave" horiz-adv-x="550" 
d="M30 235q0 106 72.5 175.5t172.5 69.5t172.5 -69.5t72.5 -175.5t-72.5 -175.5t-172.5 -69.5t-172.5 69.5t-72.5 175.5zM130 235q0 -67 38 -111t107 -44t107 44t38 111t-38 111t-107 44t-107 -44t-38 -111zM136 663l72 52l125 -190h-98z" />
    <glyph glyph-name="afii10085.BULgrave" horiz-adv-x="430" 
d="M320 470l-105 -282l-104 282h-101l158 -408l-98 -262h100l250 670h-100zM86 663l72 52l125 -190h-98z" />
    <glyph glyph-name="afii10092.BULgrave" horiz-adv-x="520" 
d="M10 470v-90h70v-199q0 -81 56 -136t144 -55t144 56t56 134q0 83 -54.5 135.5t-125.5 52.5q-67 0 -110 -43l-5 -5l-6 5v145h-169zM380 175q0 -39 -28 -67t-72 -28q-46 0 -74 30t-28 70q0 44 29.5 72t71.5 28q46 0 73.5 -28.5t27.5 -76.5zM-18 663l72 52l125 -190h-98z" />
    <glyph glyph-name="afii10093.BULgrave" horiz-adv-x="620" 
d="M60 470v-470h170q88 0 139 46t51 119t-51 119t-139 46h-70v140h-100zM460 470v-470h100v470h-100zM235 90h-75v150h75q41 0 63 -20.5t22 -54.5t-22 -54.5t-63 -20.5zM175 663l72 52l125 -190h-98z" />
    <glyph glyph-name="afii10095.BULgrave" horiz-adv-x="500" 
d="M160 280v-88h208q-11 -52 -48 -82t-95 -30q-43 0 -76 24t-46 56l-83 -50q30 -54 85.5 -87t124.5 -33q97 0 168.5 69.5t71.5 175.5t-71.5 175.5t-168.5 69.5q-69 0 -124 -33t-85 -87l83 -50q13 33 46 56.5t75 23.5q57 0 94 -29.5t49 -80.5h-208zM82 663l72 52l125 -190
h-98z" />
    <glyph glyph-name="afii10096.BULgrave" horiz-adv-x="710" 
d="M60 0v760h98v-480h65q15 89 79.5 144.5t152.5 55.5q99 0 167 -69t68 -176t-68 -176t-167 -69q-88 0 -152.5 55.5t-79.5 144.5h-65v-190h-98zM320 235q0 -69 36 -112t99 -43t99 43t36 112t-36 112t-99 43t-99 -43t-36 -112zM305 663l72 52l125 -190h-98z" />
    <glyph glyph-name="afii10097.BULgrave" horiz-adv-x="480" 
d="M40 0h105l155 192h18v-192h92v470h-195q-84 0 -127 -39t-43 -105q0 -49 41 -88.5t110 -45.5l-156 -182v-10zM140 330q0 27 17.5 43.5t49.5 16.5h113v-120h-108q-32 0 -52 16.5t-20 43.5zM128 663l72 52l125 -190h-98z" />
    <glyph glyph-name="a.ss03" horiz-adv-x="500" 
d="M140 325h-100q8 64 61.5 109.5t138.5 45.5q82 0 141 -46t59 -134v-300h-80l-10 45l-5 5l-5 -5q-62 -55 -140 -55q-75 0 -122.5 39t-47.5 111q0 65 46.5 101t128.5 43q58 5 92.5 9t40.5 5l6 2v10q0 43 -28 64t-76 21q-47 0 -73.5 -19.5t-26.5 -50.5zM354 190v33
q-24 -8 -139 -18q-89 -8 -89 -65q0 -29 23.5 -46t60.5 -17q57 0 97 30.5t47 82.5z" />
    <glyph glyph-name="agrave.ss03" horiz-adv-x="500" 
d="M40 325h100q0 31 26.5 50.5t73.5 19.5q48 0 76 -21t28 -64v-10q-9 -5 -139 -16q-82 -7 -128.5 -43t-46.5 -101q0 -72 47.5 -111t122.5 -39q78 0 140 55l5 5l5 -5l10 -45h80v300q0 88 -59 134t-141 46q-85 0 -138.5 -45.5t-61.5 -109.5zM354 190q-7 -52 -47 -82.5
t-97 -30.5q-37 0 -60.5 17t-23.5 46q0 57 89 65q51 4 86 8.5t44 6.5l9 3v-33zM105 663l72 52l125 -190h-98z" />
    <glyph glyph-name="aacute.ss03" horiz-adv-x="500" 
d="M40 325h100q0 31 26.5 50.5t73.5 19.5q48 0 76 -21t28 -64v-10q-9 -5 -139 -16q-82 -7 -128.5 -43t-46.5 -101q0 -72 47.5 -111t122.5 -39q78 0 140 55l5 5l5 -5l10 -45h80v300q0 88 -59 134t-141 46q-85 0 -138.5 -45.5t-61.5 -109.5zM354 190q-7 -52 -47 -82.5
t-97 -30.5q-37 0 -60.5 17t-23.5 46q0 57 89 65q51 4 86 8.5t44 6.5l9 3v-33zM310 715l72 -52l-99 -138h-98z" />
    <glyph glyph-name="acircumflex.ss03" horiz-adv-x="500" 
d="M140 325h-100q8 64 61.5 109.5t138.5 45.5q82 0 141 -46t59 -134v-300h-80l-10 45l-5 5l-5 -5q-62 -55 -140 -55q-75 0 -122.5 39t-47.5 111q0 65 46.5 101t128.5 43q58 5 92.5 9t40.5 5l6 2v10q0 43 -28 64t-76 21q-47 0 -73.5 -19.5t-26.5 -50.5zM354 190v33
q-24 -8 -139 -18q-89 -8 -89 -65q0 -29 23.5 -46t60.5 -17q57 0 97 30.5t47 82.5zM294 685l91 -106l-59 -54l-82 96l-82 -96l-59 54l91 106h100z" />
    <glyph glyph-name="atilde.ss03" horiz-adv-x="500" 
d="M40 325h100q0 31 26.5 50.5t73.5 19.5q48 0 76 -21t28 -64v-10q-9 -5 -139 -16q-82 -7 -128.5 -43t-46.5 -101q0 -72 47.5 -111t122.5 -39q78 0 140 55l5 5l5 -5l10 -45h80v300q0 88 -59 134t-141 46q-85 0 -138.5 -45.5t-61.5 -109.5zM354 190q-7 -52 -47 -82.5
t-97 -30.5q-37 0 -60.5 17t-23.5 46q0 57 89 65q51 4 86 8.5t44 6.5l9 3v-33zM299 650q49 0 72.5 -31t17.5 -89h-74q3 39 -20 39q-9 0 -43.5 -21.5t-65.5 -21.5q-44 0 -67 27t-20 72l74 24q-1 -22 3 -31.5t18 -9.5q12 0 45 21t60 21z" />
    <glyph glyph-name="adieresis.ss03" horiz-adv-x="500" 
d="M40 325h100q0 31 26.5 50.5t73.5 19.5q48 0 76 -21t28 -64v-10q-9 -5 -139 -16q-82 -7 -128.5 -43t-46.5 -101q0 -72 47.5 -111t122.5 -39q78 0 140 55l5 5l5 -5l10 -45h80v300q0 88 -59 134t-141 46q-85 0 -138.5 -45.5t-61.5 -109.5zM354 190q-7 -52 -47 -82.5
t-97 -30.5q-37 0 -60.5 17t-23.5 46q0 57 89 65q51 4 86 8.5t44 6.5l9 3v-33zM113 555v110h99v-110h-99zM283 555v110h100v-110h-100z" />
    <glyph glyph-name="amacron.ss03" horiz-adv-x="500" 
d="M40 325h100q0 31 26.5 50.5t73.5 19.5q48 0 76 -21t28 -64v-10q-9 -5 -139 -16q-82 -7 -128.5 -43t-46.5 -101q0 -72 47.5 -111t122.5 -39q78 0 140 55l5 5l5 -5l10 -45h80v300q0 88 -59 134t-141 46q-85 0 -138.5 -45.5t-61.5 -109.5zM354 190q-7 -52 -47 -82.5
t-97 -30.5q-37 0 -60.5 17t-23.5 46q0 57 89 65q51 4 86 8.5t44 6.5l9 3v-33zM111 545v75h270v-75h-270z" />
    <glyph glyph-name="abreve.ss03" horiz-adv-x="500" 
d="M40 325h100q0 31 26.5 50.5t73.5 19.5q48 0 76 -21t28 -64v-10q-9 -5 -139 -16q-82 -7 -128.5 -43t-46.5 -101q0 -72 47.5 -111t122.5 -39q78 0 140 55l5 5l5 -5l10 -45h80v300q0 88 -59 134t-141 46q-85 0 -138.5 -45.5t-61.5 -109.5zM354 190q-7 -52 -47 -82.5
t-97 -30.5q-37 0 -60.5 17t-23.5 46q0 57 89 65q51 4 86 8.5t44 6.5l9 3v-33zM247 523q-61 0 -98 36t-37 84v6h81v-2q0 -20 14.5 -35.5t39.5 -15.5t39.5 15.5t14.5 35.5v2h81v-6q0 -48 -37 -84t-98 -36z" />
    <glyph glyph-name="aring.ss03" horiz-adv-x="500" 
d="M140 325h-100q8 64 61.5 109.5t138.5 45.5q82 0 141 -46t59 -134v-300h-80l-10 45l-5 5l-5 -5q-62 -55 -140 -55q-75 0 -122.5 39t-47.5 111q0 65 46.5 101t128.5 43q58 5 92.5 9t40.5 5l6 2v10q0 43 -28 64t-76 21q-47 0 -73.5 -19.5t-26.5 -50.5zM354 190v33
q-24 -8 -139 -18q-89 -8 -89 -65q0 -29 23.5 -46t60.5 -17q57 0 97 30.5t47 82.5zM130 615q0 46 32 76.5t78 30.5t78 -30.5t32 -76.5t-32 -76.5t-78 -30.5t-78 30.5t-32 76.5zM195 615q0 -19 12.5 -32t32.5 -13t32.5 13t12.5 32t-12.5 32t-32.5 13t-32.5 -13t-12.5 -32z" />
    <glyph glyph-name="aringacute.ss03" horiz-adv-x="500" 
d="M40 325h100q0 31 26.5 50.5t73.5 19.5q48 0 76 -21t28 -64v-10q-9 -5 -139 -16q-82 -7 -128.5 -43t-46.5 -101q0 -72 47.5 -111t122.5 -39q78 0 140 55l5 5l5 -5l10 -45h80v300q0 88 -59 134t-141 46q-85 0 -138.5 -45.5t-61.5 -109.5zM354 190q-7 -52 -47 -82.5
t-97 -30.5q-37 0 -60.5 17t-23.5 46q0 57 89 65q51 4 86 8.5t44 6.5l9 3v-33zM131 614q0 -46 32 -76.5t78 -30.5t78 30.5t32 76.5t-32 76.5t-78 30.5t-78 -30.5t-32 -76.5zM196 614q0 20 13 32.5t32 12.5t32 -12.5t13 -32.5t-13 -32.5t-32 -12.5t-32 12.5t-13 32.5zM323 935
l72 -52l-99 -138h-98z" />
    <glyph glyph-name="aogonek.ss03" horiz-adv-x="500" 
d="M440 300v-300l-28 -57q-5 -10 -5 -23q0 -17 14 -27.5t33 -10.5h22l-22 -82h-5q-62 0 -99.5 25.5t-37.5 67.5q0 41 48 107l-10 45l-5 5l-5 -5q-62 -55 -140 -55q-75 0 -122.5 39t-47.5 111q0 65 46.5 101t128.5 43q58 5 92.5 9t40.5 5l6 2v10q0 43 -28 64t-76 21
q-47 0 -73.5 -19.5t-26.5 -50.5h-100q8 64 61.5 109.5t138.5 45.5q82 0 141 -46t59 -134zM354 190v33q-24 -8 -139 -18q-89 -8 -89 -65q0 -29 23.5 -46t60.5 -17q57 0 97 30.5t47 82.5z" />
    <glyph glyph-name="t.ss01" horiz-adv-x="320" 
d="M20 380v90h85v100l78 100h20v-200h97v-90h-97v-290l10 -90h-108v380h-85z" />
    <glyph glyph-name="tcaron.ss01" 
d="M20 380v90h85v100l78 100h20v-200h97v-90h-97v-290l10 -90h-108v380h-85zM387 760l-68 -211l-83 27l58 184h93z" />
    <glyph glyph-name="tcommaaccent.ss01" horiz-adv-x="320" 
d="M20 380v90h85v100l78 100h20v-200h97v-90h-97v-290l10 -90h-108v380h-85zM209 -41l-63 -189l-86 28l53 161h96z" />
    <glyph glyph-name="tcedilla.ss01" horiz-adv-x="320" 
d="M48 -181l41 69q24 -23 56 -23q35 0 35 25t-35 25h-23v85h-17v380h-85v90h85v100l78 100h20v-200h97v-90h-97v-290l10 -90h-17v-23q27 -4 49 -27.5t22 -59.5q0 -47 -34.5 -76t-89.5 -29q-53 0 -95 34z" />
    <glyph glyph-name="tbar.ss01" horiz-adv-x="320" 
d="M20 380v90h85v100l78 100h20v-200h97v-90h-97v-70h97v-90h-97v-130l10 -90h-108v220h-85v90h85v70h-85z" />
    <glyph glyph-name="one.ss02" horiz-adv-x="550" 
d="M70 0v99h170v515l-55 -74h-105v20l140 170h120v-631h160v-99h-430z" />
    <glyph glyph-name="ae.ss03" horiz-adv-x="801" 
d="M140 325h-100q8 64 61.5 109.5t138.5 45.5q80 0 135 -45l35 -41l35 41q39 45 125 45q87 0 150.5 -66t59.5 -174l-10 -30l-330 2q0 -56 32 -94t93 -38q86 0 112 70l83 -40q-69 -120 -195 -120q-71 0 -115 45l-10 15v-50h-80l-10 45l-5 5l-5 -5q-62 -55 -140 -55
q-75 0 -122.5 39t-47.5 111q0 65 46.5 101t128.5 43q58 5 92.5 9t40.5 5l6 2v10q0 43 -28 64t-76 21q-47 0 -73.5 -19.5t-26.5 -50.5zM354 190v31q-24 -6 -139 -16q-89 -8 -89 -65q0 -29 23.5 -46t60.5 -17q57 0 97 30.5t47 82.5zM565 390q-96 0 -125 -92h236q0 39 -33 65.5
t-78 26.5z" />
    <glyph glyph-name="ampersand.alt" horiz-adv-x="640" 
d="M430 215v15h-70v90h230v-90h-60v-15q0 -90 -66.5 -157.5t-168.5 -67.5q-103 0 -169 66t-66 159q0 121 102 185q-72 57 -72 145q0 82 61 138.5t144 56.5t144 -56.5t61 -138.5h-100q0 47 -29 73.5t-76 26.5q-46 0 -75.5 -28.5t-29.5 -76.5q0 -42 31 -71t79 -29v-90
q-58 0 -99 -38t-41 -97q0 -57 37.5 -93.5t97.5 -36.5t97.5 36.5t37.5 93.5z" />
    <glyph glyph-name="oneinferior.alt" 
d="M50 -180v65h90v229l-20 -29h-70v10l70 90h90v-300h90v-65h-250z" />
    <glyph glyph-name="onesuperior.alt" 
d="M50 545v65h90v229l-20 -29h-70v10l70 90h90v-300h90v-65h-250z" />
    <glyph glyph-name="one.dnom.alt" 
d="M50 365v65h90v229l-20 -29h-70v10l70 90h90v-300h90v-65h-250z" />
    <glyph glyph-name="one.numr.alt" 
d="M50 0v65h90v229l-20 -29h-70v10l70 90h90v-300h90v-65h-250z" />
    <glyph glyph-name="onehalf.alt" horiz-adv-x="580" 
d="M230 95v65l190 205h80v-205h40v-65h-40v-95h-70v95h-200zM20 365v65h80v222l-15 -22h-65v10l60 90h90v-300h80v-40l-23 -25h-207zM500 550l-341 -370h-69l340 370h70zM315 160h115v126z" />
    <glyph glyph-name="onequarter.alt" horiz-adv-x="580" 
d="M310 240v10q0 57 35.5 88.5t84.5 31.5q53 0 86.5 -31.5t33.5 -83.5q0 -51 -54 -100q-15 -15 -42.5 -34t-43 -32t-15.5 -24h157v-65h-242v40q1 32 21 56.5t57.5 52t51.5 41.5q40 40 40 65q0 23 -14 36.5t-36 13.5t-36 -13.5t-14 -36.5v-15h-70zM500 550l-341 -370h-69
l340 370h70zM20 365v65h80v222l-15 -22h-65v10l60 90h90v-300h80v-40l-23 -25h-207z" />
    <glyph glyph-name="ordfeminine.alt" horiz-adv-x="440" 
d="M126 620h-76q6 48 50.5 83t109.5 35q64 0 112 -35.5t48 -102.5v-235h-63l-12 35l-5 5l-5 -5q-43 -43 -110 -43q-57 0 -93.5 29.5t-36.5 84.5q0 50 35 78t97 33l117 13v10q0 30 -24.5 48t-59.5 18q-33 0 -55.5 -14.5t-28.5 -36.5zM298 510v25q-6 -3 -110 -14
q-69 -7 -69 -50q0 -22 18.5 -34.5t42.5 -12.5q44 0 78.5 24t39.5 62z" />
    <glyph glyph-name="arrow_right" horiz-adv-x="920" 
d="M520 75l215 165l16 10h-711v90h711l-16 10l-215 165l60 75l300 -250v-90l-300 -250z" />
    <glyph glyph-name="arrow_left" horiz-adv-x="920" 
d="M185 240l215 -165l-60 -75l-300 250v90l300 250l60 -75l-215 -165l-17 -10h712v-90h-712z" />
    <glyph glyph-name="arrow_down" horiz-adv-x="700" 
d="M405 65l165 215l75 -60l-250 -300h-90l-250 300l75 60l165 -215l10 -17v712h90v-712z" />
    <glyph glyph-name="arrow_up" horiz-adv-x="700" 
d="M570 400l-165 215l-10 16v-711h-90v711l-10 -16l-165 -215l-75 60l250 300h90l250 -300z" />
    <glyph glyph-name="arrow_left_up" horiz-adv-x="760" 
d="M156 488l35 -268l-95 -11l-36 388l64 64l389 -36l-11 -95l-269 35l-19 4l501 -505l-64 -64l-499 504z" />
    <glyph glyph-name="arrow_left_down" horiz-adv-x="760" 
d="M191 441l-35 -268l-4 -16l499 504l64 -64l-501 -506l19 5l269 35l11 -95l-389 -36l-64 64l36 388z" />
    <glyph glyph-name="arrow_right_up" horiz-adv-x="760" 
d="M569 220l35 268l4 16l-499 -504l-64 64l500 505l-18 -4l-269 -35l-11 95l389 36l64 -64l-36 -388z" />
    <glyph glyph-name="arrow_right_down" horiz-adv-x="760" 
d="M604 173l-35 268l95 11l36 -388l-64 -64l-389 36l11 95l269 -35l18 -5l-500 506l64 64l499 -504z" />
    <glyph glyph-name="RP" horiz-adv-x="810" 
d="M361 433l-140 246l6 4l140 -247zM450 433l140 246l-6 4l-140 -247zM361 297l-140 -246l6 -4l140 247zM450 297l140 -246l-6 -4l-140 247zM338 319l-230 -164l4 -6l230 165zM473 411l230 164l-4 6l-230 -165zM338 411l-230 164l4 6l230 -165zM473 319l230 -164l-4 -6
l-230 165zM377 441l-87 269l7 2l86 -269zM377 289l-87 -269l7 -2l86 269zM434 441l87 269l-7 2l-86 -269zM434 289l87 -269l-7 -2l-86 269zM349 307l-190 -210l5 -5l190 211zM349 423l-190 210l5 5l190 -211zM462 423l190 210l-5 5l-190 -211zM462 307l190 -210l-5 -5
l-190 211zM330 335l-260 -114l3 -6l260 114zM481 395l260 114l-3 6l-260 -114zM481 335l260 -114l-3 -6l-260 114zM330 395l-260 114l3 6l260 -114zM325 379l-277 57l2 7l276 -58zM325 351l-277 -57l2 -7l276 58zM486 379l277 57l-2 7l-276 -58zM486 351l277 -57l-2 -7
l-276 58zM394 285l-31 -281l7 -1l30 281zM417 445l31 281l-7 1l-30 -281zM417 285l31 -281l-7 -1l-30 281zM394 445l-31 281l7 1l30 -281zM40 368h284v-6h-284v6zM770 368h-283v-6h283v6zM490 476l133 181l-6 5l-133 -182zM321 476l-133 181l6 5l133 -182zM321 254
l-133 -181l6 -5l133 182zM490 254l133 -181l-6 -5l-133 182zM373 501l-46 219l7 2l46 -220zM373 229l-46 -219l7 -2l46 220zM438 501l46 219l-7 2l-46 -220zM438 229l46 -219l-7 -2l-46 220zM402 225v-225h7v225h-7zM402 505v225h7v-225h-7zM528 299l196 -112l-3 -6
l-197 112zM283 299l-196 -112l3 -6l197 112zM283 431l-196 112l3 6l197 -112zM528 431l196 112l-3 6l-197 -112zM540 325l214 -68l-2 -7l-214 69zM540 405l214 68l-2 7l-214 -69zM271 325l-214 -68l2 -7l214 69zM271 405l-214 68l2 7l214 -69zM679 606l-5 5l-167 -151l4 -5z
M132 606l5 5l167 -151l-4 -5zM679 124l-5 -5l-167 151l4 5zM132 124l5 -5l167 151l-4 5zM347 491l-92 206l6 3l92 -206zM464 491l92 206l-6 3l-92 -206zM464 239l92 -206l-6 -3l-92 206zM347 239l-92 -206l6 -3l92 206zM769 331l-1 -7l-224 24l1 6zM42 399l1 7l224 -24
l-1 -6zM769 399l-1 7l-224 -24l1 -6zM42 331l1 -7l224 24l-1 6z" />
    <glyph glyph-name="interfinity" horiz-adv-x="480" 
d="M240 731q76 0 130.5 -47t54.5 -114q0 -46 -25 -80t-72 -70l-18 -14q4 -3 15.5 -13t16 -14.5l13.5 -13.5t13 -16t9 -17.5t7 -22t2 -24.5q0 -60 -43 -93t-103 -33t-103 33t-43 93q0 13 2 24.5t7 22t9 17.5t13 16l13.5 13.5t16 14.5t15.5 13l-18 14q-47 36 -72 70t-25 80
q0 67 54.5 114t130.5 47zM210 487l30 -25l30 25q19 15 29.5 24.5t20.5 25.5t10 33q0 33 -26 54t-64 21t-64 -21t-26 -54q0 -17 10 -33t20.5 -25.5t29.5 -24.5zM240 243q25 0 40 12t15 30q0 7 -2.5 13t-8 12.5t-10 10.5t-13 11t-11.5 10l-10 9l-10 -9q-3 -3 -11.5 -10
t-13 -11t-10 -10.5t-8 -12.5t-2.5 -13q0 -18 15 -30t40 -12zM180 0v120h120v-120h-120z" />
    <glyph glyph-name="zigzag" horiz-adv-x="595" 
d="M575 125v-125h-50v75l-80 -80l-45 45l85 185l-230 -230l-45 45l200 300l-345 -345l-45 45l294 394l-249 -249l-45 45l197 297l-152 -152l-45 45l86 186l-41 -41l-45 45v150h50v-100l80 80l45 -45l-85 -185l230 230l45 -45l-200 -300l345 345l45 -45l-337 -437l292 292
l45 -45l-197 -297l152 152l45 -45l-86 -186l41 41z" />
    <glyph glyph-name="afii10074.001" horiz-adv-x="520" 
d="M60 0v470h98v-320l187 320h115v-470h-98v320l-187 -320h-115z" />
    <glyph glyph-name="afii10092.001" horiz-adv-x="510" 
d="M20 380v90h210v-140h50q88 0 139 -46t51 -119t-51 -119t-139 -46h-150v380h-110zM230 89h55q41 0 63.5 21t22.5 55t-22.5 55t-63.5 21h-55v-152z" />
    <glyph glyph-name="afii10096.001" horiz-adv-x="710" 
d="M60 0v470h100v-190h63q15 89 79.5 144.5t152.5 55.5q99 0 167 -69t68 -176t-68 -176t-167 -69q-88 0 -152.5 55.5t-79.5 144.5h-63v-190h-100zM320 235q0 -69 36 -112t99 -43t99 43t36 112t-36 112t-99 43t-99 -43t-36 -112z" />
    </font>
</defs>
</svg>
