<?xml version="1.0" standalone="no"?>
<!DOCTYPE svg PUBLIC "-//W3C//DTD SVG 1.1//EN" "http://www.w3.org/Graphics/SVG/1.1/DTD/svg11.dtd" >
<svg xmlns="http://www.w3.org/2000/svg" xmlns:xlink="http://www.w3.org/1999/xlink" version="1.1">
<metadata>
Created by FontForge 20170731 at Fri Jan  1 02:30:17 1904
 By Aleksey,,,
Created by Icons8
</metadata>
<defs>
<font id="la-regular-400" horiz-adv-x="1024" >
  <font-face 
    font-family="la-regular-400"
    font-weight="400"
    font-stretch="normal"
    units-per-em="1024"
    panose-1="2 0 5 3 0 0 0 0 0 0"
    ascent="896"
    descent="-128"
    bbox="21 -87 1003 832.045"
    underline-thickness="0"
    underline-position="10"
    unicode-range="U+F004-F5C8"
  />
<missing-glyph 
d="M34 0v682h272v-682h-272zM68 34h204v614h-204v-614z" />
    <glyph glyph-name=".notdef" 
d="M34 0v682h272v-682h-272zM68 34h204v614h-204v-614z" />
    <glyph glyph-name=".null" horiz-adv-x="0" 
 />
    <glyph glyph-name="nonmarkingreturn" 
 />
    <glyph glyph-name="heart" unicode="&#xf004;" 
d="M304 736q-65 0 -120 -32.5t-87.5 -87.5t-32.5 -120q0 -55 40 -114q19 -29 39 -47l369 -370l381 382q15 16 28 34q17 25 27 51q12 33 12 64q0 65 -32.5 120t-87.5 87.5t-120 32.5q-116 0 -208 -94q-92 94 -208 94zM304 672q33 0 69 -15q29 -11 59 -31q21 -15 41 -32
l15 -15l24 -27l24 27l15 15q20 17 41 32q30 20 59 31q36 15 69 15q48 0 88.5 -24t64 -64.5t23.5 -87.5q0 -22 -16 -52q-11 -22 -28 -45l-16 -19l-324 -324l-324 324l-10 10q-11 14 -21 28q-13 19 -20 38q-9 22 -9 40q0 47 23.5 87.5t64 64.5t88.5 24z" />
    <glyph glyph-name="star" unicode="&#xf005;" 
d="M512 828l-29 -66l-104 -233l-326 -35l54 -48l189 -171l-68 -320l63 36l221 128l221 -128l63 -36l-68 320l189 171l54 48l-326 35l-104 233zM512 671l82 -185l8 -17l219 -23l-164 -148l46 -215l-175 100l-16 10l-16 -10l-175 -100l46 215l-164 148l219 23l8 17z" />
    <glyph glyph-name="user" unicode="&#xf007;" 
d="M512 736q-61 0 -112.5 -30t-81.5 -81.5t-30 -112.5q0 -57 26.5 -106t72.5 -80q-57 -25 -101.5 -69t-68.5 -101q-25 -59 -25 -124h64q0 70 34.5 128.5t93 93t128.5 34.5t128.5 -34.5t93 -93t34.5 -128.5h64q0 65 -25 124q-24 57 -68.5 101t-101.5 69q46 31 72.5 80
t26.5 106q0 61 -30 112.5t-81.5 81.5t-112.5 30zM512 672q44 0 80.5 -21.5t58 -58t21.5 -80.5t-21.5 -80.5t-58 -58t-80.5 -21.5t-80.5 21.5t-58 58t-21.5 80.5t21.5 80.5t58 58t80.5 21.5z" />
    <glyph glyph-name="clock" unicode="&#xf017;" 
d="M512 768q-104 0 -194 -53q-87 -50 -137 -137q-53 -90 -53 -194t53 -194q50 -87 137 -138q90 -52 194 -52t194 52q87 51 138 138q52 90 52 194t-52 194q-51 87 -138 137q-90 53 -194 53zM512 704q87 0 162 -44q72 -42 114 -114q44 -75 44 -162t-44 -162q-42 -72 -114 -114
q-75 -44 -162 -44t-162 44q-72 42 -114 114q-44 75 -44 162t44 162q42 72 114 114q75 44 162 44zM480 640v-288h224v64h-160v224h-64z" />
    <glyph glyph-name="alternate-list" unicode="&#xf022;" 
d="M329 727l-105 -105l-41 41l-46 -46l64 -64l23 -22l23 22l128 128zM480 672v-64h416v64h-416zM329 471l-105 -105l-41 41l-46 -46l64 -64l23 -22l23 22l128 128zM480 416v-64h416v64h-416zM329 215l-105 -105l-41 41l-46 -46l64 -64l23 -22l23 22l128 128zM480 160v-64
h416v64h-416z" />
    <glyph glyph-name="flag" unicode="&#xf024;" 
d="M160 736v-768h64v320h256v-96h384v448h-320v96h-384zM224 672h256v-320h-256v320zM544 576h256v-320h-256v320z" />
    <glyph glyph-name="bookmark" unicode="&#xf02e;" 
d="M224 736v-736l288 216l288 -216v736h-576zM288 672h448v-544l-224 168l-224 -168v544z" />
    <glyph glyph-name="image" unicode="&#xf03e;" 
d="M64 736v-704h896v704h-896zM128 672h768v-445l-192 193l-145 -145l-207 209l-224 -224v412zM768 608q-27 0 -45.5 -18.5t-18.5 -45.5t18.5 -45.5t45.5 -18.5t45.5 18.5t18.5 45.5t-18.5 45.5t-45.5 18.5zM352 393l294 -297h-518v73zM704 329l192 -192v-41h-159l-133 134z
" />
    <glyph glyph-name="edit" unicode="&#xf044;" 
d="M800 767q-39 0 -67 -28l-324 -323l-24 -122l-10 -47l47 10l122 24l323 324q28 28 28 67t-28 67t-67 28zM800 705q11 0 22 -11t11 -22t-11 -22l-310 -310l-55 -11l11 55l310 310q11 11 22 11zM128 640v-640h640v422l-64 -64v-294h-512v512h294l64 64h-422z" />
    <glyph glyph-name="times-circle" unicode="&#xf057;" 
d="M512 800q-113 0 -210 -57q-94 -55 -149 -149q-57 -97 -57 -210t57 -210q55 -94 149 -149q97 -57 210 -57t210 57q94 55 149 149q57 97 57 210t-57 210q-55 94 -149 149q-97 57 -210 57zM512 736q96 0 178 -48q79 -47 126 -126q48 -82 48 -178t-48 -178q-47 -79 -126 -126
q-82 -48 -178 -48t-178 48q-79 47 -126 126q-48 82 -48 178t48 178q47 79 126 126q82 48 178 48zM391 551l-46 -46l121 -121l-121 -121l46 -46l121 121l121 -121l46 46l-121 121l121 121l-46 46l-121 -121z" />
    <glyph glyph-name="check-circle" unicode="&#xf058;" 
d="M512 800q-113 0 -210 -57q-94 -55 -149 -149q-57 -97 -57 -210t57 -210q55 -94 149 -149q97 -57 210 -57t210 57q94 55 149 149q57 97 57 210q0 74 -22 131l-52 -51q10 -40 10 -80q0 -96 -48 -178q-46 -80 -126 -126q-82 -48 -178 -48t-178 48q-80 46 -126 126
q-48 82 -48 178t48 178q46 80 126 126q82 48 178 48q71 0 135 -27q61 -25 108 -72l45 45q-56 56 -130.5 87t-157.5 31zM873 663l-361 -361l-137 137l-46 -46l160 -160l23 -22l23 22l384 384z" />
    <glyph glyph-name="question-circle" unicode="&#xf059;" 
d="M512 768q-104 0 -194 -53q-87 -50 -137 -137q-53 -90 -53 -194t53 -194q50 -87 137 -138q90 -52 194 -52t194 52q87 51 138 138q52 90 52 194t-52 194q-51 87 -138 137q-90 53 -194 53zM512 704q87 0 162 -44q72 -42 114 -114q44 -75 44 -162t-44 -162q-42 -72 -114 -114
q-75 -44 -162 -44t-162 44q-72 42 -114 114q-44 75 -44 162t44 162q42 72 114 114q75 44 162 44zM512 576q-35 0 -64 -17.5t-46.5 -46.5t-17.5 -64h64q0 27 18.5 45.5t45.5 18.5t45.5 -18.5t18.5 -45.5q0 -18 -11 -33t-28 -21l-13 -4q-20 -6 -32 -23t-12 -38v-41h64v41l13 4
q37 12 60 44t23 71q0 35 -17.5 64t-46.5 46.5t-64 17.5zM480 256v-64h64v64h-64z" />
    <glyph glyph-name="eye" unicode="&#xf06e;" 
d="M512 640q-75 0 -152 -24q-65 -21 -129 -59q-52 -30 -102 -69q-35 -28 -66 -59l-23 -24l-19 -21l19 -21l21 -22q28 -28 61 -54q45 -37 93 -67q60 -36 120 -58q71 -27 141 -32q16 -2 36 -2t36 2q70 5 141 32q60 22 120 58q48 30 93 67q33 26 61 54l21 22l19 21l-19 21
l-23 24q-31 31 -66 59q-50 39 -102 69q-64 38 -129 59q-77 24 -152 24zM512 576q93 0 192 -45q32 -53 32 -115q0 -57 -26 -106t-72 -80t-101 -37l-25 -1q-8 0 -25 1v0q-55 6 -101 37t-72 80t-26 106q0 62 31 114h-1q100 46 194 46zM512 512q-40 0 -68 -28t-28 -68t28 -68
t68 -28t68 28t28 68t-28 68t-68 28zM232 482q-8 -34 -8 -66q0 -83 44 -153q-84 49 -155 121q52 53 119 98zM792 482q67 -45 119 -98q-71 -72 -155 -121q44 70 44 153q0 32 -8 66z" />
    <glyph glyph-name="eye-slash" unicode="&#xf070;" 
d="M119 823l-46 -46l199 -198l355 -355l61 -62l217 -217l46 46l-199 199q85 42 165 109q41 35 67 64l19 21l-19 21q-26 29 -69 65q-81 69 -168 111q-120 59 -235 59q-85 0 -176 -34zM512 576q92 0 192 -46q32 -54 32 -114q0 -43 -15.5 -82t-43.5 -69l-91 91q22 27 22 60
q0 40 -28 68t-68 28q-33 0 -60 -22l-65 65q68 21 125 21zM214 547q-65 -40 -124 -93q-32 -28 -50 -49l-19 -21l19 -21q24 -26 64 -61q75 -64 157 -106q112 -59 221 -66q20 -2 30 -2t30 2q41 3 77 11l-57 57q-26 -6 -50 -6q-61 0 -112.5 30t-81.5 81.5t-30 112.5q0 24 6 50z
M232 482q-8 -34 -8 -66q0 -82 43 -151q-86 49 -158 119q57 55 123 98zM792 482q66 -43 123 -98q-74 -71 -159 -120q44 71 44 152q0 32 -8 66z" />
    <glyph glyph-name="calendar" unicode="&#xf073;" 
d="M288 768v-32h-128v-704h704v704h-128v32h-64v-32h-320v32h-64zM224 672h64v-32h64v32h320v-32h64v32h64v-64h-576v64zM224 544h576v-448h-576v448zM416 480v-64h64v64h-64zM544 480v-64h64v64h-64zM672 480v-64h64v64h-64zM288 352v-64h64v64h-64zM416 352v-64h64v64h-64
zM544 352v-64h64v64h-64zM672 352v-64h64v64h-64zM288 224v-64h64v64h-64zM416 224v-64h64v64h-64zM544 224v-64h64v64h-64z" />
    <glyph glyph-name="calendar" unicode="&#xf133;" 
d="M288 768v-32h-128v-704h704v704h-128v32h-64v-32h-320v32h-64zM224 672h64v-32h64v32h320v-32h64v32h64v-64h-576v64zM224 544h576v-448h-576v448zM416 480v-64h64v64h-64zM544 480v-64h64v64h-64zM672 480v-64h64v64h-64zM288 352v-64h64v64h-64zM416 352v-64h64v64h-64
zM544 352v-64h64v64h-64zM672 352v-64h64v64h-64zM288 224v-64h64v64h-64zM416 224v-64h64v64h-64zM544 224v-64h64v64h-64z" />
    <glyph glyph-name="comment" unicode="&#xf075;" 
d="M96 704v-640h307l109 -109l109 109h307v640h-832zM160 640h704v-512h-269l-83 -83l-83 83h-269v512zM288 544v-64h448v64h-448zM288 416v-64h448v64h-448zM288 288v-64h320v64h-320z" />
    <glyph glyph-name="folder" unicode="&#xf07b;" 
d="M192 800v-832h640v434l55 55l9 10v333h-704zM256 736h448v-269l9 -10l55 -55v-370h-512v704zM768 736h64v-242l-32 -32l-32 32v242z" />
    <glyph glyph-name="folder-open" unicode="&#xf07c;" 
d="M160 800v-794l448 -93v87h192v402l55 55l9 10v333h-704zM452 736h348v-242l-55 -55l-9 -10v-365h-128v285l-9 10l-55 55v299zM224 727l256 -64v-276l9 -10l55 -55v-331l-320 67v669z" />
    <glyph glyph-name="bar-chart" unicode="&#xf080;" 
d="M416 800v-768h-64v640h-192v-640h-64v-64h832v64h-64v416h-192v-416h-64v768h-192zM480 736h64v-704h-64v704z" />
    <glyph glyph-name="comments" unicode="&#xf086;" 
d="M64 736v-512h128v-163l203 163h309v512h-640zM128 672h512v-384h-267l-117 -93v93h-128v384zM768 608v-64h128v-384h-128v-93l-117 93h-240l-80 -64h298l203 -163v163h128v512h-192z" />
    <glyph glyph-name="star-half" unicode="&#xf089;" 
d="M512 828l-133 -299l-326 -34l243 -220l-67 -320l283 164v709z" />
    <glyph glyph-name="lemon" unicode="&#xf094;" 
d="M416 768q-60 0 -115 -32q-53 -30 -92 -83.5t-60 -122.5t-21 -146t21 -146t60 -122.5t92 -83.5q55 -32 115 -32q126 0 223 45q88 40 145 113q52 68 70 151q19 14 30 32q12 20 12 43t-12 43q-11 18 -30 32q-18 83 -78 152q-61 72 -150 113q-97 44 -210 44zM416 704
q44 0 83.5 -23.5t71.5 -67t50 -101.5q19 -61 19 -128t-19 -128q-18 -58 -50 -101.5t-71.5 -67t-83.5 -23.5t-83.5 23.5t-71.5 67t-50 101.5q-19 61 -19 128t19 128q18 58 50 101.5t71.5 67t83.5 23.5zM620 655q71 -38 118 -98q45 -57 57 -121l3 -16l15 -7q9 -4 14 -11.5
t5 -17.5t-5 -17.5t-14 -11.5l-15 -7l-3 -16q-14 -75 -57 -133q-48 -65 -128 -99l13 16q39 53 60 122t21 146t-21 146t-60 122zM416 640q-33 0 -64 -22l65 -153l66 152q-31 23 -67 23zM304 567q-40 -63 -47 -151h111zM530 564l-65 -148h110q-7 86 -45 148zM257 352
q7 -86 45 -148l65 148h-110zM464 352l64 -151q40 63 47 151h-111zM415 303l-66 -152q31 -23 67 -23q33 0 64 22z" />
    <glyph glyph-name="credit-card" unicode="&#xf09d;" 
d="M160 704q-39 0 -67.5 -28.5t-28.5 -67.5v-448q0 -39 28.5 -67.5t67.5 -28.5h704q39 0 67.5 28.5t28.5 67.5v448q0 39 -28.5 67.5t-67.5 28.5h-704zM160 640h704q14 0 23 -9t9 -23v-64h-736v-64h736v-320q0 -14 -9 -23t-23 -9h-704q-14 0 -23 9t-9 23v448q0 14 9 23t23 9z
" />
    <glyph glyph-name="hdd" unicode="&#xf0a0;" 
d="M199 704l-103 -412v-228h832v228l-103 412h-626zM249 640h526l80 -320h-686zM160 256h704v-128h-704v128zM768 224q-13 0 -22.5 -9.5t-9.5 -22.5t9.5 -22.5t22.5 -9.5t22.5 9.5t9.5 22.5t-9.5 22.5t-22.5 9.5z" />
    <glyph glyph-name="hand-pointing-right" unicode="&#xf0a4;" 
d="M470 800l-10 -9l-217 -215h-179v-512h539q34 0 60.5 21.5t33.5 54.5l53 244h114q39 0 67.5 28.5t28.5 67.5t-28.5 67.5t-67.5 28.5h-344l6 24l3 2q9 7 17 18q30 41 30 95q0 35 -27.5 60t-65.5 25h-13zM493 733q19 -4 19 -18q0 -35 -17 -58q-5 -7 -10 -11l-4 -3l-11 -6
l-4 -13l-19 -72l-10 -40h427q14 0 23 -9t9 -23t-9 -23t-23 -9h-166l-6 -25l-57 -270q-2 -11 -11 -18t-21 -7h-315v403zM128 512h96v-384h-96v384z" />
    <glyph glyph-name="hand-pointing-left" unicode="&#xf0a5;" 
d="M541 800q-38 0 -65.5 -25t-27.5 -60q0 -54 30 -95q8 -11 17 -18l3 -2l6 -24h-344q-39 0 -67.5 -28.5t-28.5 -67.5t28.5 -67.5t67.5 -28.5h114l53 -244q7 -33 33.5 -54.5t60.5 -21.5h539v512h-179l-217 215l-10 9h-13zM531 733l205 -202v-403h-315q-12 0 -21 7t-11 18
l-57 270l-6 25h-166q-14 0 -23 9t-9 23t9 23t23 9h427l-10 40l-19 72l-4 13l-11 6l-4 3q-5 4 -10 11q-17 23 -17 58q0 14 19 18zM800 512h96v-384h-96v384z" />
    <glyph glyph-name="hand-pointing-up" unicode="&#xf0a6;" 
d="M416 832q-39 0 -67.5 -28.5t-28.5 -67.5v-344l-24 6l-2 3q-7 9 -18 17q-41 30 -95 30q-35 0 -60 -27.5t-25 -65.5v-13l9 -10l215 -217v-179h512v539q0 34 -21.5 60.5t-54.5 33.5l-244 53v114q0 39 -28.5 67.5t-67.5 28.5zM416 768q14 0 23 -9t9 -23v-166l25 -6l270 -57
q11 -2 18 -11t7 -21v-315h-403l-202 205q4 19 18 19q35 0 58 -17q7 -5 11 -10l3 -4l6 -11l13 -4l72 -19l40 -10v427q0 14 9 23t23 9zM384 96h384v-96h-384v96z" />
    <glyph glyph-name="hand-pointing-down" unicode="&#xf0a7;" 
d="M320 832v-179l-215 -217l-9 -10v-13q0 -38 25 -65.5t60 -27.5q54 0 95 30q11 8 18 17l2 3l24 6v-344q0 -39 28.5 -67.5t67.5 -28.5t67.5 28.5t28.5 67.5v114l244 53q33 7 54.5 33.5t21.5 60.5v539h-512zM384 768h384v-96h-384v96zM365 608h403v-315q0 -12 -7 -21t-18 -11
l-270 -57l-25 -6v-166q0 -14 -9 -23t-23 -9t-23 9t-9 23v427l-40 -10l-72 -19l-13 -4l-6 -11l-3 -4q-4 -5 -11 -10q-23 -17 -58 -17q-14 0 -18 19z" />
    <glyph glyph-name="copy" unicode="&#xf0c5;" 
d="M128 768v-640h224v64h-160v512h384v-32h64v96h-512zM384 640v-640h512v640h-512zM448 576h384v-512h-384v512z" />
    <glyph glyph-name="save" unicode="&#xf0c7;" 
d="M160 736v-704h704v557l-9 10l-128 128l-10 9h-557zM224 672h96v-192h384v178l96 -96v-466h-64v288h-448v-288h-64v576zM384 672h128v-64h64v64h64v-128h-256v128zM352 320h320v-224h-320v224z" />
    <glyph glyph-name="square" unicode="&#xf0c8;" 
d="M192 704v-640h640v640h-640zM256 640h512v-512h-512v512z" />
    <glyph glyph-name="envelope" unicode="&#xf0e0;" 
d="M96 640v-576h832v576h-832zM234 576h556l-278 -185zM160 548l334 -223l18 -11l18 11l334 223v-420h-704v420z" />
    <glyph glyph-name="lightbulb" unicode="&#xf0eb;" 
d="M512 768q-78 0 -145 -39q-65 -39 -104 -104q-39 -67 -39 -145q0 -83 64 -182q44 -68 96 -111v-91q0 -26 19 -45t45 -19l32 -32h64l32 32q26 0 45 19t19 45v91q52 43 96 111q64 99 64 182q0 78 -39 145q-39 65 -104 104q-67 39 -145 39zM512 704q61 0 112.5 -30
t81.5 -81.5t30 -112.5q0 -31 -14 -70t-39 -77q-21 -33 -48 -61.5t-54 -47.5h-138q-27 19 -54 47.5t-48 61.5q-25 38 -39 77t-14 70q0 61 30 112.5t81.5 81.5t112.5 30zM456 160h112q3 -2 8 -4v-60h-128v60q5 2 8 4z" />
    <glyph glyph-name="bell" unicode="&#xf0f3;" 
d="M512 800q-27 0 -45.5 -18.5t-18.5 -45.5l1 -8q-55 -14 -99 -50t-69 -87.5t-25 -110.5v-288q0 -14 -9 -23t-23 -9h-32v-64h230q-6 -17 -6 -32q0 -39 28.5 -67.5t67.5 -28.5t67.5 28.5t28.5 67.5q0 15 -6 32h230v64h-32q-14 0 -23 9t-9 23v279q0 59 -24.5 112.5t-68.5 91.5
t-100 53l1 8q0 27 -18.5 45.5t-45.5 18.5zM498 672h9h11q51 -2 94 -29.5t67.5 -73.5t24.5 -98v-279q0 -15 6 -32h-396q6 17 6 32v288q0 50 23.5 92.5t64.5 69t90 30.5zM512 96q14 0 23 -9t9 -22.5t-9 -23t-22.5 -9.5t-23 9.5t-9.5 23t9.5 22.5t22.5 9z" />
    <glyph glyph-name="hospital" unicode="&#xf0f8;" 
d="M480 800v-64h-64v-64h64v-64h64v64h64v64h-64v64h-64zM192 736v-736h288v96h64v-96h288v736h-160v-64h96v-608h-160v96h-192v-96h-160v608h96v64h-160zM352 544v-64h64v64h-64zM480 544v-64h64v64h-64zM608 544v-64h64v64h-64zM352 416v-64h64v64h-64zM480 416v-64h64v64
h-64zM608 416v-64h64v64h-64zM352 288v-64h64v64h-64zM480 288v-64h64v64h-64zM608 288v-64h64v64h-64z" />
    <glyph glyph-name="plus-square" unicode="&#xf0fe;" 
d="M160 736v-704h704v704h-704zM224 672h576v-576h-576v576zM480 544v-128h-128v-64h128v-128h64v128h128v64h-128v128h-64z" />
    <glyph glyph-name="circle" unicode="&#xf111;" 
d="M512 768q-104 0 -194 -53q-87 -50 -137 -137q-53 -90 -53 -194t53 -194q50 -87 137 -138q90 -52 194 -52t194 52q87 51 138 138q52 90 52 194t-52 194q-51 87 -138 137q-90 53 -194 53zM512 704q87 0 162 -44q72 -42 114 -114q44 -75 44 -162t-44 -162q-42 -72 -114 -114
q-75 -44 -162 -44t-162 44q-72 42 -114 114q-44 75 -44 162t44 162q42 72 114 114q75 44 162 44z" />
    <glyph glyph-name="smiling-face" unicode="&#xf118;" 
d="M512 768q-104 0 -194 -53q-87 -50 -137 -137q-53 -90 -53 -194t53 -194q50 -87 137 -138q90 -52 194 -52t194 52q87 51 138 138q52 90 52 194t-52 194q-51 87 -138 137q-90 53 -194 53zM512 704q87 0 162 -44q72 -42 114 -114q44 -75 44 -162t-44 -162q-42 -72 -114 -114
q-75 -44 -162 -44t-162 44q-72 42 -114 114q-44 75 -44 162t44 162q42 72 114 114q75 44 162 44zM368 512q-20 0 -34 -14t-14 -34t14 -34t34 -14t34 14t14 34t-14 34t-34 14zM656 512q-20 0 -34 -14t-14 -34t14 -34t34 -14t34 14t14 34t-14 34t-34 14zM346 288l-55 -32
q34 -58 92.5 -93t128.5 -35t128.5 35t92.5 93l-55 32q-25 -44 -69.5 -70t-96.5 -26t-96.5 26t-69.5 70z" />
    <glyph glyph-name="frowning-face" unicode="&#xf119;" 
d="M512 768q-104 0 -194 -53q-87 -50 -137 -137q-53 -90 -53 -194t53 -194q50 -87 137 -138q90 -52 194 -52t194 52q87 51 138 138q52 90 52 194t-52 194q-51 87 -138 137q-90 53 -194 53zM512 704q87 0 162 -44q72 -42 114 -114q44 -75 44 -162t-44 -162q-42 -72 -114 -114
q-75 -44 -162 -44t-162 44q-72 42 -114 114q-44 75 -44 162t44 162q42 72 114 114q75 44 162 44zM368 512q-20 0 -34 -14t-14 -34t14 -34t34 -14t34 14t14 34t-14 34t-34 14zM656 512q-20 0 -34 -14t-14 -34t14 -34t34 -14t34 14t14 34t-14 34t-34 14zM512 320
q-63 0 -118 -29q-53 -29 -89 -78l52 -37q27 37 67.5 58.5t87.5 21.5t87.5 -21.5t67.5 -58.5l52 37q-36 49 -89 78q-55 29 -118 29z" />
    <glyph glyph-name="neutral-face" unicode="&#xf11a;" 
d="M512 768q-104 0 -194 -53q-87 -50 -137 -137q-53 -90 -53 -194t53 -194q50 -87 137 -138q90 -52 194 -52t194 52q87 51 138 138q52 90 52 194t-52 194q-51 87 -138 137q-90 53 -194 53zM512 704q87 0 162 -44q72 -42 114 -114q44 -75 44 -162t-44 -162q-42 -72 -114 -114
q-75 -44 -162 -44t-162 44q-72 42 -114 114q-44 75 -44 162t44 162q42 72 114 114q75 44 162 44zM368 512q-20 0 -34 -14t-14 -34t14 -34t34 -14t34 14t14 34t-14 34t-34 14zM656 512q-20 0 -34 -14t-14 -34t14 -34t34 -14t34 14t14 34t-14 34t-34 14zM352 256v-64h320v64
h-320z" />
    <glyph glyph-name="keyboard" unicode="&#xf11c;" 
d="M96 672q-26 0 -45 -19t-19 -45v-448q0 -26 19 -45t45 -19h832q26 0 45 19t19 45v448q0 26 -19 45t-45 19h-832zM96 608h832v-448h-832v448zM160 544v-64h64v64h-64zM288 544v-64h64v64h-64zM416 544v-64h64v64h-64zM544 544v-64h64v64h-64zM672 544v-64h64v64h-64z
M800 544v-64h64v64h-64zM160 416v-64h128v64h-128zM352 416v-64h64v64h-64zM480 416v-64h64v64h-64zM608 416v-64h64v64h-64zM736 416v-64h128v64h-128zM160 288v-64h128v64h-128zM352 288v-64h320v64h-320zM736 288v-64h128v64h-128z" />
    <glyph glyph-name="play-circle" unicode="&#xf144;" 
d="M512 768q-104 0 -194 -53q-87 -50 -137 -137q-53 -90 -53 -194t53 -194q50 -87 137 -138q90 -52 194 -52t194 52q87 51 138 138q52 90 52 194t-52 194q-51 87 -138 137q-90 53 -194 53zM512 704q87 0 162 -44q72 -42 114 -114q44 -75 44 -162t-44 -162q-42 -72 -114 -114
q-75 -44 -162 -44t-162 44q-72 42 -114 114q-44 75 -44 162t44 162q42 72 114 114q75 44 162 44zM384 604v-440l48 28l288 164l48 28l-48 28l-288 164zM448 494l191 -110l-191 -110v220z" />
    <glyph glyph-name="minus-square" unicode="&#xf146;" 
d="M160 736v-704h704v704h-704zM224 672h576v-576h-576v576zM352 416v-64h320v64h-320z" />
    <glyph glyph-name="check-square" unicode="&#xf14a;" 
d="M160 736v-704h704v704h-704zM224 672h576v-576h-576v576zM681 535l-233 -233l-105 105l-46 -46l128 -128l23 -22l23 22l256 256z" />
    <glyph glyph-name="share-square" unicode="&#xf14d;" 
d="M749 754l-45 -45l133 -133h-309q-48 0 -88.5 -23.5t-64 -64t-23.5 -88.5t23.5 -88.5t64 -64t88.5 -23.5h16v64h-16q-30 0 -56 15t-41 41t-15 56t15 56t41 41t56 15h310l-134 -133l46 -45l210 210zM160 736v-704h704v320l-64 -64v-192h-576v576h347l64 64h-475z" />
    <glyph glyph-name="compass" unicode="&#xf14e;" 
d="M512 768q-104 0 -194 -53q-87 -50 -137 -137q-53 -90 -53 -194t53 -194q50 -87 137 -138q90 -52 194 -52t194 52q87 51 138 138q52 90 52 194t-52 194q-51 87 -138 137q-90 53 -194 53zM479 702h1v-30h64v30q75 -7 137.5 -46.5t102 -102t46.5 -137.5h-30v-64h30
q-7 -75 -46.5 -137.5t-102 -102t-137.5 -46.5v30h-64v-30q-75 7 -137.5 46.5t-102 102t-46.5 137.5h30v64h-30q7 75 46.5 137.5t101.5 101.5t137 47zM720 592l-267 -149l-149 -267l267 149zM512 432q20 0 34 -14t14 -34t-14 -34t-34 -14t-34 14t-14 34t14 34t34 14z" />
    <glyph glyph-name="caret-square-down" unicode="&#xf150;" 
d="M160 736v-704h704v704h-704zM224 672h576v-576h-576v576zM343 487l-46 -46l192 -192l23 -22l23 22l192 192l-46 46l-169 -169z" />
    <glyph glyph-name="caret-square-up" unicode="&#xf151;" 
d="M160 736v-704h704v704h-704zM224 672h576v-576h-576v576zM512 541l-23 -22l-192 -192l46 -46l169 169l169 -169l46 46l-192 192z" />
    <glyph glyph-name="caret-square-right" unicode="&#xf152;" 
d="M160 736v-704h704v704h-704zM224 672h576v-576h-576v576zM455 599l-46 -46l169 -169l-169 -169l46 -46l192 192l22 23l-22 23z" />
    <glyph glyph-name="file" unicode="&#xf15b;" 
d="M192 800v-832h640v621l-9 10l-192 192l-10 9h-429zM256 736h320v-192h192v-512h-512v704zM640 690l82 -82h-82v82z" />
    <glyph glyph-name="alternate-file" unicode="&#xf15c;" 
d="M192 800v-832h640v621l-9 10l-192 192l-10 9h-429zM256 736h320v-192h192v-512h-512v704zM640 690l82 -82h-82v82zM352 480v-64h320v64h-320zM352 352v-64h320v64h-320zM352 224v-64h320v64h-320z" />
    <glyph glyph-name="thumbs-up" unicode="&#xf164;" 
d="M534 800l-10 -9l-217 -215h-147v-512h539q34 0 60.5 21.5t33.5 54.5l69 320q6 29 -5 56t-35 43.5t-54 16.5h-184l6 24l3 2q9 7 17 18q30 41 30 95q0 35 -27.5 60t-65.5 25h-13zM557 733q19 -4 19 -18q0 -35 -17 -58q-5 -7 -10 -11l-4 -3l-11 -6l-4 -13l-19 -72l-10 -40
h267q16 0 25 -11.5t6 -27.5l-68 -320q-2 -11 -11 -18t-21 -7h-347v403zM224 512h64v-384h-64v384z" />
    <glyph glyph-name="thumbs-down" unicode="&#xf165;" 
d="M325 704q-34 0 -60.5 -21.5t-33.5 -54.5l-69 -320q-6 -29 5 -56t35 -43.5t54 -16.5h184l-6 -24l-3 -2q-9 -7 -17 -18q-30 -41 -30 -95q0 -35 27.5 -60t65.5 -25h13l10 9l217 215h147v512h-539zM325 640h347v-403l-205 -202q-19 4 -19 18q0 35 17 58q5 7 10 11l4 3l11 6
l4 13l19 72l10 40h-267q-16 0 -25 11.5t-6 27.5l68 320q2 11 11 18t21 7zM736 640h64v-384h-64v384z" />
    <glyph glyph-name="sun" unicode="&#xf185;" 
d="M480 800v-160h64v160h-64zM240 701l-45 -45l113 -114l46 46zM784 701l-114 -113l46 -46l113 114zM512 608q-61 0 -112.5 -30t-81.5 -81.5t-30 -112.5t30 -112.5t81.5 -81.5t112.5 -30t112.5 30t81.5 81.5t30 112.5t-30 112.5t-81.5 81.5t-112.5 30zM512 544
q44 0 80.5 -21.5t58 -58t21.5 -80.5t-21.5 -80.5t-58 -58t-80.5 -21.5t-80.5 21.5t-58 58t-21.5 80.5t21.5 80.5t58 58t80.5 21.5zM96 416v-64h160v64h-160zM768 416v-64h160v64h-160zM308 226l-113 -114l45 -45l114 113zM716 226l-46 -46l114 -113l45 45zM480 128v-160h64
v160h-64z" />
    <glyph glyph-name="moon" unicode="&#xf186;" 
d="M160 736v-64h-64v-64h64v-64h64v64h64v64h-64v64h-64zM649 642l-53 -2q-84 -3 -155 -46.5t-111 -114.5q-42 -73 -42 -159t44 -160q42 -73 115 -115q74 -44 160 -44t159 42q71 40 114.5 111t46.5 155l2 52l-47 -22q-38 -18 -82 -18q-52 0 -96 26t-70 70t-26 96q0 41 19 81
zM556 566q-1 -6 -5 -18q-7 -22 -7 -35q0 -69 34.5 -128t93.5 -93.5t128 -34.5q13 0 37 7l17 5q-12 -58 -47 -104.5t-86 -72.5q-53 -27 -113 -27q-70 0 -128.5 34.5t-93 93t-34.5 128.5q0 60 27 113q26 50 72.5 85t104.5 47z" />
    <glyph glyph-name="caret-square-left" unicode="&#xf191;" 
d="M160 736v-704h704v704h-704zM224 672h576v-576h-576v576zM569 599l-192 -192l-22 -23l22 -23l192 -192l46 46l-169 169l169 169z" />
    <glyph glyph-name="dot-circle" unicode="&#xf192;" 
d="M512 768q-104 0 -194 -53q-87 -50 -137 -137q-53 -90 -53 -194t53 -194q50 -87 137 -138q90 -52 194 -52t194 52q87 51 138 138q52 90 52 194t-52 194q-51 87 -138 137q-90 53 -194 53zM512 704q87 0 162 -44q72 -42 114 -114q44 -75 44 -162t-44 -162q-42 -72 -114 -114
q-75 -44 -162 -44t-162 44q-72 42 -114 114q-44 75 -44 162t44 162q42 72 114 114q75 44 162 44zM512 480q-40 0 -68 -28t-28 -68t28 -68t68 -28t68 28t28 68t-28 68t-68 28z" />
    <glyph glyph-name="building" unicode="&#xf1ad;" 
d="M128 800v-832h352v128h64v-128h352v832h-768zM192 736h640v-704h-224v128h-192v-128h-224v704zM256 672v-64h128v64h-128zM448 672v-64h128v64h-128zM640 672v-64h128v64h-128zM256 544v-64h128v64h-128zM448 544v-64h128v64h-128zM640 544v-64h128v64h-128zM256 416v-64
h128v64h-128zM448 416v-64h128v64h-128zM640 416v-64h128v64h-128zM256 288v-64h128v64h-128zM448 288v-64h128v64h-128zM640 288v-64h128v64h-128zM256 160v-64h128v64h-128zM640 160v-64h128v64h-128z" />
    <glyph glyph-name="pdf-file" unicode="&#xf1c1;" 
d="M192 800v-832h640v832h-640zM256 736h512v-704h-512v704zM493 565q-17 0 -29 -10q-10 -8 -14 -24q-6 -23 1 -55q4 -18 22 -59l8 -19q-2 -9 -5 -26q-5 -29 -11 -45q-5 -13 -16 -33q-7 -13 -10 -20q-7 -3 -22 -7q-28 -9 -38 -15q-30 -19 -41 -39q-7 -13 -6 -29t10 -29
t24.5 -19t30.5 -1q22 8 45 38q8 10 20 39q7 17 11 25l17 7q17 7 28 9t29 3q11 0 18 1l9 -12q8 -12 12 -16q27 -23 52 -25q15 -1 29 7.5t22 22.5h1v1q8 15 8 28q0 16 -12 28q-9 10 -22 14q-10 4 -26 6q-9 1 -30 -2q-14 -2 -20 -2l-12 15q-21 25 -30 43q-4 8 -9 22
q-3 10 -6 16q2 8 6 25q8 28 9 40q2 38 -6 61q-6 16 -18 26t-28 10h-1zM514 328q3 -6 10 -15q6 -7 9 -11q-4 -1 -12 -1t-13 -1l-4 -2l6 13q1 3 2 9zM632 263q10 -1 16 -4v-1q-3 -4 -4 -5t-3 -1v0q-4 0 -18 10zM408 213q-1 -1 -2.5 -5.5t-2.5 -5.5q-12 -16 -21 -20v0v1h-1
l-2 3l2 4q6 10 23 21z" />
    <glyph glyph-name="word-file" unicode="&#xf1c2;" 
d="M192 800v-832h640v832h-640zM256 736h512v-704h-512v704zM576 512v-208q0 -5 -5.5 -10.5t-10.5 -5.5h-1l-1 2q-5 7 -9 22q-3 12 -4 27l-1 13v64h-64v-144q0 -5 -5.5 -10.5t-10.5 -5.5t-10.5 5.5t-5.5 10.5v208h-128v-64h64v-144q0 -33 23.5 -56.5t56.5 -23.5q22 0 40 14
q17 12 27 33l8 -5q12 -10 21 -10q33 0 56.5 23.5t23.5 56.5v144h64v64h-128z" />
    <glyph glyph-name="excel-file" unicode="&#xf1c3;" 
d="M192 800v-832h640v621l-211 211h-429zM256 736h320v-192h192v-512h-512v704zM640 691l83 -83h-83v83zM352 480l122 -176l-122 -176h77l83 122l83 -122h77l-122 176l122 176h-77l-83 -122l-83 122h-77z" />
    <glyph glyph-name="powerpoint-file" unicode="&#xf1c4;" 
d="M192 800v-832h640v621l-211 211h-429zM256 736h320v-192h192v-512h-512v704zM640 691l83 -83h-83v83zM416 480v-64h128q29 0 46.5 -17.5t17.5 -46.5t-17.5 -46.5t-46.5 -17.5t-46.5 17.5t-17.5 46.5h-64v-224h64v115q29 -19 64 -19t64 17.5t46.5 46.5t17.5 64t-17.5 64
t-46.5 46.5t-64 17.5h-128z" />
    <glyph glyph-name="image-file" unicode="&#xf1c5;" 
d="M192 800v-832h640v621l-9 10l-192 192l-10 9h-429zM256 736h320v-192h192v-512h-512v704zM640 690l82 -82h-82v82zM675 448q-13 0 -22.5 -9.5t-9.5 -22.5t9.5 -22.5t22.5 -9.5t22.5 9.5t9.5 22.5t-9.5 22.5t-22.5 9.5zM448 397l-23 -22l-128 -128l46 -46l105 105l73 -73
l23 -22l23 22l41 41l73 -73l46 46l-96 96l-23 22l-23 -22l-41 -41l-73 73z" />
    <glyph glyph-name="archive-file" unicode="&#xf1c6;" 
d="M192 800v-832h640v832h-640zM256 736h224v-32h64v32h224v-704h-512v704zM480 672v-64h64v64h-64zM480 576v-64h64v64h-64zM480 480v-70q-28 -10 -46 -34.5t-18 -55.5q0 -39 28.5 -67.5t67.5 -28.5t67.5 28.5t28.5 67.5q0 31 -18 55.5t-46 34.5v70h-64zM512 352
q14 0 23 -9t9 -22.5t-9 -23t-22.5 -9.5t-23 9.5t-9.5 23t9.5 22.5t22.5 9z" />
    <glyph glyph-name="audio-file" unicode="&#xf1c7;" 
d="M192 800v-832h640v832h-640zM256 736h512v-704h-512v704zM512 585v-207q-17 6 -32 6q-39 0 -67.5 -28.5t-28.5 -67.5t28.5 -67.5t67.5 -28.5t67.5 28.5t28.5 67.5v215l88 -22l16 62zM480 320q14 0 23 -9t9 -22.5t-9 -23t-22.5 -9.5t-23 9.5t-9.5 23t9.5 22.5t22.5 9z" />
    <glyph glyph-name="video-file" unicode="&#xf1c8;" 
d="M192 800v-832h640v621l-9 10l-192 192l-10 9h-429zM256 736h320v-192h192v-512h-512v704zM640 690l82 -82h-82v82zM416 473v-306l48 30l160 96l46 27l-46 27l-160 96zM480 360l67 -40l-67 -40v80z" />
    <glyph glyph-name="code-file" unicode="&#xf1c9;" 
d="M192 800v-832h640v621l-9 10l-192 192l-10 9h-429zM256 736h320v-192h192v-512h-512v704zM640 690l82 -82h-82v82zM512 480l-64 -384h64l64 384h-64zM391 404l-80 -96l-17 -20l97 -116l50 40l-63 76l63 76zM633 404l-50 -40l63 -76l-63 -76l50 -40l97 116l-17 20z" />
    <glyph glyph-name="life-ring" unicode="&#xf1cd;" 
d="M512 768q-104 0 -194 -53q-87 -50 -137 -137q-53 -90 -53 -194t53 -194q50 -87 137 -138q90 -52 194 -52t194 52q87 51 138 138q52 90 52 194t-52 194q-51 87 -138 137q-90 53 -194 53zM512 704q11 0 32 -2v-97q-21 3 -32 3t-32 -3v97q21 2 32 2zM416 690v-104
q-35 -17 -62 -44t-44 -62h-103q23 75 78.5 131t130.5 79zM608 690q75 -23 131 -79t79 -131h-104q-17 35 -44 62t-62 44v104zM512 544q44 0 80.5 -21.5t58 -58t21.5 -80.5t-21.5 -80.5t-58 -58t-80.5 -21.5t-80.5 21.5t-58 58t-21.5 80.5t21.5 80.5t58 58t80.5 21.5zM194 416
h96q-2 -14 -2 -32q0 -11 3 -32h-97q-2 21 -2 32t2 32zM733 416h97q2 -21 2 -32t-2 -32h-97q3 21 3 32t-3 32zM206 288h104q17 -35 44 -62t62 -44v-104q-75 23 -131 79t-79 131zM714 288h104q-23 -75 -79 -131t-131 -79v104q35 17 62 44t44 62zM480 163q21 -3 32 -3t32 3v-97
q-21 -2 -32 -2t-32 2v97z" />
    <glyph glyph-name="paper-plane" unicode="&#xf1d8;" 
d="M115 725l14 -60l62 -281l-62 -281l-14 -60l834 341l-777 318zM204 619l497 -203h-452zM249 352h452l-497 -203z" />
    <glyph glyph-name="futbol" unicode="&#xf1e3;" 
d="M512 800q-113 0 -210 -57q-94 -55 -149 -149q-57 -97 -57 -210t57 -210q55 -94 149 -149q97 -57 210 -57t210 57q94 55 149 149q57 97 57 210t-57 210q-55 94 -149 149q-97 57 -210 57zM512 736q25 0 56 -5l-56 -40l-56 40q32 5 56 5zM378 709l115 -84l19 -14l134 98
q78 -32 132 -95l-51 -159l19 -13l116 -85q-6 -84 -49 -155h-169l-52 -161q-38 -9 -79.5 -9t-83.5 10l-51 159h-167q-42 70 -49 156l115 84l19 13l-52 158q55 64 134 97zM512 573l-19 -14l-146 -106l-18 -14l70 -215h226l70 215l-18 14l-146 106zM824 547q26 -49 35 -109
l-57 41zM199 545l22 -66l-56 -41q9 59 34 107zM512 493l108 -78l-41 -127h-134l-41 127zM691 138h72q-42 -43 -94 -69zM261 137h70l22 -67q-52 26 -92 67z" />
    <glyph glyph-name="newspaper" unicode="&#xf1ea;" 
d="M96 736v-576q0 -35 17 -64.5t46.5 -46.5t64.5 -17h576q35 0 64.5 17t46.5 46.5t17 64.5v352h-192v224h-640zM160 672h512v-512q0 -33 18 -64h-466q-29 0 -46.5 17.5t-17.5 46.5v512zM224 608v-160h384v160h-384zM288 544h256v-32h-256v32zM736 448h128v-288
q0 -29 -17.5 -46.5t-46.5 -17.5t-46.5 17.5t-17.5 46.5v288zM224 416v-64h160v64h-160zM448 416v-64h160v64h-160zM224 320v-64h160v64h-160zM448 320v-64h160v64h-160zM224 224v-64h160v64h-160zM448 224v-64h160v64h-160z" />
    <glyph glyph-name="bell-slash" unicode="&#xf1f6;" 
d="M119 823l-46 -46l832 -832l46 46l-119 119v50h-32q-13 0 -22.5 9.5t-9.5 22.5v279q0 60 -25 113.5t-69 90.5t-99 52l1 9q0 27 -18.5 45.5t-45.5 18.5t-45.5 -18.5t-18.5 -45.5l1 -8q-66 -17 -115 -64q-12 -11 -26 -30zM498 672q7 1 20 0q50 -2 93 -29.5t68 -73t25 -98.5
v-233l-350 350q14 20 24 30q25 24 55.5 38t64.5 16zM257 504q-1 -11 -1 -24v-288q0 -13 -9.5 -22.5t-22.5 -9.5h-32v-64h230q-6 -17 -6 -32q0 -39 28.5 -67.5t67.5 -28.5t67.5 28.5t28.5 67.5q0 15 -6 32h64l-64 64h-288q6 17 6 32v250zM512 96q14 0 23 -9t9 -22.5t-9 -23
t-22.5 -9.5t-23 9.5t-9.5 23t9.5 22.5t22.5 9z" />
    <glyph glyph-name="copyright" unicode="&#xf1f9;" 
d="M512 800q-113 0 -210 -57q-94 -55 -149 -149q-57 -97 -57 -210t57 -210q55 -94 149 -149q97 -57 210 -57t210 57q94 55 149 149q57 97 57 210t-57 210q-55 94 -149 149q-97 57 -210 57zM512 736q96 0 178 -48q79 -47 126 -126q48 -82 48 -178t-48 -178q-47 -79 -126 -126
q-82 -48 -178 -48t-178 48q-79 47 -126 126q-48 82 -48 178t48 178q47 79 126 126q82 48 178 48zM509 576q-52 0 -96 -26t-70 -70t-26 -96t26 -96t70 -70t96 -26q56 0 103 30.5t70 80.5l-58 27q-16 -34 -46.5 -54t-67.5 -20t-66 17t-46 46t-17 65t17 65t46 46t66 17
t67.5 -20t46.5 -54l58 27q-23 50 -70 80.5t-103 30.5z" />
    <glyph glyph-name="closed-captioning" unicode="&#xf20a;" 
d="M64 704v-573h896v573h-896zM128 640h768v-445h-768v445zM384 576q-43 0 -80 -21.5t-58.5 -58.5t-21.5 -80t21.5 -80t58.5 -58.5t80 -21.5q55 0 100 36l-40 50q-27 -22 -60 -22q-40 0 -68 28t-28 68t28 68t68 28q33 0 60 -22l40 50q-45 36 -100 36zM704 576
q-43 0 -80 -21.5t-58.5 -58.5t-21.5 -80t21.5 -80t58.5 -58.5t80 -21.5q55 0 100 36l-40 50q-27 -22 -60 -22q-40 0 -68 28t-28 68t28 68t68 28q33 0 60 -22l40 50q-45 36 -100 36z" />
    <glyph glyph-name="object-group" unicode="&#xf247;" 
d="M160 736v-128h32v-448h-32v-128h128v32h448v-32h128v128h-32v448h32v128h-128v-32h-448v32h-128zM288 640h448v-32h32v-448h-32v-32h-448v32h-32v448h32v32zM320 576v-256h128v-128h256v256h-128v128h-256zM384 512h128v-128h-128v128zM576 384h64v-128h-128v64h64v64z
" />
    <glyph glyph-name="object-ungroup" unicode="&#xf248;" 
d="M160 736v-128h32v-320h-32v-128h128v32h64v-64h-32v-128h128v32h320v-32h128v128h-32v320h32v128h-128v-32h-64v64h32v128h-128v-32h-320v32h-128zM288 640h320v-32h32v-320h-32v-32h-320v32h-32v320h32v32zM704 480h64v-32h32v-320h-32v-32h-320v32h-32v64h192v-32h128
v128h-32v192z" />
    <glyph glyph-name="sticky-note" unicode="&#xf249;" 
d="M160 736v-704h493l10 9l192 192l9 10v493h-704zM224 672h576v-384h-192v-192h-384v576zM672 224h82l-82 -82v82z" />
    <glyph glyph-name="clone" unicode="&#xf24d;" 
d="M160 736v-32v-512h128v64h-64v416h416v-64h64v128h-544zM320 576v-32v-512h544v544h-544zM384 512h416v-416h-416v416z" />
    <glyph glyph-name="hourglass" unicode="&#xf254;" 
d="M224 768v-64h64v-128q0 -60 29.5 -111t79.5 -81q-50 -30 -79.5 -81t-29.5 -111v-128h-64v-64h576v64h-64v128q0 60 -29.5 111t-79.5 81q50 30 79.5 81t29.5 111v128h64v64h-576zM352 704h320v-128q0 -44 -21.5 -80.5t-58 -58t-80.5 -21.5t-80.5 21.5t-58 58t-21.5 80.5
v128zM512 352q44 0 80.5 -21.5t58 -58t21.5 -80.5v-128h-320v128q0 44 21.5 80.5t58 58t80.5 21.5z" />
    <glyph glyph-name="rock--hand-" unicode="&#xf255;" 
d="M480 704q-25 0 -46.5 -12t-34.5 -33q-23 13 -47 13q-39 0 -67.5 -28.5t-28.5 -67.5v-117l-67 -86q-31 -40 -29 -90.5t35 -88.5l76 -86q32 -36 76 -56t92 -20h169q61 0 112.5 30t81.5 81.5t30 112.5v288q0 39 -28.5 67.5t-67.5 28.5q-24 0 -47 -13q-13 21 -34.5 33t-46 12
t-47.5 -13q-13 21 -34.5 33t-46.5 12zM480 640q14 0 23 -9t9 -23v-96h64v64q0 14 9 23t23 9t23 -9t9 -23v-64h64v32q0 14 9 23t23 9t23 -9t9 -23v-288q0 -44 -21.5 -80.5t-58 -58t-80.5 -21.5h-169q-35 0 -66 14t-54 40l-76 87q-18 21 -19 47.5t16 48.5l16 21v-34h64v256
q0 14 9 23t23 9t23 -9t9 -23v-64h64v96q0 14 9 23t23 9z" />
    <glyph glyph-name="paper--hand-" unicode="&#xf256;" 
d="M512 832q-33 0 -58.5 -20.5t-33.5 -51.5q-19 8 -36 8q-39 0 -67.5 -28.5t-28.5 -67.5v-344l-28 28q-28 28 -68 28t-68 -28t-28 -68t28 -68l217 -217q31 -30 67 -48q40 -19 84 -19h148q61 0 112.5 30t81.5 81.5t30 112.5v384q0 39 -28.5 67.5t-67.5 28.5q-15 0 -32 -6v38
q0 39 -28.5 67.5t-67.5 28.5q-17 0 -36 -8q-8 31 -33.5 51.5t-58.5 20.5zM512 768q14 0 23 -9t9 -23v-320h64v256q0 14 9 23t23 9t23 -9t9 -23v-256h64v128q0 14 9 23t23 9t23 -9t9 -23v-384q0 -44 -21.5 -80.5t-58 -58t-80.5 -21.5h-148q-56 0 -105 49l-218 216
q-10 10 -10 23t10 23t23 10t23 -10l137 -138v499q0 14 9 23t23 9t23 -9t9 -23v-256h64v320q0 14 9 23t23 9z" />
    <glyph glyph-name="scissors--hand-" unicode="&#xf257;" 
d="M365 673q-30 1 -62 -9l-81 -25q-70 -22 -114 -81t-44 -133v-169q0 -61 30 -112.5t81.5 -81.5t112.5 -30h317q30 -1 55.5 15.5t36.5 44.5q14 35 -1 72q32 17 45 49q15 37 -2 75h125q39 0 67.5 28.5t28.5 67.5t-28.5 67.5t-67.5 28.5h-49l13 4q38 11 56.5 46.5t7.5 73.5
t-46.5 56.5t-73.5 7.5l-270 -83q-5 12 -9 19q-14 23 -37 40q-27 20 -63 26q-17 3 -28 3zM804 608q9 -1 16.5 -7t10.5 -16q4 -13 -2.5 -24.5t-19.5 -15.5l-219 -66l11 -36v-27h263q14 0 23 -9t9 -23t-9 -23t-23 -9h-211l-84 33q-18 7 -37 7l-17 131l276 84q6 2 13 1zM364 607
q13 0 18 -1q23 -4 38 -14q10 -8 18 -21q5 -9 8 -17l1 -7l27 -208l1 -3q3 -13 -3.5 -23.5t-19 -13.5t-21.5 2q-11 6 -17 24l-40 155q-4 15 -18 21t-28 -1l-53 -29q-12 -6 -15.5 -19t3 -24.5t19 -15t24.5 2.5l16 9l32 -121q13 -39 44 -57q25 -15 56 -12q-16 -15 -24 -35
q-11 -27 -5 -55t26 -48h-163q-44 0 -80.5 21.5t-58 58t-21.5 80.5v169q0 53 31.5 95t81.5 58l80 24q16 5 43 5zM538 327h3t4 -1l119 -48q13 -5 18 -17t0 -24.5t-17 -17.5t-25 0l-119 47l-4 3q21 27 21 58zM518 195q8 0 13 -2l85 -34l4 -1q13 -5 18 -17t0 -25
q-4 -9 -11.5 -14.5t-16.5 -5.5h-1q-7 0 -13 2l-89 36q-13 5 -18 17t0 24.5t17 17.5q5 2 12 2z" />
    <glyph glyph-name="lizard--hand-" unicode="&#xf258;" 
d="M458 768q-43 0 -80.5 -21t-58.5 -58l-169 -291q-22 -38 -22 -81v-317h320v138q55 16 97 46q27 20 44 40h202q20 0 36 11.5t23.5 30.5t2.5 38l-4 15q-11 43 -45.5 70t-78.5 27h-220l-16 64h204q44 0 78.5 27t45.5 70l11 42q30 10 48 32q20 23 20 53v64h-438zM458 704h374
q0 -14 -9 -23t-23 -9h-288l-32 -64h279l-4 -16q-5 -21 -22.5 -34.5t-39.5 -13.5h-204q-20 0 -36 -11.5t-23.5 -30.5t-2.5 -38l16 -64q5 -21 22.5 -34.5t39.5 -13.5h220q22 0 39.5 -13.5t22.5 -34.5l4 -16h-231l-19 -24q-11 -12 -26 -24q-20 -16 -44 -28q-29 -15 -61 -21
l-26 -5v-122h-192v253q0 27 13 49l170 290q13 22 35 35t48 13z" />
    <glyph glyph-name="spock--hand-" unicode="&#xf259;" 
d="M397 832q-11 0 -19 -2q-32 -7 -52.5 -32.5t-22.5 -57.5q-19 3 -36 -1q-39 -9 -60.5 -43t-12.5 -72l62 -269v-27l-28 28q-28 28 -68 28t-68 -28t-28 -68t28 -68l217 -217q31 -30 67 -48q40 -19 84 -19h148q61 0 112.5 30t81.5 81.5t30 112.5v224l30 151q8 39 -14.5 72
t-61.5 41q-17 3 -32 1l7 36q8 39 -14.5 72t-61.5 41t-71.5 -14.5t-40.5 -61.5l-32 -152l-49 188h-1q-8 33 -34.5 54t-59.5 20zM392 767q13 3 24 -4t14 -20l86 -332h57l6 26l56 273q3 13 14 20.5t24 4.5t20.5 -14t4.5 -24l-58 -292l63 -12l33 166h1q3 13 13.5 21t23.5 5
t20.5 -14t4.5 -24l-30 -157l-1 -3v-227q0 -44 -21.5 -80.5t-58 -58t-80.5 -21.5h-148q-56 0 -105 49l-218 216q-10 10 -10 23t10 23t23 10t23 -10l137 -138v186l-1 3l-62 276q-3 13 4 24.5t20 14.5t24 -4.5t14 -20.5l57 -254l63 14l-71 317q-3 13 4 24t20 14z" />
    <glyph glyph-name="pointer--hand-" unicode="&#xf25a;" 
d="M416 832q-39 0 -67.5 -28.5t-28.5 -67.5v-378l-21 22l-8 7q-28 28 -67 28t-67 -28t-28 -67t28 -67v-1l262 -259l2 -1l1 -2q34 -25 73 -39q42 -15 87 -15h55q71 0 131.5 35t95.5 95.5t35 131.5v250q0 39 -28.5 67.5t-67.5 28.5q-18 0 -38 -9q-8 32 -34 52.5t-59 20.5
q-36 0 -64 -25q-28 25 -64 25q-15 0 -32 -6v134q0 39 -28.5 67.5t-67.5 28.5zM416 768q13 0 22.5 -9.5t9.5 -22.5v-352h64v128q0 13 9.5 22.5t22.5 9.5t22.5 -9.5t9.5 -22.5v-128h64v128q0 13 9.5 22.5t22.5 9.5t22.5 -9.5t9.5 -22.5v-128h67v64q0 13 9.5 22.5t22.5 9.5
t22.5 -9.5t9.5 -22.5v-250q0 -55 -26.5 -100t-71.5 -71.5t-100 -26.5h-55q-65 0 -121 42l-259 256q-11 11 -11 22t11 22t22 11t22 -11l138 -138v532q0 13 9.5 22.5t22.5 9.5z" />
    <glyph glyph-name="peace--hand-" unicode="&#xf25b;" 
d="M480 832q-39 0 -67.5 -28.5t-28.5 -67.5v-49l-4 13q-11 38 -46.5 56.5t-73.5 7.5t-56.5 -46.5t-7.5 -73.5l83 -270q-12 -5 -19 -9q-23 -14 -40 -37q-20 -27 -26 -63q-8 -44 6 -90l25 -81q22 -70 81 -114t133 -44h169q61 0 112.5 30t81.5 81.5t30 112.5v323l-1 4
q-2 27 -18 49.5t-41 32.5q-35 14 -72 -1q-17 32 -49 45q-37 15 -75 -2v125q0 39 -28.5 67.5t-67.5 28.5zM480 768q14 0 23 -9t9 -23v-211l-33 -84q-7 -18 -7 -37l-131 -17l-83 276q-4 13 2 24.5t19 15.5t24.5 -2.5t15.5 -19.5l66 -219l36 11h27v263q0 14 9 23t23 9zM614 556
q7 0 13 -2q13 -5 18 -17t0 -25l-34 -85v-1l-13 -33l-3 -4q-27 21 -58 21v2q0 3 1 5l48 119q4 9 11.5 14.5t16.5 5.5zM735 512q8 0 13 -2q9 -4 14.5 -11.5t5.5 -17.5v-1q0 -7 -2 -12l-36 -89q-5 -13 -17 -18t-24.5 0t-17.5 17t0 25l35 89q5 13 17 18q5 2 12 2zM528 347
q13 3 23.5 -3.5t13.5 -19t-2 -21.5q-6 -11 -24 -17l-155 -40q-15 -4 -21 -18t1 -28l29 -53q6 -12 19 -15.5t24.5 3t15 19t-2.5 24.5l-9 16l121 32q39 13 57 44q15 25 12 56q15 -16 35 -24q27 -11 55 -5t48 26v-163q0 -44 -21.5 -80.5t-58 -58t-80.5 -21.5h-169
q-53 0 -95 31.5t-58 81.5l-24 80q-3 9 -4 25q-3 21 0 36q4 23 15 38q7 10 20 18q9 5 17 8l7 1l208 27z" />
    <glyph glyph-name="registered-trademark" unicode="&#xf25d;" 
d="M512 800q-113 0 -210 -57q-94 -55 -149 -149q-57 -97 -57 -210t57 -210q55 -94 149 -149q97 -57 210 -57t210 57q94 55 149 149q57 97 57 210t-57 210q-55 94 -149 149q-97 57 -210 57zM512 736q96 0 178 -48q79 -47 126 -126q48 -82 48 -178t-48 -178q-47 -79 -126 -126
q-82 -48 -178 -48t-178 48q-79 47 -126 126q-48 82 -48 178t48 178q47 79 126 126q82 48 178 48zM384 576v-384h64v128h109l51 -128h64l-54 136q38 13 62 46t24 74q0 35 -17 64.5t-46.5 46.5t-64.5 17h-192zM448 512h128q29 0 46.5 -17.5t17.5 -46.5t-17.5 -46.5
t-46.5 -17.5h-128v128z" />
    <glyph glyph-name="calendar-plus" unicode="&#xf271;" 
d="M288 736v-32h-128v-704h704v704h-128v32h-64v-32h-320v32h-64zM224 640h64v-32h64v32h320v-32h64v32h64v-64h-576v64zM224 512h576v-448h-576v448zM480 448v-128h-128v-64h128v-128h64v128h128v64h-128v128h-64z" />
    <glyph glyph-name="calendar-minus" unicode="&#xf272;" 
d="M288 736v-32h-128v-704h704v704h-128v32h-64v-32h-320v32h-64zM224 640h64v-32h64v32h320v-32h64v32h64v-64h-576v64zM224 512h576v-448h-576v448zM352 320v-64h320v64h-320z" />
    <glyph glyph-name="calendar-times" unicode="&#xf273;" 
d="M288 736v-32h-128v-704h704v704h-128v32h-64v-32h-320v32h-64zM224 640h64v-32h64v32h320v-32h64v32h64v-64h-576v64zM224 512h576v-448h-576v448zM423 423l-46 -46l89 -89l-89 -89l46 -46l89 89l89 -89l46 46l-89 89l89 89l-46 46l-89 -89z" />
    <glyph glyph-name="calendar-check" unicode="&#xf274;" 
d="M288 736v-32h-128v-704h704v704h-128v32h-64v-32h-320v32h-64zM224 640h64v-32h64v32h320v-32h64v32h64v-64h-576v64zM224 512h576v-448h-576v448zM649 439l-169 -169l-73 73l-46 -46l96 -96l23 -22l23 22l192 192z" />
    <glyph glyph-name="map" unicode="&#xf279;" 
d="M896 753l-45 -20l-212 -91l-244 92l-12 4l-255 -109v-614l45 20l212 91l244 -92l12 -4l255 109v614zM416 658l192 -72v-476l-192 72v476zM352 656v-475l-160 -69v475zM832 656v-475l-160 -69v475z" />
    <glyph glyph-name="alternate-comment" unicode="&#xf27a;" 
d="M96 736v-576h160v-162l203 162h469v576h-832zM160 672h704v-448h-427l-117 -93v93h-160v448z" />
    <glyph glyph-name="pause-circle" unicode="&#xf28b;" 
d="M512 768q-104 0 -194 -53q-87 -50 -137 -137q-53 -90 -53 -194t53 -194q50 -87 137 -138q90 -52 194 -52t194 52q87 51 138 138q52 90 52 194t-52 194q-51 87 -138 137q-90 53 -194 53zM512 704q87 0 162 -44q72 -42 114 -114q44 -75 44 -162t-44 -162q-42 -72 -114 -114
q-75 -44 -162 -44t-162 44q-72 42 -114 114q-44 75 -44 162t44 162q42 72 114 114q75 44 162 44zM384 544v-320h64v320h-64zM576 544v-320h64v320h-64z" />
    <glyph glyph-name="stop-circle" unicode="&#xf28d;" 
d="M512 800q-113 0 -210 -57q-94 -55 -149 -149q-57 -97 -57 -210t57 -210q55 -94 149 -149q97 -57 210 -57t210 57q94 55 149 149q57 97 57 210t-57 210q-55 94 -149 149q-97 57 -210 57zM512 736q95 0 177 -48q80 -47 127 -127q48 -82 48 -177t-48 -177q-47 -80 -127 -127
q-82 -48 -177 -48t-177 48q-80 47 -127 127q-48 82 -48 177t48 177q47 80 127 127q82 48 177 48zM352 544v-80v-240h320v320h-320zM416 480h192v-192h-192v192z" />
    <glyph glyph-name="handshake" unicode="&#xf2b5;" 
d="M618 673q-33 0 -54 -6q-30 -8 -57 -26q-44 26 -71 29q-23 3 -67 1h-18q-17 0 -34 -6q-11 -4 -31.5 -13.5t-32.5 -14.5q-75 -29 -157 -29h-32v-308l77 -38l211 -235q31 -31 85 -28q43 2 77 23q30 18 106 70l73 50l2 2q19 19 28 53l123 62l92 31l22 7v311h-32
q-80 0 -157 30q-12 5 -32.5 14.5t-30.5 13.5q-18 6 -35 6zM619 609h30l22 -1q2 0 34 -13l43 -17q65 -25 148 -31v-204l-74 -25h-2l-99 -50q-9 24 -24 40l-2 3l-156 192l-111 -90q-20 -14 -40 -13q-15 0 -36 10q-4 2 -8 5l-4 3l148 123q31 30 54 46q20 13 39 18q14 4 38 4z
M396 608q20 0 32 -1q5 -1 16 -6q7 -4 10 -5l-213 -177l31 -32q10 -9 21 -17q15 -10 31 -18q32 -15 65 -15q42 -1 76 23l64 53l118 -145l2 -3q16 -16 16 -37.5t-16 -37.5v-1l-5 -3l-42 57l-52 -38l41 -55l-42 -29l-43 58l-52 -38l41 -55l-14 -9q-8 -5 -21.5 -9t-25.5 -5
q-24 -1 -35 8l-215 238l-4 5l-52 26v207q84 6 148 30l49 19q26 11 28 11z" />
    <glyph glyph-name="envelope-open" unicode="&#xf2b6;" 
d="M512 800l-17 -11l-399 -260v-561h832v561l-399 260zM512 724l326 -212l-326 -211l-326 211zM160 453l335 -217l17 -11l352 228v-421h-704v421z" />
    <glyph glyph-name="address-book" unicode="&#xf2b9;" 
d="M192 768v-160h-32v-64h96v160h512v-640h-512v96h-64v-160h640v768h-640zM512 576q-35 0 -64 -17.5t-46.5 -46.5t-17.5 -64q0 -26 10.5 -49.5t28.5 -41.5q-33 -22 -52 -57.5t-19 -75.5h64q0 40 28 68t68 28t68 -28t28 -68h64q0 40 -19 75.5t-52 57.5q18 18 28.5 41.5
t10.5 49.5q0 35 -17.5 64t-46.5 46.5t-64 17.5zM192 512v-64h-32v-64h96v128h-64zM512 512q27 0 45.5 -18.5t18.5 -45.5t-18.5 -45.5t-45.5 -18.5t-45.5 18.5t-18.5 45.5t18.5 45.5t45.5 18.5zM192 352v-64h-32v-64h96v128h-64z" />
    <glyph glyph-name="address-card" unicode="&#xf2bb;" 
d="M96 704v-640h832v640h-832zM160 640h704v-512h-109q-1 2 -2 7t-3 7q-18 18 -46 18t-46 -18q-2 -2 -3 -7t-2 -7h-282q-1 2 -2 7t-3 7q-18 18 -46 18t-46 -18q-2 -2 -3 -7t-2 -7h-109v512zM384 576q-35 0 -64 -17.5t-46.5 -46.5t-17.5 -64q0 -26 10.5 -49.5t28.5 -41.5
q-33 -22 -52 -57.5t-19 -75.5h64q0 40 28 68t68 28t68 -28t28 -68h64q0 40 -19 75.5t-52 57.5q18 18 28.5 41.5t10.5 49.5q0 35 -17.5 64t-46.5 46.5t-64 17.5zM384 512q27 0 45.5 -18.5t18.5 -45.5t-18.5 -45.5t-45.5 -18.5t-45.5 18.5t-18.5 45.5t18.5 45.5t45.5 18.5z
M608 480v-64h192v64h-192zM608 352v-64h192v64h-192z" />
    <glyph glyph-name="user-circle" unicode="&#xf2bd;" 
d="M512 800q-113 0 -210 -57q-94 -55 -149 -149q-57 -97 -57 -210t57 -210q55 -94 149 -149q97 -57 210 -57t210 57q94 55 149 149q57 97 57 210t-57 210q-55 94 -149 149q-97 57 -210 57zM512 736q96 0 178 -48q79 -47 126 -126q48 -82 48 -178t-48 -178q-47 -79 -126 -126
q-82 -48 -178 -48t-178 48q-79 47 -126 126q-48 82 -48 178t48 178q47 79 126 126q82 48 178 48zM512 640q-43 0 -80 -21.5t-58.5 -58.5t-21.5 -80q0 -35 15 -66.5t42 -54.5q-55 -28 -88 -81.5t-33 -117.5h64q0 44 21.5 80.5t58 58t80.5 21.5t80.5 -21.5t58 -58t21.5 -80.5
h64q0 64 -33 117.5t-88 81.5q27 23 42 54.5t15 66.5q0 43 -21.5 80t-58.5 58.5t-80 21.5zM512 576q40 0 68 -28t28 -68t-28 -68t-68 -28t-68 28t-28 68t28 68t68 28z" />
    <glyph glyph-name="identification-badge" unicode="&#xf2c1;" 
d="M480 800q-26 0 -45 -19t-19 -45h-192v-736h576v736h-192q0 26 -19 45t-45 19h-64zM480 736h64v-64h-64v64zM288 672h128v-64h192v64h128v-608h-448v608zM512 544q-35 0 -64 -17.5t-46.5 -46.5t-17.5 -64q0 -26 10.5 -49.5t28.5 -41.5q-33 -22 -52 -57t-19 -76h64
q0 40 28 68t68 28t68 -28t28 -68h64q0 41 -19 76t-52 57q18 18 28.5 41.5t10.5 49.5q0 35 -17.5 64t-46.5 46.5t-64 17.5zM512 480q27 0 45.5 -18.5t18.5 -45.5t-18.5 -45.5t-45.5 -18.5t-45.5 18.5t-18.5 45.5t18.5 45.5t45.5 18.5z" />
    <glyph glyph-name="identification-card" unicode="&#xf2c2;" 
d="M160 704q-39 0 -67.5 -28.5t-28.5 -67.5v-448q0 -39 28.5 -67.5t67.5 -28.5h704q39 0 67.5 28.5t28.5 67.5v448q0 39 -28.5 67.5t-67.5 28.5h-704zM160 640h704q14 0 23 -9t9 -23v-448q0 -14 -9 -23t-23 -9h-704q-14 0 -23 9t-9 23v448q0 14 9 23t23 9zM352 576
q-35 0 -64 -17.5t-46.5 -46.5t-17.5 -64q0 -26 10.5 -49.5t28.5 -41.5q-33 -22 -52 -57t-19 -76h64q0 40 28 68t68 28t68 -28t28 -68h64q0 41 -19 76t-52 57q18 18 28.5 41.5t10.5 49.5q0 35 -17.5 64t-46.5 46.5t-64 17.5zM576 544v-64h256v64h-256zM352 512
q27 0 45.5 -18.5t18.5 -45.5t-18.5 -45.5t-45.5 -18.5t-45.5 18.5t-18.5 45.5t18.5 45.5t45.5 18.5zM576 416v-64h256v64h-256zM576 288v-64h160v64h-160z" />
    <glyph glyph-name="window-maximize" unicode="&#xf2d0;" 
d="M160 736v-704h704v704h-704zM224 672h576v-576h-576v576zM288 576v-384h448v384h-448zM352 512h320v-64h-320v64zM352 384h320v-128h-320v128z" />
    <glyph glyph-name="window-minimize" unicode="&#xf2d1;" 
d="M160 736v-704h704v704h-704zM224 672h576v-576h-576v576zM288 256v-64h448v64h-448z" />
    <glyph glyph-name="window-restore" unicode="&#xf2d2;" 
d="M160 736v-704h704v704h-704zM224 672h576v-576h-576v576zM384 608v-128h-96v-320h352v128h96v320h-352zM448 544h224v-32h-224v32zM448 448h224v-96h-224v96zM352 416h32v-33h-32v33zM352 319h32v-31h192v-64h-224v95z" />
    <glyph glyph-name="snowflake" unicode="&#xf2dc;" 
d="M480 800v-114l-73 73l-46 -46l119 -119v-154l-132 79l-42 163l-62 -16l26 -100l-98 59l-33 -54l100 -60l-103 -26l16 -62l164 42l135 -81l-135 -81l-164 42l-16 -62l103 -26l-100 -60l33 -54l98 59l-26 -100l62 -16l42 163l132 79v-154l-119 -119l46 -46l73 73v-114h64
v114l73 -73l46 46l-119 119v154l132 -79l42 -163l62 16l-26 100l98 -59l33 54l-100 60l103 26l-16 62l-164 -42l-135 81l135 81l164 -42l16 62l-103 26l100 60l-33 54l-98 -59l26 100l-62 16l-42 -163l-132 -79v154l119 119l-46 46l-73 -73v114h-64z" />
    <glyph glyph-name="alternate-trash" unicode="&#xf2ed;" 
d="M480 768q-28 0 -46 -18t-18 -46v-32h-192v-64h32v-512q0 -39 28.5 -67.5t67.5 -28.5h384q39 0 67.5 28.5t28.5 67.5v512h32v64h-192v32q0 28 -18 46t-46 18h-128zM480 704h128v-32h-128v32zM320 608h448v-512q0 -13 -9.5 -22.5t-22.5 -9.5h-384q-13 0 -22.5 9.5
t-9.5 22.5v512zM384 512v-352h64v352h-64zM512 512v-352h64v352h-64zM640 512v-352h64v352h-64z" />
    <glyph glyph-name="images" unicode="&#xf302;" 
d="M64 736v-576h128v-128h768v576h-128v128h-768zM128 672h640v-448h-640v448zM192 608v-320h512v320h-512zM256 544h384v-192h-384v192zM832 544h64v-448h-640v64h576v384z" />
    <glyph glyph-name="clipboard" unicode="&#xf328;" 
d="M512 800q-29 0 -51 -19q-21 -17 -32 -45h-237v-736h640v736h-237q-11 28 -32 45q-22 19 -51 19zM512 736q13 0 22.5 -9.5t9.5 -22.5v-32h96v-64h-256v64h96v32q0 13 9.5 22.5t22.5 9.5zM256 672h64v-128h384v128h64v-608h-512v608z" />
    <glyph glyph-name="alternate-arrow-circle-down" unicode="&#xf358;" 
d="M512 800q-113 0 -210 -57q-94 -55 -149 -149q-57 -97 -57 -210t57 -210q55 -94 149 -149q97 -57 210 -57t210 57q94 55 149 149q57 97 57 210t-57 210q-55 94 -149 149q-97 57 -210 57zM512 736q96 0 178 -48q79 -47 126 -126q48 -82 48 -178t-48 -178q-47 -79 -126 -126
q-82 -48 -178 -48t-178 48q-79 47 -126 126q-48 82 -48 178t48 178q47 79 126 126q82 48 178 48zM480 608v-320h-96l128 -128l128 128h-96v320h-64z" />
    <glyph glyph-name="alternate-arrow-circle-left" unicode="&#xf359;" 
d="M512 800q-113 0 -210 -57q-94 -55 -149 -149q-57 -97 -57 -210t57 -210q55 -94 149 -149q97 -57 210 -57t210 57q94 55 149 149q57 97 57 210t-57 210q-55 94 -149 149q-97 57 -210 57zM512 736q96 0 178 -48q79 -47 126 -126q48 -82 48 -178t-48 -178q-47 -79 -126 -126
q-82 -48 -178 -48t-178 48q-79 47 -126 126q-48 82 -48 178t48 178q47 79 126 126q82 48 178 48zM416 512l-128 -128l128 -128v96h320v64h-320v96z" />
    <glyph glyph-name="alternate-arrow-circle-right" unicode="&#xf35a;" 
d="M512 800q-113 0 -210 -57q-94 -55 -149 -149q-57 -97 -57 -210t57 -210q55 -94 149 -149q97 -57 210 -57t210 57q94 55 149 149q57 97 57 210t-57 210q-55 94 -149 149q-97 57 -210 57zM512 736q96 0 178 -48q79 -47 126 -126q48 -82 48 -178t-48 -178q-47 -79 -126 -126
q-82 -48 -178 -48t-178 48q-79 47 -126 126q-48 82 -48 178t48 178q47 79 126 126q82 48 178 48zM608 512v-96h-320v-64h320v-96l128 128z" />
    <glyph glyph-name="alternate-arrow-circle-up" unicode="&#xf35b;" 
d="M512 800q-113 0 -210 -57q-94 -55 -149 -149q-57 -97 -57 -210t57 -210q55 -94 149 -149q97 -57 210 -57t210 57q94 55 149 149q57 97 57 210t-57 210q-55 94 -149 149q-97 57 -210 57zM512 736q96 0 178 -48q79 -47 126 -126q48 -82 48 -178t-48 -178q-47 -79 -126 -126
q-82 -48 -178 -48t-178 48q-79 47 -126 126q-48 82 -48 178t48 178q47 79 126 126q82 48 178 48zM512 608l-128 -128h96v-320h64v320h96z" />
    <glyph glyph-name="gem" unicode="&#xf3a5;" 
d="M305 704l-170 -204l-16 -19l16 -21l377 -480l377 480l16 21l-186 223h-414zM335 640h117l-86 -128h-138zM572 640h117l107 -128h-138zM512 613l68 -101h-136zM225 448h135l76 -269zM426 448h171l-85 -298zM664 448h135l-211 -268z" />
    <glyph glyph-name="alternate-money-bill" unicode="&#xf3d1;" 
d="M64 672v-544h896v544h-896zM192 608h640q0 -27 18.5 -45.5t45.5 -18.5v-288q-27 0 -45.5 -18.5t-18.5 -45.5h-640q0 27 -18.5 45.5t-45.5 18.5v288q27 0 45.5 18.5t18.5 45.5zM480 544q0 -35 -14.5 -49.5t-49.5 -14.5v-64q36 0 64 13v-173h64v288h-64zM272 448
q-20 0 -34 -14t-14 -34t14 -34t34 -14t34 14t14 34t-14 34t-34 14zM752 448q-20 0 -34 -14t-14 -34t14 -34t34 -14t34 14t14 34t-14 34t-34 14z" />
    <glyph glyph-name="window-close" unicode="&#xf410;" 
d="M160 736v-704h704v704h-704zM224 672h576v-576h-576v576zM374 566l-45 -45l137 -137l-139 -139l45 -45l139 139l138 -138l45 45l-138 138l136 136l-45 45l-136 -136z" />
    <glyph glyph-name="comment-dots" unicode="&#xf4ad;" 
d="M96 736v-576h160v-162l203 162h469v576h-832zM160 672h704v-448h-427l-117 -93v93h-160v448zM320 512q-27 0 -45.5 -18.5t-18.5 -45.5t18.5 -45.5t45.5 -18.5t45.5 18.5t18.5 45.5t-18.5 45.5t-45.5 18.5zM512 512q-27 0 -45.5 -18.5t-18.5 -45.5t18.5 -45.5t45.5 -18.5
t45.5 18.5t18.5 45.5t-18.5 45.5t-45.5 18.5zM704 512q-27 0 -45.5 -18.5t-18.5 -45.5t18.5 -45.5t45.5 -18.5t45.5 18.5t18.5 45.5t-18.5 45.5t-45.5 18.5z" />
    <glyph glyph-name="winking-face" unicode="&#xf4da;" 
d="M512 768q-104 0 -194 -53q-87 -50 -137 -137q-53 -90 -53 -194t53 -194q50 -87 137 -138q90 -52 194 -52t194 52q87 51 138 138q52 90 52 194t-52 194q-51 87 -138 137q-90 53 -194 53zM512 704q87 0 162 -44q72 -42 114 -114q44 -75 44 -162t-44 -162q-42 -72 -114 -114
q-75 -44 -162 -44t-162 44q-72 42 -114 114q-44 75 -44 162t44 162q42 72 114 114q75 44 162 44zM368 512q-20 0 -34 -14t-14 -34t14 -34t34 -14t34 14t14 34t-14 34t-34 14zM576 480v-64h160v64h-160zM671 351q0 -73 -53 -118q-23 -19 -51.5 -30t-54.5 -11q-48 0 -87 18
q-33 15 -63 45l-45 -46q37 -36 82 -57q53 -24 113 -24q38 0 77 14.5t71 41.5q34 29 54 70q21 45 21 97h-64z" />
    <glyph glyph-name="winking-face" unicode="&#xf58c;" 
d="M512 768q-104 0 -194 -53q-87 -50 -137 -137q-53 -90 -53 -194t53 -194q50 -87 137 -138q90 -52 194 -52t194 52q87 51 138 138q52 90 52 194t-52 194q-51 87 -138 137q-90 53 -194 53zM512 704q87 0 162 -44q72 -42 114 -114q44 -75 44 -162t-44 -162q-42 -72 -114 -114
q-75 -44 -162 -44t-162 44q-72 42 -114 114q-44 75 -44 162t44 162q42 72 114 114q75 44 162 44zM368 512q-20 0 -34 -14t-14 -34t14 -34t34 -14t34 14t14 34t-14 34t-34 14zM576 480v-64h160v64h-160zM671 351q0 -73 -53 -118q-23 -19 -51.5 -30t-54.5 -11q-48 0 -87 18
q-33 15 -63 45l-45 -46q37 -36 82 -57q53 -24 113 -24q38 0 77 14.5t71 41.5q34 29 54 70q21 45 21 97h-64z" />
    <glyph glyph-name="angry-face" unicode="&#xf556;" 
d="M512 768q-104 0 -194 -53q-87 -50 -137 -137q-53 -90 -53 -194t53 -194q50 -87 137 -138q90 -52 194 -52t194 52q87 51 138 138q52 90 52 194t-52 194q-51 87 -138 137q-90 53 -194 53zM512 704q87 0 162 -44q72 -42 114 -114q44 -75 44 -162t-44 -162q-42 -72 -114 -114
q-75 -44 -162 -44t-162 44q-72 42 -114 114q-44 75 -44 162t44 162q42 72 114 114q75 44 162 44zM342 512q-22 -22 -22 -53t22 -53t53 -22t53 22zM682 512l-106 -106q22 -22 53 -22t53 22t22 53t-22 53zM594 325q-8 0 -14 -1q-22 -3 -45 -15q-13 -7 -37 -23l-5 -3
q-42 -28 -61 -31q-13 -2 -24 2q-14 6 -33 25l-46 -46q26 -27 55.5 -37.5t57.5 -6.5q22 3 44 15q13 7 36 22l6 4q40 27 61 30q14 2 26 -2q16 -6 35 -25l44 46q-48 47 -100 46z" />
    <glyph glyph-name="dizzy-face" unicode="&#xf567;" 
d="M512 800q-113 0 -210 -57q-94 -55 -149 -149q-57 -97 -57 -210t57 -210q55 -94 149 -149q97 -57 210 -57t210 57q94 55 149 149q57 97 57 210t-57 210q-55 94 -149 149q-97 57 -210 57zM512 736q95 0 178 -48q79 -47 126 -126q48 -83 48 -178t-48 -178q-47 -79 -126 -126
q-83 -48 -178 -48t-178 48q-79 47 -126 126q-48 83 -48 178t48 178q47 79 126 126q83 48 178 48zM311 567l-46 -46l58 -57l-58 -57l46 -46l57 58l57 -58l46 46l-58 57l58 57l-46 46l-57 -58zM599 567l-46 -46l58 -57l-58 -57l46 -46l57 58l57 -58l46 46l-58 57l58 57l-46 46
l-57 -58zM512 320q-35 0 -64.5 -14.5t-46.5 -39.5t-17 -55q0 -83 128 -83t128 83q0 30 -17 55t-46.5 39.5t-64.5 14.5zM512 256q26 0 45 -13.5t19 -31.5q0 -7 -8 -11q-15 -8 -56 -8t-56 8q-8 4 -8 11q0 18 19 31.5t45 13.5z" />
    <glyph glyph-name="flushed-face" unicode="&#xf579;" 
d="M512 800q-113 0 -210 -57q-94 -55 -149 -149q-57 -97 -57 -210t57 -210q55 -94 149 -149q97 -57 210 -57t210 57q94 55 149 149q57 97 57 210t-57 210q-55 94 -149 149q-97 57 -210 57zM512 736q95 0 178 -48q79 -47 126 -126q48 -83 48 -178t-48 -178q-47 -79 -126 -126
q-83 -48 -178 -48t-178 48q-79 47 -126 126q-48 83 -48 178t48 178q47 79 126 126q83 48 178 48zM368 640q-48 0 -88.5 -23.5t-64 -64t-23.5 -88.5t23.5 -88.5t64 -64t88.5 -23.5q44 0 82 20t62 55q24 -35 62 -55t82 -20q48 0 88.5 23.5t64 64t23.5 88.5t-23.5 88.5t-64 64
t-88.5 23.5q-44 0 -82 -20t-62 -55q-24 35 -62 55t-82 20zM368 576q30 0 56 -15t41 -41t15 -56t-15 -56t-41 -41t-56 -15t-56 15t-41 41t-15 56t15 56t41 41t56 15zM656 576q30 0 56 -15t41 -41t15 -56t-15 -56t-41 -41t-56 -15t-56 15t-41 41t-15 56t15 56t41 41t56 15z
M368 512q-20 0 -34 -14t-14 -34t14 -34t34 -14t34 14t14 34t-14 34t-34 14zM656 512q-20 0 -34 -14t-14 -34t14 -34t34 -14t34 14t14 34t-14 34t-34 14zM384 224v-64h256v64h-256z" />
    <glyph glyph-name="hushed-face" unicode="&#xf57a;" 
d="M512 768q-104 0 -194 -53q-87 -50 -137 -137q-53 -90 -53 -194t53 -194q50 -87 137 -138q90 -52 194 -52t194 52q87 51 138 138q52 90 52 194t-52 194q-51 87 -138 137q-90 53 -194 53zM512 704q87 0 162 -44q72 -42 114 -114q44 -75 44 -162t-44 -162q-42 -72 -114 -114
q-75 -44 -162 -44t-162 44q-72 42 -114 114q-44 75 -44 162t44 162q42 72 114 114q75 44 162 44zM368 544q-20 0 -34 -23.5t-14 -56.5t14 -56.5t34 -23.5t34 23.5t14 56.5t-14 56.5t-34 23.5zM656 544q-20 0 -34 -23.5t-14 -56.5t14 -56.5t34 -23.5t34 23.5t14 56.5
t-14 56.5t-34 23.5zM512 352q-36 0 -65 -17.5t-46 -47t-17 -63.5q0 -25 9.5 -46.5t27.5 -32.5t41 -14q17 -3 50 -3t50 3q23 3 41 14t27.5 32.5t9.5 46.5q0 34 -17 63.5t-46 47t-65 17.5zM512 288q30 0 47 -17.5t17 -46.5q0 -15 -1 -19t-5 -6v0q-4 -3 -18 -5q-17 -2 -40 -2
t-40 2q-14 2 -18 5v0q-4 2 -5 6t-1 19q0 29 17 46.5t47 17.5z" />
    <glyph glyph-name="hushed-face" unicode="&#xf5c2;" 
d="M512 768q-104 0 -194 -53q-87 -50 -137 -137q-53 -90 -53 -194t53 -194q50 -87 137 -138q90 -52 194 -52t194 52q87 51 138 138q52 90 52 194t-52 194q-51 87 -138 137q-90 53 -194 53zM512 704q87 0 162 -44q72 -42 114 -114q44 -75 44 -162t-44 -162q-42 -72 -114 -114
q-75 -44 -162 -44t-162 44q-72 42 -114 114q-44 75 -44 162t44 162q42 72 114 114q75 44 162 44zM368 544q-20 0 -34 -23.5t-14 -56.5t14 -56.5t34 -23.5t34 23.5t14 56.5t-14 56.5t-34 23.5zM656 544q-20 0 -34 -23.5t-14 -56.5t14 -56.5t34 -23.5t34 23.5t14 56.5
t-14 56.5t-34 23.5zM512 352q-36 0 -65 -17.5t-46 -47t-17 -63.5q0 -25 9.5 -46.5t27.5 -32.5t41 -14q17 -3 50 -3t50 3q23 3 41 14t27.5 32.5t9.5 46.5q0 34 -17 63.5t-46 47t-65 17.5zM512 288q30 0 47 -17.5t17 -46.5q0 -15 -1 -19t-5 -6v0q-4 -3 -18 -5q-17 -2 -40 -2
t-40 2q-14 2 -18 5v0q-4 2 -5 6t-1 19q0 29 17 46.5t47 17.5z" />
    <glyph glyph-name="grimacing-face" unicode="&#xf57f;" 
d="M512 800q-113 0 -210 -57q-94 -55 -149 -149q-57 -97 -57 -210t57 -210q55 -94 149 -149q97 -57 210 -57t210 57q94 55 149 149q57 97 57 210t-57 210q-55 94 -149 149q-97 57 -210 57zM512 736q95 0 178 -48q79 -47 126 -126q48 -83 48 -178t-48 -178q-47 -79 -126 -126
q-83 -48 -178 -48t-178 48q-79 47 -126 126q-48 83 -48 178t48 178q47 79 126 126q83 48 178 48zM368 512q-20 0 -34 -14t-14 -34t14 -34t34 -14t34 14t14 34t-14 34t-34 14zM656 512q-20 0 -34 -14t-14 -34t14 -34t34 -14t34 14t14 34t-14 34t-34 14zM384 352
q-40 0 -68 -28t-28 -68t28 -68t68 -28h256q40 0 68 28t28 68t-28 68t-68 28h-256zM384 288h32v-64h-32q-13 0 -22.5 9.5t-9.5 22.5t9.5 22.5t22.5 9.5zM480 288h64v-64h-64v64zM608 288h32q13 0 22.5 -9.5t9.5 -22.5t-9.5 -22.5t-22.5 -9.5h-32v64z" />
    <glyph glyph-name="grinning-face-with-big-eyes" unicode="&#xf580;" 
d="M512 800q-113 0 -210 -57q-94 -55 -149 -149q-57 -97 -57 -210t57 -210q55 -94 149 -149q97 -57 210 -57t210 57q94 55 149 149q57 97 57 210t-57 210q-55 94 -149 149q-97 57 -210 57zM512 736q95 0 178 -48q79 -47 126 -126q48 -83 48 -178t-48 -178q-47 -79 -126 -126
q-83 -48 -178 -48t-178 48q-79 47 -126 126q-48 83 -48 178t48 178q47 79 126 126q83 48 178 48zM368 512q-20 0 -34 -14t-14 -34t14 -34t34 -14t34 14t14 34t-14 34t-34 14zM656 512q-20 0 -34 -14t-14 -34t14 -34t34 -14t34 14t14 34t-14 34t-34 14zM288 288q3 -8 7 -17
q9 -20 22 -39q18 -27 42 -48q29 -25 63 -39q42 -17 90 -17t90 17q34 14 63 39q24 21 42 48q13 19 22 39l7 17h-448z" />
    <glyph glyph-name="grinning-face-with-big-eyes" unicode="&#xf599;" 
d="M512 800q-113 0 -210 -57q-94 -55 -149 -149q-57 -97 -57 -210t57 -210q55 -94 149 -149q97 -57 210 -57t210 57q94 55 149 149q57 97 57 210t-57 210q-55 94 -149 149q-97 57 -210 57zM512 736q95 0 178 -48q79 -47 126 -126q48 -83 48 -178t-48 -178q-47 -79 -126 -126
q-83 -48 -178 -48t-178 48q-79 47 -126 126q-48 83 -48 178t48 178q47 79 126 126q83 48 178 48zM368 512q-20 0 -34 -14t-14 -34t14 -34t34 -14t34 14t14 34t-14 34t-34 14zM656 512q-20 0 -34 -14t-14 -34t14 -34t34 -14t34 14t14 34t-14 34t-34 14zM288 288q3 -8 7 -17
q9 -20 22 -39q18 -27 42 -48q29 -25 63 -39q42 -17 90 -17t90 17q34 14 63 39q24 21 42 48q13 19 22 39l7 17h-448z" />
    <glyph glyph-name="alternate-grinning-face" unicode="&#xf581;" 
d="M512 800q-113 0 -210 -57q-94 -55 -149 -149q-57 -97 -57 -210t57 -210q55 -94 149 -149q97 -57 210 -57t210 57q94 55 149 149q57 97 57 210t-57 210q-55 94 -149 149q-97 57 -210 57zM512 736q95 0 178 -48q79 -47 126 -126q48 -83 48 -178t-48 -178q-47 -79 -126 -126
q-83 -48 -178 -48t-178 48q-79 47 -126 126q-48 83 -48 178t48 178q47 79 126 126q83 48 178 48zM368 544q-20 0 -34 -28t-14 -68t14 -68t34 -28t34 28t14 68t-14 68t-34 28zM656 544q-20 0 -34 -28t-14 -68t14 -68t34 -28t34 28t14 68t-14 68t-34 28zM288 288q3 -8 7 -17
q9 -20 22 -39q18 -27 42 -48q29 -25 63 -39q42 -17 90 -17t90 17q34 14 63 39q24 21 42 48q13 19 22 39l7 17h-448z" />
    <glyph glyph-name="grinning-face-with-smiling-eyes" unicode="&#xf582;" 
d="M512 800q-113 0 -210 -57q-94 -55 -149 -149q-57 -97 -57 -210t57 -210q55 -94 149 -149q97 -57 210 -57t210 57q94 55 149 149q57 97 57 210t-57 210q-55 94 -149 149q-97 57 -210 57zM512 736q95 0 178 -48q79 -47 126 -126q48 -83 48 -178t-48 -178q-47 -79 -126 -126
q-83 -48 -178 -48t-178 48q-79 47 -126 126q-48 83 -48 178t48 178q47 79 126 126q83 48 178 48zM352 512q-30 0 -60 -10q-21 -7 -40 -19l-16 -10l40 -50l10 6q13 8 28 12q19 7 38 7t39 -7q14 -4 27 -12l11 -6l39 50h-1q-14 11 -34 21q-40 18 -81 18zM672 512q-30 0 -60 -10
q-21 -7 -40 -19l-15 -10l39 -50l10 6q13 8 28 12q19 7 38 7t39 -7q14 -4 27 -12l11 -6l39 50h-1q-14 11 -34 21q-40 18 -81 18zM288 288q3 -8 7 -17q9 -20 22 -39q18 -27 42 -48q29 -25 63 -39q42 -17 90 -17t90 17q34 14 63 39q24 21 42 48q13 19 22 39l7 17h-448z" />
    <glyph glyph-name="grinning-face-with-smiling-eyes" unicode="&#xf59a;" 
d="M512 800q-113 0 -210 -57q-94 -55 -149 -149q-57 -97 -57 -210t57 -210q55 -94 149 -149q97 -57 210 -57t210 57q94 55 149 149q57 97 57 210t-57 210q-55 94 -149 149q-97 57 -210 57zM512 736q95 0 178 -48q79 -47 126 -126q48 -83 48 -178t-48 -178q-47 -79 -126 -126
q-83 -48 -178 -48t-178 48q-79 47 -126 126q-48 83 -48 178t48 178q47 79 126 126q83 48 178 48zM352 512q-30 0 -60 -10q-21 -7 -40 -19l-16 -10l40 -50l10 6q13 8 28 12q19 7 38 7t39 -7q14 -4 27 -12l11 -6l39 50h-1q-14 11 -34 21q-40 18 -81 18zM672 512q-30 0 -60 -10
q-21 -7 -40 -19l-15 -10l39 -50l10 6q13 8 28 12q19 7 38 7t39 -7q14 -4 27 -12l11 -6l39 50h-1q-14 11 -34 21q-40 18 -81 18zM288 288q3 -8 7 -17q9 -20 22 -39q18 -27 42 -48q29 -25 63 -39q42 -17 90 -17t90 17q34 14 63 39q24 21 42 48q13 19 22 39l7 17h-448z" />
    <glyph glyph-name="grinning-face-with-sweat" unicode="&#xf583;" 
d="M512 800q-113 0 -210 -57q-94 -55 -149 -149q-57 -97 -57 -210t57 -210q55 -94 149 -149q97 -57 210 -57t210 57q94 55 149 149q57 97 57 210q0 96 -43 183q-14 -33 -45 -57q24 -61 24 -126q0 -95 -48 -178q-47 -79 -126 -126q-83 -48 -178 -48t-178 48q-79 47 -126 126
q-48 83 -48 178t48 178q47 79 126 126q83 48 178 48q63 0 123 -22q11 26 28 57q-74 29 -151 29zM752 800q-10 -19 -21 -37q-23 -44 -38 -77q-21 -46 -21 -65q0 -32 23.5 -54.5t56.5 -22.5t56.5 22.5t23.5 54.5q0 26 -40 105q-20 40 -40 74v0zM288 448v-64h160v64h-160z
M576 448v-64h160v64h-160z" />
    <glyph glyph-name="smiling-face-with-heart-eyes" unicode="&#xf584;" 
d="M512 768q-104 0 -194 -53q-87 -50 -137 -137q-53 -90 -53 -194t53 -194q50 -87 137 -138q90 -52 194 -52t194 52q87 51 138 138q52 90 52 194t-52 194q-51 87 -138 137q-90 53 -194 53zM512 704q87 0 162 -44q72 -42 114 -114q44 -75 44 -162t-44 -162q-42 -72 -114 -114
q-75 -44 -162 -44t-162 44q-72 42 -114 114q-44 75 -44 162t44 162q42 72 114 114q75 44 162 44zM336 544q-20 0 -34 -14t-14 -34q0 -5 1 -9q2 -11 9 -20q11 -18 33 -40q16 -15 36 -31l17 -12l25 18q28 22 46 42q25 29 25 52q0 20 -14 34t-34 14t-34 -14t-14 -34
q0 20 -14 34t-34 14zM592 544q-20 0 -34 -14t-14 -34q0 -5 1 -9q2 -11 9 -20q11 -18 33 -40q16 -15 36 -31l17 -12l17 12q21 16 37 31q23 22 33 41q9 17 9 28q0 20 -14 34t-34 14t-34 -14t-14 -34q0 20 -14 34t-34 14zM346 288l-55 -32q34 -58 92.5 -93t128.5 -35t128.5 35
t92.5 93l-55 32q-25 -44 -69.5 -70t-96.5 -26t-96.5 26t-69.5 70z" />
    <glyph glyph-name="grinning-squinting-face" unicode="&#xf585;" 
d="M512 800q-113 0 -210 -57q-94 -55 -149 -149q-57 -97 -57 -210t57 -210q55 -94 149 -149q97 -57 210 -57t210 57q94 55 149 149q57 97 57 210t-57 210q-55 94 -149 149q-97 57 -210 57zM512 736q95 0 178 -48q79 -47 126 -126q48 -83 48 -178t-48 -178q-47 -79 -126 -126
q-83 -48 -178 -48t-178 48q-79 47 -126 126q-48 83 -48 178t48 178q47 79 126 126q83 48 178 48zM322 539l-36 -54l56 -37l-56 -37l36 -54l136 91zM702 539l-136 -91l136 -91l36 54l-56 37l56 37zM288 288q3 -8 7 -17q9 -20 22 -39q18 -27 42 -48q29 -25 63 -39
q42 -17 90 -17t90 17q34 14 63 39q24 21 42 48q13 19 22 39l7 17h-448z" />
    <glyph glyph-name="grinning-squinting-face" unicode="&#xf59b;" 
d="M512 800q-113 0 -210 -57q-94 -55 -149 -149q-57 -97 -57 -210t57 -210q55 -94 149 -149q97 -57 210 -57t210 57q94 55 149 149q57 97 57 210t-57 210q-55 94 -149 149q-97 57 -210 57zM512 736q95 0 178 -48q79 -47 126 -126q48 -83 48 -178t-48 -178q-47 -79 -126 -126
q-83 -48 -178 -48t-178 48q-79 47 -126 126q-48 83 -48 178t48 178q47 79 126 126q83 48 178 48zM322 539l-36 -54l56 -37l-56 -37l36 -54l136 91zM702 539l-136 -91l136 -91l36 54l-56 37l56 37zM288 288q3 -8 7 -17q9 -20 22 -39q18 -27 42 -48q29 -25 63 -39
q42 -17 90 -17t90 17q34 14 63 39q24 21 42 48q13 19 22 39l7 17h-448z" />
    <glyph glyph-name="rolling-on-the-floor-laughing" unicode="&#xf586;" 
d="M512 800q-113 0 -210 -57q-94 -55 -149 -149q-57 -97 -57 -210q0 -91 38 -174q37 -79 104 -138q9 26 28 61q-50 49 -78 112q-28 67 -28 139q0 95 48 178q47 79 126 126q83 48 178 48q72 0 139 -28q63 -28 112 -78q36 19 61 29q-59 66 -138 103q-83 38 -174 38zM880 608
q-12 0 -41 -12q-21 -9 -48 -24l-23 -12l23 -12q27 -15 48 -24q29 -12 41 -12q20 0 34 14t14 34t-14 34t-34 14zM617 599l-128 -128l46 -46l128 128zM754 466l-324 -324q40 -14 82 -14q70 0 128.5 34.5t93 93t34.5 128.5q0 42 -14 82zM921 456q-20 -8 -41 -8q-10 0 -23 3
q7 -34 7 -67q0 -95 -48 -178q-47 -79 -126 -126q-83 -48 -178 -48q-33 0 -67 7q3 -13 3 -23q0 -21 -8 -41q38 -7 72 -7q113 0 210 57q94 55 149 149q57 97 57 210q0 34 -7 72zM425 407l-128 -128l46 -46l128 128zM336 128q-6 -12 -12 -23q-15 -27 -24 -48q-12 -29 -12 -41
q0 -20 14 -34t34 -14t34 14t14 34q0 12 -12 41q-9 21 -24 48z" />
    <glyph glyph-name="star-struck" unicode="&#xf587;" 
d="M512 800q-113 0 -210 -57q-94 -55 -149 -149q-57 -97 -57 -210t57 -210q55 -94 149 -149q97 -57 210 -57t210 57q94 55 149 149q57 97 57 210t-57 210q-55 94 -149 149q-97 57 -210 57zM512 736q95 0 178 -48q79 -47 126 -126q48 -83 48 -178t-48 -178q-47 -79 -126 -126
q-83 -48 -178 -48t-178 48q-79 47 -126 126q-48 83 -48 178t48 178q47 79 126 126q83 48 178 48zM384 567l-28 -62l-68 -8l51 -46l-14 -67l59 34l59 -34l-14 67l51 46l-68 8zM640 567l-28 -62l-68 -8l51 -46l-14 -67l59 34l59 -34l-14 67l51 46l-68 8zM346 288l-55 -32
q8 -14 18 -27t22 -25t25 -22q26 -21 56 -34q15 -6 32 -11q33 -9 68 -9q52 0 99 20t82 56q12 12 22 25t18 27l-55 32q-22 -38 -58.5 -63t-81.5 -31q-13 -2 -26 -2t-26 1.5t-25 5.5q-25 7 -46 19q-11 7 -21 14q-19 16 -34 35q-8 10 -14 21z" />
    <glyph glyph-name="face-with-tears-of-joy" unicode="&#xf588;" 
d="M512 800q-112 0 -209 -56q-93 -55 -149 -148q-57 -96 -58 -208q28 11 65 22q7 90 55.5 164.5t125.5 117.5q79 44 170 44t170 -44q77 -43 125.5 -117.5t55.5 -164.5q37 -11 65 -22q-1 112 -58 208q-56 93 -149 148q-97 56 -209 56zM288 448v-64h160v64h-160zM576 448v-64
h160v64h-160zM192 352q-13 -4 -25 -8q-30 -9 -51 -17q-29 -12 -38 -21q-14 -14 -14 -34t14 -34t34 -14t34 14q12 12 30 64q9 26 16 50v0zM832 352q4 -13 8 -25q9 -30 17 -51q12 -29 21 -38q14 -14 34 -14t34 14t14 34t-14 34q-12 12 -64 30q-26 9 -50 16v0zM288 288
q3 -8 7 -17q9 -20 22 -39q18 -27 42 -48q29 -25 63 -39q42 -17 90 -17t90 17q34 14 63 39q24 21 42 48q13 19 22 39l7 17h-448zM206 211q-8 -11 -14 -18q-15 -15 -36 -24q56 -92 149 -146q96 -55 207 -55t207 55q93 54 149 146q-21 9 -36 24q-6 7 -14 18q-46 -81 -126 -129
q-83 -50 -180 -50t-180 50q-80 48 -126 129z" />
    <glyph glyph-name="face-with-tongue" unicode="&#xf589;" 
d="M512 800q-113 0 -210 -57q-94 -55 -149 -149q-57 -97 -57 -210t57 -210q55 -94 149 -149q97 -57 210 -57t210 57q94 55 149 149q57 97 57 210t-57 210q-55 94 -149 149q-97 57 -210 57zM512 736q95 0 178 -48q79 -47 126 -126q48 -83 48 -178t-48 -178q-47 -79 -126 -126
q-83 -48 -178 -48t-178 48q-79 47 -126 126q-48 83 -48 178t48 178q47 79 126 126q83 48 178 48zM368 512q-20 0 -34 -14t-14 -34t14 -34t34 -14t34 14t14 34t-14 34t-34 14zM656 512q-20 0 -34 -14t-14 -34t14 -34t34 -14t34 14t14 34t-14 34t-34 14zM377 341l-50 -42
q21 -24 52 -41.5t69 -26.5v-39q0 -26 19 -45t45 -19t45 19t19 45v39q38 9 69 26.5t51 41.5l-49 42q-20 -25 -56.5 -39t-78.5 -14t-78.5 14t-56.5 39z" />
    <glyph glyph-name="squinting-face-with-tongue" unicode="&#xf58a;" 
d="M512 800q-113 0 -210 -57q-94 -55 -149 -149q-57 -97 -57 -210t57 -210q55 -94 149 -149q97 -57 210 -57t210 57q94 55 149 149q57 97 57 210t-57 210q-55 94 -149 149q-97 57 -210 57zM512 736q95 0 178 -48q79 -47 126 -126q48 -83 48 -178t-48 -178q-47 -79 -126 -126
q-83 -48 -178 -48t-178 48q-79 47 -126 126q-48 83 -48 178t48 178q47 79 126 126q83 48 178 48zM352 512q-30 0 -60 -10q-21 -7 -40 -19l-16 -10l40 -50l10 6q13 8 28 12q19 7 38 7t39 -7q14 -4 27 -12l11 -6l39 50h-1q-14 11 -34 21q-40 18 -81 18zM672 512q-30 0 -60 -10
q-21 -7 -40 -19l-15 -10l39 -50l10 6q13 8 28 12q19 7 38 7t39 -7q14 -4 27 -12l11 -6l39 50h-1q-14 11 -34 21q-40 18 -81 18zM377 341l-50 -42q21 -24 52 -41.5t69 -26.5v-39q0 -26 19 -45t45 -19t45 19t19 45v39q38 9 69 26.5t51 41.5l-49 42q-20 -25 -56.5 -39
t-78.5 -14t-78.5 14t-56.5 39z" />
    <glyph glyph-name="winking-face-with-tongue" unicode="&#xf58b;" 
d="M512 800q-113 0 -210 -57q-94 -55 -149 -149q-57 -97 -57 -210t57 -210q55 -94 149 -149q97 -57 210 -57t210 57q94 55 149 149q57 97 57 210t-57 210q-55 94 -149 149q-97 57 -210 57zM512 736q95 0 178 -48q79 -47 126 -126q48 -83 48 -178t-48 -178q-47 -79 -126 -126
q-83 -48 -178 -48t-178 48q-79 47 -126 126q-48 83 -48 178t48 178q47 79 126 126q83 48 178 48zM368 512q-20 0 -34 -14t-14 -34t14 -34t34 -14t34 14t14 34t-14 34t-34 14zM576 480v-64h160v64h-160zM377 341l-50 -42q21 -24 52 -41.5t69 -26.5v-39q0 -26 19 -45t45 -19
t45 19t19 45v39q38 9 69 26.5t51 41.5l-49 42q-20 -25 -56.5 -39t-78.5 -14t-78.5 14t-56.5 39z" />
    <glyph glyph-name="kissing-face" unicode="&#xf596;" 
d="M512 800q-113 0 -210 -57q-94 -55 -149 -149q-57 -97 -57 -210t57 -210q55 -94 149 -149q97 -57 210 -57t210 57q94 55 149 149q57 97 57 210t-57 210q-55 94 -149 149q-97 57 -210 57zM512 736q95 0 178 -48q79 -47 126 -126q48 -83 48 -178t-48 -178q-47 -79 -126 -126
q-83 -48 -178 -48t-178 48q-79 47 -126 126q-48 83 -48 178t48 178q47 79 126 126q83 48 178 48zM368 512q-20 0 -34 -14t-14 -34t14 -34t34 -14t34 14t14 34t-14 34t-34 14zM656 512q-20 0 -34 -14t-14 -34t14 -34t34 -14t34 14t14 34t-14 34t-34 14zM480 352v-48
q20 0 33.5 -7t13.5 -13t-13.5 -13t-33.5 -7v0v-48q20 0 33.5 -7t13.5 -13t-13.5 -13t-33.5 -7v-48q40 0 67.5 19.5t27.5 48.5q0 25 -23 44q23 19 23 44q0 28 -27.5 48t-67.5 20z" />
    <glyph glyph-name="kissing-face-with-smiling-eyes" unicode="&#xf597;" 
d="M512 800q-113 0 -210 -57q-94 -55 -149 -149q-57 -97 -57 -210t57 -210q55 -94 149 -149q97 -57 210 -57t210 57q94 55 149 149q57 97 57 210t-57 210q-55 94 -149 149q-97 57 -210 57zM512 736q95 0 178 -48q79 -47 126 -126q48 -83 48 -178t-48 -178q-47 -79 -126 -126
q-83 -48 -178 -48t-178 48q-79 47 -126 126q-48 83 -48 178t48 178q47 79 126 126q83 48 178 48zM352 512q-30 0 -60 -10q-21 -7 -40 -19l-16 -10l40 -50l10 6q13 8 28 12q19 7 38 7t39 -7q14 -4 27 -12l11 -6l39 50h-1q-14 11 -34 21q-40 18 -81 18zM672 512q-30 0 -60 -10
q-21 -7 -40 -19l-15 -10l39 -50l10 6q13 8 28 12q19 7 38 7t39 -7q14 -4 27 -12l11 -6l39 50h-1q-14 11 -34 21q-40 18 -81 18zM480 352v-48q20 0 33.5 -7t13.5 -13t-13.5 -13t-33.5 -7v0v-48q20 0 33.5 -7t13.5 -13t-13.5 -13t-33.5 -7v-48q40 0 67.5 19.5t27.5 48.5
q0 25 -22 44q22 19 22 44q0 28 -27.5 48t-67.5 20z" />
    <glyph glyph-name="face-blowing-a-kiss" unicode="&#xf598;" 
d="M512 800q-113 0 -210 -57q-94 -55 -149 -149q-57 -97 -57 -210t57 -210q55 -94 149 -149q97 -57 209 -57t209 56l-46 48q-77 -40 -162 -40q-95 0 -178 48q-79 47 -126 126q-48 83 -48 178t48 178q47 79 126 126q83 48 178 48t178 -48q79 -47 126 -126q48 -83 48 -178v-2
q35 -6 63 -26v6q1 15 1 22q0 113 -57 210q-55 94 -149 149q-97 57 -210 57zM368 512q-20 0 -34 -14t-14 -34t14 -34t34 -14t34 14t14 34t-14 34t-34 14zM640 512q-30 0 -60 -10q-21 -7 -40 -19l-15 -10l39 -50l10 6q13 8 28 12q19 7 38 7t39 -7q14 -4 27 -12l11 -6l39 50h-1
q-14 11 -34 21q-40 18 -81 18zM480 352v-48q20 0 33.5 -7t13.5 -13t-13.5 -13t-33.5 -7v0v-48q20 0 33.5 -7t13.5 -13t-13.5 -13t-33.5 -7v-48q40 0 67.5 19.5t27.5 48.5q0 25 -22 44q22 19 22 44q0 28 -27.5 48t-67.5 20zM728 320q-36 0 -62 -26.5t-26 -63.5q0 -32 28 -60
l116 -120l117 120q12 13 18 22q9 17 9 38q0 37 -26 63.5t-62 26.5q-29 0 -56 -16q-27 16 -56 16zM728 256q11 0 23 -7l33 -19l33 19q12 7 22.5 7t17.5 -7.5t7 -18.5q0 -4 -1.5 -6.5t-7.5 -9.5l-71 -72l-70 72q-10 10 -10 16q0 11 7 18.5t17 7.5z" />
    <glyph glyph-name="laughing-winking-face" unicode="&#xf59c;" 
d="M512 800q-113 0 -210 -57q-94 -55 -149 -149q-57 -97 -57 -210t57 -210q55 -94 149 -149q97 -57 210 -57t210 57q94 55 149 149q57 97 57 210t-57 210q-55 94 -149 149q-97 57 -210 57zM512 736q95 0 178 -48q79 -47 126 -126q48 -83 48 -178t-48 -178q-47 -79 -126 -126
q-83 -48 -178 -48t-178 48q-79 47 -126 126q-48 83 -48 178t48 178q47 79 126 126q83 48 178 48zM368 512q-20 0 -34 -14t-14 -34t14 -34t34 -14t34 14t14 34t-14 34t-34 14zM576 480v-64h160v64h-160zM288 288q3 -8 7 -17q9 -20 22 -39q18 -27 42 -48q29 -25 63 -39
q42 -17 90 -17t90 17q34 14 63 39q24 21 42 48q13 19 22 39l7 17h-448z" />
    <glyph glyph-name="face-without-mouth" unicode="&#xf5a4;" 
d="M512 800q-113 0 -210 -57q-94 -55 -149 -149q-57 -97 -57 -210t57 -210q55 -94 149 -149q97 -57 210 -57t210 57q94 55 149 149q57 97 57 210t-57 210q-55 94 -149 149q-97 57 -210 57zM512 736q95 0 178 -48q79 -47 126 -126q48 -83 48 -178t-48 -178q-47 -79 -126 -126
q-83 -48 -178 -48t-178 48q-79 47 -126 126q-48 83 -48 178t48 178q47 79 126 126q83 48 178 48zM368 512q-20 0 -34 -14t-14 -34t14 -34t34 -14t34 14t14 34t-14 34t-34 14zM656 512q-20 0 -34 -14t-14 -34t14 -34t34 -14t34 14t14 34t-14 34t-34 14z" />
    <glyph glyph-name="face-with-rolling-eyes" unicode="&#xf5a5;" 
d="M512 800q-113 0 -210 -57q-94 -55 -149 -149q-57 -97 -57 -210t57 -210q55 -94 149 -149q97 -57 210 -57t210 57q94 55 149 149q57 97 57 210t-57 210q-55 94 -149 149q-97 57 -210 57zM512 736q95 0 178 -48q79 -47 126 -126q48 -83 48 -178t-48 -178q-47 -79 -126 -126
q-83 -48 -178 -48t-178 48q-79 47 -126 126q-48 83 -48 178t48 178q47 79 126 126q83 48 178 48zM352 576q-35 0 -64.5 -17t-46.5 -46.5t-17 -64.5t17 -64.5t46.5 -46.5t64.5 -17t64.5 17t46.5 46.5t17 64.5t-17 64.5t-46.5 46.5t-64.5 17zM672 576q-35 0 -64.5 -17
t-46.5 -46.5t-17 -64.5t17 -64.5t46.5 -46.5t64.5 -17t64.5 17t46.5 46.5t17 64.5t-17 64.5t-46.5 46.5t-64.5 17zM321 503q-4 -21 10.5 -38t36.5 -17q13 0 24.5 7t17.5 19q6 -13 6 -26q0 -26 -19 -45t-45 -19t-45 19t-19 45q0 18 9 32.5t24 22.5zM703 503q15 -8 24 -22.5
t9 -32.5q0 -26 -19 -45t-45 -19t-45 19t-19 45q0 13 6 26q6 -12 17.5 -19t24.5 -7q22 0 36.5 17t10.5 38zM384 256v-64h256v64h-256z" />
    <glyph glyph-name="crying-face" unicode="&#xf5b3;" 
d="M512 800q-113 0 -210 -57q-94 -55 -149 -149q-57 -97 -57 -210t57 -210q55 -94 149 -149q97 -57 210 -57t210 57q94 55 149 149q57 97 57 210t-57 210q-55 94 -149 149q-97 57 -210 57zM512 736q95 0 178 -48q79 -47 126 -126q48 -83 48 -178q0 -80 -35 -152
q-33 -70 -93 -119v271q0 13 -9.5 22.5t-22.5 9.5t-22.5 -9.5t-9.5 -22.5v-313q-76 -39 -160 -39t-160 39v313q0 13 -9.5 22.5t-22.5 9.5t-22.5 -9.5t-9.5 -22.5v-271q-60 49 -93 119q-35 72 -35 152q0 95 48 178q47 79 126 126q83 48 178 48zM384 576q-46 0 -90 -41
q-20 -19 -33 -37v0l54 -36q-1 0 6 9.5t16 17.5q11 10 23.5 16.5t23.5 6.5h96v64h-96zM544 576v-64h96q11 0 23.5 -6.5t23.5 -16.5q14 -13 22 -27v0l54 36l-9 11q-11 14 -24 26q-44 41 -90 41h-96zM512 384q-26 0 -48 -15t-35 -41t-13 -56t13 -56t35 -41t48 -15t48 15t35 41
t13 56t-13 56t-35 41t-48 15zM512 320q13 0 22.5 -14.5t9.5 -33.5t-9.5 -33.5t-22.5 -14.5t-22.5 14.5t-9.5 33.5t9.5 33.5t22.5 14.5z" />
    <glyph glyph-name="loudly-crying-face" unicode="&#xf5b4;" 
d="M512 768q-104 0 -194 -53q-87 -50 -137 -137q-53 -90 -53 -194t53 -194q50 -87 137 -138q90 -52 194 -52t194 52q87 51 138 138q52 90 52 194t-52 194q-51 87 -138 137q-90 53 -194 53zM512 704q87 0 162 -44q72 -42 114 -114q44 -75 44 -162t-44 -162q-42 -72 -114 -114
q-75 -44 -162 -44t-162 44q-72 42 -114 114q-44 75 -44 162t44 162q42 72 114 114q75 44 162 44zM384 576q-46 0 -90 -41q-13 -12 -24 -26l-9 -11l54 -36l6 9q7 10 16 18q11 10 23.5 16.5t23.5 6.5h96v64h-96zM544 576v-64h96q11 0 23.5 -6.5t23.5 -16.5q9 -8 16 -18l6 -9
l54 36l-9 11q-11 14 -24 26q-44 41 -90 41h-96zM272 448q-6 -12 -12 -23q-15 -27 -24 -48q-12 -29 -12 -41q0 -20 14 -34t34 -14t34 14t14 34q0 12 -12 41q-9 21 -24 48zM512 384q-51 0 -94 -24q-35 -20 -60 -53q-12 -17 -22 -36q-7 -14 -12 -28l-3 -11l-10 -40h402l-10 40
l-3 11q-5 14 -12 28q-10 19 -22 36q-25 33 -60 53q-43 24 -94 24zM512 320q37 0 64 -16q20 -12 38 -35q3 -4 5 -8l2 -5h-218l2 5q2 4 5 8q18 23 38 35q27 16 64 16z" />
    <glyph glyph-name="beaming-face-with-smiling-eyes" unicode="&#xf5b8;" 
d="M512 800q-113 0 -210 -57q-94 -55 -149 -149q-57 -97 -57 -210t57 -210q55 -94 149 -149q97 -57 210 -57t210 57q94 55 149 149q57 97 57 210t-57 210q-55 94 -149 149q-97 57 -210 57zM512 736q95 0 178 -48q79 -47 126 -126q48 -83 48 -178t-48 -178q-47 -79 -126 -126
q-83 -48 -178 -48t-178 48q-79 47 -126 126q-48 83 -48 178t48 178q47 79 126 126q83 48 178 48zM352 512q-30 0 -60 -10q-21 -7 -40 -19l-16 -10l40 -50l10 6q13 8 28 12q19 7 38 7t39 -7q14 -4 27 -12l11 -6l39 50h-1q-14 11 -34 21q-40 18 -81 18zM672 512q-30 0 -60 -10
q-21 -7 -40 -19l-15 -10l39 -50l10 6q13 8 28 12q19 7 38 7t39 -7q14 -4 27 -12l11 -6l39 50h-1q-14 11 -34 21q-40 18 -81 18zM346 288l-55 -32q8 -14 18 -27t22 -25q23 -24 52 -41q14 -8 29 -14.5t31.5 -11t34 -7t34.5 -2.5t35 2q42 6 79.5 25t66.5 49q12 12 22 25t18 27
l-55 32q-22 -38 -58.5 -63t-81.5 -31q-13 -2 -26 -2t-26 1.5t-25 5.5q-25 7 -46.5 19.5t-38.5 30.5q-9 8 -16.5 18t-13.5 21z" />
    <glyph glyph-name="tired-face" unicode="&#xf5c8;" 
d="M512 800q-113 0 -210 -57q-94 -55 -149 -149q-57 -97 -57 -210t57 -210q55 -94 149 -149q97 -57 210 -57t210 57q94 55 149 149q57 97 57 210t-57 210q-55 94 -149 149q-97 57 -210 57zM512 736q95 0 178 -48q79 -47 126 -126q48 -83 48 -178t-48 -178q-47 -79 -126 -126
q-83 -48 -178 -48t-178 48q-79 47 -126 126q-48 83 -48 178t48 178q47 79 126 126q83 48 178 48zM322 539l-36 -54l56 -37l-56 -37l36 -54l136 91zM702 539l-136 -91l136 -91l36 54l-56 37l56 37zM512 288q-55 0 -103 -39q-35 -29 -55 -68q-5 -9 1.5 -16t15.5 -4l10 3
q37 13 60 18q40 10 71 10t71 -10q22 -5 60 -18l10 -3q9 -3 15.5 4t1.5 16q-20 39 -55 68q-48 39 -103 39z" />
  </font>
</defs>
</svg>
