<?xml version="1.0" standalone="no"?>
<!DOCTYPE svg PUBLIC "-//W3C//DTD SVG 1.1//EN" "http://www.w3.org/Graphics/SVG/1.1/DTD/svg11.dtd" >
<svg xmlns="http://www.w3.org/2000/svg" xmlns:xlink="http://www.w3.org/1999/xlink" version="1.1">
<metadata>
Created by FontForge 20170731 at Fri Jan  1 02:30:17 1904
 By Aleksey,,,
Created by Icons8
</metadata>
<defs>
<font id="la-solid-900" horiz-adv-x="1024" >
  <font-face 
    font-family="la-solid-900"
    font-weight="400"
    font-stretch="normal"
    units-per-em="1024"
    panose-1="2 0 5 3 0 0 0 0 0 0"
    ascent="896"
    descent="-128"
    bbox="0 -131 1030 896"
    underline-thickness="0"
    underline-position="10"
    unicode-range="U+F000-F8D9"
  />
<missing-glyph 
d="M34 0v682h272v-682h-272zM68 34h204v614h-204v-614z" />
    <glyph glyph-name=".notdef" 
d="M34 0v682h272v-682h-272zM68 34h204v614h-204v-614z" />
    <glyph glyph-name=".null" horiz-adv-x="0" 
 />
    <glyph glyph-name="nonmarkingreturn" 
 />
    <glyph glyph-name="martini-glass" unicode="&#xf000;" 
d="M160 736v-43l320 -416v-213h-160v-64h384v64h-160v213l320 416v43h-704zM257 672h510l-49 -64h-337l50 -64h238l-157 -203z" />
    <glyph glyph-name="music" unicode="&#xf001;" 
d="M864 775l-38 -8l-512 -96l-26 -4v-429q-31 18 -65 18t-63 -17.5t-46.5 -46.5t-17.5 -64t17.5 -64t46.5 -46.5t64 -17.5t64 17.5t46.5 46.5t17.5 64v358l448 84v-236q-31 18 -65 18t-63 -17.5t-46.5 -46.5t-17.5 -64t17.5 -64t46.5 -46.5t64 -17.5t64 17.5t46.5 46.5
t17.5 64v551zM800 698v-64l-448 -84v64zM736 288q27 0 45.5 -18.5t18.5 -45.5t-18.5 -45.5t-45.5 -18.5t-45.5 18.5t-18.5 45.5t18.5 45.5t45.5 18.5zM224 192q27 0 45.5 -18.5t18.5 -45.5t-18.5 -45.5t-45.5 -18.5t-45.5 18.5t-18.5 45.5t18.5 45.5t45.5 18.5z" />
    <glyph glyph-name="search" unicode="&#xf002;" 
d="M608 800q-87 0 -161 -44q-73 -42 -115 -115q-44 -74 -44 -161q0 -57 19 -108.5t53 -93.5l-255 -255l46 -46l255 255q42 -34 93.5 -53t108.5 -19q87 0 161 44q73 42 115 115q44 74 44 161t-44 161q-42 73 -115 115q-74 44 -161 44zM608 736q70 0 128.5 -34.5t93 -93
t34.5 -128.5t-34.5 -128.5t-93 -93t-128.5 -34.5t-128.5 34.5t-93 93t-34.5 128.5t34.5 128.5t93 93t128.5 34.5z" />
    <glyph glyph-name="heart" unicode="&#xf004;" 
d="M720 736q-61 0 -125 -33q-43 -23 -83 -58q-40 35 -83 58q-64 33 -125 33q-65 0 -120 -32.5t-87.5 -87.5t-32.5 -120q0 -52 38 -111q20 -30 41 -50l369 -370l369 369q21 21 41 51q38 59 38 111q0 65 -32.5 120t-87.5 87.5t-120 32.5z" />
    <glyph glyph-name="star" unicode="&#xf005;" 
d="M971 495l-326 34l-133 299l-133 -299l-326 -34l243 -220l-67 -320l283 164l284 -164l-68 320z" />
    <glyph glyph-name="user" unicode="&#xf007;" 
d="M512 736q-61 0 -112.5 -30t-81.5 -81.5t-30 -112.5q0 -57 26.5 -106t72.5 -80q-57 -25 -101.5 -69t-68.5 -101q-25 -59 -25 -124h64q0 70 34.5 128.5t93 93t128.5 34.5t128.5 -34.5t93 -93t34.5 -128.5h64q0 65 -25 124q-24 57 -68.5 101t-101.5 69q46 31 72.5 80
t26.5 106q0 61 -30 112.5t-81.5 81.5t-112.5 30zM512 672q44 0 80.5 -21.5t58 -58t21.5 -80.5t-21.5 -80.5t-58 -58t-80.5 -21.5t-80.5 21.5t-58 58t-21.5 80.5t21.5 80.5t58 58t80.5 21.5z" />
    <glyph glyph-name="film" unicode="&#xf008;" 
d="M128 768v-768h768v768h-768zM192 704h64v-32h64v32h384v-32h64v32h64v-640h-64v32h-64v-32h-384v32h-64v-32h-64v640zM256 608v-64h64v64h-64zM704 608v-64h64v64h-64zM256 480v-64h64v64h-64zM704 480v-64h64v64h-64zM256 352v-64h64v64h-64zM704 352v-64h64v64h-64z
M256 224v-64h64v64h-64zM704 224v-64h64v64h-64z" />
    <glyph glyph-name="th-large" unicode="&#xf009;" 
d="M160 736v-704h704v704h-704zM224 672h256v-256h-256v256zM544 672h256v-256h-256v256zM224 352h256v-256h-256v256zM544 352h256v-256h-256v256z" />
    <glyph glyph-name="th" unicode="&#xf00a;" 
d="M96 704v-640h832v640h-832zM160 640h128v-128h-128v128zM352 640h128v-128h-128v128zM544 640h128v-128h-128v128zM736 640h128v-128h-128v128zM160 448h128v-128h-128v128zM352 448h128v-128h-128v128zM544 448h128v-128h-128v128zM736 448h128v-128h-128v128zM160 256
h128v-128h-128v128zM352 256h128v-128h-128v128zM544 256h128v-128h-128v128zM736 256h128v-128h-128v128z" />
    <glyph glyph-name="th-list" unicode="&#xf00b;" 
d="M128 704v-640h768v640h-768zM192 640h160v-128h-160v128zM416 640h416v-128h-416v128zM192 448h160v-128h-160v128zM416 448h416v-128h-416v128zM192 256h160v-128h-160v128zM416 256h416v-128h-416v128z" />
    <glyph glyph-name="check" unicode="&#xf00c;" 
d="M905 695l-553 -553l-233 233l-46 -46l256 -256l23 -22l23 22l576 576z" />
    <glyph glyph-name="times" unicode="&#xf00d;" 
d="M231 711l-46 -46l281 -281l-281 -281l46 -46l281 281l281 -281l46 46l-281 281l281 281l-46 46l-281 -281z" />
    <glyph glyph-name="search-plus" unicode="&#xf00e;" 
d="M608 800q-87 0 -161 -44q-73 -42 -115 -115q-44 -74 -44 -161q0 -57 19 -108.5t53 -93.5l-255 -255l46 -46l255 255q42 -34 93.5 -53t108.5 -19q87 0 161 44q73 42 115 115q44 74 44 161t-44 161q-42 73 -115 115q-74 44 -161 44zM608 736q70 0 128.5 -34.5t93 -93
t34.5 -128.5t-34.5 -128.5t-93 -93t-128.5 -34.5t-128.5 34.5t-93 93t-34.5 128.5t34.5 128.5t93 93t128.5 34.5zM576 608v-96h-96v-64h96v-96h64v96h96v64h-96v96h-64z" />
    <glyph glyph-name="search-minus" unicode="&#xf010;" 
d="M608 800q-87 0 -161 -44q-73 -42 -115 -115q-44 -74 -44 -161q0 -57 19 -108.5t53 -93.5l-255 -255l46 -46l255 255q42 -34 93.5 -53t108.5 -19q87 0 161 44q73 42 115 115q44 74 44 161t-44 161q-42 73 -115 115q-74 44 -161 44zM608 736q70 0 128.5 -34.5t93 -93
t34.5 -128.5t-34.5 -128.5t-93 -93t-128.5 -34.5t-128.5 34.5t-93 93t-34.5 128.5t34.5 128.5t93 93t128.5 34.5zM480 512v-64h256v64h-256z" />
    <glyph glyph-name="power-off" unicode="&#xf011;" 
d="M480 768v-384h64v384h-64zM384 746q-74 -26 -132.5 -80t-90.5 -126q-33 -74 -33 -156q0 -104 53 -194q50 -87 137 -138q90 -52 194 -52t194 52q87 51 138 138q52 90 52 194q0 82 -33 156q-32 72 -90.5 126t-132.5 80v-69q86 -38 138 -116q54 -80 54 -177q0 -87 -44 -161
q-42 -73 -115 -115q-74 -44 -161 -44t-161 44q-73 42 -115 115q-44 74 -44 161q0 97 54 177q52 78 138 116v69z" />
    <glyph glyph-name="signal" unicode="&#xf012;" 
d="M672 768v-768h192v768h-192zM416 544v-544h192v544h-192zM160 320v-320h192v320h-192z" />
    <glyph glyph-name="cog" unicode="&#xf013;" 
d="M422 800l-5 -26l-19 -95q-43 -17 -83 -49l-93 32l-25 8l-90 -156l91 -80l-1 -9q-5 -27 -5 -41t5 -41l1 -9l-91 -80l90 -156l25 8l93 32q40 -32 83 -49l24 -121h180l24 121q43 17 83 49l93 -32l25 -8l90 156l-91 80l1 9q5 27 5 41t-5 41l-1 9l91 80l-90 156l-25 -8
l-93 -32q-40 32 -83 49l-24 121h-180zM474 736h76l20 -102l18 -6q55 -17 97 -56l14 -13l99 34l38 -65l-64 -57l-15 -12l5 -19q6 -27 6 -56t-6 -56l-4 -19l78 -69l-38 -65l-99 34l-14 -13q-42 -39 -97 -56l-18 -6l-20 -102h-76l-20 102l-18 6q-55 17 -97 56l-14 13l-99 -34
l-38 65l64 57l15 12l-5 19q-6 27 -6 56t6 56l5 19l-15 12l-64 57l38 65l99 -34l14 13q42 39 97 56l18 6l4 19zM512 544q-43 0 -80 -21.5t-58.5 -58.5t-21.5 -80t21.5 -80t58.5 -58.5t80 -21.5t80 21.5t58.5 58.5t21.5 80t-21.5 80t-58.5 58.5t-80 21.5zM512 480q40 0 68 -28
t28 -68t-28 -68t-68 -28t-68 28t-28 68t28 68t68 28z" />
    <glyph glyph-name="home" unicode="&#xf015;" 
d="M512 813l-23 -22l-416 -416l46 -46l41 41v-370h288v320h128v-320h288v370l41 -41l46 46l-416 416zM512 722l288 -288v-370h-160v320h-256v-320h-160v370z" />
    <glyph glyph-name="clock" unicode="&#xf017;" 
d="M512 768q-104 0 -194 -53q-87 -50 -137 -137q-53 -90 -53 -194t53 -194q50 -87 137 -138q90 -52 194 -52t194 52q87 51 138 138q52 90 52 194t-52 194q-51 87 -138 137q-90 53 -194 53zM512 704q87 0 162 -44q72 -42 114 -114q44 -75 44 -162t-44 -162q-42 -72 -114 -114
q-75 -44 -162 -44t-162 44q-72 42 -114 114q-44 75 -44 162t44 162q42 72 114 114q75 44 162 44zM480 640v-288h224v64h-160v224h-64z" />
    <glyph glyph-name="road" unicode="&#xf018;" 
d="M175 704l-6 -24l-149 -576l-11 -40h1006l-11 40l-155 600h-674zM225 640h259l-2 -96h60l-2 96h259l133 -512h-379l-3 128h-76l-3 -128h-379zM480 480l-4 -160h72l-4 160h-64z" />
    <glyph glyph-name="download" unicode="&#xf019;" 
d="M480 768v-530l-169 169l-46 -46l224 -224l23 -22l23 22l224 224l-46 46l-169 -169v530h-64zM224 64v-64h576v64h-576z" />
    <glyph glyph-name="inbox" unicode="&#xf01c;" 
d="M229 736l-5 -27l-64 -416v-261h704v261l-64 416l-5 27h-566zM284 672h456l54 -352h-218v-32q0 -27 -18.5 -45.5t-45.5 -18.5t-45.5 18.5t-18.5 45.5v32h-218zM224 256h166q11 -42 44.5 -69t77.5 -27t77.5 27t44.5 69h166v-160h-576v160z" />
    <glyph glyph-name="redo" unicode="&#xf01e;" 
d="M615 727l-46 -46l201 -201h-418q-60 0 -111.5 -30.5t-82 -82t-30.5 -111.5v-224h64v224q0 43 21.5 80t58.5 58.5t80 21.5h418l-201 -201l46 -46l256 256l22 23l-22 23z" />
    <glyph glyph-name="sync" unicode="&#xf021;" 
d="M512 768q-80 0 -153 -32q-69 -30 -122 -85t-81 -127l59 -24q23 60 67 106t102 72q61 26 128 26q76 0 144 -35q66 -34 110 -93h-126v-64h224v224h-64v-99q-54 61 -127 96q-77 35 -161 35zM809 268q-23 -60 -67 -106t-102 -72q-61 -26 -128 -26q-77 0 -145 35
q-65 34 -110 93h127v64h-224v-224h64v99q54 -61 127 -95q76 -36 161 -36q80 0 153 32q69 30 122 85t81 127z" />
    <glyph glyph-name="sync" unicode="&#xf2f1;" 
d="M512 768q-80 0 -153 -32q-69 -30 -122 -85t-81 -127l59 -24q23 60 67 106t102 72q61 26 128 26q76 0 144 -35q66 -34 110 -93h-126v-64h224v224h-64v-99q-54 61 -127 96q-77 35 -161 35zM809 268q-23 -60 -67 -106t-102 -72q-61 -26 -128 -26q-77 0 -145 35
q-65 34 -110 93h127v64h-224v-224h64v99q54 -61 127 -95q76 -36 161 -36q80 0 153 32q69 30 122 85t81 127z" />
    <glyph glyph-name="alternate-list" unicode="&#xf022;" 
d="M329 727l-105 -105l-41 41l-46 -46l64 -64l23 -22l23 22l128 128zM480 672v-64h416v64h-416zM329 471l-105 -105l-41 41l-46 -46l64 -64l23 -22l23 22l128 128zM480 416v-64h416v64h-416zM329 215l-105 -105l-41 41l-46 -46l64 -64l23 -22l23 22l128 128zM480 160v-64
h416v64h-416z" />
    <glyph glyph-name="lock" unicode="&#xf023;" 
d="M512 800q-60 0 -111.5 -30.5t-82 -82t-30.5 -111.5v-96h-96v-512h640v512h-96v96q0 60 -30.5 111.5t-82 82t-111.5 30.5zM512 736q43 0 80 -21.5t58.5 -58.5t21.5 -80v-96h-320v96q0 43 21.5 80t58.5 58.5t80 21.5zM256 416h512v-384h-512v384z" />
    <glyph glyph-name="flag" unicode="&#xf024;" 
d="M160 736v-768h64v320h256v-96h384v448h-320v96h-384zM224 672h256v-320h-256v320zM544 576h256v-320h-256v320z" />
    <glyph glyph-name="alternate-headphones" unicode="&#xf025;" 
d="M512 736q-95 0 -177 -48q-80 -47 -127 -127q-48 -82 -48 -177v-256q0 -39 28.5 -67.5t67.5 -28.5h96v288h-128v64q0 78 39 146q38 65 103 103q68 39 146 39t146 -39q65 -38 103 -103q39 -68 39 -146v-64h-128v-288h96q39 0 67.5 28.5t28.5 67.5v256q0 95 -48 177
q-47 80 -127 127q-82 48 -177 48zM224 256h64v-160h-32q-14 0 -23 9t-9 23v128zM736 256h64v-128q0 -14 -9 -23t-23 -9h-32v160z" />
    <glyph glyph-name="alternate-headphones" unicode="&#xf58f;" 
d="M512 736q-95 0 -177 -48q-80 -47 -127 -127q-48 -82 -48 -177v-256q0 -39 28.5 -67.5t67.5 -28.5h96v288h-128v64q0 78 39 146q38 65 103 103q68 39 146 39t146 -39q65 -38 103 -103q39 -68 39 -146v-64h-128v-288h96q39 0 67.5 28.5t28.5 67.5v256q0 95 -48 177
q-47 80 -127 127q-82 48 -177 48zM224 256h64v-160h-32q-14 0 -23 9t-9 23v128zM736 256h64v-128q0 -14 -9 -23t-23 -9h-32v160z" />
    <glyph glyph-name="volume-off" unicode="&#xf026;" 
d="M480 749l-55 -54l-151 -151h-146v-320h146l151 -151l55 -54v730zM416 594v-420l-105 105l-10 9h-109v192h109l10 9zM647 519l-46 -46l89 -89l-89 -89l46 -46l89 89l89 -89l46 46l-89 89l89 89l-46 46l-89 -89z" />
    <glyph glyph-name="volume-off" unicode="&#xf6a9;" 
d="M480 749l-55 -54l-151 -151h-146v-320h146l151 -151l55 -54v730zM416 594v-420l-105 105l-10 9h-109v192h109l10 9zM647 519l-46 -46l89 -89l-89 -89l46 -46l89 89l89 -89l46 46l-89 89l89 89l-46 46l-89 -89z" />
    <glyph glyph-name="volume-down" unicode="&#xf027;" 
d="M480 749l-55 -54l-151 -151h-146v-320h146l151 -151l55 -54v730zM416 594v-420l-105 105l-10 9h-109v192h109l10 9zM592 511l-46 -46q30 -36 30 -81t-30 -81l46 -46q23 26 35.5 58.5t12.5 68.5t-12.5 68.5t-35.5 58.5z" />
    <glyph glyph-name="volume-up" unicode="&#xf028;" 
d="M544 781l-55 -54l-183 -183h-146v-320h146l183 -183l55 -54v794zM762 634l-45 -45q55 -55 75 -130q19 -73 0 -146q-20 -75 -75 -130l45 -46q67 67 91 159q24 90 0 179q-24 92 -91 159zM480 626v-484l-137 137l-10 9h-109v192h109l10 9zM669 541l-45 -45q30 -30 40.5 -71
t-0.5 -82.5t-41 -73.5l47 -45q42 44 56.5 102t-0.5 115.5t-57 99.5z" />
    <glyph glyph-name="qrcode" unicode="&#xf029;" 
d="M160 736v-256h64v-64h64v64h128v256h-256zM416 480v-64h64v-64h-128v-64h-192v-256h256v256h192v64h-64v64h128v64h64v-64h64v64h64v256h-256v-256h-192zM800 416v-64h64v64h-64zM800 352h-64v-64h64v64zM800 288v-64h64v64h-64zM800 224h-64v64h-64v-64h-160v-192h64
v128h128v-64h64v64h32v64zM704 96h-64v-64h64v64zM736 352v64h-64v-64h64zM352 352v64h-64v-64h64zM224 416h-64v-64h64v64zM480 736v-128h-32v-64h32v-32h64v96h32v64h-32v64h-64zM224 672h128v-128h-128v128zM672 672h128v-128h-128v128zM256 640v-64h64v64h-64zM704 640
v-64h64v64h-64zM224 224h128v-128h-128v128zM256 192v-64h64v64h-64zM800 96v-64h64v64h-64z" />
    <glyph glyph-name="barcode" unicode="&#xf02a;" 
d="M64 672v-576h64v576h-64zM192 672v-576h192v576h-192zM448 672v-576h64v576h-64zM576 672v-576h128v576h-128zM768 672v-576h64v576h-64zM896 672v-576h64v576h-64z" />
    <glyph glyph-name="tag" unicode="&#xf02b;" 
d="M512 736l-10 -9l-387 -391l22 -23l304 -304l23 -22l391 387l9 10v352h-352zM539 672h261v-261l-336 -334l-259 259zM704 608q-13 0 -22.5 -9.5t-9.5 -22.5t9.5 -22.5t22.5 -9.5t22.5 9.5t9.5 22.5t-9.5 22.5t-22.5 9.5z" />
    <glyph glyph-name="tags" unicode="&#xf02c;" 
d="M467 768l-10 -9l-352 -352l-22 -23l22 -23l288 -288l23 -22l23 22l352 352l9 10v333h-333zM494 704h242v-242l-320 -320l-242 242zM832 672v-64h32v-261l-304 -302l-40 40l-45 -45l62 -63l23 -22l359 355l9 10v352h-96zM640 640q-13 0 -22.5 -9.5t-9.5 -22.5t9.5 -22.5
t22.5 -9.5t22.5 9.5t9.5 22.5t-9.5 22.5t-22.5 9.5z" />
    <glyph glyph-name="book" unicode="&#xf02d;" 
d="M288 768q-39 0 -67.5 -28.5t-28.5 -67.5v-576q0 -39 28.5 -67.5t67.5 -28.5h544v768h-544zM288 704h480v-512h-480q-15 0 -32 -6v486q0 14 9 23t23 9zM352 608v-64h352v64h-352zM288 128h480v-64h-480q-14 0 -23 9t-9 23t9 23t23 9z" />
    <glyph glyph-name="bookmark" unicode="&#xf02e;" 
d="M224 736v-736l288 216l288 -216v736h-576zM288 672h448v-544l-224 168l-224 -168v544z" />
    <glyph glyph-name="print" unicode="&#xf02f;" 
d="M288 768v-224h-64q-39 0 -67.5 -28.5t-28.5 -67.5v-320h160v-128h448v128h160v320q0 39 -28.5 67.5t-67.5 28.5h-64v224h-448zM352 704h320v-160h-320v160zM224 480h576q14 0 23 -9t9 -23v-256h-96v128h-448v-128h-96v256q0 14 9 23t23 9zM256 448q-13 0 -22.5 -9.5
t-9.5 -22.5t9.5 -22.5t22.5 -9.5t22.5 9.5t9.5 22.5t-9.5 22.5t-22.5 9.5zM352 256h320v-192h-320v192z" />
    <glyph glyph-name="camera" unicode="&#xf030;" 
d="M368 704l-10 -13l-38 -51h-224v-576h832v576h-224l-48 64h-288zM400 640h224l48 -64h192v-448h-704v448h192l10 13zM256 544q-13 0 -22.5 -9.5t-9.5 -22.5t9.5 -22.5t22.5 -9.5t22.5 9.5t9.5 22.5t-9.5 22.5t-22.5 9.5zM512 544q-52 0 -96 -26t-70 -70t-26 -96t26 -96
t70 -70t96 -26t96 26t70 70t26 96t-26 96t-70 70t-96 26zM512 480q35 0 64.5 -17t46.5 -46.5t17 -64.5t-17 -64.5t-46.5 -46.5t-64.5 -17t-64.5 17t-46.5 46.5t-17 64.5t17 64.5t46.5 46.5t64.5 17z" />
    <glyph glyph-name="font" unicode="&#xf031;" 
d="M480 704l-224 -640h64l67 192h250l67 -192h64l-224 640h-64zM512 613l102 -293h-204z" />
    <glyph glyph-name="bold" unicode="&#xf032;" 
d="M512 672q44 0 80.5 -21.5t58 -58t21.5 -80.5q0 -59 -42 -106q47 -17 76.5 -57.5t29.5 -92.5q0 -44 -21.5 -80.5t-58 -58t-80.5 -21.5h-352v576h288zM288 416h224q41 0 68.5 27.5t27.5 68.5t-27.5 68.5t-68.5 27.5h-224v-192zM288 160h288q41 0 68.5 27.5t27.5 68.5
t-27.5 68.5t-68.5 27.5h-288v-192zM512 736h-352v-704h416q61 0 112.5 30t81.5 81.5t30 112.5q0 50 -21.5 95.5t-58.5 77.5q16 42 16 83q0 61 -30 112.5t-81.5 81.5t-112.5 30zM352 544h160q14 0 23 -9t9 -23t-9 -23t-23 -9h-160v64zM352 288h224q14 0 23 -9t9 -23t-9 -23
t-23 -9h-224v64z" />
    <glyph glyph-name="italic" unicode="&#xf033;" 
d="M376 736l-2 -30l-8 -130h64l-28 -384h-64l-8 -126l-3 -34h321l10 160h-64l28 384h64l8 126l3 34h-321zM436 672h192l-2 -32h-64l-34 -478l-2 -34h64l-2 -32h-192l2 32h64l34 478l2 34h-64z" />
    <glyph glyph-name="text-height" unicode="&#xf034;" 
d="M128 704v-64h224v-576h64v576h224v64h-512zM800 684l-112 -140h80v-320h-80l112 -140l112 140h-80v320h80z" />
    <glyph glyph-name="text-width" unicode="&#xf035;" 
d="M256 704v-64h224v-448h64v448h224v64h-512zM320 208l-140 -112l140 -112v80h384v-80l140 112l-140 112v-80h-384v80z" />
    <glyph glyph-name="align-left" unicode="&#xf036;" 
d="M96 672v-64h832v64h-832zM96 544v-64h576v64h-576zM96 416v-64h832v64h-832zM96 288v-64h576v64h-576zM96 160v-64h832v64h-832z" />
    <glyph glyph-name="align-center" unicode="&#xf037;" 
d="M96 672v-64h832v64h-832zM224 544v-64h576v64h-576zM96 416v-64h832v64h-832zM224 288v-64h576v64h-576zM96 160v-64h832v64h-832z" />
    <glyph glyph-name="align-right" unicode="&#xf038;" 
d="M96 672v-64h832v64h-832zM352 544v-64h576v64h-576zM96 416v-64h832v64h-832zM352 288v-64h576v64h-576zM96 160v-64h832v64h-832z" />
    <glyph glyph-name="align-justify" unicode="&#xf039;" 
d="M96 672v-64h832v64h-832zM96 544v-64h832v64h-832zM96 416v-64h832v64h-832zM96 288v-64h832v64h-832zM96 160v-64h832v64h-832z" />
    <glyph glyph-name="list-ul" unicode="&#xf03a;" 
d="M128 736v-192h192v192h-192zM192 672h64v-64h-64v64zM384 672v-64h480v64h-480zM128 480v-192h192v192h-192zM192 416h64v-64h-64v64zM384 416v-64h480v64h-480zM128 224v-192h192v192h-192zM192 160h64v-64h-64v64zM384 160v-64h480v64h-480z" />
    <glyph glyph-name="list-ul" unicode="&#xf0ca;" 
d="M128 736v-192h192v192h-192zM192 672h64v-64h-64v64zM384 672v-64h480v64h-480zM128 480v-192h192v192h-192zM192 416h64v-64h-64v64zM384 416v-64h480v64h-480zM128 224v-192h192v192h-192zM192 160h64v-64h-64v64zM384 160v-64h480v64h-480z" />
    <glyph glyph-name="outdent" unicode="&#xf03b;" 
d="M96 672v-64h416v64h-416zM96 544v-64h640v64h-640zM800 544v-320l160 160zM96 416v-64h640v64h-640zM96 288v-64h640v64h-640zM96 160v-64h416v64h-416z" />
    <glyph glyph-name="indent" unicode="&#xf03c;" 
d="M96 672v-64h832v64h-832zM96 544v-64h608v64h-608zM928 544l-160 -160l160 -160v320zM96 416v-64h608v64h-608zM96 288v-64h608v64h-608zM96 160v-64h832v64h-832z" />
    <glyph glyph-name="video" unicode="&#xf03d;" 
d="M64 640v-512h704v108l192 -96v488l-192 -96v108h-704zM128 576h576v-384h-576v384zM896 524v-280l-128 64v152z" />
    <glyph glyph-name="image" unicode="&#xf03e;" 
d="M64 736v-704h896v704h-896zM128 672h768v-445l-192 193l-145 -145l-207 209l-224 -224v412zM768 608q-27 0 -45.5 -18.5t-18.5 -45.5t18.5 -45.5t45.5 -18.5t45.5 18.5t18.5 45.5t-18.5 45.5t-45.5 18.5zM352 393l294 -297h-518v73zM704 329l192 -192v-41h-159l-133 134z
" />
    <glyph glyph-name="alternate-map-marker" unicode="&#xf041;" 
d="M512 800q-78 0 -145 -39q-65 -39 -104 -104q-39 -67 -39 -145q0 -31 12 -72q10 -34 31 -81q34 -77 89 -172q40 -70 89 -144q25 -38 41 -61l26 -38l67 99q49 74 89 144q55 95 89 172q21 47 31 81q12 41 12 72q0 78 -39 145q-39 65 -104 104q-67 39 -145 39zM512 736
q61 0 112.5 -30t81.5 -81.5t30 -112.5q0 -19 -10 -53.5t-27 -73.5q-29 -66 -87 -166q-49 -84 -98 -158l-2 -2l-2 2q-49 74 -98 158q-58 100 -87 166q-17 39 -27 73.5t-10 53.5q0 61 30 112.5t81.5 81.5t112.5 30zM512 576q-27 0 -45.5 -18.5t-18.5 -45.5t18.5 -45.5
t45.5 -18.5t45.5 18.5t18.5 45.5t-18.5 45.5t-45.5 18.5z" />
    <glyph glyph-name="alternate-map-marker" unicode="&#xf3c5;" 
d="M512 800q-78 0 -145 -39q-65 -39 -104 -104q-39 -67 -39 -145q0 -31 12 -72q10 -34 31 -81q34 -77 89 -172q40 -70 89 -144q25 -38 41 -61l26 -38l67 99q49 74 89 144q55 95 89 172q21 47 31 81q12 41 12 72q0 78 -39 145q-39 65 -104 104q-67 39 -145 39zM512 736
q61 0 112.5 -30t81.5 -81.5t30 -112.5q0 -19 -10 -53.5t-27 -73.5q-29 -66 -87 -166q-49 -84 -98 -158l-2 -2l-2 2q-49 74 -98 158q-58 100 -87 166q-17 39 -27 73.5t-10 53.5q0 61 30 112.5t81.5 81.5t112.5 30zM512 576q-27 0 -45.5 -18.5t-18.5 -45.5t18.5 -45.5
t45.5 -18.5t45.5 18.5t18.5 45.5t-18.5 45.5t-45.5 18.5z" />
    <glyph glyph-name="adjust" unicode="&#xf042;" 
d="M512 768q-104 0 -194 -53q-87 -50 -137 -137q-53 -90 -53 -194t53 -194q50 -87 137 -138q90 -52 194 -52t194 52q87 51 138 138q52 90 52 194t-52 194q-51 87 -138 137q-90 53 -194 53zM512 704v-640q-87 0 -162 44q-72 42 -114 114q-44 75 -44 162t44 162q42 72 114 114
q75 44 162 44z" />
    <glyph glyph-name="tint" unicode="&#xf043;" 
d="M512 786l-25 -30l-40 -51q-48 -62 -89 -122q-61 -90 -91 -151q-43 -87 -43 -144q0 -78 40 -145q38 -65 103 -104q67 -39 145 -39t145 39q65 39 104 104q39 67 39 145q0 57 -43 144q-30 61 -91 151q-41 60 -89 122l-40 51zM512 683q2 -3 7 -9q51 -61 95 -127
q51 -75 85 -144q17 -35 27 -65.5t10 -49.5q0 -61 -30 -112.5t-81.5 -81.5t-112.5 -30t-112.5 30t-81.5 81.5t-30 112.5q0 19 10 49.5t27 65.5q34 69 85 144q44 66 95 127zM352 288q0 -43 21.5 -80t58.5 -58.5t80 -21.5v64q-40 0 -68 28t-28 68h-64z" />
    <glyph glyph-name="edit" unicode="&#xf044;" 
d="M800 767q-39 0 -67 -28l-324 -323l-24 -122l-10 -47l47 10l122 24l323 324q28 28 28 67t-28 67t-67 28zM800 705q11 0 22 -11t11 -22t-11 -22l-310 -310l-55 -11l11 55l310 310q11 11 22 11zM128 640v-640h640v422l-64 -64v-294h-512v512h294l64 64h-422z" />
    <glyph glyph-name="step-backward" unicode="&#xf048;" 
d="M256 736v-704h64v336l480 -333v698l-480 -333v336h-64zM736 611v-454l-328 227z" />
    <glyph glyph-name="fast-backward" unicode="&#xf049;" 
d="M544 736l-51 -38l-384 -288l-34 -26l34 -26l435 -326v236l269 -198l51 -37v702l-51 -37l-269 -198v236zM800 609v-450l-269 198l-36 27l36 27zM480 608v-448l-298 224z" />
    <glyph glyph-name="fast-backward" unicode="&#xf04a;" 
d="M544 736l-51 -38l-384 -288l-34 -26l34 -26l435 -326v236l269 -198l51 -37v702l-51 -37l-269 -198v236zM800 609v-450l-269 198l-36 27l36 27zM480 608v-448l-298 224z" />
    <glyph glyph-name="play" unicode="&#xf04b;" 
d="M288 731v-694l49 32l490 315l-490 315zM352 614l357 -230l-357 -230v460z" />
    <glyph glyph-name="pause" unicode="&#xf04c;" 
d="M320 704v-640h64v640h-64zM640 704v-640h64v640h-64z" />
    <glyph glyph-name="stop" unicode="&#xf04d;" 
d="M192 704v-640h640v640h-640zM256 640h512v-512h-512v512z" />
    <glyph glyph-name="forward" unicode="&#xf04e;" 
d="M480 736v-236l-269 198l-51 37v-702l51 37l269 198v-236l435 326l34 26l-34 26l-384 288zM224 609l269 -198l36 -27l-36 -27l-269 -198v450zM544 608l298 -224l-298 -224v448z" />
    <glyph glyph-name="forward" unicode="&#xf050;" 
d="M480 736v-236l-269 198l-51 37v-702l51 37l269 198v-236l435 326l34 26l-34 26l-384 288zM224 609l269 -198l36 -27l-36 -27l-269 -198v450zM544 608l298 -224l-298 -224v448z" />
    <glyph glyph-name="step-forward" unicode="&#xf051;" 
d="M704 736v-336l-480 333v-698l480 333v-336h64v704h-64zM288 611l328 -227l-328 -227v454z" />
    <glyph glyph-name="eject" unicode="&#xf052;" 
d="M512 685l-23 -22l-288 -288l-54 -55h730l-54 55l-288 288zM512 594l210 -210h-420zM128 192v-64h768v64h-768z" />
    <glyph glyph-name="chevron-left" unicode="&#xf053;" 
d="M632 813l-23 -22l-384 -384l-22 -23l22 -23l384 -384l23 -22l23 22l137 138l-22 23l-246 246l246 246l22 23l-137 138zM632 722l70 -70l-269 -268l269 -268l-70 -70l-338 338z" />
    <glyph glyph-name="chevron-right" unicode="&#xf054;" 
d="M392 813l-23 -22l-137 -138l22 -23l246 -246l-246 -246l-22 -23l137 -138l23 -22l23 22l384 384l22 23l-22 23l-384 384zM392 722l338 -338l-338 -338l-70 70l269 268l-269 268z" />
    <glyph glyph-name="plus-circle" unicode="&#xf055;" 
d="M512 800q-113 0 -210 -57q-94 -55 -149 -149q-57 -97 -57 -210t57 -210q55 -94 149 -149q97 -57 210 -57t210 57q94 55 149 149q57 97 57 210t-57 210q-55 94 -149 149q-97 57 -210 57zM512 736q96 0 178 -48q79 -47 126 -126q48 -82 48 -178t-48 -178q-47 -79 -126 -126
q-82 -48 -178 -48t-178 48q-79 47 -126 126q-48 82 -48 178t48 178q47 79 126 126q82 48 178 48zM480 576v-160h-160v-64h160v-160h64v160h160v64h-160v160h-64z" />
    <glyph glyph-name="minus-circle" unicode="&#xf056;" 
d="M512 800q-113 0 -210 -57q-94 -55 -149 -149q-57 -97 -57 -210t57 -210q55 -94 149 -149q97 -57 210 -57t210 57q94 55 149 149q57 97 57 210t-57 210q-55 94 -149 149q-97 57 -210 57zM512 736q96 0 178 -48q79 -47 126 -126q48 -82 48 -178t-48 -178q-47 -79 -126 -126
q-82 -48 -178 -48t-178 48q-79 47 -126 126q-48 82 -48 178t48 178q47 79 126 126q82 48 178 48zM320 416v-64h384v64h-384z" />
    <glyph glyph-name="times-circle" unicode="&#xf057;" 
d="M512 800q-113 0 -210 -57q-94 -55 -149 -149q-57 -97 -57 -210t57 -210q55 -94 149 -149q97 -57 210 -57t210 57q94 55 149 149q57 97 57 210t-57 210q-55 94 -149 149q-97 57 -210 57zM512 736q96 0 178 -48q79 -47 126 -126q48 -82 48 -178t-48 -178q-47 -79 -126 -126
q-82 -48 -178 -48t-178 48q-79 47 -126 126q-48 82 -48 178t48 178q47 79 126 126q82 48 178 48zM391 551l-46 -46l121 -121l-121 -121l46 -46l121 121l121 -121l46 46l-121 121l121 121l-46 46l-121 -121z" />
    <glyph glyph-name="check-circle" unicode="&#xf058;" 
d="M512 800q-113 0 -210 -57q-94 -55 -149 -149q-57 -97 -57 -210t57 -210q55 -94 149 -149q97 -57 210 -57t210 57q94 55 149 149q57 97 57 210q0 74 -22 131l-52 -51q10 -40 10 -80q0 -96 -48 -178q-46 -80 -126 -126q-82 -48 -178 -48t-178 48q-80 46 -126 126
q-48 82 -48 178t48 178q46 80 126 126q82 48 178 48q71 0 135 -27q61 -25 108 -72l45 45q-56 56 -130.5 87t-157.5 31zM873 663l-361 -361l-137 137l-46 -46l160 -160l23 -22l23 22l384 384z" />
    <glyph glyph-name="question-circle" unicode="&#xf059;" 
d="M512 768q-104 0 -194 -53q-87 -50 -137 -137q-53 -90 -53 -194t53 -194q50 -87 137 -138q90 -52 194 -52t194 52q87 51 138 138q52 90 52 194t-52 194q-51 87 -138 137q-90 53 -194 53zM512 704q87 0 162 -44q72 -42 114 -114q44 -75 44 -162t-44 -162q-42 -72 -114 -114
q-75 -44 -162 -44t-162 44q-72 42 -114 114q-44 75 -44 162t44 162q42 72 114 114q75 44 162 44zM512 576q-35 0 -64 -17.5t-46.5 -46.5t-17.5 -64h64q0 27 18.5 45.5t45.5 18.5t45.5 -18.5t18.5 -45.5q0 -18 -11 -33t-28 -21l-13 -4q-20 -6 -32 -23t-12 -38v-41h64v41l13 4
q37 12 60 44t23 71q0 35 -17.5 64t-46.5 46.5t-64 17.5zM480 256v-64h64v64h-64z" />
    <glyph glyph-name="info-circle" unicode="&#xf05a;" 
d="M512 800q-113 0 -210 -57q-94 -55 -149 -149q-57 -97 -57 -210t57 -210q55 -94 149 -149q97 -57 210 -57t210 57q94 55 149 149q57 97 57 210t-57 210q-55 94 -149 149q-97 57 -210 57zM512 736q96 0 178 -48q79 -47 126 -126q48 -82 48 -178t-48 -178q-47 -79 -126 -126
q-82 -48 -178 -48t-178 48q-79 47 -126 126q-48 82 -48 178t48 178q47 79 126 126q82 48 178 48zM480 576v-64h64v64h-64zM480 448v-256h64v256h-64z" />
    <glyph glyph-name="crosshairs" unicode="&#xf05b;" 
d="M480 800v-66q-83 -8 -153 -51.5t-113.5 -113.5t-51.5 -153h-66v-64h66q8 -83 51.5 -153t113.5 -113.5t153 -51.5v-66h64v66q83 8 153 51.5t113.5 113.5t51.5 153h66v64h-66q-8 83 -51.5 153t-113.5 113.5t-153 51.5v66h-64zM480 671v-63h64v63q66 -7 121.5 -42.5t91 -91
t42.5 -121.5h-63v-64h63q-7 -66 -42.5 -121.5t-91 -91t-121.5 -42.5v63h-64v-63q-66 7 -121.5 42.5t-91 91t-42.5 121.5h63v64h-63q7 66 42.5 121.5t91 91t121.5 42.5z" />
    <glyph glyph-name="ban" unicode="&#xf05e;" 
d="M512 800q-113 0 -210 -57q-94 -55 -149 -149q-57 -97 -57 -210t57 -210q55 -94 149 -149q97 -57 210 -57t210 57q94 55 149 149q57 97 57 210t-57 210q-55 94 -149 149q-97 57 -210 57zM512 736q96 0 178 -48q79 -47 126 -126q48 -82 48 -178q0 -64 -22 -124
q-22 -57 -62 -104l-491 501q46 38 103 58.5t120 20.5zM244 612l491 -501q-46 -38 -103 -58.5t-120 -20.5q-96 0 -178 48q-79 47 -126 126q-48 82 -48 178q0 64 22 124q22 57 62 104z" />
    <glyph glyph-name="arrow-left" unicode="&#xf060;" 
d="M425 679l-272 -272l-22 -23l22 -23l272 -272l46 46l-217 217h642v64h-642l217 217z" />
    <glyph glyph-name="arrow-right" unicode="&#xf061;" 
d="M599 679l-46 -46l217 -217h-642v-64h642l-217 -217l46 -46l272 272l22 23l-22 23z" />
    <glyph glyph-name="arrow-up" unicode="&#xf062;" 
d="M512 765l-23 -22l-272 -272l46 -46l217 217v-642h64v642l217 -217l46 46l-272 272z" />
    <glyph glyph-name="arrow-down" unicode="&#xf063;" 
d="M480 768v-642l-217 217l-46 -46l272 -272l23 -22l23 22l272 272l-46 46l-217 -217v642h-64z" />
    <glyph glyph-name="share" unicode="&#xf064;" 
d="M631 727l-46 -46l201 -201h-434q-61 0 -112.5 -30t-81.5 -81.5t-30 -112.5t30 -112.5t81.5 -81.5t112.5 -30v64q-44 0 -80.5 21.5t-58 58t-21.5 80.5t21.5 80.5t58 58t80.5 21.5h434l-201 -201l46 -46l256 256l22 23l-22 23z" />
    <glyph glyph-name="expand" unicode="&#xf065;" 
d="M128 768v-288h64v224h224v64h-288zM608 768v-64h224v-224h64v288h-288zM128 288v-288h288v64h-224v224h-64zM832 288v-224h-224v-64h288v288h-64z" />
    <glyph glyph-name="compress" unicode="&#xf066;" 
d="M352 768v-224h-224v-64h288v288h-64zM608 768v-288h288v64h-224v224h-64zM128 288v-64h224v-224h64v288h-288zM608 288v-288h64v224h224v64h-288z" />
    <glyph glyph-name="plus" unicode="&#xf067;" 
d="M480 736v-320h-320v-64h320v-320h64v320h320v64h-320v320h-64z" />
    <glyph glyph-name="minus" unicode="&#xf068;" 
d="M160 416v-64h704v64h-704z" />
    <glyph glyph-name="asterisk" unicode="&#xf069;" 
d="M566 352l199 -269l-77 -51l-176 278l-176 -278l-74 51l199 269l-298 77l29 83l291 -102l-19 326h96l-16 -326l288 102l26 -86z" />
    <glyph glyph-name="exclamation-circle" unicode="&#xf06a;" 
d="M512 768q-104 0 -194 -53q-87 -50 -137 -137q-53 -90 -53 -194t53 -194q50 -87 137 -138q90 -52 194 -52t194 52q87 51 138 138q52 90 52 194t-52 194q-51 87 -138 137q-90 53 -194 53zM512 704q87 0 162 -44q72 -42 114 -114q44 -75 44 -162t-44 -162q-42 -72 -114 -114
q-75 -44 -162 -44t-162 44q-72 42 -114 114q-44 75 -44 162t44 162q42 72 114 114q75 44 162 44zM480 576v-256h64v256h-64zM480 256v-64h64v64h-64z" />
    <glyph glyph-name="gift" unicode="&#xf06b;" 
d="M384 736q-39 0 -67.5 -28.5t-28.5 -67.5q0 -15 6 -32h-166v-192h32v-416h704v416h32v192h-166q6 17 6 32q0 39 -28.5 67.5t-67 28.5t-71.5 -26q-24 -18 -48 -52l-9 -14l-9 14q-24 34 -48 52q-33 26 -71 26zM384 672q15 0 33 -14t33 -36q3 -4 5 -8l3 -6h-74q-14 0 -23 9
t-9 23t9 23t23 9zM640 672q14 0 23 -9t9 -23t-9 -23t-23 -9h-74l3 6q2 4 5 8q15 22 33 36t33 14zM192 544h640v-64h-288v32h-64v-32h-288v64zM224 416h576v-352h-256v320h-64v-320h-256v352z" />
    <glyph glyph-name="leaf" unicode="&#xf06c;" 
d="M801 768l-33 -15q-37 -16 -92 -31q-33 -10 -103 -26q-60 -14 -91 -22q-50 -14 -88 -27q-108 -38 -164 -99q-70 -76 -70 -196q0 -59 31 -109q25 -40 67 -70q27 -19 56 -32q-29 -54 -44 -98q-21 -63 -19 -120q1 -18 3 -34.5t2 -13.5l64 -6q1 14 -2 34q-3 14 -3 23
q-2 43 16 96q60 177 332 468l-46 44q-179 -192 -270 -337q-29 12 -52 28q-71 50 -71 127q0 51 14 89q13 36 39 64q45 49 138 82q49 17 159 44q62 15 93 24q51 14 90 28q15 -57 25 -127q18 -119 18 -253q0 -154 -60 -223q-42 -48 -106 -48q-46 0 -104 40q-16 11 -42 33
q-24 20 -35 27l-34 -54l13 -10q37 -31 62 -49q74 -51 140 -51q41 0 79 15q44 18 76 55q75 87 75 265q0 86 -8 173q-7 69 -18 136q-9 47 -19 89l-8 32z" />
    <glyph glyph-name="fire" unicode="&#xf06d;" 
d="M460 800l-6 -25q-5 -22 -30 -59q-16 -24 -58 -80q-31 -40 -47 -62q-58 -79 -87 -147q-40 -92 -40 -184q0 -51 16 -97q17 -51 52 -89q38 -42 94 -65q60 -24 136 -24l13 1l9 -1q8 0 23 2l13 1q152 13 222 91q35 39 50 95q12 43 12 99q0 174 -162 374q-35 44 -77 86
q-30 30 -59 57l-24 20l-9 7h-41zM496 720q62 -54 124 -131q65 -80 102 -157q46 -95 46 -176q0 -99 -46 -151q-12 -14 -28 -25q22 64 2 163q-17 84 -62 181q-37 80 -62 109l-9 11h-62l12 -41q16 -51 18 -97q3 -39 -4 -69q-6 -27 -17 -39q-7 -8 -11.5 -9.5t-12.5 1t-18 12.5
q-13 12 -24 33l-24 45l-30 -41q-45 -61 -61.5 -124.5t-1.5 -118.5q2 -6 6 -17l1 -2q-17 13 -26 23q-26 29 -39 67q-13 36 -13 76q0 79 35 159q26 61 80 134l33 45q36 47 52 70q26 38 40 69zM594 345q2 -4 5 -13q13 -33 19 -50q10 -29 15 -52q9 -44 8 -81.5t-13 -61.5
q-10 -20 -25 -32q-17 -14 -45 -19l-14 -2q-17 -1 -32 -2h-8q-94 3 -115 80q-8 28 1 66.5t31 80.5q23 -23 47 -31t49 0t42 28q27 32 35 89z" />
    <glyph glyph-name="eye" unicode="&#xf06e;" 
d="M512 640q-75 0 -152 -24q-65 -21 -129 -59q-52 -30 -102 -69q-35 -28 -66 -59l-23 -24l-19 -21l19 -21l21 -22q28 -28 61 -54q45 -37 93 -67q60 -36 120 -58q71 -27 141 -32q16 -2 36 -2t36 2q70 5 141 32q60 22 120 58q48 30 93 67q33 26 61 54l21 22l19 21l-19 21
l-23 24q-31 31 -66 59q-50 39 -102 69q-64 38 -129 59q-77 24 -152 24zM512 576q93 0 192 -45q32 -53 32 -115q0 -57 -26 -106t-72 -80t-101 -37l-25 -1q-8 0 -25 1v0q-55 6 -101 37t-72 80t-26 106q0 62 31 114h-1q100 46 194 46zM512 512q-40 0 -68 -28t-28 -68t28 -68
t68 -28t68 28t28 68t-28 68t-68 28zM232 482q-8 -34 -8 -66q0 -83 44 -153q-84 49 -155 121q52 53 119 98zM792 482q67 -45 119 -98q-71 -72 -155 -121q44 70 44 153q0 32 -8 66z" />
    <glyph glyph-name="eye-slash" unicode="&#xf070;" 
d="M119 823l-46 -46l198 -197l415 -415l219 -220l46 46l-203 203q83 42 164 106q46 36 71 61l21 21l-20 23q-25 30 -66 65q-79 69 -166 111q-120 59 -240 59q-86 0 -177 -33zM512 576q93 0 190 -43q34 -55 34 -117q0 -43 -15.5 -81.5t-43.5 -69.5l-91 91q22 27 22 60
q0 40 -28 68t-68 28q-33 0 -60 -22l-66 66q67 20 126 20zM212 548q-65 -40 -123 -93q-31 -29 -49 -50l-20 -23l21 -21q26 -26 69 -60q80 -63 161 -105q112 -58 211 -66l10 -1q13 -1 20 -1t20 1l10 1q36 3 76 13l-55 55q-11 -3 -25 -4l-4 -1q-22 -2 -44 0l-3 1
q-56 6 -101.5 37.5t-71.5 80t-26 104.5q0 25 6 50zM233 485q-9 -36 -9 -69q0 -75 38 -142q-82 49 -153 112q54 54 124 99zM791 485q64 -41 123 -100q-70 -62 -152 -111q38 67 38 142q0 32 -9 69zM512 448q13 0 22.5 -9.5t9.5 -22.5q0 -6 -4 -14l-42 42q8 4 14 4z" />
    <glyph glyph-name="exclamation-triangle" unicode="&#xf071;" 
d="M512 793l-28 -48l-384 -665l-27 -48h878l-27 48l-384 665zM512 665l328 -569h-656zM480 448v-192h64v192h-64zM480 224v-64h64v64h-64z" />
    <glyph glyph-name="plane" unicode="&#xf072;" 
d="M512 800q-39 0 -67.5 -28.5t-28.5 -67.5v-235l-269 -120l-19 -8v-153l288 32v-59l-96 -64v-136l192 39l192 -39v136l-96 64v59l288 -32v153l-19 8l-269 120v235q0 39 -28.5 67.5t-67.5 28.5zM512 736q14 0 23 -9t9 -23v-277l19 -8l269 -120v-39l-288 32v-166l96 -64v-23
l-122 24l-6 2l-6 -2l-122 -24v23l96 64v166l-288 -32v39l269 120l19 8v277q0 14 9 23t23 9z" />
    <glyph glyph-name="calendar" unicode="&#xf073;" 
d="M288 768v-32h-128v-704h704v704h-128v32h-64v-32h-320v32h-64zM224 672h64v-32h64v32h320v-32h64v32h64v-64h-576v64zM224 544h576v-448h-576v448zM416 480v-64h64v64h-64zM544 480v-64h64v64h-64zM672 480v-64h64v64h-64zM288 352v-64h64v64h-64zM416 352v-64h64v64h-64
zM544 352v-64h64v64h-64zM672 352v-64h64v64h-64zM288 224v-64h64v64h-64zM416 224v-64h64v64h-64zM544 224v-64h64v64h-64z" />
    <glyph glyph-name="calendar" unicode="&#xf133;" 
d="M288 768v-32h-128v-704h704v704h-128v32h-64v-32h-320v32h-64zM224 672h64v-32h64v32h320v-32h64v32h64v-64h-576v64zM224 544h576v-448h-576v448zM416 480v-64h64v64h-64zM544 480v-64h64v64h-64zM672 480v-64h64v64h-64zM288 352v-64h64v64h-64zM416 352v-64h64v64h-64
zM544 352v-64h64v64h-64zM672 352v-64h64v64h-64zM288 224v-64h64v64h-64zM416 224v-64h64v64h-64zM544 224v-64h64v64h-64z" />
    <glyph glyph-name="random" unicode="&#xf074;" 
d="M736 800v-128h-147l-125 -223l-125 223h-211v-64h173l126 -224l-126 -224h-173v-64h211l288 512h109v-128l160 160zM537 320l-37 -66l89 -158h147v-128l160 160l-160 160v-128h-109z" />
    <glyph glyph-name="comment" unicode="&#xf075;" 
d="M96 704v-640h307l109 -109l109 109h307v640h-832zM160 640h704v-512h-269l-83 -83l-83 83h-269v512zM288 544v-64h448v64h-448zM288 416v-64h448v64h-448zM288 288v-64h320v64h-320z" />
    <glyph glyph-name="magnet" unicode="&#xf076;" 
d="M512 736q-95 0 -177 -48q-80 -47 -127 -127q-48 -82 -48 -177v-352h256v352q0 40 28 68t68 28t68 -28t28 -68v-352h256v352q0 95 -48 177q-47 80 -127 127q-82 48 -177 48zM512 672q78 0 146 -39q65 -38 103 -103q39 -68 39 -146v-160h-128v160q0 43 -21.5 80t-58.5 58.5
t-80 21.5t-80 -21.5t-58.5 -58.5t-21.5 -80v-160h-128v160q0 78 39 146q38 65 103 103q68 39 146 39zM224 160h128v-64h-128v64zM672 160h128v-64h-128v64z" />
    <glyph glyph-name="chevron-up" unicode="&#xf077;" 
d="M512 714l-461 -461l22 -23l125 -125l23 -22l291 291l291 -291l23 22l125 125l22 23zM512 623l370 -371l-78 -78l-269 268l-23 22l-23 -22l-269 -268l-78 78z" />
    <glyph glyph-name="chevron-down" unicode="&#xf078;" 
d="M221 685l-23 -22l-125 -125l-22 -23l461 -461l461 461l-22 23l-125 125l-23 22l-291 -291zM220 594l269 -268l23 -22l23 22l269 268l78 -78l-370 -371l-370 371z" />
    <glyph glyph-name="retweet" unicode="&#xf079;" 
d="M160 672l-160 -160h128v-416h544l-64 64h-416v352h128zM288 672l64 -64h416v-352h-128l160 -160l160 160h-128v416h-544z" />
    <glyph glyph-name="shopping-cart" unicode="&#xf07a;" 
d="M160 672q-13 0 -22.5 -9.5t-9.5 -22.5t9.5 -22.5t22.5 -9.5h71l84 -336q5 -21 22.5 -34.5t39.5 -13.5h367q22 0 38.5 13t22.5 34l83 305h-536l16 -64h437l-61 -224h-367l-84 336q-5 21 -22.5 34.5t-39.5 13.5h-71zM704 224q-39 0 -67.5 -28.5t-28.5 -67.5t28.5 -67.5
t67.5 -28.5t67.5 28.5t28.5 67.5t-28.5 67.5t-67.5 28.5zM416 224q-39 0 -67.5 -28.5t-28.5 -67.5t28.5 -67.5t67.5 -28.5t67.5 28.5t28.5 67.5t-28.5 67.5t-67.5 28.5zM416 160q14 0 23 -9t9 -22.5t-9 -23t-22.5 -9.5t-23 9.5t-9.5 23t9.5 22.5t22.5 9zM704 160q14 0 23 -9
t9 -22.5t-9 -23t-22.5 -9.5t-23 9.5t-9.5 23t9.5 22.5t22.5 9z" />
    <glyph glyph-name="folder" unicode="&#xf07b;" 
d="M192 800v-832h640v434l55 55l9 10v333h-704zM256 736h448v-269l9 -10l55 -55v-370h-512v704zM768 736h64v-242l-32 -32l-32 32v242z" />
    <glyph glyph-name="folder-open" unicode="&#xf07c;" 
d="M160 800v-794l448 -93v87h192v402l55 55l9 10v333h-704zM452 736h348v-242l-55 -55l-9 -10v-365h-128v285l-9 10l-55 55v299zM224 727l256 -64v-276l9 -10l55 -55v-331l-320 67v669z" />
    <glyph glyph-name="bar-chart" unicode="&#xf080;" 
d="M672 768v-768h256v768h-256zM736 704h128v-640h-128v640zM96 576v-576h256v576h-256zM160 512h128v-448h-128v448zM384 384v-384h256v384h-256zM448 320h128v-256h-128v256z" />
    <glyph glyph-name="retro-camera" unicode="&#xf083;" 
d="M368 704l-10 -13l-38 -51h-32v32h-128v-32h-64v-576h832v576h-224l-48 64h-288zM400 640h224l48 -64h192v-128h-186q-26 44 -70 70t-96 26t-96 -26t-70 -70h-186v128h192l10 13zM736 544v-64h64v64h-64zM512 480q35 0 64.5 -17t46.5 -46.5t17 -64.5t-17 -64.5
t-46.5 -46.5t-64.5 -17t-64.5 17t-46.5 46.5t-17 64.5t17 64.5t46.5 46.5t64.5 17zM160 384h163q-3 -18 -3 -32q0 -52 26 -96t70 -70t96 -26t96 26t70 70t26 96q0 14 -3 32h163v-256h-704v256z" />
    <glyph glyph-name="key" unicode="&#xf084;" 
d="M640 800q-78 0 -145 -40q-65 -38 -103 -103q-40 -67 -40 -145q0 -14 4 -40l1 -6l-252 -251l-9 -10v-237h224v96h96v96h96v95q63 -31 128 -31q78 0 145 39q65 39 104 104q39 67 39 145t-39 145q-39 65 -104 103q-67 40 -145 40zM640 736q61 0 112.5 -30t81.5 -81.5
t30 -112.5t-30 -112.5t-81.5 -81.5t-112.5 -30q-28 0 -56.5 7.5t-52.5 20.5l-8 4h-75v-96h-96v-96h-96v-96h-96v146l253 254l12 11l-3 17q-6 36 -6 52q0 61 30 112.5t81.5 81.5t112.5 30zM704 640q-27 0 -45.5 -18.5t-18.5 -45.5t18.5 -45.5t45.5 -18.5t45.5 18.5t18.5 45.5
t-18.5 45.5t-45.5 18.5z" />
    <glyph glyph-name="cogs" unicode="&#xf085;" 
d="M480 768v-36q-35 -7 -59 -23l-25 25l-46 -45l26 -26q-17 -26 -23 -55h-33v-64h33q6 -29 23 -55l-26 -26l46 -45l25 25q24 -16 59 -23v-36h64v36q31 7 54 22l24 -24l45 45l-24 24q18 26 24 57h37v64h-37q-6 31 -24 57l24 24l-45 45l-24 -24q-23 15 -54 22v36h-64zM510 672
q40 0 68 -28t28 -68t-28 -68t-68 -28t-68 28t-28 68t28 68t68 28zM256 384v-35q-33 -6 -59 -24l-25 25l-46 -45l26 -26q-17 -26 -23 -55h-33v-64h33q6 -29 23 -55l-26 -26l46 -45l25 25q26 -18 59 -24v-35h64v36q31 7 54 22l24 -24l45 45l-24 24q18 26 24 56l38 1l-2 64
l-36 -1q-6 32 -24 58l24 24l-45 45l-24 -24q-23 15 -54 22v36h-64zM704 384v-36q-35 -7 -59 -23l-25 25l-46 -45l26 -26q-17 -26 -23 -55h-33v-64h33q6 -29 23 -55l-26 -26l46 -45l25 25q24 -16 59 -23v-36h64v36q27 6 53 23l25 -25l45 45l-24 24q17 25 24 56l38 1l-2 64
l-36 -1q-6 28 -25 57l25 25l-45 45l-25 -25q-24 15 -53 22v37h-64zM286 288q40 0 68 -28t28 -68t-28 -68t-68 -28t-68 28t-28 68t28 68t68 28zM734 288q40 0 68 -28t28 -68t-28 -68t-68 -28t-68 28t-28 68t28 68t68 28z" />
    <glyph glyph-name="comments" unicode="&#xf086;" 
d="M64 736v-512h128v-163l203 163h309v512h-640zM128 672h512v-384h-267l-117 -93v93h-128v384zM768 608v-64h128v-384h-128v-93l-117 93h-240l-80 -64h298l203 -163v163h128v512h-192z" />
    <glyph glyph-name="star-half" unicode="&#xf089;" 
d="M512 828l-133 -299l-326 -34l243 -220l-67 -320l283 164v709z" />
    <glyph glyph-name="thumbtack" unicode="&#xf08d;" 
d="M657 814l-22 -30l-157 -214q-65 11 -126 -7q-64 -19 -112 -67l-23 -22l170 -170l-259 -259v-45h45l259 259l170 -170l22 23q48 48 67 112q18 61 7 126l244 179zM665 716l179 -179l-217 -159l6 -21q11 -43 1 -88q-11 -43 -39 -83l-281 281q40 28 83 39q45 10 88 -1l21 -6
l13 18z" />
    <glyph glyph-name="trophy" unicode="&#xf091;" 
d="M224 768q-23 0 -45.5 -8.5t-41 -25t-30 -41t-11.5 -53.5q0 -45 32 -86q15 -20 51 -52l8 -7q36 -32 49 -52q20 -28 20 -59q0 -4 -3 -11.5t-7.5 -14t-8.5 -11.5l-4 -4l46 -45l6 7q8 9 14 18q17 26 20 50l11 -31q36 -92 76 -146q16 -22 33 -37q-33 -2 -60 -19.5t-43 -46
t-16 -61.5v-32h384v32q0 33 -16 61.5t-44 46t-61 19.5q18 16 34 37q39 52 76 146l12 33q2 -26 20 -52q10 -15 20 -25l46 45l-4 4q-4 5 -8.5 11.5t-7.5 14t-3 11.5q0 31 20 59q13 20 49 52l8 7q36 32 51 52q32 41 32 86q0 29 -11.5 53.5t-30 41t-41 25t-45.5 8.5
q-48 0 -84 -32h-408q-36 32 -84 32zM224 704q17 0 32 -9q1 -95 30 -212q-17 23 -57 59q-38 34 -51 51q-18 23 -18 47q0 29 21 47q9 8 20.5 12.5t22.5 4.5zM800 704q11 0 22.5 -4.5t20.5 -12.5q21 -18 21 -47q0 -24 -18 -47q-13 -17 -51 -51q-40 -36 -58 -61q30 119 31 214
q15 9 32 9zM324 672h376q-4 -72 -21.5 -154t-45.5 -153q-32 -82 -68 -130q-16 -21 -32 -33q-14 -10 -22 -10t-21 10q-16 12 -32 33q-37 49 -68 130q-27 71 -45 154q-17 81 -21 153zM480 576v-160h64v160h-64zM448 96h128q30 0 50 -32h-228q20 32 50 32z" />
    <glyph glyph-name="upload" unicode="&#xf093;" 
d="M512 781l-23 -22l-224 -224l46 -46l169 169v-530h64v530l169 -169l46 46l-224 224zM224 64v-64h576v64h-576z" />
    <glyph glyph-name="lemon" unicode="&#xf094;" 
d="M416 768q-60 0 -115 -32q-53 -30 -92 -83.5t-60 -122.5t-21 -146t21 -146t60 -122.5t92 -83.5q55 -32 115 -32q126 0 223 45q88 40 145 113q52 68 70 151q19 14 30 32q12 20 12 43t-12 43q-11 18 -30 32q-18 83 -78 152q-61 72 -150 113q-97 44 -210 44zM416 704
q44 0 83.5 -23.5t71.5 -67t50 -101.5q19 -61 19 -128t-19 -128q-18 -58 -50 -101.5t-71.5 -67t-83.5 -23.5t-83.5 23.5t-71.5 67t-50 101.5q-19 61 -19 128t19 128q18 58 50 101.5t71.5 67t83.5 23.5zM620 655q71 -38 118 -98q45 -57 57 -121l3 -16l15 -7q9 -4 14 -11.5
t5 -17.5t-5 -17.5t-14 -11.5l-15 -7l-3 -16q-14 -75 -57 -133q-48 -65 -128 -99l13 16q39 53 60 122t21 146t-21 146t-60 122zM416 640q-33 0 -64 -22l65 -153l66 152q-31 23 -67 23zM304 567q-40 -63 -47 -151h111zM530 564l-65 -148h110q-7 86 -45 148zM257 352
q7 -86 45 -148l65 148h-110zM464 352l64 -151q40 63 47 151h-111zM415 303l-66 -152q31 -23 67 -23q33 0 64 22z" />
    <glyph glyph-name="phone" unicode="&#xf095;" 
d="M277 800q-26 0 -47 -17l-2 -1l-101 -104l1 -1q-23 -21 -30 -50.5t3 -57.5v-1q27 -78 75 -160q67 -113 157 -203q148 -148 363 -232h1q29 -10 58.5 -4t52.5 26l101 101q20 20 20 49.5t-20 49.5l-130 130l-1 2q-20 20 -50 20t-50 -20l-64 -64q-74 36 -131 90
q-55 52 -89 130l64 64q20 20 20 49t-21 49l1 1l-131 135l-3 2q-21 17 -47 17zM277 736q3 0 7 -3l131 -134v0q1 -4 -2 -7l-80 -80l-15 -14l7 -20l12 -28q17 -35 38 -67q30 -44 64 -77l7 -6q33 -30 75 -57q30 -20 62 -36l45 -21l96 96q3 3 4 3t4 -3l134 -134q2 -2 2 -2.5
t-2 -2.5l-100 -100q-21 -18 -49 -9q-203 80 -339 216q-84 84 -147 191q-45 78 -70 149q-4 10 -1 22.5t11 19.5l99 101q4 3 7 3z" />
    <glyph glyph-name="phone-square" unicode="&#xf098;" 
d="M160 736v-704h704v704h-704zM224 672h576v-576h-576v576zM380 608q-26 0 -43 -18l-31 -30q-13 -13 -16.5 -30t1.5 -34l2 -4q17 -54 58 -114q29 -44 67 -80l7 -8q37 -38 81 -67q60 -40 113 -58l5 -2q10 -3 20 -3q25 0 44 18l30 31q18 17 18 42.5t-18 43.5l-37 37
q-17 17 -43 17t-43 -17l-55 -55q-37 26 -69 58l-8 8q-32 32 -58 69l55 55q18 17 18 42.5t-18 43.5l-37 37q-18 18 -43 18z" />
    <glyph glyph-name="unlock" unicode="&#xf09c;" 
d="M512 800q-71 0 -130 -42q-56 -41 -82 -106l59 -24q19 48 60.5 78t92.5 30q43 0 80 -21.5t58.5 -58.5t21.5 -80v-96h-480v-512h640v512h-96v96q0 60 -30.5 111.5t-82 82t-111.5 30.5zM256 416h512v-384h-512v384z" />
    <glyph glyph-name="unlock" unicode="&#xf3c1;" 
d="M512 800q-71 0 -130 -42q-56 -41 -82 -106l59 -24q19 48 60.5 78t92.5 30q43 0 80 -21.5t58.5 -58.5t21.5 -80v-96h-480v-512h640v512h-96v96q0 60 -30.5 111.5t-82 82t-111.5 30.5zM256 416h512v-384h-512v384z" />
    <glyph glyph-name="credit-card" unicode="&#xf09d;" 
d="M160 704q-39 0 -67.5 -28.5t-28.5 -67.5v-448q0 -39 28.5 -67.5t67.5 -28.5h704q39 0 67.5 28.5t28.5 67.5v448q0 39 -28.5 67.5t-67.5 28.5h-704zM160 640h704q14 0 23 -9t9 -23v-64h-736v-64h736v-320q0 -14 -9 -23t-23 -9h-704q-14 0 -23 9t-9 23v448q0 14 9 23t23 9z
" />
    <glyph glyph-name="rss" unicode="&#xf09e;" 
d="M160 736v-128q117 0 224 -45q103 -44 183 -124t124 -183q45 -107 45 -224h128q0 143 -55 274q-54 126 -151.5 223.5t-223.5 151.5q-131 55 -274 55zM160 512v-128q96 0 178 -48q79 -47 126 -126q48 -82 48 -178h128q0 130 -66 242q-63 109 -172 172q-112 66 -242 66z
M256 224q-40 0 -68 -28t-28 -68t28 -68t68 -28t68 28t28 68t-28 68t-68 28z" />
    <glyph glyph-name="hdd" unicode="&#xf0a0;" 
d="M199 704l-103 -412v-228h832v228l-103 412h-626zM249 640h526l80 -320h-686zM160 256h704v-128h-704v128zM768 224q-13 0 -22.5 -9.5t-9.5 -22.5t9.5 -22.5t22.5 -9.5t22.5 9.5t9.5 22.5t-9.5 22.5t-22.5 9.5z" />
    <glyph glyph-name="bullhorn" unicode="&#xf0a1;" 
d="M896 799l-51 -37l-20 -14q-25 -17 -54 -35q-40 -24 -81 -45q-78 -40 -153 -64q-90 -28 -162 -28h-311v-292l1 -5l64 -224l7 -23h194l-11 41l-52 183h108q71 0 161 -29q74 -24 153 -64q57 -29 112 -64q28 -17 44 -29l51 -37v293q28 10 46 34.5t18 55.5t-18 55.5t-46 34.5
v293zM832 680v-527l-11 7q-22 16 -38 25q-27 17 -65 36q-188 96 -334 99v192q145 3 335 100q38 19 64 35q16 10 38 25zM128 512h192v-192h-192v192zM139 256h61l45 -160h-61z" />
    <glyph glyph-name="award" unicode="&#xf0a3;" 
d="M512 800q-30 0 -57 -19l-53 -37l-62 -8l-1 -1q-31 -7 -53 -29t-29 -53l-1 -1l-8 -63l-38 -49v-1q-17 -27 -17 -59t18 -57l38 -53l10 -55l-103 -157l-33 -49h153l37 -86l23 -55l134 202q21 -9 43 -9t41 9l134 -202l23 55l37 86h153l-33 49l-100 152l8 60l38 54v1
q17 27 17 58.5t-18 56.5l-37 53l-12 60h1l-1 2q-4 32 -27 54.5t-54 26.5l-61 8l-53 37q-27 19 -57 19zM512 735q11 0 20 -6l64 -46l79 -11q11 -1 18 -8t8 -18v-2l14 -78l5 -6l41 -57q6 -8 6 -20.5t-7 -23.5l-45 -63l-11 -79q-1 -8 -5 -14l-2 -1v-1q-7 -9 -19 -10h-2l-73 -13
l-8 -1l-6 -5l-57 -41q-8 -6 -21 -6t-24 7l-58 45l-80 11q-15 2 -22 14q-3 6 -4 12v2l-13 73l-1 8l-5 6l-41 57q-6 8 -6 21t7 24l45 58l10 76l1 1q3 12 11.5 20.5t20.5 11.5l1 1l75 10l64 46q9 6 20 6zM733 248l49 -75h-77l-8 -20l-22 -51l-68 104l15 11l63 11v-1l2 1
q25 3 46 20zM291 247q22 -20 50 -23l62 -8l14 -11l-68 -103l-22 51l-8 20h-77z" />
    <glyph glyph-name="award" unicode="&#xf559;" 
d="M512 800q-30 0 -57 -19l-53 -37l-62 -8l-1 -1q-31 -7 -53 -29t-29 -53l-1 -1l-8 -63l-38 -49v-1q-17 -27 -17 -59t18 -57l38 -53l10 -55l-103 -157l-33 -49h153l37 -86l23 -55l134 202q21 -9 43 -9t41 9l134 -202l23 55l37 86h153l-33 49l-100 152l8 60l38 54v1
q17 27 17 58.5t-18 56.5l-37 53l-12 60h1l-1 2q-4 32 -27 54.5t-54 26.5l-61 8l-53 37q-27 19 -57 19zM512 735q11 0 20 -6l64 -46l79 -11q11 -1 18 -8t8 -18v-2l14 -78l5 -6l41 -57q6 -8 6 -20.5t-7 -23.5l-45 -63l-11 -79q-1 -8 -5 -14l-2 -1v-1q-7 -9 -19 -10h-2l-73 -13
l-8 -1l-6 -5l-57 -41q-8 -6 -21 -6t-24 7l-58 45l-80 11q-15 2 -22 14q-3 6 -4 12v2l-13 73l-1 8l-5 6l-41 57q-6 8 -6 21t7 24l45 58l10 76l1 1q3 12 11.5 20.5t20.5 11.5l1 1l75 10l64 46q9 6 20 6zM733 248l49 -75h-77l-8 -20l-22 -51l-68 104l15 11l63 11v-1l2 1
q25 3 46 20zM291 247q22 -20 50 -23l62 -8l14 -11l-68 -103l-22 51l-8 20h-77z" />
    <glyph glyph-name="hand-pointing-right" unicode="&#xf0a4;" 
d="M470 800l-10 -9l-217 -215h-179v-512h539q34 0 60.5 21.5t33.5 54.5l53 244h114q39 0 67.5 28.5t28.5 67.5t-28.5 67.5t-67.5 28.5h-344l6 24l3 2q9 7 17 18q30 41 30 95q0 35 -27.5 60t-65.5 25h-13zM493 733q19 -4 19 -18q0 -35 -17 -58q-5 -7 -10 -11l-4 -3l-11 -6
l-4 -13l-19 -72l-10 -40h427q14 0 23 -9t9 -23t-9 -23t-23 -9h-166l-6 -25l-57 -270q-2 -11 -11 -18t-21 -7h-315v403zM128 512h96v-384h-96v384z" />
    <glyph glyph-name="hand-pointing-left" unicode="&#xf0a5;" 
d="M541 800q-38 0 -65.5 -25t-27.5 -60q0 -54 30 -95q8 -11 17 -18l3 -2l6 -24h-344q-39 0 -67.5 -28.5t-28.5 -67.5t28.5 -67.5t67.5 -28.5h114l53 -244q7 -33 33.5 -54.5t60.5 -21.5h539v512h-179l-217 215l-10 9h-13zM531 733l205 -202v-403h-315q-12 0 -21 7t-11 18
l-57 270l-6 25h-166q-14 0 -23 9t-9 23t9 23t23 9h427l-10 40l-19 72l-4 13l-11 6l-4 3q-5 4 -10 11q-17 23 -17 58q0 14 19 18zM800 512h96v-384h-96v384z" />
    <glyph glyph-name="hand-pointing-up" unicode="&#xf0a6;" 
d="M416 832q-39 0 -67.5 -28.5t-28.5 -67.5v-344l-24 6l-2 3q-7 9 -18 17q-41 30 -95 30q-35 0 -60 -27.5t-25 -65.5v-13l9 -10l215 -217v-179h512v539q0 34 -21.5 60.5t-54.5 33.5l-244 53v114q0 39 -28.5 67.5t-67.5 28.5zM416 768q14 0 23 -9t9 -23v-166l25 -6l270 -57
q11 -2 18 -11t7 -21v-315h-403l-202 205q4 19 18 19q35 0 58 -17q7 -5 11 -10l3 -4l6 -11l13 -4l72 -19l40 -10v427q0 14 9 23t23 9zM384 96h384v-96h-384v96z" />
    <glyph glyph-name="hand-pointing-down" unicode="&#xf0a7;" 
d="M320 832v-179l-215 -217l-9 -10v-13q0 -38 25 -65.5t60 -27.5q54 0 95 30q11 8 18 17l2 3l24 6v-344q0 -39 28.5 -67.5t67.5 -28.5t67.5 28.5t28.5 67.5v114l244 53q33 7 54.5 33.5t21.5 60.5v539h-512zM384 768h384v-96h-384v96zM365 608h403v-315q0 -12 -7 -21t-18 -11
l-270 -57l-25 -6v-166q0 -14 -9 -23t-23 -9t-23 9t-9 23v427l-40 -10l-72 -19l-13 -4l-6 -11l-3 -4q-4 -5 -11 -10q-23 -17 -58 -17q-14 0 -18 19z" />
    <glyph glyph-name="arrow-circle-left" unicode="&#xf0a8;" 
d="M512 800q-113 0 -210 -57q-94 -55 -149 -149q-57 -97 -57 -210t57 -210q55 -94 149 -149q97 -57 210 -57t210 57q94 55 149 149q57 97 57 210t-57 210q-55 94 -149 149q-97 57 -210 57zM512 736q96 0 178 -48q79 -47 126 -126q48 -82 48 -178t-48 -178q-47 -79 -126 -126
q-82 -48 -178 -48t-178 48q-79 47 -126 126q-48 82 -48 178t48 178q47 79 126 126q82 48 178 48zM489 589l-205 -205l205 -205l46 45l-128 128h329v64h-329l128 128z" />
    <glyph glyph-name="arrow-circle-right" unicode="&#xf0a9;" 
d="M512 800q-113 0 -210 -57q-94 -55 -149 -149q-57 -97 -57 -210t57 -210q55 -94 149 -149q97 -57 210 -57t210 57q94 55 149 149q57 97 57 210t-57 210q-55 94 -149 149q-97 57 -210 57zM512 736q96 0 178 -48q79 -47 126 -126q48 -82 48 -178t-48 -178q-47 -79 -126 -126
q-82 -48 -178 -48t-178 48q-79 47 -126 126q-48 82 -48 178t48 178q47 79 126 126q82 48 178 48zM535 589l-46 -45l128 -128h-329v-64h329l-128 -128l46 -45l205 205z" />
    <glyph glyph-name="arrow-circle-up" unicode="&#xf0aa;" 
d="M512 800q-113 0 -210 -57q-94 -55 -149 -149q-57 -97 -57 -210t57 -210q55 -94 149 -149q97 -57 210 -57t210 57q94 55 149 149q57 97 57 210t-57 210q-55 94 -149 149q-97 57 -210 57zM512 736q96 0 178 -48q79 -47 126 -126q48 -82 48 -178t-48 -178q-47 -79 -126 -126
q-82 -48 -178 -48t-178 48q-79 47 -126 126q-48 82 -48 178t48 178q47 79 126 126q82 48 178 48zM512 612l-205 -205l45 -46l128 128v-329h64v329l128 -128l45 46z" />
    <glyph glyph-name="arrow-circle-down" unicode="&#xf0ab;" 
d="M512 800q-113 0 -210 -57q-94 -55 -149 -149q-57 -97 -57 -210t57 -210q55 -94 149 -149q97 -57 210 -57t210 57q94 55 149 149q57 97 57 210t-57 210q-55 94 -149 149q-97 57 -210 57zM512 736q96 0 178 -48q79 -47 126 -126q48 -82 48 -178t-48 -178q-47 -79 -126 -126
q-82 -48 -178 -48t-178 48q-79 47 -126 126q-48 82 -48 178t48 178q47 79 126 126q82 48 178 48zM480 608v-329l-128 128l-45 -46l205 -205l205 205l-45 46l-128 -128v329h-64z" />
    <glyph glyph-name="globe" unicode="&#xf0ac;" 
d="M512 768q-104 0 -194 -53q-87 -50 -137 -137q-53 -90 -53 -194t53 -194q50 -87 137 -138q90 -52 194 -52t194 52q87 51 138 138q52 90 52 194t-52 194q-51 87 -138 137q-90 53 -194 53zM512 704q92 0 171 -50l-26 -3l6 -64l-34 15l-28 -24l5 -66l69 22l86 -28l-22 -40
l-52 32l-56 -8l-55 -41l-31 -96l62 -51l67 11q2 0 15 -29l12 -29l-51 -160q-65 -31 -138 -31q-8 0 -25 2h-5l-35 61l34 128l-129 97h-119l-31 63l86 68l128 61l-19 85l55 12l26 -36l96 18l-17 74l-71 5l9 1q11 1 17 1zM476 702l-50 -21l-24 4q35 13 74 17zM194 359l31 -36
v-66l60 -66h37l91 -112q-60 19 -108 60.5t-77 98t-34 121.5z" />
    <glyph glyph-name="wrench" unicode="&#xf0ad;" 
d="M672 768q-61 0 -112.5 -30t-81.5 -81.5t-30 -112.5q0 -14 4 -31q2 -10 8 -29l1 -4l-303 -303q-20 -20 -26.5 -47t0 -53.5t26.5 -46.5t46.5 -26.5t53.5 0t46 26.5l304 303l2 -1q20 -6 30 -8q17 -4 32 -4q61 0 112.5 30t81.5 81.5t30 112.5q0 48 -20 92l-19 42l-134 -134
h-51v51l134 134l-42 19q-44 20 -92 20zM672 704q3 0 8 -1.5t7 -1.5l-79 -80v-141h141l80 80l1 -7q2 -6 2 -9q0 -44 -21.5 -80.5t-58 -58t-80.5 -21.5q-33 0 -63 13l-20 8l-330 -329q-11 -12 -27.5 -12t-28 11.5t-11.5 28t12 27.5l329 330l-8 20q-13 30 -13 63
q0 44 21.5 80.5t58 58t80.5 21.5z" />
    <glyph glyph-name="tasks" unicode="&#xf0ae;" 
d="M329 727l-105 -106l-41 42l-46 -46l87 -86l151 150zM448 672v-64h448v64h-448zM448 416v-64h448v64h-448zM448 160v-64h448v64h-448z" />
    <glyph glyph-name="filter" unicode="&#xf0b0;" 
d="M160 768v-75l256 -320v-373l192 144v229l256 320v75h-704zM233 704h558l-230 -288h-98zM480 352h64v-176l-64 -48v224z" />
    <glyph glyph-name="briefcase" unicode="&#xf0b1;" 
d="M512 800q-44 0 -78 -27t-45 -69h-293v-640h832v640h-293q-11 42 -45 69t-78 27zM512 736q19 0 33.5 -8.5t22.5 -23.5h-112q8 15 22.5 23.5t33.5 8.5zM160 640h704v-288h-704v288zM512 448q-13 0 -22.5 -9.5t-9.5 -22.5t9.5 -22.5t22.5 -9.5t22.5 9.5t9.5 22.5t-9.5 22.5
t-22.5 9.5zM160 288h704v-160h-704v160z" />
    <glyph glyph-name="alternate-arrows" unicode="&#xf0b2;" 
d="M512 845l-183 -182l46 -46l105 106v-307h-307l106 105l-46 46l-182 -183l182 -183l46 46l-106 105h307v-307l-105 106l-46 -46l183 -182l183 182l-46 46l-105 -106v307h307l-106 -105l46 -46l182 183l-182 183l-46 -46l106 -105h-307v307l105 -106l46 46z" />
    <glyph glyph-name="users" unicode="&#xf0c0;" 
d="M368 704q-30 0 -56 -15t-41 -41t-15 -56t15 -56t41 -41t56 -15t56 15t41 41t15 56t-15 56t-41 41t-56 15zM656 704q-30 0 -56 -15t-41 -41t-15 -56t15 -56t41 -41t56 -15t56 15t41 41t15 56t-15 56t-41 41t-56 15zM368 640q20 0 34 -14t14 -34t-14 -34t-34 -14t-34 14
t-14 34t14 34t34 14zM656 640q20 0 34 -14t14 -34t-14 -34t-34 -14t-34 14t-14 34t14 34t34 14zM224 512q-35 0 -64 -17.5t-46.5 -46.5t-17.5 -64q0 -26 10.5 -49.5t28.5 -41.5q-33 -22 -52 -57t-19 -76h64q0 40 28 68t68 28t68 -28t28 -68h64q0 41 -19 76t-52 57
q18 18 28.5 41.5t10.5 49.5q0 35 -17.5 64t-46.5 46.5t-64 17.5zM384 160q-32 -43 -32 -96h64q0 40 28 68t68 28t68 -28t28 -68h64q0 53 -32 96q-16 22 -39 37q18 18 28.5 41.5t10.5 49.5q0 35 -17.5 64t-46.5 46.5t-64 17.5t-64 -17.5t-46.5 -46.5t-17.5 -64
q0 -26 10.5 -49.5t28.5 -41.5q-23 -15 -39 -37zM640 160h64q0 40 28 68t68 28t68 -28t28 -68h64q0 41 -19 76t-52 57q18 18 28.5 41.5t10.5 49.5q0 35 -17.5 64t-46.5 46.5t-64 17.5t-64 -17.5t-46.5 -46.5t-17.5 -64q0 -26 10.5 -49.5t28.5 -41.5q-33 -22 -52 -57t-19 -76z
M224 448q27 0 45.5 -18.5t18.5 -45.5t-18.5 -45.5t-45.5 -18.5t-45.5 18.5t-18.5 45.5t18.5 45.5t45.5 18.5zM800 448q27 0 45.5 -18.5t18.5 -45.5t-18.5 -45.5t-45.5 -18.5t-45.5 18.5t-18.5 45.5t18.5 45.5t45.5 18.5zM512 352q27 0 45.5 -18.5t18.5 -45.5t-18.5 -45.5
t-45.5 -18.5t-45.5 18.5t-18.5 45.5t18.5 45.5t45.5 18.5z" />
    <glyph glyph-name="link" unicode="&#xf0c1;" 
d="M696 768q-40 0 -77 -15.5t-65 -43.5l-47 -47q-28 -28 -43.5 -65t-15.5 -76t14 -74l52 52q-5 32 5 63.5t33 54.5l47 47q19 19 44.5 29.5t52.5 10.5t52 -10.5t44 -29.5q26 -26 35 -61t0 -70.5t-35 -61.5l-47 -47q-19 -19 -44.5 -29.5t-52.5 -10.5q-10 0 -21 2l-52 -52
q35 -14 73 -14q40 0 77 15.5t65 43.5l47 47q28 28 43.5 65t15.5 77t-15 76t-43.5 65t-65 44t-76.5 15zM617 535l-256 -256l46 -46l256 256zM376 448q-40 0 -77 -15.5t-65 -43.5l-47 -47q-28 -28 -43.5 -65t-15.5 -77t15 -76t43.5 -65t65 -44t76.5 -15t77 15.5t65 43.5l47 47
q28 28 43.5 65t15.5 76t-14 74l-52 -52q5 -32 -5 -63.5t-33 -54.5l-47 -47q-19 -19 -44.5 -29.5t-52.5 -10.5t-52 10.5t-44 29.5q-26 26 -35 61t0 70.5t35 61.5l47 47q19 19 44.5 29.5t52.5 10.5q10 0 21 -2l52 52q-35 14 -73 14z" />
    <glyph glyph-name="cloud" unicode="&#xf0c2;" 
d="M512 672q-61 0 -118 -27q-52 -25 -93 -71l-5 1q-5 1 -8 1q-35 0 -64 -17.5t-46.5 -46.5t-17.5 -64q-43 -26 -69 -67q-27 -43 -27 -94t26 -95t70 -70t96 -26h512q52 0 96 26t70 70t26 96q0 50 -24 92t-65 67.5t-90 29.5q-20 56 -59.5 100.5t-92.5 68.5q-55 26 -117 26z
M512 608q51 0 96.5 -22t77 -60.5t43.5 -86.5l6 -25l27 1q18 1 6 1q35 0 64.5 -17t46.5 -46.5t17 -64.5t-17 -64.5t-46.5 -46.5t-64.5 -17h-512q-35 0 -64.5 17t-46.5 46.5t-17 64.5q0 39 21.5 71t56.5 47l22 9l-4 33q0 27 18.5 45.5t45.5 18.5q7 0 15 -2l20 -5l12 16
q31 40 77.5 63.5t99.5 23.5z" />
    <glyph glyph-name="flask" unicode="&#xf0c3;" 
d="M544 896q-13 0 -22.5 -9.5t-9.5 -22.5t9.5 -22.5t22.5 -9.5t22.5 9.5t9.5 22.5t-9.5 22.5t-22.5 9.5zM448 800q-13 0 -22.5 -9.5t-9.5 -22.5h-96v-64h32v-245l-197 -254q-27 -35 -27 -78q0 -34 17 -63.5t46.5 -46.5t63.5 -17h514q34 0 63.5 17t46.5 46.5t17 63.5
q0 43 -27 78l-197 254v245h32v64h-224q0 13 -9.5 22.5t-22.5 9.5zM416 704h192v-267l91 -117h-374l91 117v267zM544 576q-13 0 -22.5 -9.5t-9.5 -22.5t9.5 -22.5t22.5 -9.5t22.5 9.5t9.5 22.5t-9.5 22.5t-22.5 9.5zM275 256h474l70 -90q13 -17 13 -39q0 -27 -18 -45t-45 -18
h-514q-27 0 -45 18t-18 45q0 22 13 39z" />
    <glyph glyph-name="cut" unicode="&#xf0c4;" 
d="M629 758q-19 -2 -34 -14.5t-20 -31.5l-85 -298l-107 -31q-6 41 -37.5 69t-73.5 28q-30 0 -56 -15t-41 -41t-15 -56t15 -56t41 -41t56 -15t56 15.5t41 41.5l100 28l-28 -100q-26 -15 -41.5 -41t-15.5 -56t15 -56t41 -41t56 -15t56 15t41 41t15 56q0 42 -28 73.5t-69 37.5
l143 501q-13 4 -25 2zM884 526l-279 -79l-21 -73l256 73q26 7 38.5 30.5t5.5 48.5zM272 416q20 0 34 -14t14 -34t-14 -34t-34 -14t-34 14t-14 34t14 34t34 14zM496 192q20 0 34 -14t14 -34t-14 -34t-34 -14t-34 14t-14 34t14 34t34 14z" />
    <glyph glyph-name="copy" unicode="&#xf0c5;" 
d="M128 768v-640h224v64h-160v512h384v-32h64v96h-512zM384 640v-640h512v640h-512zM448 576h384v-512h-384v512z" />
    <glyph glyph-name="paperclip" unicode="&#xf0c6;" 
d="M672 768q-34 0 -65.5 -13t-56.5 -38l-300 -300q-47 -47 -63.5 -109.5t0 -125.5t63.5 -110t110 -63.5t125.5 0t109.5 63.5l200 200l-45 45l-200 -200q-35 -35 -81.5 -47t-92.5 0t-81 47t-47 81t0 92.5t47 81.5l300 300q21 21 49 28.5t56.5 0t49.5 -28.5t28.5 -49.5
t0 -56.5t-28.5 -49l-300 -300q-12 -12 -27.5 -12t-27.5 12t-12 27.5t12 27.5l275 275l-45 45l-275 -275q-30 -30 -30 -72.5t30 -72.5t72.5 -30t72.5 30l300 300q33 33 44.5 78t0 89.5t-44.5 77.5q-25 25 -57 38t-66 13z" />
    <glyph glyph-name="save" unicode="&#xf0c7;" 
d="M160 736v-704h704v557l-9 10l-128 128l-10 9h-557zM224 672h96v-192h384v178l96 -96v-466h-64v288h-448v-288h-64v576zM384 672h128v-64h64v64h64v-128h-256v128zM352 320h320v-224h-320v224z" />
    <glyph glyph-name="square-full" unicode="&#xf0c8;" 
d="M192 704v-640h640v640h-640z" />
    <glyph glyph-name="square-full" unicode="&#xf45c;" 
d="M192 704v-640h640v640h-640z" />
    <glyph glyph-name="bars" unicode="&#xf0c9;" 
d="M128 672v-64h768v64h-768zM128 416v-64h768v64h-768zM128 160v-64h768v64h-768z" />
    <glyph glyph-name="list-ol" unicode="&#xf0cb;" 
d="M191 800l-10 -11l-14 -10q-16 -11 -26 -11v-64q14 0 28 5q8 3 22 11l1 1v-145h64v224h-65zM352 704v-64h544v64h-544zM208 512q-33 0 -56.5 -23.5t-23.5 -56.5v-16h64v16q0 5 5.5 10.5t10.5 5.5t10.5 -5.5t5.5 -10.5l-86 -83l-10 -9v-52h160v64h-55l28 28l4 3l-1 1
q11 9 17.5 22.5t6.5 25.5q0 33 -23.5 56.5t-56.5 23.5zM352 416v-64h544v64h-544zM128 224v-64h44l-12 -20v-44h48q5 0 10.5 -5.5t5.5 -10.5t-5.5 -10.5t-10.5 -5.5h-80v-64h80q33 0 56.5 23.5t23.5 56.5q0 23 -14 41q-13 16 -35 26l13 22l4 8v47h-128zM352 128v-64h544v64
h-544z" />
    <glyph glyph-name="strikethrough" unicode="&#xf0cc;" 
d="M224 704v-64h256v-256h-160v-64h160v-256h64v256h160v64h-160v256h256v64h-576z" />
    <glyph glyph-name="underline" unicode="&#xf0cd;" 
d="M256 768v-384q0 -70 34.5 -128.5t93 -93t128.5 -34.5t128.5 34.5t93 93t34.5 128.5v384h-64v-384q0 -53 -25.5 -97t-69.5 -69.5t-97 -25.5t-97 25.5t-69.5 69.5t-25.5 97v384h-64zM192 64v-64h640v64h-640z" />
    <glyph glyph-name="table" unicode="&#xf0ce;" 
d="M160 736v-704h704v704h-704zM224 672h160v-160h-160v160zM448 672h128v-160h-128v160zM640 672h160v-160h-160v160zM224 448h160v-128h-160v128zM448 448h128v-128h-128v128zM640 448h160v-128h-160v128zM224 256h160v-160h-160v160zM448 256h128v-160h-128v160zM640 256
h160v-160h-160v160z" />
    <glyph glyph-name="magic" unicode="&#xf0d0;" 
d="M668 814l-22 -24l-54 -57h-115v-112l-77 -81l70 -70l-396 -397l23 -22l105 -105l22 23l374 373l70 -70l81 77h112v115l57 54l24 22l-81 81v112h-112zM669 722l44 -44l10 -9h74v-74l9 -10l44 -44l-43 -41l-10 -9v-78h-74l-54 -52l-26 26l145 145l-127 127l-23 -22
l-122 -123l-27 27l52 54v74h78l9 10zM661 569l36 -37l-495 -496l-37 37zM608 224v-32h-32v-64h32v-32h64v32h32v64h-32v32h-64zM800 160v-64h-64v-64h64v-64h64v64h64v64h-64v64h-64z" />
    <glyph glyph-name="truck-moving" unicode="&#xf0d1;" 
d="M32 768v-672h101q11 -42 45 -69t78 -27t78 27t45 69h266q11 -42 45 -69t78 -27t78 27t45 69h101v333l-9 10l-192 192l-10 9h-173v128h-576zM96 704h448v-544h-165q-11 42 -45 69t-78 27t-78 -27t-45 -69h-37v544zM608 576h146l174 -174v-242h-37q-11 42 -45 69t-78 27
t-78 -27t-45 -69h-37v416zM256 192q27 0 45.5 -18.5t18.5 -45.5t-18.5 -45.5t-45.5 -18.5t-45.5 18.5t-18.5 45.5t18.5 45.5t45.5 18.5zM768 192q27 0 45.5 -18.5t18.5 -45.5t-18.5 -45.5t-45.5 -18.5t-45.5 18.5t-18.5 45.5t18.5 45.5t45.5 18.5z" />
    <glyph glyph-name="truck-moving" unicode="&#xf4df;" 
d="M32 768v-672h101q11 -42 45 -69t78 -27t78 27t45 69h266q11 -42 45 -69t78 -27t78 27t45 69h101v333l-9 10l-192 192l-10 9h-173v128h-576zM96 704h448v-544h-165q-11 42 -45 69t-78 27t-78 -27t-45 -69h-37v544zM608 576h146l174 -174v-242h-37q-11 42 -45 69t-78 27
t-78 -27t-45 -69h-37v416zM256 192q27 0 45.5 -18.5t18.5 -45.5t-18.5 -45.5t-45.5 -18.5t-45.5 18.5t-18.5 45.5t18.5 45.5t45.5 18.5zM768 192q27 0 45.5 -18.5t18.5 -45.5t-18.5 -45.5t-45.5 -18.5t-45.5 18.5t-18.5 45.5t18.5 45.5t45.5 18.5z" />
    <glyph glyph-name="money-bill" unicode="&#xf0d6;" 
d="M64 672v-544h896v544h-896zM192 608h640q0 -27 18.5 -45.5t45.5 -18.5v-288q-27 0 -45.5 -18.5t-18.5 -45.5h-640q0 27 -18.5 45.5t-45.5 18.5v288q27 0 45.5 18.5t18.5 45.5zM512 544q-35 0 -64.5 -19.5t-46.5 -52.5t-17 -72t17 -72t46.5 -52.5t64.5 -19.5t64.5 19.5
t46.5 52.5t17 72t-17 72t-46.5 52.5t-64.5 19.5zM512 480q26 0 45 -23.5t19 -56.5t-19 -56.5t-45 -23.5t-45 23.5t-19 56.5t19 56.5t45 23.5zM272 448q-20 0 -34 -14t-14 -34t14 -34t34 -14t34 14t14 34t-14 34t-34 14zM752 448q-20 0 -34 -14t-14 -34t14 -34t34 -14t34 14
t14 34t-14 34t-34 14z" />
    <glyph glyph-name="caret-down" unicode="&#xf0d7;" 
d="M115 512l54 -55l320 -320l23 -22l23 22l320 320l54 55h-794zM270 448h484l-242 -242z" />
    <glyph glyph-name="caret-down" unicode="&#xf0dd;" 
d="M115 512l54 -55l320 -320l23 -22l23 22l320 320l54 55h-794zM270 448h484l-242 -242z" />
    <glyph glyph-name="caret-up" unicode="&#xf0d8;" 
d="M512 621l-23 -22l-320 -320l-54 -55h794l-54 55l-320 320zM512 530l242 -242h-484z" />
    <glyph glyph-name="caret-up" unicode="&#xf0de;" 
d="M512 621l-23 -22l-320 -320l-54 -55h794l-54 55l-320 320zM512 530l242 -242h-484z" />
    <glyph glyph-name="caret-left" unicode="&#xf0d9;" 
d="M640 749l-55 -54l-288 -288l-22 -23l22 -23l288 -288l55 -54v730zM576 594v-420l-210 210z" />
    <glyph glyph-name="caret-right" unicode="&#xf0da;" 
d="M384 749v-730l55 54l288 288l22 23l-22 23l-288 288zM448 594l210 -210l-210 -210v420z" />
    <glyph glyph-name="columns" unicode="&#xf0db;" 
d="M160 736v-704h704v704h-704zM224 672h256v-576h-256v576zM544 672h256v-576h-256v576z" />
    <glyph glyph-name="sort" unicode="&#xf0dc;" 
d="M512 781l-23 -22l-256 -256l-54 -55h666l-54 55l-256 256zM512 690l178 -178h-356zM179 320l54 -55l256 -256l23 -22l23 22l256 256l54 55h-666zM334 256h356l-178 -178z" />
    <glyph glyph-name="envelope" unicode="&#xf0e0;" 
d="M96 640v-576h832v576h-832zM234 576h556l-278 -185zM160 548l334 -223l18 -11l18 11l334 223v-420h-704v420z" />
    <glyph glyph-name="undo" unicode="&#xf0e2;" 
d="M409 727l-256 -256l-22 -23l22 -23l256 -256l46 46l-201 201h418q43 0 80 -21.5t58.5 -58.5t21.5 -80v-224h64v224q0 60 -30.5 111.5t-82 82t-111.5 30.5h-418l201 201z" />
    <glyph glyph-name="gavel" unicode="&#xf0e3;" 
d="M511 845l-23 -22l-224 -225l-23 -22l142 -142l33 34l67 -67l-378 -378l46 -46l378 378l66 -66l-34 -33l142 -142l22 23l247 247l-23 22l-118 119l-32 -31l-179 178l32 32l-23 22l-96 97zM511 755l51 -51l-179 -179l-51 51zM576 626l178 -178l-114 -114l-178 178zM831 435
l51 -51l-179 -179l-51 51z" />
    <glyph glyph-name="lightning-bolt" unicode="&#xf0e7;" 
d="M512 704v-288l128 -32l-125 -320h-3v257l-128 32l125 351h3zM576 768h-112l-164 -460l148 -37v-271h111l167 429l-150 37v302z" />
    <glyph glyph-name="sitemap" unicode="&#xf0e8;" 
d="M384 736v-256h96v-64h-320v-128h-96v-256h256v256h-96v64h256v-64h-96v-256h256v256h-96v64h256v-64h-96v-256h256v256h-96v128h-320v64h96v256h-256zM448 672h128v-128h-128v128zM128 224h128v-128h-128v128zM448 224h128v-128h-128v128zM768 224h128v-128h-128v128z
" />
    <glyph glyph-name="umbrella" unicode="&#xf0e9;" 
d="M480 768v-66q-94 -8 -175 -58q-77 -48 -124.5 -123t-51.5 -157l-1 -12h64q0 7 17 17q26 15 63 15t63 -15q17 -10 17 -17h64q0 2 3 5q6 7 17 12q30 15 76 15t76 -15q11 -5 17 -12q3 -3 3 -5h64q0 7 17 17q26 15 63 15t63 -15q17 -10 17 -17h64q0 6 -1 12q-4 82 -51.5 157
t-124.5 123q-81 50 -175 58v66h-64zM512 640q67 0 130 -28q59 -27 104.5 -73t67.5 -100q-29 9 -62 9q-55 0 -95 -23q-8 -5 -18 -13q-11 8 -22 14q-44 22 -105 22t-105 -22q-8 -4 -21 -14h-1q-10 8 -18 13q-40 23 -95 23q-33 0 -62 -9q22 54 67.5 100t104.5 73q63 28 130 28z
M480 352v-256q0 -14 -9 -23t-23 -9t-23 9t-9 23v32h-64v-32q0 -39 28.5 -67.5t67.5 -28.5t67.5 28.5t28.5 67.5v256h-64z" />
    <glyph glyph-name="clipboard" unicode="&#xf0ea;" 
d="M480 800q-29 0 -51 -19q-21 -17 -32 -45h-237v-736h256v-64h448v512h-64v288h-237q-11 28 -32 45q-22 19 -51 19zM480 736q13 0 22.5 -9.5t9.5 -22.5v-32h96v-64h-256v64h96v32q0 13 9.5 22.5t22.5 9.5zM224 672h64v-128h384v128h64v-224h-320v-384h-192v608zM480 384
h320v-384h-320v384z" />
    <glyph glyph-name="clipboard" unicode="&#xf328;" 
d="M480 800q-29 0 -51 -19q-21 -17 -32 -45h-237v-736h256v-64h448v512h-64v288h-237q-11 28 -32 45q-22 19 -51 19zM480 736q13 0 22.5 -9.5t9.5 -22.5v-32h96v-64h-256v64h96v32q0 13 9.5 22.5t22.5 9.5zM224 672h64v-128h384v128h64v-224h-320v-384h-192v608zM480 384
h320v-384h-320v384z" />
    <glyph glyph-name="lightbulb" unicode="&#xf0eb;" 
d="M512 768q-78 0 -145 -39q-65 -39 -104 -104q-39 -67 -39 -145q0 -83 64 -182q44 -68 96 -111v-91q0 -26 19 -45t45 -19l32 -32h64l32 32q26 0 45 19t19 45v91q52 43 96 111q64 99 64 182q0 78 -39 145q-39 65 -104 104q-67 39 -145 39zM512 704q61 0 112.5 -30
t81.5 -81.5t30 -112.5q0 -31 -14 -70t-39 -77q-21 -33 -48 -61.5t-54 -47.5h-138q-27 19 -54 47.5t-48 61.5q-25 38 -39 77t-14 70q0 61 30 112.5t81.5 81.5t112.5 30zM456 160h112q3 -2 8 -4v-60h-128v60q5 2 8 4z" />
    <glyph glyph-name="doctor" unicode="&#xf0f0;" 
d="M270 704l-9 -15l-11 -19q-12 -26 -25 -56q-17 -43 -29 -90q-17 -59 -25 -120q-11 -73 -11 -148v-32h195q-3 -15 -3 -32q0 -43 21.5 -80t58.5 -58.5t80 -21.5t80 21.5t58.5 58.5t21.5 80q0 17 -3 32h195v32q0 185 -50 327q-11 32 -25 60q-9 20 -19 36l-8 12l-10 13h-482z
M309 640h407l1 -2q19 -26 37 -77q17 -48 28 -113q12 -74 15 -160h-157q-22 30 -56 47t-72 17t-72 -17t-56 -47h-157q5 135 40 249q20 65 42 103zM480 576v-64h-64v-64h64v-64h64v64h64v64h-64v64h-64zM512 288q40 0 68 -28t28 -68t-28 -68t-68 -28t-68 28t-28 68t28 68
t68 28zM512 224q-13 0 -22.5 -9.5t-9.5 -22.5t9.5 -22.5t22.5 -9.5t22.5 9.5t9.5 22.5t-9.5 22.5t-22.5 9.5z" />
    <glyph glyph-name="stethoscope" unicode="&#xf0f1;" 
d="M224 768q-19 0 -34 -10t-23 -26q-31 -9 -51 -34.5t-20 -57.5v-300l21 -23q18 -17 38 -32q29 -21 58 -35q38 -18 75 -23v-67q0 -52 26 -96t70 -70t96 -26t96 26t70 70t26 96v160q0 27 18.5 45.5t45.5 18.5t45.5 -18.5t18.5 -45.5v-6q-28 -10 -46 -34.5t-18 -55.5
q0 -39 28.5 -67.5t67.5 -28.5t67.5 28.5t28.5 67.5q0 31 -18 55.5t-46 34.5v6q0 35 -17.5 64t-46.5 46.5t-64 17.5t-64 -17.5t-46.5 -46.5t-17.5 -64v-160q0 -35 -17 -64.5t-46.5 -46.5t-64.5 -17t-64.5 17t-46.5 46.5t-17 64.5v67q68 10 133 58q32 24 51 46l8 9v300
q0 32 -20 57.5t-51 34.5q-8 16 -23 26t-34 10q-27 0 -45.5 -18.5t-18.5 -45.5t18.5 -45.5t45.5 -18.5q15 0 28.5 7t22.5 19q13 -9 13 -26v-274q-24 -24 -54 -43q-55 -35 -106 -35t-106 35q-30 19 -54 43v274q0 17 13 26q9 -12 22.5 -19t28.5 -7q27 0 45.5 18.5t18.5 45.5
t-18.5 45.5t-45.5 18.5zM832 256q14 0 23 -9t9 -22.5t-9 -23t-22.5 -9.5t-23 9.5t-9.5 23t9.5 22.5t22.5 9z" />
    <glyph glyph-name="suitcase" unicode="&#xf0f2;" 
d="M448 800q-26 0 -45 -19t-19 -45v-32h-96v32h-64v-32h-64q-26 0 -45 -19t-19 -45v-512q0 -26 19 -45t45 -19h704q26 0 45 19t19 45v512q0 26 -19 45t-45 19h-64v32h-64v-32h-96v32q0 26 -19 45t-45 19h-128zM448 736h128v-32h-128v32zM160 640h704v-512h-64v480h-64v-480
h-448v480h-64v-480h-64v512z" />
    <glyph glyph-name="bell" unicode="&#xf0f3;" 
d="M512 800q-27 0 -45.5 -18.5t-18.5 -45.5l1 -8q-55 -14 -99 -50t-69 -87.5t-25 -110.5v-288q0 -14 -9 -23t-23 -9h-32v-64h230q-6 -17 -6 -32q0 -39 28.5 -67.5t67.5 -28.5t67.5 28.5t28.5 67.5q0 15 -6 32h230v64h-32q-14 0 -23 9t-9 23v279q0 59 -24.5 112.5t-68.5 91.5
t-100 53l1 8q0 27 -18.5 45.5t-45.5 18.5zM498 672h9h11q51 -2 94 -29.5t67.5 -73.5t24.5 -98v-279q0 -15 6 -32h-396q6 17 6 32v288q0 50 23.5 92.5t64.5 69t90 30.5zM512 96q14 0 23 -9t9 -22.5t-9 -23t-22.5 -9.5t-23 9.5t-9.5 23t9.5 22.5t22.5 9z" />
    <glyph glyph-name="coffee" unicode="&#xf0f4;" 
d="M352 800v-128h64v128h-64zM480 768v-96h64v96h-64zM156 640l4 -35l58 -551q4 -36 31.5 -61t64.5 -25h300q37 0 64.5 25t31.5 61l15 138h75q39 0 67.5 28.5t28.5 67.5v96q0 39 -28.5 67.5t-67.5 28.5h-45l17 160h-616zM228 576h472l-54 -515q-1 -12 -10.5 -20.5
t-21.5 -8.5h-300q-12 0 -21.5 8.5t-10.5 20.5zM748 416h52q14 0 23 -9t9 -23v-96q0 -14 -9 -23t-23 -9h-69z" />
    <glyph glyph-name="hospital" unicode="&#xf0f8;" 
d="M480 800v-64h-64v-64h64v-64h64v64h64v64h-64v64h-64zM192 736v-736h288v96h64v-96h288v736h-160v-64h96v-608h-160v96h-192v-96h-160v608h96v64h-160zM352 544v-64h64v64h-64zM480 544v-64h64v64h-64zM608 544v-64h64v64h-64zM352 416v-64h64v64h-64zM480 416v-64h64v64
h-64zM608 416v-64h64v64h-64zM352 288v-64h64v64h-64zM480 288v-64h64v64h-64zM608 288v-64h64v64h-64z" />
    <glyph glyph-name="ambulance" unicode="&#xf0f9;" 
d="M576 800q-27 0 -45.5 -18.5t-18.5 -45.5v-32h-480v-608h101q11 -42 45 -69t78 -27t78 27t45 69h266q11 -42 45 -69t78 -27t78 27t45 69h101v364l-200 233l-9 11h-143v32q0 27 -18.5 45.5t-45.5 18.5zM96 640h657l175 -204v-276h-37q-11 42 -45 69t-78 27t-78 -27t-45 -69
h-266q-11 42 -45 69t-78 27t-78 -27t-45 -69h-37v480zM448 544v-96h-96v-64h96v-96h64v96h96v64h-96v96h-64zM256 192q27 0 45.5 -18.5t18.5 -45.5t-18.5 -45.5t-45.5 -18.5t-45.5 18.5t-18.5 45.5t18.5 45.5t45.5 18.5zM768 192q27 0 45.5 -18.5t18.5 -45.5t-18.5 -45.5
t-45.5 -18.5t-45.5 18.5t-18.5 45.5t18.5 45.5t45.5 18.5z" />
    <glyph glyph-name="medical-briefcase" unicode="&#xf0fa;" 
d="M448 736q-26 0 -45 -19t-19 -45v-32h-192q-39 0 -67.5 -28.5t-28.5 -67.5v-480h832v480q0 39 -28.5 67.5t-67.5 28.5h-192v32q0 26 -19 45t-45 19h-128zM448 672h128v-32h-128v32zM192 576h640q14 0 23 -9t9 -23v-416h-704v416q0 14 9 23t23 9zM480 480v-96h-96v-64h96
v-96h64v96h96v64h-96v96h-64z" />
    <glyph glyph-name="medical-briefcase" unicode="&#xf479;" 
d="M448 736q-26 0 -45 -19t-19 -45v-32h-192q-39 0 -67.5 -28.5t-28.5 -67.5v-480h832v480q0 39 -28.5 67.5t-67.5 28.5h-192v32q0 26 -19 45t-45 19h-128zM448 672h128v-32h-128v32zM192 576h640q14 0 23 -9t9 -23v-416h-704v416q0 14 9 23t23 9zM480 480v-96h-96v-64h96
v-96h64v96h96v64h-96v96h-64z" />
    <glyph glyph-name="medical-briefcase" unicode="&#xf469;" 
d="M448 736q-26 0 -45 -19t-19 -45v-32h-192q-39 0 -67.5 -28.5t-28.5 -67.5v-480h832v480q0 39 -28.5 67.5t-67.5 28.5h-192v32q0 26 -19 45t-45 19h-128zM448 672h128v-32h-128v32zM192 576h640q14 0 23 -9t9 -23v-416h-704v416q0 14 9 23t23 9zM480 480v-96h-96v-64h96
v-96h64v96h96v64h-96v96h-64z" />
    <glyph glyph-name="fighter-jet" unicode="&#xf0fb;" 
d="M252 768l32 -288h-27l-64 96h-136l39 -192l-39 -192h136l64 96h27l-32 -288h113l10 9l279 279h178q23 0 44 12q13 6 34 24l4 3q13 11 27 24l31 33l-31 33q-14 13 -27 24l-4 3q-21 18 -34 24q-21 12 -44 12h-178l-279 279l-10 9h-113zM324 704h14l279 -279l10 -9h205l4 -2
q24 -13 37 -23l8 -7l-8 -7q-13 -10 -37 -23l-4 -2h-205l-10 -9l-279 -279h-14l32 288h-134l-64 -96h-23l24 122l2 6l-2 6l-24 122h23l64 -96h134zM512 672l64 -64h64l32 32l-32 32h-128zM576 160l-64 -64h128l32 32l-32 32h-64z" />
    <glyph glyph-name="beer" unicode="&#xf0fc;" 
d="M432 768q-55 0 -100 -45l-9 4q-22 9 -35 9q-35 0 -64 -17.5t-46.5 -46.5t-17.5 -64q0 -47 34 -85q-2 -6 -2 -11v-416q0 -39 28.5 -67.5t67.5 -28.5h384q39 0 67.5 28.5t28.5 67.5v64h32q39 0 67.5 28.5t28.5 67.5v128q0 39 -28.5 67.5t-67.5 28.5h-32v38v7q32 37 32 83
q0 35 -17.5 64t-46.5 46.5t-64 17.5q-31 0 -64 -20q-33 20 -64 20q-6 0 -16 -3l-6 -1q-43 36 -90 36zM432 704q34 0 59 -27l14 -15l20 6q12 4 19 4q24 0 43 -17l21 -19l21 19q19 17 43 17q27 0 45.5 -18.5t18.5 -45.5t-18.5 -45.5t-45.5 -18.5q-22 0 -57 8l-30 7l-41 12v-43
q0 -49 18 -105l2 -5q6 -21 9 -29q3 -13 3 -21q0 -20 -14 -34t-34 -14t-34 14t-14 34q0 9 4 23q2 9 10 33q18 56 18 104v57l-48 -30l-13 -6q-12 -5 -19 -5q-31 0 -54 21l-23 21l-21 -22q-19 -20 -46 -20t-45.5 18.5t-18.5 45.5t18.5 45.5t45.5 18.5q18 0 35 -11l26 -16l18 25
q11 16 28 25t37 9zM358 504q39 -24 74 -24q2 0 4 1l4 1q-1 -5 -2 -17q-2 -16 -4 -22l-5 -14q-6 -19 -9 -29q-4 -16 -4 -32q0 -30 15 -56t41 -41t56 -15t56 15t41 41t15 56q0 16 -4 32q-3 11 -9 30l-5 13q-3 8 -6 29l-2 17l12 -3q24 -6 46 -6q12 0 32 5v-27q-3 -10 0 -19
v-241q-1 -7 0 -13v-89q0 -14 -9 -23t-23 -9h-384q-14 0 -23 9t-9 23v389q20 -5 32 -5q34 0 70 24zM768 416h32q14 0 23 -9t9 -23v-128q0 -14 -9 -23t-23 -9h-32v192z" />
    <glyph glyph-name="hospital-symbol" unicode="&#xf0fd;" 
d="M160 736v-704h704v704h-704zM224 672h576v-576h-576v576zM352 576v-384h64v160h192v-160h64v384h-64v-160h-192v160h-64z" />
    <glyph glyph-name="hospital-symbol" unicode="&#xf47e;" 
d="M160 736v-704h704v704h-704zM224 672h576v-576h-576v576zM352 576v-384h64v160h192v-160h64v384h-64v-160h-192v160h-64z" />
    <glyph glyph-name="plus-square" unicode="&#xf0fe;" 
d="M160 736v-704h704v704h-704zM224 672h576v-576h-576v576zM480 544v-128h-128v-64h128v-128h64v128h128v64h-128v128h-64z" />
    <glyph glyph-name="angle-double-left" unicode="&#xf100;" 
d="M509 743l-359 -359l359 -359l45 46l-313 313l313 313zM733 743l-359 -359l359 -359l45 46l-313 313l313 313z" />
    <glyph glyph-name="angle-double-right" unicode="&#xf101;" 
d="M291 743l-45 -46l313 -313l-313 -313l45 -46l359 359zM515 743l-45 -46l313 -313l-313 -313l45 -46l359 359z" />
    <glyph glyph-name="angle-double-up" unicode="&#xf102;" 
d="M512 746l-391 -391l46 -45l345 345l345 -345l46 45zM512 522l-391 -391l46 -45l345 345l345 -345l46 45z" />
    <glyph glyph-name="angle-double-down" unicode="&#xf103;" 
d="M167 682l-46 -45l391 -391l391 391l-46 45l-345 -345zM167 458l-46 -45l391 -391l391 391l-46 45l-345 -345z" />
    <glyph glyph-name="angle-left" unicode="&#xf104;" 
d="M609 759l-352 -352l-22 -23l22 -23l352 -352l46 46l-329 329l329 329z" />
    <glyph glyph-name="angle-right" unicode="&#xf105;" 
d="M415 759l-46 -46l329 -329l-329 -329l46 -46l352 352l22 23l-22 23z" />
    <glyph glyph-name="angle-up" unicode="&#xf106;" 
d="M512 685l-23 -22l-400 -400l46 -46l377 377l377 -377l46 46l-400 400z" />
    <glyph glyph-name="angle-down" unicode="&#xf107;" 
d="M135 551l-46 -46l400 -400l23 -22l23 22l400 400l-46 46l-377 -377z" />
    <glyph glyph-name="desktop" unicode="&#xf108;" 
d="M64 704v-576h416v-64h-160v-64h384v64h-160v64h416v576h-896zM128 640h768v-448h-768v448z" />
    <glyph glyph-name="laptop" unicode="&#xf109;" 
d="M160 704v-434l-73 -74q-23 -23 -23 -55t22.5 -54.5t54.5 -22.5h742q32 0 54.5 22.5t22.5 54.5t-23 55l-73 74v434h-704zM224 640h576v-352h-576v352zM206 224h612l74 -73q4 -4 4 -10t-3.5 -9.5t-9.5 -3.5h-742q-6 0 -9.5 3.5t-3.5 9.5t4 10z" />
    <glyph glyph-name="tablet" unicode="&#xf10a;" 
d="M160 704q-39 0 -67.5 -28.5t-28.5 -67.5v-448q0 -39 28.5 -67.5t67.5 -28.5h704q39 0 67.5 28.5t28.5 67.5v448q0 39 -28.5 67.5t-67.5 28.5h-704zM160 640h704q13 0 22.5 -9.5t9.5 -22.5v-448q0 -13 -9.5 -22.5t-22.5 -9.5h-704q-13 0 -22.5 9.5t-9.5 22.5v448
q0 13 9.5 22.5t22.5 9.5zM192 416q-13 0 -22.5 -9.5t-9.5 -22.5t9.5 -22.5t22.5 -9.5t22.5 9.5t9.5 22.5t-9.5 22.5t-22.5 9.5z" />
    <glyph glyph-name="tablet" unicode="&#xf3fa;" 
d="M160 704q-39 0 -67.5 -28.5t-28.5 -67.5v-448q0 -39 28.5 -67.5t67.5 -28.5h704q39 0 67.5 28.5t28.5 67.5v448q0 39 -28.5 67.5t-67.5 28.5h-704zM160 640h704q13 0 22.5 -9.5t9.5 -22.5v-448q0 -13 -9.5 -22.5t-22.5 -9.5h-704q-13 0 -22.5 9.5t-9.5 22.5v448
q0 13 9.5 22.5t22.5 9.5zM192 416q-13 0 -22.5 -9.5t-9.5 -22.5t9.5 -22.5t22.5 -9.5t22.5 9.5t9.5 22.5t-9.5 22.5t-22.5 9.5z" />
    <glyph glyph-name="alternate-mobile" unicode="&#xf10b;" 
d="M352 768q-39 0 -67.5 -28.5t-28.5 -67.5v-576q0 -39 28.5 -67.5t67.5 -28.5h320q39 0 67.5 28.5t28.5 67.5v576q0 39 -28.5 67.5t-67.5 28.5h-320zM352 704h320q13 0 22.5 -9.5t9.5 -22.5v-576q0 -13 -9.5 -22.5t-22.5 -9.5h-320q-13 0 -22.5 9.5t-9.5 22.5v576
q0 13 9.5 22.5t22.5 9.5zM512 160q-13 0 -22.5 -9.5t-9.5 -22.5t9.5 -22.5t22.5 -9.5t22.5 9.5t9.5 22.5t-9.5 22.5t-22.5 9.5z" />
    <glyph glyph-name="alternate-mobile" unicode="&#xf3cd;" 
d="M352 768q-39 0 -67.5 -28.5t-28.5 -67.5v-576q0 -39 28.5 -67.5t67.5 -28.5h320q39 0 67.5 28.5t28.5 67.5v576q0 39 -28.5 67.5t-67.5 28.5h-320zM352 704h320q13 0 22.5 -9.5t9.5 -22.5v-576q0 -13 -9.5 -22.5t-22.5 -9.5h-320q-13 0 -22.5 9.5t-9.5 22.5v576
q0 13 9.5 22.5t22.5 9.5zM512 160q-13 0 -22.5 -9.5t-9.5 -22.5t9.5 -22.5t22.5 -9.5t22.5 9.5t9.5 22.5t-9.5 22.5t-22.5 9.5z" />
    <glyph glyph-name="quote-left" unicode="&#xf10d;" 
d="M320 640q-52 0 -96 -26t-70 -70t-26 -96v-320h320v320h-256q0 35 17 64.5t46.5 46.5t64.5 17v64zM768 640q-52 0 -96 -26t-70 -70t-26 -96v-320h320v320h-256q0 35 17 64.5t46.5 46.5t64.5 17v64zM192 384h192v-192h-192v192zM640 384h192v-192h-192v192z" />
    <glyph glyph-name="quote-right" unicode="&#xf10e;" 
d="M128 640v-320h256q0 -35 -17 -64.5t-46.5 -46.5t-64.5 -17v-64q52 0 96 26t70 70t26 96v320h-320zM576 640v-320h256q0 -35 -17 -64.5t-46.5 -46.5t-64.5 -17v-64q52 0 96 26t70 70t26 96v320h-320zM192 576h192v-192h-192v192zM640 576h192v-192h-192v192z" />
    <glyph glyph-name="spinner" unicode="&#xf110;" 
d="M512 800q-40 0 -68 -28t-28 -68t28 -68t68 -28t68 28t28 68t-28 68t-68 28zM286 690q-33 0 -56.5 -23.5t-23.5 -56.5t23.5 -56.5t56.5 -23.5t56.5 23.5t23.5 56.5t-23.5 56.5t-56.5 23.5zM738 642q-13 0 -22.5 -9.5t-9.5 -22.5t9.5 -22.5t22.5 -9.5t22.5 9.5t9.5 22.5
t-9.5 22.5t-22.5 9.5zM192 456q-30 0 -51 -21t-21 -51t21 -51t51 -21t51 21t21 51t-21 51t-51 21zM832 424q-17 0 -28.5 -11.5t-11.5 -28.5t11.5 -28.5t28.5 -11.5t28.5 11.5t11.5 28.5t-11.5 28.5t-28.5 11.5zM286 222q-27 0 -45.5 -18.5t-18.5 -45.5t18.5 -45.5
t45.5 -18.5t45.5 18.5t18.5 45.5t-18.5 45.5t-45.5 18.5zM738 206q-20 0 -34 -14t-14 -34t14 -34t34 -14t34 14t14 34t-14 34t-34 14zM512 120q-23 0 -39.5 -16.5t-16.5 -39.5t16.5 -39.5t39.5 -16.5t39.5 16.5t16.5 39.5t-16.5 39.5t-39.5 16.5z" />
    <glyph glyph-name="circle" unicode="&#xf111;" 
d="M512 768q-104 0 -194 -52q-87 -51 -138 -138q-52 -90 -52 -194t52 -194q51 -87 138 -138q90 -52 194 -52t194 52q87 51 138 138q52 90 52 194t-52 194q-51 87 -138 138q-90 52 -194 52zM512 736q96 0 178 -48q79 -47 126 -126q48 -82 48 -178t-48 -178q-47 -79 -126 -126
q-82 -48 -178 -48t-178 48q-79 47 -126 126q-48 82 -48 178t48 178q47 79 126 126q82 48 178 48z" />
    <glyph glyph-name="smiling-face" unicode="&#xf118;" 
d="M512 768q-104 0 -194 -53q-87 -50 -137 -137q-53 -90 -53 -194t53 -194q50 -87 137 -138q90 -52 194 -52t194 52q87 51 138 138q52 90 52 194t-52 194q-51 87 -138 137q-90 53 -194 53zM512 704q87 0 162 -44q72 -42 114 -114q44 -75 44 -162t-44 -162q-42 -72 -114 -114
q-75 -44 -162 -44t-162 44q-72 42 -114 114q-44 75 -44 162t44 162q42 72 114 114q75 44 162 44zM368 512q-20 0 -34 -14t-14 -34t14 -34t34 -14t34 14t14 34t-14 34t-34 14zM656 512q-20 0 -34 -14t-14 -34t14 -34t34 -14t34 14t14 34t-14 34t-34 14zM346 288l-55 -32
q34 -58 92.5 -93t128.5 -35t128.5 35t92.5 93l-55 32q-25 -44 -69.5 -70t-96.5 -26t-96.5 26t-69.5 70z" />
    <glyph glyph-name="frowning-face" unicode="&#xf119;" 
d="M512 768q-104 0 -194 -53q-87 -50 -137 -137q-53 -90 -53 -194t53 -194q50 -87 137 -138q90 -52 194 -52t194 52q87 51 138 138q52 90 52 194t-52 194q-51 87 -138 137q-90 53 -194 53zM512 704q87 0 162 -44q72 -42 114 -114q44 -75 44 -162t-44 -162q-42 -72 -114 -114
q-75 -44 -162 -44t-162 44q-72 42 -114 114q-44 75 -44 162t44 162q42 72 114 114q75 44 162 44zM368 512q-20 0 -34 -14t-14 -34t14 -34t34 -14t34 14t14 34t-14 34t-34 14zM656 512q-20 0 -34 -14t-14 -34t14 -34t34 -14t34 14t14 34t-14 34t-34 14zM512 320
q-63 0 -118 -29q-53 -29 -89 -78l52 -37q27 37 67.5 58.5t87.5 21.5t87.5 -21.5t67.5 -58.5l52 37q-36 49 -89 78q-55 29 -118 29z" />
    <glyph glyph-name="neutral-face" unicode="&#xf11a;" 
d="M512 768q-104 0 -194 -53q-87 -50 -137 -137q-53 -90 -53 -194t53 -194q50 -87 137 -138q90 -52 194 -52t194 52q87 51 138 138q52 90 52 194t-52 194q-51 87 -138 137q-90 53 -194 53zM512 704q87 0 162 -44q72 -42 114 -114q44 -75 44 -162t-44 -162q-42 -72 -114 -114
q-75 -44 -162 -44t-162 44q-72 42 -114 114q-44 75 -44 162t44 162q42 72 114 114q75 44 162 44zM368 512q-20 0 -34 -14t-14 -34t14 -34t34 -14t34 14t14 34t-14 34t-34 14zM656 512q-20 0 -34 -14t-14 -34t14 -34t34 -14t34 14t14 34t-14 34t-34 14zM352 256v-64h320v64
h-320z" />
    <glyph glyph-name="gamepad" unicode="&#xf11b;" 
d="M512 672q-70 0 -146 -10q-61 -9 -122 -23q-44 -10 -84 -23l-31 -10l-19 -7l-2 -19l-43 -328q-6 -45 11.5 -86t52.5 -68t80 -33q41 -5 79 10t64.5 46t36.5 71h246q10 -40 36.5 -71t64.5 -46t79 -10q45 6 80 33t52.5 68t11.5 86l-43 328l-2 19l-19 7l-31 10q-40 13 -84 23
q-61 14 -122 23q-76 10 -146 10zM512 608q111 0 229 -25q64 -14 115 -32l39 -308q5 -42 -20.5 -75.5t-67.5 -38.5t-76 20.5t-39 67.5l-1 11l-4 28h-350l-4 -28l-1 -11q-5 -42 -39 -67.5t-76 -20.5t-67.5 38.5t-20.5 75.5l39 308q51 18 115 32q118 25 229 25zM288 512v-64
h-64v-64h64v-64h64v64h64v64h-64v64h-64zM704 512q-13 0 -22.5 -9.5t-9.5 -22.5t9.5 -22.5t22.5 -9.5t22.5 9.5t9.5 22.5t-9.5 22.5t-22.5 9.5zM640 448q-13 0 -22.5 -9.5t-9.5 -22.5t9.5 -22.5t22.5 -9.5t22.5 9.5t9.5 22.5t-9.5 22.5t-22.5 9.5zM768 448q-13 0 -22.5 -9.5
t-9.5 -22.5t9.5 -22.5t22.5 -9.5t22.5 9.5t9.5 22.5t-9.5 22.5t-22.5 9.5zM704 384q-13 0 -22.5 -9.5t-9.5 -22.5t9.5 -22.5t22.5 -9.5t22.5 9.5t9.5 22.5t-9.5 22.5t-22.5 9.5z" />
    <glyph glyph-name="keyboard" unicode="&#xf11c;" 
d="M96 672q-26 0 -45 -19t-19 -45v-448q0 -26 19 -45t45 -19h832q26 0 45 19t19 45v448q0 26 -19 45t-45 19h-832zM96 608h832v-448h-832v448zM160 544v-64h64v64h-64zM288 544v-64h64v64h-64zM416 544v-64h64v64h-64zM544 544v-64h64v64h-64zM672 544v-64h64v64h-64z
M800 544v-64h64v64h-64zM160 416v-64h128v64h-128zM352 416v-64h64v64h-64zM480 416v-64h64v64h-64zM608 416v-64h64v64h-64zM736 416v-64h128v64h-128zM160 288v-64h128v64h-128zM352 288v-64h320v64h-320zM736 288v-64h128v64h-128z" />
    <glyph glyph-name="flag-checkered" unicode="&#xf11e;" 
d="M160 768v-768h64v256h640v512h-704zM224 704h96v-96h96v96h96v-96h96v96h96v-96h96v-96h-96v-96h96v-96h-96v96h-96v-96h-96v96h-96v-96h-96v96h-96v96h96v96h-96v96zM320 512v-96h96v96h-96zM416 512h96v96h-96v-96zM512 512v-96h96v96h-96zM608 512h96v96h-96v-96z" />
    <glyph glyph-name="terminal" unicode="&#xf120;" 
d="M128 736v-704h768v704h-768zM192 672h640v-64h-640v64zM192 544h640v-448h-640v448zM359 455l-46 -46l89 -89l-89 -89l46 -46l112 112l22 23l-22 23zM512 256v-64h192v64h-192z" />
    <glyph glyph-name="code" unicode="&#xf121;" 
d="M576 736l-192 -704h64l192 704h-64zM254 691l-216 -288l-14 -19l230 -307l52 38l-202 269l202 269zM770 691l-52 -38l202 -269l-202 -269l52 -38l230 307l-14 19z" />
    <glyph glyph-name="reply-all" unicode="&#xf122;" 
d="M329 727l-256 -256l-22 -23l22 -23l256 -256l46 46l-233 233l233 233zM489 727l-256 -256l-22 -23l22 -23l256 -256l46 46l-201 201h402q44 0 80.5 -21.5t58 -58t21.5 -80.5t-21.5 -80.5t-58 -58t-80.5 -21.5v-64q61 0 112.5 30t81.5 81.5t30 112.5t-30 112.5t-81.5 81.5
t-112.5 30h-402l201 201z" />
    <glyph glyph-name="location-arrow" unicode="&#xf124;" 
d="M512 754l-29 -70l-256 -608l-29 -68l314 118l314 -118l-29 68l-256 608zM512 591l198 -471l-198 74l-198 -74z" />
    <glyph glyph-name="crop" unicode="&#xf125;" 
d="M256 768v-128h-128v-64h128v-448h448v-128h64v128h128v64h-530l338 338v-306h64v370l119 119l-46 46l-119 -119h-370v-64h306l-338 -338v530h-64z" />
    <glyph glyph-name="code-branch" unicode="&#xf126;" 
d="M352 768q-39 0 -67.5 -28.5t-28.5 -67.5q0 -31 18 -55.5t46 -34.5v-396q-28 -10 -46 -34.5t-18 -55.5q0 -39 28.5 -67.5t67.5 -28.5t67.5 28.5t28.5 67.5q0 30 -17.5 54t-44.5 35q3 28 15 46q10 16 29.5 29t52.5 24q24 8 68 18l3 1q48 11 72 19q40 13 69 33.5t47 52.5
q20 34 25 78q29 10 47 34.5t18 55.5q0 39 -28.5 67.5t-67.5 28.5t-67.5 -28.5t-28.5 -67.5q0 -30 17.5 -54t45.5 -35q-3 -30 -15 -49q-10 -17 -30 -31t-53 -25q-25 -8 -68 -18l-13 -3q-45 -10 -67 -17q-37 -12 -63 -30l-10 -8v276q28 10 46 34.5t18 55.5q0 39 -28.5 67.5
t-67.5 28.5zM352 704q14 0 23 -9t9 -22.5t-9 -23t-22.5 -9.5t-23 9.5t-9.5 23t9.5 22.5t22.5 9zM736 608q14 0 23 -9t9 -22.5t-9 -23t-22.5 -9.5t-23 9.5t-9.5 23t9.5 22.5t22.5 9zM352 128q14 0 23 -9t9 -22.5t-9 -23t-22.5 -9.5t-23 9.5t-9.5 23t9.5 22.5t22.5 9z" />
    <glyph glyph-name="unlink" unicode="&#xf127;" 
d="M696 768q-39 0 -76 -15t-66 -44l-47 -47q-24 -24 -38.5 -54t-18.5 -62l64 -8q6 47 38 79l47 47q26 26 61.5 35.5t70.5 0t61 -35.5t35.5 -61t0 -70.5t-35.5 -61.5l-47 -47h-1q-32 -32 -78 -38l8 -64q32 4 62 18.5t54 38.5l47 47q38 38 51.5 90t0 103.5t-51.5 89.5
q-29 29 -65.5 44t-75.5 15zM247 695l-46 -46l128 -128l46 46zM350 446q-32 -4 -62 -18.5t-54 -38.5l-47 -47q-38 -38 -51.5 -89.5t0 -103.5t51.5 -90t90 -51.5t103.5 0t89.5 51.5l47 47q24 24 38.5 54t18.5 62l-64 8q-6 -47 -38 -79l-47 -47q-26 -26 -61.5 -35.5t-70.5 0
t-61 35.5t-35.5 61.5t0 70.5t35.5 61l47 47h1q32 32 78 38zM695 247l-46 -46l128 -128l46 46z" />
    <glyph glyph-name="question" unicode="&#xf128;" 
d="M512 768q-68 0 -127 -29.5t-93 -80.5q-36 -52 -36 -114v-96h192v96q0 10 14 19q20 13 50.5 13t49.5 -13q14 -9 14 -19q0 -13 -4.5 -24t-14.5 -23t-43 -40l-7 -6q-41 -35 -61 -64q-30 -46 -30 -99v-32h192v32q0 8 3.5 15t12 15.5t33.5 29.5l20 16q40 33 61 70
q30 49 30 110t-36 114q-34 50 -92.5 80t-127.5 30zM512 704q53 0 98 -23q43 -21 68.5 -58t25.5 -79q0 -47 -20 -79q-14 -23 -49 -52l-13 -11q-30 -25 -44 -39q-16 -17 -26 -43h-62q7 23 21.5 42.5t37.5 39.5l5 4q38 32 54 52q32 40 32 86q0 22 -11.5 40.5t-30.5 31.5
q-36 24 -86 24t-86 -24q-19 -13 -30.5 -31.5t-11.5 -40.5v-32h-64v32q0 43 25.5 79.5t69.5 58.5t97 22zM416 192v-192h192v192h-192zM480 128h64v-64h-64v64z" />
    <glyph glyph-name="info" unicode="&#xf129;" 
d="M512 768q-35 0 -64 -17.5t-46.5 -46.5t-17.5 -64t17.5 -64t46.5 -46.5t64 -17.5t64 17.5t46.5 46.5t17.5 64t-17.5 64t-46.5 46.5t-64 17.5zM512 704q27 0 45.5 -18.5t18.5 -45.5t-18.5 -45.5t-45.5 -18.5t-45.5 18.5t-18.5 45.5t18.5 45.5t45.5 18.5zM352 480v-160h64
v-160h-64v-160h320v160h-64v320h-256zM416 416h128v-320h64v-32h-192v32h64v288h-64v32z" />
    <glyph glyph-name="exclamation" unicode="&#xf12a;" 
d="M416 768v-512h192v512h-192zM480 704h64v-384h-64v384zM416 192v-192h192v192h-192zM480 128h64v-64h-64v64z" />
    <glyph glyph-name="superscript" unicode="&#xf12b;" 
d="M799 800q-39 0 -67 -28t-28 -67v-1h64v1q0 13 9 22t22 9h2q13 0 22 -9t9 -22q0 -16 -13 -25l-68 -47q-22 -15 -34.5 -38.5t-12.5 -50.5v-32h192v64h-111q1 0 1 2t1 2l68 47q19 13 30 34t11 44q0 39 -28 67t-67 28h-2zM133 640l32 -49l133 -207l-133 -207l-32 -49h204
l63 97l63 -97h204l-32 49l-133 207l133 207l32 49h-204l-63 -97l-63 97h-204zM250 576h53l97 -152l97 152h53l-124 -192l124 -192h-53l-97 152l-97 -152h-53l124 192l-11 17z" />
    <glyph glyph-name="subscript" unicode="&#xf12c;" 
d="M133 640l32 -49l133 -207l-133 -207l-32 -49h204l63 97l63 -97h204l-32 49l-133 207l133 207l32 49h-204l-63 -97l-63 97h-204zM250 576h53l97 -152l97 152h53l-124 -192l124 -192h-53l-97 152l-97 -152h-53l124 192l-11 17zM799 288q-39 0 -67 -28t-28 -67v-1h64v1
q0 13 9 22t22 9h2q13 0 22 -9t9 -22q0 -16 -13 -25l-68 -47q-22 -15 -34.5 -38.5t-12.5 -50.5v-32h192v64h-111q1 0 1 2t1 2l68 47q19 13 30 34t11 44q0 39 -28 67t-67 28h-2z" />
    <glyph glyph-name="eraser" unicode="&#xf12d;" 
d="M605 765q-43 0 -73 -27v-1l-375 -372q-29 -29 -29.5 -70.5t27.5 -72.5l1 -1h1l192 -192q29 -29 70.5 -29.5t72.5 27.5v1l372 372q20 20 27.5 46.5t1 52.5t-25.5 45l-192 192q-29 29 -70 29zM604 700q17 0 26 -9l192 -192q10 -10 9.5 -26t-12.5 -28l-161 -161l-245 245
l163 162q11 9 28 9zM367 483l245 -245l-164 -164q-12 -10 -28.5 -9.5t-25.5 9.5l-191 190l-1 2q-10 12 -9.5 28.5t9.5 25.5z" />
    <glyph glyph-name="puzzle-piece" unicode="&#xf12e;" 
d="M544 800q-35 0 -64.5 -17t-46.5 -46.5t-17 -64.5h-192v-160q-35 0 -64.5 -17t-46.5 -46.5t-17 -64.5t17 -64.5t46.5 -46.5t64.5 -17v-160h192q0 -35 17 -64.5t46.5 -46.5t64.5 -17t64.5 17t46.5 46.5t17 64.5h192v224h-64q-29 0 -46.5 17.5t-17.5 46.5t17.5 46.5
t46.5 17.5h64v224h-192q0 35 -17 64.5t-46.5 46.5t-64.5 17zM544 736q29 0 46.5 -17.5t17.5 -46.5v-64h192v-96q-35 0 -64.5 -17t-46.5 -46.5t-17 -64.5t17 -64.5t46.5 -46.5t64.5 -17v-96h-192v-64q0 -29 -17.5 -46.5t-46.5 -17.5t-46.5 17.5t-17.5 46.5v64h-192v160h-64
q-29 0 -46.5 17.5t-17.5 46.5t17.5 46.5t46.5 17.5h64v160h192v64q0 29 17.5 46.5t46.5 17.5z" />
    <glyph glyph-name="microphone" unicode="&#xf130;" 
d="M416 768q-26 0 -45 -19t-19 -45v-384q0 -26 19 -45t45 -19h192q26 0 45 19t19 45v384q0 26 -19 45t-45 19h-192zM416 704h192v-384h-192v384zM224 448v-128q0 -52 26 -96t70 -70t96 -26h64v-64h-128v-64h320v64h-128v64h64q52 0 96 26t70 70t26 96v128h-64v-128
q0 -35 -17 -64.5t-46.5 -46.5t-64.5 -17h-192q-35 0 -64.5 17t-46.5 46.5t-17 64.5v128h-64z" />
    <glyph glyph-name="microphone-slash" unicode="&#xf131;" 
d="M119 823l-46 -46l832 -832l46 46l-201 201q24 26 37 59t13 69v128h-64v-128q0 -47 -31 -83l-45 45q12 17 12 38v384q0 26 -19 45t-45 19h-192q-26 0 -45 -19t-19 -45v-114zM416 704h192v-370l-192 192v178zM224 448v-128q0 -52 26 -96t70 -70t96 -26h64v-64h-128v-64h320
v64h-128v64h64q8 0 24 2l-62 62h-154q-35 0 -64.5 17t-46.5 46.5t-17 64.5v128h-64zM352 410v-90q0 -26 19 -45t45 -19h90l-64 64h-26v26z" />
    <glyph glyph-name="fire-extinguisher" unicode="&#xf134;" 
d="M512 768q-31 0 -55.5 -18t-34.5 -46h-38q-43 0 -80 -21.5t-58.5 -58.5t-21.5 -80h64q0 40 28 68t68 28h32v-79q-20 -15 -39 -34q-25 -25 -38 -47q-19 -32 -19 -64v-416h384v416q0 32 -19 64q-13 22 -38 47q-19 19 -39 34v9l192 -32v204l-200 -33q-11 26 -35 42.5
t-53 16.5zM512 704q13 0 22.5 -9.5t9.5 -22.5v-96h-64v96q0 13 9.5 22.5t22.5 9.5zM736 666v-52l-128 22v8zM460 512h104h1q18 -13 35.5 -30.5t28.5 -35.5t11 -30v-352h-256v352q0 12 11 30t28.5 35.5t35.5 30.5h1zM448 352v-64h128v64h-128z" />
    <glyph glyph-name="rocket" unicode="&#xf135;" 
d="M829 768q-42 0 -86 -4q-63 -6 -101 -17q-56 -16 -87 -47q-45 -45 -196 -242l-28 -37l-55 3q-31 2 -59 -10.5t-47 -36.5l-67 -82l-33 -42l157 -31l123 -123l21 -105l11 -52l123 100q24 19 36.5 47t10.5 59l-3 54l38 29q96 73 143 111q73 58 99 84q31 31 47 87
q10 38 16 103t3 121l-1 29zM800 704q8 0 21 -1h10v-3q1 -38 -3 -79q-4 -47 -17 -90.5t-28 -58.5q-20 -20 -91 -78q-64 -51 -144 -112l-165 -126l-98 98l9 12q60 81 115 153q61 80 113 144q57 71 78 92q16 16 60 29q42 13 89 17q33 3 51 3zM654 591q-27 0 -45.5 -19
t-18.5 -46t18.5 -46t45.5 -19t46 19t19 46t-19 46t-46 19zM272 360l12 -1l-55 -72l-43 9l33 40q10 12 24 18.5t29 5.5zM199 194q-31 -31 -54 -97q-11 -32 -16 -58l-10 -47l64 13q20 4 40 11q65 22 98 55l-45 45q-18 -18 -68 -36q19 52 36 69zM487 156l1 -12q1 -16 -5 -29.5
t-18 -23.5l-41 -33l-9 43z" />
    <glyph glyph-name="chevron-circle-left" unicode="&#xf137;" 
d="M512 800q-113 0 -210 -57q-94 -55 -149 -149q-57 -97 -57 -210t57 -210q55 -94 149 -149q97 -57 210 -57t210 57q94 55 149 149q57 97 57 210t-57 210q-55 94 -149 149q-97 57 -210 57zM512 736q96 0 178 -48q79 -47 126 -126q48 -82 48 -178t-48 -178q-47 -79 -126 -126
q-82 -48 -178 -48t-178 48q-79 47 -126 126q-48 82 -48 178t48 178q47 79 126 126q82 48 178 48zM569 599l-192 -192l-22 -23l22 -23l192 -192l46 46l-169 169l169 169z" />
    <glyph glyph-name="chevron-circle-right" unicode="&#xf138;" 
d="M512 800q-113 0 -210 -57q-94 -55 -149 -149q-57 -97 -57 -210t57 -210q55 -94 149 -149q97 -57 210 -57t210 57q94 55 149 149q57 97 57 210t-57 210q-55 94 -149 149q-97 57 -210 57zM512 736q96 0 178 -48q79 -47 126 -126q48 -82 48 -178t-48 -178q-47 -79 -126 -126
q-82 -48 -178 -48t-178 48q-79 47 -126 126q-48 82 -48 178t48 178q47 79 126 126q82 48 178 48zM455 599l-46 -46l169 -169l-169 -169l46 -46l192 192l22 23l-22 23z" />
    <glyph glyph-name="chevron-circle-up" unicode="&#xf139;" 
d="M512 800q-113 0 -210 -57q-94 -55 -149 -149q-57 -97 -57 -210t57 -210q55 -94 149 -149q97 -57 210 -57t210 57q94 55 149 149q57 97 57 210t-57 210q-55 94 -149 149q-97 57 -210 57zM512 736q96 0 178 -48q79 -47 126 -126q48 -82 48 -178t-48 -178q-47 -79 -126 -126
q-82 -48 -178 -48t-178 48q-79 47 -126 126q-48 82 -48 178t48 178q47 79 126 126q82 48 178 48zM512 541l-23 -22l-192 -192l46 -46l169 169l169 -169l46 46l-192 192z" />
    <glyph glyph-name="chevron-circle-down" unicode="&#xf13a;" 
d="M512 800q-113 0 -210 -57q-94 -55 -149 -149q-57 -97 -57 -210t57 -210q55 -94 149 -149q97 -57 210 -57t210 57q94 55 149 149q57 97 57 210t-57 210q-55 94 -149 149q-97 57 -210 57zM512 736q96 0 178 -48q79 -47 126 -126q48 -82 48 -178t-48 -178q-47 -79 -126 -126
q-82 -48 -178 -48t-178 48q-79 47 -126 126q-48 82 -48 178t48 178q47 79 126 126q82 48 178 48zM343 487l-46 -46l192 -192l23 -22l23 22l192 192l-46 46l-169 -169z" />
    <glyph glyph-name="anchor" unicode="&#xf13d;" 
d="M512 768q-35 0 -64 -17.5t-46.5 -46.5t-17.5 -64q0 -44 27 -78t69 -45v-69h-96v-64h96v-255q-99 8 -166 67q-34 30 -60 75l51 25l-128 58l-34 -138l53 26q31 -55 75 -94q38 -34 87 -54q55 -23 122 -28v-2l32 -32l32 32v2q67 5 122 28q49 20 87 54q44 39 75 94l53 -26
l-34 138l-128 -58l51 -25q-26 -45 -60 -75q-67 -59 -166 -67v255h96v64h-96v69q42 11 69 45t27 78q0 35 -17.5 64t-46.5 46.5t-64 17.5zM512 704q27 0 45.5 -18.5t18.5 -45.5t-18.5 -45.5t-45.5 -18.5t-45.5 18.5t-18.5 45.5t18.5 45.5t45.5 18.5z" />
    <glyph glyph-name="alternate-unlock" unicode="&#xf13e;" 
d="M512 800q-71 0 -130 -42q-56 -41 -82 -106l59 -24q19 48 60.5 78t92.5 30q43 0 80 -21.5t58.5 -58.5t21.5 -80v-44q-76 44 -160 44q-87 0 -161 -44q-73 -42 -115 -115q-44 -74 -44 -161t44 -161q42 -73 115 -115q74 -44 161 -44t161 44q73 42 115 115q44 74 44 161
q0 66 -26 126q-25 58 -70 102v92q0 60 -30.5 111.5t-82 82t-111.5 30.5zM512 512q70 0 128.5 -34.5t93 -93t34.5 -128.5t-34.5 -128.5t-93 -93t-128.5 -34.5t-128.5 34.5t-93 93t-34.5 128.5t34.5 128.5t93 93t128.5 34.5zM512 320q-27 0 -45.5 -18.5t-18.5 -45.5
q0 -17 8.5 -31.5t23.5 -23.5v-105h64v105q15 9 23.5 23.5t8.5 31.5q0 27 -18.5 45.5t-45.5 18.5z" />
    <glyph glyph-name="bullseye" unicode="&#xf140;" 
d="M512 800q-113 0 -210 -57q-94 -55 -149 -149q-57 -97 -57 -210t57 -210q55 -94 149 -149q97 -57 210 -57t210 57q94 55 149 149q57 97 57 210t-57 210q-55 94 -149 149q-97 57 -210 57zM512 768q104 0 194 -52q87 -51 138 -138q52 -90 52 -194t-52 -194
q-51 -87 -138 -138q-90 -52 -194 -52t-194 52q-87 51 -138 138q-52 90 -52 194t52 194q51 87 138 138q90 52 194 52zM512 704q-87 0 -161 -44q-73 -42 -115 -115q-44 -74 -44 -161t44 -161q42 -73 115 -115q74 -44 161 -44t161 44q73 42 115 115q44 74 44 161t-44 161
q-42 73 -115 115q-74 44 -161 44zM512 640q70 0 128.5 -34.5t93 -93t34.5 -128.5t-34.5 -128.5t-93 -93t-128.5 -34.5t-128.5 34.5t-93 93t-34.5 128.5t34.5 128.5t93 93t128.5 34.5zM512 576q-52 0 -96 -26t-70 -70t-26 -96t26 -96t70 -70t96 -26t96 26t70 70t26 96t-26 96
t-70 70t-96 26zM512 512q35 0 64.5 -17t46.5 -46.5t17 -64.5t-17 -64.5t-46.5 -46.5t-64.5 -17t-64.5 17t-46.5 46.5t-17 64.5t17 64.5t46.5 46.5t64.5 17zM512 448q-27 0 -45.5 -18.5t-18.5 -45.5t18.5 -45.5t45.5 -18.5t45.5 18.5t18.5 45.5t-18.5 45.5t-45.5 18.5z" />
    <glyph glyph-name="horizontal-ellipsis" unicode="&#xf141;" 
d="M192 448q-27 0 -45.5 -18.5t-18.5 -45.5t18.5 -45.5t45.5 -18.5t45.5 18.5t18.5 45.5t-18.5 45.5t-45.5 18.5zM512 448q-27 0 -45.5 -18.5t-18.5 -45.5t18.5 -45.5t45.5 -18.5t45.5 18.5t18.5 45.5t-18.5 45.5t-45.5 18.5zM832 448q-27 0 -45.5 -18.5t-18.5 -45.5
t18.5 -45.5t45.5 -18.5t45.5 18.5t18.5 45.5t-18.5 45.5t-45.5 18.5z" />
    <glyph glyph-name="vertical-ellipsis" unicode="&#xf142;" 
d="M512 704q-27 0 -45.5 -18.5t-18.5 -45.5t18.5 -45.5t45.5 -18.5t45.5 18.5t18.5 45.5t-18.5 45.5t-45.5 18.5zM512 448q-27 0 -45.5 -18.5t-18.5 -45.5t18.5 -45.5t45.5 -18.5t45.5 18.5t18.5 45.5t-18.5 45.5t-45.5 18.5zM512 192q-27 0 -45.5 -18.5t-18.5 -45.5
t18.5 -45.5t45.5 -18.5t45.5 18.5t18.5 45.5t-18.5 45.5t-45.5 18.5z" />
    <glyph glyph-name="rss-square" unicode="&#xf143;" 
d="M160 736v-704h704v704h-704zM224 672h576v-576h-576v576zM384 576q-35 0 -64 -6v-66q31 8 64 8q69 0 128 -34.5t93.5 -93.5t34.5 -128q0 -33 -8 -64h66q6 29 6 64q0 87 -44 161q-42 73 -115 115q-74 44 -161 44zM384 448q-33 0 -64 -11v-71q31 18 65 18t63.5 -17
t46.5 -46.5t17 -63.5t-18 -65h71q11 31 11 64q0 52 -26 96t-70 70t-96 26zM384 320q-27 0 -45.5 -18.5t-18.5 -45.5t18.5 -45.5t45.5 -18.5t45.5 18.5t18.5 45.5t-18.5 45.5t-45.5 18.5z" />
    <glyph glyph-name="play-circle" unicode="&#xf144;" 
d="M512 768q-104 0 -194 -53q-87 -50 -137 -137q-53 -90 -53 -194t53 -194q50 -87 137 -138q90 -52 194 -52t194 52q87 51 138 138q52 90 52 194t-52 194q-51 87 -138 137q-90 53 -194 53zM512 704q87 0 162 -44q72 -42 114 -114q44 -75 44 -162t-44 -162q-42 -72 -114 -114
q-75 -44 -162 -44t-162 44q-72 42 -114 114q-44 75 -44 162t44 162q42 72 114 114q75 44 162 44zM384 604v-440l48 28l288 164l48 28l-48 28l-288 164zM448 494l191 -110l-191 -110v220z" />
    <glyph glyph-name="minus-square" unicode="&#xf146;" 
d="M160 736v-704h704v704h-704zM224 672h576v-576h-576v576zM352 416v-64h320v64h-320z" />
    <glyph glyph-name="check-square" unicode="&#xf14a;" 
d="M128 768v-768h768v506l-64 -64v-378h-640v640h634l64 64h-762zM873 663l-361 -361l-137 137l-46 -46l160 -160l23 -22l23 22l384 384z" />
    <glyph glyph-name="pen-square" unicode="&#xf14b;" 
d="M160 736v-704h704v704h-704zM224 672h576v-576h-576v576zM644 612q-40 0 -68 -28l-264 -265l-1 -10l-15 -106l-7 -43l43 7l106 15l10 1l264 265q28 28 28 68t-28 68t-68 28zM644 548q14 0 23 -9t9.5 -21.5t-8.5 -22.5l-250 -252l-53 -7l7 53l250 250q9 9 22 9z" />
    <glyph glyph-name="share-square" unicode="&#xf14d;" 
d="M749 754l-45 -45l133 -133h-309q-48 0 -88.5 -23.5t-64 -64t-23.5 -88.5t23.5 -88.5t64 -64t88.5 -23.5h16v64h-16q-30 0 -56 15t-41 41t-15 56t15 56t41 41t56 15h310l-134 -133l46 -45l210 210zM160 736v-704h704v320l-64 -64v-192h-576v576h347l64 64h-475z" />
    <glyph glyph-name="compass" unicode="&#xf14e;" 
d="M512 768q-104 0 -194 -53q-87 -50 -137 -137q-53 -90 -53 -194t53 -194q50 -87 137 -138q90 -52 194 -52t194 52q87 51 138 138q52 90 52 194t-52 194q-51 87 -138 137q-90 53 -194 53zM479 702h1v-30h64v30q75 -7 137.5 -46.5t102 -102t46.5 -137.5h-30v-64h30
q-7 -75 -46.5 -137.5t-102 -102t-137.5 -46.5v30h-64v-30q-75 7 -137.5 46.5t-102 102t-46.5 137.5h30v64h-30q7 75 46.5 137.5t101.5 101.5t137 47zM720 592l-267 -149l-149 -267l267 149zM512 432q20 0 34 -14t14 -34t-14 -34t-34 -14t-34 14t-14 34t14 34t34 14z" />
    <glyph glyph-name="caret-square-down" unicode="&#xf150;" 
d="M160 736v-704h704v704h-704zM224 672h576v-576h-576v576zM343 487l-46 -46l192 -192l23 -22l23 22l192 192l-46 46l-169 -169z" />
    <glyph glyph-name="caret-square-up" unicode="&#xf151;" 
d="M160 736v-704h704v704h-704zM224 672h576v-576h-576v576zM512 541l-23 -22l-192 -192l46 -46l169 169l169 -169l46 46l-192 192z" />
    <glyph glyph-name="caret-square-right" unicode="&#xf152;" 
d="M160 736v-704h704v704h-704zM224 672h576v-576h-576v576zM455 599l-46 -46l169 -169l-169 -169l46 -46l192 192l22 23l-22 23z" />
    <glyph glyph-name="euro-sign" unicode="&#xf153;" 
d="M576 768q-74 0 -140 -38q-63 -37 -107.5 -102.5t-62.5 -147.5h-74v-64h66l-1 -9q-1 -15 -1 -23t1 -23l1 -9h-66v-64h74q18 -82 62.5 -147.5t107.5 -102.5q66 -38 140 -38q64 0 122 29q56 28 100 78l-49 42q-35 -41 -79.5 -63t-93.5 -22q-55 0 -105 28.5t-86.5 79.5
t-52.5 116h276v64h-287q-1 12 -1 32t1 32h287v64h-276q16 65 52.5 116t86.5 79.5t105 28.5q49 0 93.5 -22t79.5 -63l49 42q-44 50 -100 78q-58 29 -122 29z" />
    <glyph glyph-name="pound-sign" unicode="&#xf154;" 
d="M566 736q-11 0 -26 -2q-51 -7 -94 -36t-68 -74q-26 -47 -26 -101q0 -45 21 -107h-85v-64h109q9 -24 16 -53q15 -60 9 -102q-9 -53 -53 -101h-113v-64h512v160h-64v-96h-254q57 94 25 219q-2 10 -8 28l-3 9h176v64h-197q-14 39 -19 59q-8 29 -8 48q0 51 30.5 90t76.5 53
q49 14 97 -5l24 59q-40 16 -78 16z" />
    <glyph glyph-name="dollar-sign" unicode="&#xf155;" 
d="M480 800v-67q-45 -8 -81.5 -35t-57.5 -67.5t-21 -86.5q0 -41 18 -75q16 -31 44 -54q22 -17 53 -32q18 -9 56 -24l9 -4q74 -30 102 -52q20 -16 28 -32q10 -19 10 -47q0 -34 -17.5 -63.5t-46.5 -47t-64 -17.5t-64.5 17t-46.5 46.5t-17 64.5v32h-64v-32q0 -47 21 -87.5
t57.5 -67t81.5 -34.5v-67h64v67q45 8 81.5 35t57.5 67.5t21 86.5q0 41 -18 75q-16 31 -44 54q-23 18 -56 34q-19 10 -59 26l-3 1q-38 15 -57 24q-28 14 -45 27q-20 16 -28 32q-10 19 -10 47q0 35 17 64t46.5 46.5t64.5 17.5t64.5 -17t46.5 -46.5t17 -64.5v-32h64v32
q0 47 -21 87.5t-57.5 67t-81.5 34.5v67h-64z" />
    <glyph glyph-name="indian-rupee-sign" unicode="&#xf156;" 
d="M256 736v-64h128q44 0 87 -24q46 -28 64 -72h-279v-64h287q-5 -39 -32 -70q-23 -28 -60 -43q-34 -15 -67 -15h-128v-79l328 -273h100l-346 288h46q52 0 102 24.5t82 66.5q34 45 39 101h161v64h-166q-14 55 -58 96h224v64h-512z" />
    <glyph glyph-name="yen-sign" unicode="&#xf157;" 
d="M230 736l220 -352h-130v-64h160v-64h-160v-64h160v-160h64v160h160v64h-160v64h160v64h-130l220 352h-76l-206 -331l-206 331h-76z" />
    <glyph glyph-name="ruble-sign" unicode="&#xf158;" 
d="M352 704v-320h-64v-64h64v-64h-64v-64h64v-128h64v128h160v64h-160v64h192q52 0 96 26t70 70t26 96t-26 96t-70 70t-96 26h-256zM416 640h192q35 0 64.5 -17t46.5 -46.5t17 -64.5t-17 -64.5t-46.5 -46.5t-64.5 -17h-192v256z" />
    <glyph glyph-name="won-sign" unicode="&#xf159;" 
d="M128 704l58 -192h-58v-64h77l19 -64h-96v-64h115l77 -256h64l64 256h128l64 -256h64l77 256h115v64h-96l19 64h77v64h-58l58 192h-64l-58 -192h-182l-48 192h-64l-48 -192h-182l-58 192h-64zM512 576l16 -64h-32zM269 448h147l-16 -64h-112zM480 448h64l16 -64h-96z
M608 448h147l-19 -64h-112zM307 320h77l-35 -140zM640 320h77l-42 -140z" />
    <glyph glyph-name="file" unicode="&#xf15b;" 
d="M192 800v-832h640v621l-9 10l-192 192l-10 9h-429zM256 736h320v-192h192v-512h-512v704zM640 690l82 -82h-82v82z" />
    <glyph glyph-name="alternate-file" unicode="&#xf15c;" 
d="M192 800v-832h640v621l-9 10l-192 192l-10 9h-429zM256 736h320v-192h192v-512h-512v704zM640 690l82 -82h-82v82zM352 480v-64h320v64h-320zM352 352v-64h320v64h-320zM352 224v-64h320v64h-320z" />
    </font>
</defs>
</svg>
